<svg width="222" height="47" viewBox="0 0 222 47" fill="none" xmlns="http://www.w3.org/2000/svg">
<path d="M116.861 8.18823C117.277 7.87309 118.016 8.08767 118.421 8.2125C118.429 8.21463 118.436 8.21675 118.444 8.21887C118.54 8.24828 118.632 8.26361 118.74 8.28155C119.002 8.32551 119.351 8.38153 120.061 8.70807C120.28 8.73168 120.494 8.75995 120.713 8.79527C122.644 9.11544 124.626 9.73566 126.626 10.8956C127.103 11.1681 127.559 11.4772 127.984 11.8146C128.018 11.8336 128.052 11.8532 128.087 11.8731C128.76 12.2524 129.528 12.8285 129.852 13.3215C130.268 13.945 130.458 14.4024 130.601 14.776C131.758 16.6364 132.358 18.4695 132.977 20.1626C133.011 20.2581 133.046 20.3534 133.08 20.4485C133.117 20.5038 133.157 20.7007 133.186 20.7606C133.283 21.2171 133.381 21.6743 133.481 22.1258C133.594 22.6331 133.708 23.1411 133.822 23.6452C133.951 23.9276 134.088 24.1963 134.214 24.4444C134.39 24.7955 134.543 25.11 134.615 25.3784C134.791 26.0254 134.753 26.7903 134.714 27.3519C134.707 27.4442 134.701 27.5305 134.696 27.6106C134.787 28.045 134.876 28.4798 134.96 28.9159C134.933 28.9474 134.905 28.9792 134.877 29.0116C134.518 29.4138 134.555 29.8688 134.595 30.5899C134.612 30.9038 134.629 31.2679 134.612 31.697C134.6 31.9738 134.449 32.1182 134.326 32.2354C134.29 32.2699 134.256 32.3022 134.229 32.3347C134.135 32.4462 134.24 32.5606 134.362 32.6973C134.521 32.8741 134.711 33.09 134.539 33.3733C133.989 34.2709 134.342 34.6669 134.613 34.9806C134.692 35.072 134.763 35.155 134.801 35.2391C134.924 35.5122 134.774 35.8893 134.577 36.1662C134.421 36.3857 134.535 36.8477 134.69 37.2088C134.748 37.3448 134.736 37.523 134.72 37.7324C134.714 37.8064 134.708 37.8843 134.704 37.9657C134.706 37.9803 134.696 38.0242 134.697 38.0388C134.685 38.1964 134.682 38.3656 134.71 38.548C134.816 39.2498 134.852 39.6295 134.881 39.9323C134.889 40.0188 134.896 40.0992 134.904 40.1798C134.928 40.4343 134.929 40.7456 134.927 41.0578C134.925 41.4322 134.92 41.8058 134.952 42.0954C134.723 42.7862 134.471 43.4481 134.221 44.1062C134.092 44.4431 133.697 44.7137 133.111 44.8483C132.524 44.9852 131.795 44.9825 131.068 44.8361C130.342 44.6887 129.669 44.4072 129.182 44.05C128.695 43.6955 128.438 43.2886 128.452 42.928C128.48 42.2008 128.509 41.4766 128.549 40.7778C128.598 39.9235 128.66 39.1168 128.772 38.3152C128.817 37.998 128.864 37.6789 128.912 37.356L128.903 37.4446C128.933 37.1988 128.965 36.9509 128.997 36.704C129.004 36.6453 129.012 36.5866 129.02 36.5277C128.871 36.0343 128.73 35.5469 128.685 35.208C128.648 34.9276 128.752 34.7289 128.84 34.5564C128.901 34.4379 128.954 34.3328 128.949 34.2248C128.946 34.1668 128.936 34.0875 128.924 33.9919C128.876 33.6011 128.787 32.943 128.955 32.3369C129.03 32.0679 129.178 31.7523 129.317 31.4481C129.516 31.0134 129.695 30.6012 129.623 30.4018C129.498 30.0517 129.562 29.6406 129.615 29.2741C129.665 28.9254 129.705 28.6176 129.567 28.459C129.401 28.2683 129.444 28.0913 129.506 27.8238C129.549 27.6387 129.6 27.4109 129.594 27.1091C129.587 26.7608 129.657 26.5053 129.716 26.2852C129.798 25.9774 129.858 25.7414 129.637 25.4428C129.392 25.1101 129.209 24.7595 129.214 24.4551C129.216 24.3159 129.181 24.1662 129.143 24.008C129.092 23.7998 129.038 23.5827 129.061 23.3682C129.081 23.1926 129.191 23.0236 129.287 22.8745C129.317 22.8279 129.346 22.7832 129.37 22.7406C129.338 22.6092 129.304 22.4767 129.268 22.3469C129.24 22.3312 129.21 22.315 129.178 22.2982C129.02 22.213 128.827 22.1095 128.703 21.9568C128.698 21.9516 128.694 21.9464 128.69 21.9412L128.792 22.2422C128.575 22.0265 128.551 21.7708 128.522 21.5002C128.499 21.2857 128.473 21.0619 128.346 20.8543C128.26 20.7124 128.125 20.5706 127.991 20.435C127.791 20.2322 127.593 20.0452 127.553 19.8623C127.537 19.7939 127.588 19.6992 127.637 19.6044C127.637 19.6039 127.637 19.6034 127.638 19.6029C127.641 19.5965 127.644 19.5901 127.647 19.5837C127.368 19.2372 127.074 18.919 126.77 18.6375C126.73 18.6227 126.691 18.6079 126.652 18.5935C126.462 18.5225 126.279 18.4645 126.098 18.4841C125.901 18.5042 125.658 18.3654 125.405 18.2539C125.239 18.1801 125.07 18.1169 124.912 18.1015C124.82 18.0927 124.826 17.977 124.826 17.8552C124.827 17.742 124.823 17.6236 124.745 17.5957C124.706 17.5817 124.649 17.5887 124.589 17.5977C124.536 17.6056 124.481 17.6151 124.433 17.612C124.387 17.6089 124.342 17.5199 124.275 17.4072C124.234 17.3377 124.185 17.2592 124.125 17.1872C124.037 17.1674 123.951 17.1505 123.863 17.1348C123.694 17.0981 123.519 17.0624 123.341 17.0291C123.256 17.0841 123.17 17.1653 123.085 17.279C123.024 17.3607 122.962 17.4622 122.898 17.5661C122.812 17.7075 122.723 17.8541 122.635 17.965C122.565 18.0515 122.512 18.0774 122.498 18.0269C122.491 18.0034 122.493 17.9639 122.495 17.9281C122.497 17.8872 122.499 17.8507 122.487 17.8479C122.478 17.8459 122.461 17.8696 122.44 17.8983C122.406 17.9441 122.362 18.0033 122.328 17.9949C122.201 17.964 122.061 17.8982 121.92 17.835C121.764 17.7648 121.604 17.6977 121.466 17.6841C121.311 17.6685 121.121 17.5155 120.92 17.3648C120.779 17.2593 120.635 17.1557 120.502 17.0989C120.374 17.0434 120.218 17.0719 120.071 17.1016C119.891 17.1368 119.722 17.1732 119.598 17.0599C119.573 17.037 119.557 16.9201 119.536 16.774C119.521 16.6704 119.504 16.5519 119.479 16.4413C119.298 16.4121 119.12 16.3802 118.937 16.3449C118.928 16.3591 118.919 16.3735 118.91 16.3883C118.91 16.3886 118.91 16.389 118.91 16.3893C118.709 16.7223 118.442 17.1795 118.193 16.8529C118.129 16.7697 118.1 16.6278 118.073 16.5001C118.047 16.3746 118.024 16.2623 117.972 16.2331C117.913 16.2 117.83 16.2651 117.742 16.3364C117.618 16.4365 117.48 16.5489 117.366 16.4176C117.359 16.4087 117.35 16.3989 117.342 16.389C117.26 16.2956 117.139 16.1576 117.027 15.8945C116.631 15.7876 116.23 15.6733 115.827 15.5556C115.154 15.3592 114.474 15.1532 113.786 14.9551C113.45 14.8577 113.141 14.5022 112.92 13.9464C112.701 13.3898 112.588 12.6822 112.615 11.9556C112.643 11.2291 112.811 10.5323 113.085 9.99632C113.361 9.46107 113.722 9.13574 114.089 9.07464C114.685 8.97636 115.286 8.88368 115.892 8.80854C115.924 8.79578 115.957 8.78353 115.989 8.7722C116.229 8.68784 116.463 8.50103 116.699 8.31505C116.753 8.27234 116.806 8.22951 116.861 8.18823Z" fill="black"/>
<path d="M129.433 32.164C129.044 32.4423 128.459 32.1931 128.137 32.0641C128.131 32.0618 128.125 32.0596 128.119 32.0574C128.043 32.0267 127.968 32.0102 127.882 31.9919C127.676 31.9493 127.397 31.8879 126.848 31.6029C126.682 31.5929 126.514 31.5808 126.351 31.5667C125.134 31.4571 123.983 31.3486 123.256 31.3382C123.166 31.2672 122.874 31.2752 122.512 31.3978C122.501 31.4077 122.489 31.418 122.477 31.4286C122.247 31.6303 121.934 31.9579 121.625 32.082C121.23 32.2381 120.919 32.3568 120.66 32.4514C119.511 33.3228 118.399 34.4932 117.481 35.8042C117.193 36.2162 116.923 36.6438 116.674 37.0859C116.644 37.1387 116.614 37.1918 116.585 37.2451C116.438 37.5125 116.333 37.7737 116.276 38.0068C116.298 38.1828 116.358 38.3296 116.427 38.4363C116.524 38.5883 116.633 38.6581 116.671 38.7028C116.741 38.7807 116.7 38.847 116.697 38.9974L116.249 38.3843C116.293 38.4662 116.338 38.5466 116.382 38.6205C116.41 38.6674 116.438 38.7114 116.465 38.7517C116.695 38.8847 116.944 38.9993 117.208 39.0981C117.209 39.1326 117.21 39.1681 117.211 39.2045C117.226 39.6603 117.526 39.8217 118.025 40.0122C118.243 40.0952 118.503 40.1842 118.815 40.3047C119.016 40.3818 119.087 40.5572 119.148 40.7014C119.165 40.7438 119.183 40.7834 119.202 40.8166C119.269 40.9308 119.387 40.8526 119.523 40.758C119.701 40.6352 119.903 40.4832 120.102 40.691C120.756 41.3516 121.171 41.0085 121.436 40.752C121.518 40.6763 121.589 40.6074 121.66 40.571C121.891 40.4536 122.195 40.6003 122.437 40.7875C122.508 40.8437 122.609 40.8592 122.724 40.8463L122.549 40.8511C122.733 40.816 122.942 40.7009 123.108 40.5711C123.21 40.4922 123.354 40.4754 123.525 40.4526C123.701 40.4292 123.905 40.3993 124.112 40.2884C124.632 40.007 124.903 39.8501 125.123 39.726C125.187 39.6901 125.243 39.6573 125.302 39.6231C125.485 39.5154 125.72 39.4043 125.956 39.288C126.24 39.1488 126.529 39.0012 126.74 38.85C127.369 38.7649 128.023 38.6777 128.68 38.5775C129.02 38.5258 129.432 38.7347 129.847 39.1695C130.256 39.6069 130.632 40.2315 130.882 40.9293C131.132 41.6269 131.236 42.3494 131.177 42.9514C131.112 43.555 130.889 43.985 130.552 44.1601C129.88 44.5094 129.188 44.8519 128.47 45.1544C127.592 45.5231 126.667 45.8359 125.681 46.0203C124.993 46.1492 124.28 46.2335 123.57 46.2677C123.496 46.2713 123.423 46.2742 123.35 46.2767C123.203 46.3356 123.056 46.3918 122.912 46.444C122.862 46.4376 122.713 46.4607 122.665 46.4507C122.232 46.5719 121.814 46.6589 121.495 46.6845C121.14 46.7128 120.889 46.5937 120.678 46.4903C120.531 46.4188 120.404 46.3544 120.268 46.347C120.194 46.3429 120.093 46.3423 119.971 46.3403C119.477 46.3342 118.605 46.2887 117.866 45.9188C117.54 45.7566 117.184 45.4942 116.854 45.2291C116.383 44.8515 115.977 44.4681 115.707 44.4142C115.233 44.3217 114.775 43.9842 114.397 43.6586C114.034 43.3484 113.742 43.0525 113.477 43.0034C113.159 42.944 112.998 42.7347 112.787 42.4179C112.705 42.2936 112.615 42.1514 112.506 41.9909C112.433 41.8777 112.162 41.5951 112.123 41.4665C112.061 41.2994 111.993 41.1127 111.918 40.8995C111.72 40.3315 111.729 39.8791 111.759 39.5219C111.809 39.0116 111.887 38.6709 111.756 38.1367C111.613 37.5389 111.645 36.9074 111.846 36.5016C111.936 36.3176 112.011 36.0998 112.096 35.884C112.208 35.5973 112.341 35.3092 112.534 35.0972C112.558 35.0711 112.583 35.0468 112.61 35.0241C112.743 34.9251 112.911 34.872 113.062 34.8252C113.118 34.808 113.171 34.7916 113.219 34.7738C113.291 34.644 113.363 34.5148 113.434 34.3849C113.426 34.3525 113.416 34.3177 113.407 34.2815C113.359 34.0997 113.301 33.8774 113.337 33.6601C113.392 33.3177 113.61 33.1161 113.841 32.9078C114.021 32.7451 114.21 32.578 114.341 32.3314C114.431 32.1625 114.502 31.9496 114.575 31.737C114.684 31.4222 114.799 31.1094 114.974 30.9591C115.039 30.9024 115.155 30.8968 115.269 30.8923C115.27 30.8924 115.27 30.8925 115.271 30.8926C115.279 30.8923 115.286 30.8919 115.294 30.8915C115.558 30.4123 115.833 29.9302 116.129 29.447C116.143 29.3947 116.156 29.3424 116.17 29.2906C116.241 29.0351 116.314 28.7889 116.306 28.5694C116.296 28.3335 116.514 27.9478 116.779 27.5403C116.953 27.2724 117.146 26.9962 117.291 26.7446C117.378 26.5951 117.556 26.5644 117.741 26.5345C117.916 26.5056 118.088 26.484 118.211 26.3596C118.272 26.298 118.322 26.2111 118.378 26.1186C118.428 26.0363 118.484 25.9487 118.552 25.8716C118.615 25.8009 118.82 25.7194 119.085 25.629C119.254 25.5702 119.441 25.5112 119.645 25.4411C120.103 25.124 120.626 24.8272 121.231 24.5926C121.299 24.5184 121.359 24.4376 121.41 24.3487C121.432 24.2996 121.451 24.2476 121.467 24.1924C121.498 24.0838 121.518 23.9588 121.54 23.8309C121.57 23.6568 121.604 23.4767 121.673 23.3247C121.728 23.2059 121.812 23.146 121.882 23.1764C121.914 23.1906 121.944 23.2237 121.969 23.2539C121.999 23.2884 122.025 23.3192 122.049 23.3137C122.066 23.3097 122.079 23.2789 122.095 23.2415C122.121 23.1818 122.155 23.1047 122.226 23.0901C122.487 23.036 122.781 23.0174 123.063 23.0087C123.373 22.999 123.666 23.0006 123.896 22.9663C124.15 22.9277 124.517 23.0179 124.863 23.1196C125.108 23.1902 125.341 23.2652 125.542 23.2999C125.735 23.3338 125.942 23.2844 126.138 23.2384C126.378 23.1833 126.602 23.1332 126.784 23.2384C126.82 23.2597 126.858 23.3756 126.905 23.5207C126.938 23.6235 126.975 23.7412 127.02 23.8506C127.251 23.8706 127.482 23.8982 127.705 23.9315C127.715 23.9172 127.725 23.9026 127.735 23.8878C127.735 23.8874 127.735 23.8871 127.735 23.8867C127.961 23.5514 128.283 23.0955 128.603 23.4337C128.684 23.5196 128.722 23.6635 128.756 23.793C128.789 23.9203 128.819 24.0341 128.88 24.066C128.949 24.1022 129.046 24.0412 129.153 23.9756C129.305 23.8836 129.47 23.7809 129.6 23.922C129.609 23.9316 129.619 23.9422 129.628 23.9528C129.724 24.0537 129.858 24.2024 129.971 24.4764C130.418 24.622 130.861 24.7859 131.29 24.9605C132.01 25.2525 132.708 25.5766 133.395 25.9097C133.73 26.073 133.984 26.4885 134.093 27.0801C134.201 27.6724 134.16 28.3885 133.977 29.092C133.793 29.7955 133.481 30.4399 133.114 30.9107C132.747 31.3806 132.354 31.6337 132.011 31.633C131.453 31.6306 130.899 31.6364 130.354 31.6423C130.323 31.6513 130.293 31.6598 130.263 31.6675C130.041 31.7249 129.81 31.8867 129.587 32.0515C129.537 32.0895 129.484 32.1272 129.433 32.164Z" fill="black"/>
<path d="M183.47 44.5884C183.011 44.8091 182.362 44.4422 182.005 44.2302C181.999 44.2265 181.992 44.2228 181.985 44.2191C181.902 44.1696 181.815 44.1332 181.717 44.0914C181.481 43.9907 181.156 43.857 180.554 43.3686C180.349 43.2923 180.147 43.2107 179.944 43.1207C178.567 42.5045 177.153 41.6257 175.873 40.3026C175.592 40.1477 175.153 39.3792 174.952 39.1291C174.654 38.3193 174.417 37.4973 174.227 36.6752C174.214 36.6492 174.202 36.6227 174.189 36.596C173.945 36.0788 173.667 35.4295 173.651 34.972C173.629 34.3919 173.666 33.989 173.706 33.6614C173.488 31.9018 173.392 30.1864 173.253 28.5039C173.209 27.9776 173.161 27.4535 173.105 26.931C173.053 26.451 172.998 25.9723 172.94 25.4918C172.843 25.219 172.735 24.9586 172.636 24.7149C172.498 24.3758 172.378 24.0683 172.333 23.8133C172.224 23.1987 172.335 22.4912 172.426 21.9739C172.441 21.8891 172.455 21.8091 172.467 21.7351C172.417 21.3226 172.367 20.9142 172.321 20.5017C172.35 20.4747 172.38 20.4476 172.412 20.4201C172.803 20.0762 172.806 19.6515 172.823 18.9783C172.83 18.687 172.841 18.3471 172.89 17.951C172.921 17.6961 173.082 17.573 173.213 17.4732C173.251 17.4438 173.287 17.4163 173.317 17.388C173.418 17.2908 173.322 17.1779 173.209 17.0426C173.063 16.8676 172.887 16.6546 173.077 16.4036C173.682 15.6115 173.349 15.2195 173.096 14.9138C173.022 14.8245 172.956 14.7432 172.922 14.6633C172.812 14.4054 172.979 14.0673 173.188 13.8221C173.189 13.8214 173.189 13.8207 173.19 13.8199C173.183 13.7519 173.247 13.5553 173.25 13.487C173.442 13.2991 173.424 12.8249 173.351 12.446C173.323 12.3013 173.372 12.135 173.432 11.9421C173.494 11.7427 173.567 11.5182 173.573 11.2582C173.589 10.6028 173.605 10.2721 173.617 10.0022C173.62 9.92694 173.624 9.85587 173.627 9.78358C173.635 9.56186 173.672 9.28977 173.707 9.02078C173.749 8.69813 173.792 8.36864 173.788 8.10807C174.077 7.53379 174.386 6.96012 174.691 6.38747C174.848 6.09446 175.261 5.89425 175.854 5.8376C176.446 5.78402 177.169 5.86905 177.876 6.093C178.582 6.31631 179.223 6.66354 179.674 7.05439C180.123 7.44781 180.341 7.86041 180.293 8.19962C180.195 8.88575 180.093 9.57196 179.963 10.2532C179.806 11.0801 179.607 11.8963 179.345 12.6604C179.163 13.1933 178.974 13.6985 178.802 14.162C178.785 14.2102 178.767 14.2577 178.749 14.3051C178.778 14.515 178.808 14.7175 178.832 14.9041L178.917 14.4302C178.97 14.6663 179.01 14.8811 179.024 15.0545C179.047 15.3239 178.932 15.5103 178.834 15.6688C178.767 15.7781 178.707 15.875 178.707 15.978C178.706 16.033 178.711 16.1099 178.717 16.2018C178.741 16.5775 178.788 17.2102 178.577 17.7717C178.483 18.0223 178.312 18.3069 178.15 18.5851C177.919 18.9803 177.708 19.3536 177.763 19.5473C177.86 19.8852 177.761 20.2693 177.677 20.6075C177.596 20.9316 177.529 21.2166 177.653 21.377C177.801 21.5694 177.741 21.7338 177.655 21.9784C177.595 22.1473 177.523 22.3581 177.5 22.6413C177.473 22.9669 177.378 23.2031 177.298 23.4028C177.186 23.6829 177.103 23.8996 177.291 24.1995C177.5 24.5317 177.645 24.8809 177.607 25.1647C177.59 25.2951 177.609 25.4411 177.629 25.592C177.656 25.7914 177.685 26.0021 177.637 26.2016C177.597 26.3661 177.469 26.5115 177.355 26.6431C177.32 26.6841 177.286 26.7235 177.257 26.7613C177.273 26.8888 177.291 27.0157 177.311 27.142C177.337 27.1596 177.365 27.178 177.394 27.1971C177.54 27.2926 177.72 27.4113 177.823 27.5699C177.987 27.8206 177.943 28.0662 177.897 28.3276C177.862 28.5302 177.827 28.7434 177.892 28.969C177.936 29.1228 178.027 29.2889 178.118 29.454C178.253 29.6987 178.388 29.9338 178.373 30.1226C178.368 30.193 178.292 30.269 178.216 30.3448C178.216 30.3452 178.216 30.3456 178.215 30.3459C178.21 30.3511 178.205 30.3562 178.2 30.3614C178.362 30.778 178.54 31.1878 178.73 31.5891C178.762 31.6196 178.794 31.6504 178.826 31.6808C178.98 31.8296 179.132 31.9729 179.31 32.0407C179.502 32.114 179.682 32.3863 179.877 32.6628C180.005 32.8443 180.14 33.0302 180.284 33.1659C180.368 33.245 180.313 33.3687 180.257 33.4964C180.205 33.6155 180.152 33.7388 180.211 33.83C180.24 33.8754 180.297 33.9157 180.357 33.9579C180.411 33.995 180.467 34.0339 180.511 34.0802C180.551 34.1234 180.549 34.255 180.548 34.4246C180.549 34.5297 180.55 34.6491 180.561 34.7702C180.735 35.028 180.912 35.283 181.089 35.5321C181.19 35.5536 181.309 35.556 181.45 35.5342C181.551 35.5185 181.667 35.49 181.785 35.4604C181.946 35.4201 182.112 35.3777 182.254 35.3616C182.304 35.356 182.343 35.3571 182.368 35.3643L181.297 33.9985C181.323 33.9889 181.334 33.9956 181.326 34.0205C181.32 34.0415 181.3 34.075 181.283 34.1054C181.263 34.1402 181.245 34.1714 181.252 34.1757C181.257 34.1788 181.28 34.161 181.307 34.1395C181.35 34.1052 181.406 34.0607 181.425 34.0729C181.497 34.1188 181.564 34.198 181.637 34.2777C181.718 34.366 181.807 34.4544 181.903 34.4911C182.009 34.5319 182.096 34.7073 182.2 34.8855C182.272 35.01 182.353 35.1358 182.44 35.2145C182.526 35.2924 182.658 35.2947 182.787 35.2958C182.942 35.2966 183.092 35.2956 183.161 35.427C183.175 35.4538 183.155 35.5685 183.132 35.7126C183.116 35.8149 183.097 35.9316 183.088 36.0424C183.232 36.1063 183.375 36.173 183.522 36.2431C183.533 36.2311 183.545 36.219 183.556 36.2066C183.556 36.2063 183.557 36.206 183.557 36.2057C183.817 35.9255 184.159 35.5356 184.291 35.8996C184.325 35.9921 184.314 36.135 184.306 36.2639C184.298 36.3904 184.291 36.5038 184.329 36.5424C184.372 36.586 184.459 36.5387 184.554 36.4872C184.689 36.4151 184.836 36.3328 184.903 36.4821C184.908 36.4923 184.913 36.5034 184.918 36.5147C184.969 36.6218 185.042 36.779 185.08 37.0564C185.407 37.2383 185.74 37.428 186.077 37.622C186.638 37.9447 187.213 38.2799 187.798 38.6094C188.082 38.7704 188.288 39.1791 188.369 39.7655C188.448 40.3523 188.398 41.0656 188.214 41.769C188.03 42.4725 187.725 43.1188 187.357 43.5871C186.988 44.0545 186.584 44.2997 186.236 44.2866C185.666 44.2634 185.091 44.2335 184.512 44.1835C184.48 44.1895 184.447 44.1947 184.414 44.1991C184.171 44.232 183.913 44.3665 183.651 44.4987C183.591 44.529 183.531 44.5596 183.47 44.5884Z" fill="black"/>
<path d="M169.463 13.1675C169.618 12.8331 169.833 12.9981 169.951 13.0886C169.953 13.0901 169.955 13.0917 169.957 13.0932C169.985 13.1146 170.013 13.1223 170.046 13.1309C170.123 13.1513 170.229 13.1791 170.428 13.4224C170.494 13.4208 170.559 13.4229 170.624 13.4293C171.321 13.4991 171.986 13.8547 172.646 14.2626C172.655 14.2616 172.664 14.2605 172.673 14.2595C172.849 14.2392 173.067 14.2137 173.19 14.3519C173.348 14.5276 173.451 14.6867 173.535 14.8236C174.058 15.1468 174.585 15.4364 175.117 15.5715C175.2 15.5929 175.287 15.6105 175.37 15.6235C175.453 15.6363 175.533 15.6447 175.615 15.6486C175.766 15.6558 175.917 15.6509 176.064 15.6346C176.153 15.5615 176.235 15.4734 176.31 15.3913C176.415 15.276 176.506 15.1727 176.579 15.139C176.757 15.058 176.956 15.1844 177.109 15.276C177.134 15.291 177.158 15.3051 177.179 15.3172C177.297 15.2658 177.415 15.2097 177.532 15.1513C177.541 15.1798 177.551 15.2095 177.561 15.2399C177.687 15.6197 177.817 15.6071 178.024 15.5841C178.113 15.5741 178.22 15.562 178.346 15.5787C178.429 15.5892 178.484 15.7378 178.531 15.8589C178.544 15.8945 178.557 15.9278 178.569 15.9545C178.611 16.046 178.637 15.9402 178.666 15.8152C178.703 15.6532 178.746 15.4587 178.85 15.6195C179.178 16.132 179.26 15.7498 179.319 15.4616C179.337 15.3769 179.351 15.3006 179.37 15.2568C179.432 15.115 179.566 15.2317 179.673 15.401C179.759 15.5352 179.882 15.3757 179.962 15.1823C179.992 15.1091 180.047 15.1002 180.11 15.09C180.174 15.0798 180.249 15.0681 180.321 14.9806C180.5 14.7599 180.597 14.651 180.674 14.5639C180.696 14.5391 180.716 14.5164 180.736 14.4929C180.8 14.4187 180.887 14.3526 180.971 14.2862C181.071 14.2069 181.175 14.1257 181.25 14.0268C181.483 14.0857 181.724 14.1648 181.967 14.2429C182.092 14.2837 182.25 14.5959 182.416 15.1248C182.582 15.6542 182.738 16.3536 182.85 17.0861C182.963 17.8185 183.024 18.5326 183.023 19.0876C183.021 19.6422 182.96 19.9882 182.849 20.0648C182.625 20.2177 182.401 20.3701 182.176 20.4979C181.894 20.6547 181.616 20.7741 181.313 20.8161C181.106 20.8448 180.894 20.8558 180.677 20.8521C180.655 20.8517 180.633 20.8509 180.611 20.8502C180.455 21.0544 180.299 21.2412 180.176 21.3157C180.077 21.3769 179.988 21.2893 179.912 21.2145C179.859 21.1629 179.814 21.1171 179.774 21.1297C179.753 21.1365 179.725 21.151 179.689 21.1686C179.546 21.2403 179.304 21.3607 179.049 21.2062C178.94 21.1373 178.8 20.9938 178.674 20.8553C178.487 20.6578 178.32 20.4715 178.246 20.5378C178.116 20.6543 177.95 20.574 177.804 20.5014C177.666 20.4322 177.546 20.3704 177.483 20.4964C177.408 20.647 177.337 20.5893 177.231 20.5031C177.158 20.4433 177.07 20.37 176.952 20.3413C176.815 20.3082 176.719 20.2051 176.638 20.1172C176.524 19.9934 176.442 19.8998 176.313 20.069C176.171 20.257 176.02 20.3743 175.906 20.3106C175.855 20.2816 175.796 20.2862 175.733 20.2909C175.652 20.2971 175.565 20.303 175.491 20.2314C175.431 20.1723 175.385 20.0261 175.345 19.8967C175.333 19.8563 175.321 19.8177 175.31 19.7838C175.26 19.7831 175.211 19.7832 175.161 19.7848C175.154 19.7999 175.148 19.8161 175.141 19.8329C175.138 19.8413 175.135 19.8499 175.131 19.8586C175.08 19.9888 175.017 20.1484 174.945 20.2255C174.831 20.3476 174.742 20.2616 174.65 20.1703C174.578 20.0991 174.503 20.0248 174.411 20.0436C174.349 20.0564 174.274 20.1102 174.201 20.1635C174.091 20.2426 173.984 20.3202 173.917 20.261C173.892 20.2388 173.875 20.147 173.859 20.0557C173.859 20.0551 173.859 20.0546 173.859 20.054C173.858 20.0478 173.857 20.0418 173.856 20.0356C173.68 20.0915 173.502 20.1538 173.325 20.2198C173.308 20.2418 173.292 20.2634 173.275 20.2847C173.193 20.3886 173.114 20.4895 173.056 20.6372C172.992 20.7972 172.858 20.8822 172.718 20.9716C172.625 21.03 172.531 21.0904 172.449 21.175C172.402 21.2245 172.369 21.1282 172.336 21.0289C172.305 20.9363 172.274 20.8412 172.228 20.86C172.205 20.8694 172.178 20.9057 172.15 20.9445C172.124 20.9787 172.098 21.015 172.071 21.0362C172.046 21.0559 172 21.0009 171.941 20.9307C171.905 20.8874 171.864 20.8384 171.819 20.7972C171.688 20.8433 171.557 20.8871 171.426 20.9268C171.393 21.0056 171.36 21.1089 171.329 21.2426C171.307 21.3385 171.285 21.4536 171.263 21.5713C171.232 21.7313 171.2 21.8968 171.166 22.0278C171.138 22.1302 171.114 22.1697 171.105 22.1252C171.1 22.1044 171.099 22.066 171.098 22.0313C171.096 21.9915 171.095 21.9561 171.089 21.9566C171.085 21.957 171.079 21.9844 171.07 22.0176C171.057 22.0707 171.04 22.1392 171.024 22.1401C170.963 22.1436 170.897 22.1148 170.832 22.0865C170.761 22.055 170.69 22.0243 170.631 22.0394C170.564 22.0564 170.482 21.9441 170.4 21.832C170.343 21.7538 170.286 21.676 170.234 21.6413C170.183 21.6072 170.121 21.6588 170.061 21.7092C169.989 21.7697 169.92 21.8281 169.876 21.7321C169.867 21.7127 169.865 21.5993 169.862 21.4575C169.86 21.357 169.858 21.2421 169.853 21.1358C169.785 21.1291 169.718 21.1177 169.651 21.1023C169.647 21.1173 169.643 21.1325 169.639 21.1481C169.639 21.1484 169.639 21.1488 169.639 21.1492C169.548 21.5 169.423 21.9799 169.345 21.6782C169.325 21.6016 169.322 21.4633 169.319 21.3388C169.317 21.2166 169.314 21.1072 169.297 21.0825C169.277 21.0545 169.243 21.126 169.206 21.2036C169.154 21.3126 169.096 21.4345 169.062 21.3121C169.06 21.3038 169.058 21.2946 169.055 21.2855C169.031 21.1984 168.995 21.0695 168.972 20.8153C168.835 20.7341 168.7 20.6415 168.565 20.5417C168.341 20.3754 168.12 20.1892 167.898 20.003C167.791 19.9115 167.715 19.5606 167.689 19.0088C167.664 18.4563 167.69 17.7523 167.765 17.0291C167.84 16.3059 167.958 15.6119 168.096 15.0763C168.234 14.5414 168.38 14.2136 168.504 14.146C168.706 14.0373 168.907 13.9284 169.107 13.8294C169.118 13.8154 169.13 13.8019 169.141 13.7893C169.225 13.6955 169.314 13.4989 169.402 13.302C169.423 13.2568 169.443 13.2115 169.463 13.1675Z" fill="black"/>
<path d="M36.7179 26.636C36.8534 27.1838 36.4516 27.8545 36.28 28.1958C36.2769 28.2022 36.2737 28.2085 36.2706 28.2148C36.2284 28.2965 36.2025 28.3756 36.1752 28.4654C36.1725 28.4743 36.1698 28.4832 36.1671 28.4922C36.1207 28.6528 36.0395 28.8321 35.8162 29.3482C35.8229 29.5083 35.8341 29.674 35.8495 29.8459C35.993 31.706 37.0228 34.3231 38.5354 36.7337C38.5595 36.7606 38.5839 36.7879 38.6087 36.8153C39.0837 37.346 39.7108 37.9722 40.0046 38.4521C40.0707 38.5597 40.1313 38.6598 40.1872 38.7536C39.8628 38.6301 39.7319 38.7699 39.7818 38.8863C40.0679 39.1601 41.5312 39.1869 42.9502 39.1041C43.5765 39.1221 44.2002 38.9276 44.8565 38.4325C45.308 38.0925 45.7495 37.6227 46.1506 37.0763C46.5214 36.5717 46.8603 36.0097 47.1731 35.4127C47.3009 35.0315 47.3967 34.6569 47.4813 34.3059C47.6006 33.8115 47.6969 33.3654 47.8217 33.0141C48.1209 32.1733 48.6422 31.2705 49.0238 30.5849C49.0868 30.4716 49.1446 30.3681 49.1982 30.2692C49.3614 29.7521 49.5164 29.2365 49.6713 28.7103C49.6818 28.6641 49.6909 28.6187 49.6988 28.5741C49.7334 28.5623 49.7695 28.5491 49.8062 28.5356C50.2614 28.3617 50.3682 27.9488 50.3182 27.2917C50.2941 27.0008 50.2372 26.6535 50.1336 26.202C50.0656 25.9111 50.1502 25.705 50.2182 25.5302C50.2381 25.4791 50.2561 25.4304 50.2673 25.3832C50.3058 25.2216 50.154 25.1239 49.9725 25.0132C49.736 24.8672 49.4532 24.708 49.4312 24.2783C49.4139 23.9455 49.3556 23.6572 49.2739 23.3983C49.2349 23.049 48.8402 23.029 48.5788 23.075C48.473 23.0892 48.378 23.1057 48.301 23.0968C48.058 23.0703 47.8437 22.7735 47.6454 22.4656C47.4962 22.2204 46.9427 22.1243 46.4838 22.149C46.3109 22.1571 46.107 22.0855 45.8563 22.005C45.7943 21.9851 45.7298 21.9647 45.662 21.9448L46.1733 22.0518C46.0015 22.0379 45.8105 22.0409 45.6148 22.099C44.9695 22.2982 44.6753 22.4718 44.433 22.602C44.3647 22.6404 44.302 22.6772 44.2403 22.7158C44.0454 22.8376 43.8047 22.9775 43.5704 23.1403C43.2898 23.3339 43.0195 23.5621 42.8448 23.779C42.7622 23.8177 42.6794 23.8584 42.5963 23.9012L42.7339 23.799C42.2004 24.0989 41.6563 24.5262 40.9823 25.1192C40.5944 25.4584 40.0099 25.6181 39.3476 25.5412C38.6857 25.4634 38.0056 25.1553 37.4468 24.6685C36.8899 24.1796 36.4932 23.5467 36.3379 22.8928C36.184 22.2385 36.2845 21.6214 36.6252 21.1586C37.1863 20.3986 37.8745 19.5046 38.7633 18.7132C38.7884 18.6983 38.8546 18.64 38.8804 18.6263C39.0574 18.4817 39.2389 18.3418 39.4262 18.2062C40.8315 17.1833 42.5727 16.4339 44.4359 16.2432C45.219 16.1612 46.015 16.1693 46.794 16.2652C46.9194 16.2953 47.296 16.3405 47.4131 16.3948C47.8171 16.5306 48.225 16.6816 48.6395 16.855C48.7465 16.8998 48.855 16.9467 48.9627 16.9947C49.9214 17.1848 50.9628 17.5477 51.6993 18.0074C52.3058 18.3808 52.6725 18.8514 52.9525 19.2755C53.1469 19.5702 53.3055 19.8473 53.5014 20.1109C53.6065 20.2529 53.7518 20.45 53.9116 20.7081C53.9782 20.8157 54.0472 20.9339 54.1161 21.0626C54.3859 21.5051 54.9695 22.4641 55.2262 23.5851C55.3533 24.1346 55.4152 24.8318 55.4091 25.5134C55.4091 26.4914 55.2395 27.4062 55.2797 27.8679C55.365 28.6883 55.0932 29.643 54.7433 30.378C54.7048 30.4607 54.6654 30.5419 54.6257 30.6214C54.3937 31.0472 54.2073 31.4144 54.2176 31.6847C54.232 32.049 54.0693 32.2944 53.8254 32.657C53.6562 32.908 53.4476 33.2172 53.2256 33.6615C52.9676 34.1777 52.7071 34.5089 52.4833 34.7903C52.1675 35.1859 51.9301 35.4752 51.8371 36.0524C51.7343 36.6919 51.5332 37.3316 51.2184 37.7639C51.0771 37.9578 50.9429 38.2011 50.7976 38.4522C50.605 38.7855 50.3901 39.1348 50.1169 39.4085C49.8932 39.6322 49.6205 39.7591 49.3817 39.8611C49.3076 39.8924 49.2347 39.9243 49.1673 39.9558C49.0141 40.1526 48.8555 40.3473 48.6903 40.5404C48.6805 40.5864 48.6709 40.6357 48.6603 40.6869C48.603 40.9478 48.5253 41.2693 48.3107 41.5858C47.9699 42.0856 47.4891 42.3718 46.9619 42.6202C46.5465 42.8152 46.1059 42.9881 45.6086 43.23C45.2697 43.3948 44.878 43.5944 44.467 43.7561C44.1659 43.8751 43.8588 43.9737 43.5664 44.0357C43.3646 44.0873 43.1721 44.1205 43.0078 44.1137C42.8862 44.1087 42.7711 44.0321 42.6565 43.9556C42.656 43.9551 42.6555 43.9546 42.655 43.9541C42.6472 43.949 42.6394 43.9439 42.6316 43.9388C41.8447 44.1011 41.005 44.2805 39.9787 44.3253C39.8898 44.345 39.7954 44.3629 39.7018 44.379C39.2428 44.4596 38.7301 44.4839 38.3375 44.538C37.9453 44.6009 36.7576 44.4086 35.6222 43.4556C35.6017 43.4384 35.5813 43.421 35.5609 43.4034C35.2177 43.153 34.864 42.8806 34.559 42.6817C34.3705 42.5568 34.3066 42.3478 34.2371 42.1254C34.1756 41.9215 34.1133 41.7107 33.9549 41.5605C33.876 41.4858 33.7706 41.421 33.6576 41.35C33.5573 41.2867 33.4547 41.223 33.3581 41.1419C33.2683 41.0664 33.147 40.837 32.9963 40.5386C32.903 40.354 32.8006 40.1457 32.6859 39.9291C32.2595 39.4523 31.8477 38.9563 31.4536 38.4354C31.3117 38.365 31.1587 38.3202 30.9933 38.3115C30.8746 38.3052 30.7448 38.3166 30.6115 38.3271C30.4302 38.3414 30.2421 38.3544 30.0659 38.3196C29.928 38.2922 29.8358 38.2171 29.8359 38.1306C29.8359 38.0903 29.8556 38.0481 29.8734 38.0099C29.8938 37.9662 29.9121 37.9273 29.8962 37.9016C29.8848 37.8831 29.8492 37.8772 29.806 37.8695C29.737 37.8573 29.6473 37.8406 29.6018 37.7639C29.4326 37.4788 29.2739 37.1321 29.1267 36.7857C28.9625 36.4004 28.8124 36.0154 28.6619 35.7177C28.4927 35.3851 28.3874 34.8457 28.3091 34.2971C28.2537 33.914 28.2107 33.5275 28.1515 33.1989C28.0936 32.8785 27.9571 32.5595 27.8338 32.2401C27.6854 31.8563 27.5568 31.4687 27.6039 31.1163C27.6135 31.0452 27.7147 30.9458 27.8433 30.8249C27.9343 30.7388 28.0391 30.6415 28.1353 30.5352C28.0976 30.1141 28.0842 29.6838 28.0976 29.2496C28.0825 29.2342 28.0672 29.2181 28.0516 29.202C28.0512 29.2017 28.0509 29.2015 28.0505 29.2012C27.6985 28.846 27.2279 28.2696 27.624 27.5679C27.7249 27.3924 27.8807 27.2982 28.0206 27.2184C28.1582 27.1394 28.2815 27.0723 28.3307 26.9483C28.3667 26.8577 28.3655 26.7478 28.3523 26.6247C28.3435 26.5629 28.3306 26.4975 28.3178 26.4299C28.2672 26.1645 28.2186 25.8643 28.4099 25.6423C28.4229 25.6273 28.4371 25.6111 28.4516 25.5942C28.5888 25.4337 28.7941 25.2048 29.1204 25.034C29.4494 24.3037 29.8204 23.633 30.2126 22.9991C30.8669 21.944 31.581 20.988 32.3101 20.0766C32.6667 19.6322 33.2386 19.357 33.9072 19.3204C34.577 19.2835 35.2831 19.4866 35.8949 19.8792C36.5062 20.2729 36.9836 20.8281 37.2527 21.4271C37.521 22.026 37.5585 22.6135 37.3735 23.082C37.0707 23.8448 36.7975 24.6008 36.5624 25.3348C36.558 25.3773 36.5533 25.4195 36.548 25.4609C36.5084 25.7704 36.579 26.1004 36.6609 26.4186C36.6797 26.4917 36.6993 26.5639 36.7179 26.636Z" fill="black"/>
<path d="M69.0938 20.498C69.3636 20.8052 69.1093 21.1539 68.9713 21.3455C68.9689 21.3491 68.9665 21.3526 68.9641 21.3562C68.9313 21.4019 68.9125 21.4485 68.8912 21.5026C68.8398 21.6343 68.7706 21.8079 68.4519 22.1217C68.4296 22.232 68.4038 22.3421 68.375 22.4483C68.1736 23.1903 67.88 23.8925 67.6098 24.4533L67.6527 24.0459C67.5283 24.54 67.3824 25.0109 67.2283 25.4805C67.229 25.4974 67.2297 25.5146 67.2304 25.5321C67.2446 25.8701 67.2611 26.2872 67.1165 26.5378C66.9326 26.858 66.7675 27.0679 66.6254 27.245C66.2736 28.2737 65.9488 29.3046 65.7697 30.3428C65.7135 30.6686 65.672 30.9931 65.6477 31.3237C65.6257 31.6232 65.6145 31.926 65.6129 32.2314C65.6758 32.4102 65.7531 32.5866 65.8249 32.7472C65.9261 32.9704 66.0152 33.1778 66.0375 33.3369C66.0906 33.7295 65.9293 34.1591 65.8097 34.4741C65.7901 34.5261 65.7716 34.5754 65.7553 34.6212C65.7583 34.6496 65.7614 34.6782 65.7645 34.7068L65.7679 34.6541C65.7987 34.8811 65.8324 35.1101 65.8677 35.338C65.8379 35.3535 65.8069 35.3691 65.7752 35.3849C65.3788 35.5831 65.371 35.8501 65.3599 36.2715C65.355 36.4556 65.3495 36.6681 65.3116 36.9174C65.2872 37.0789 65.131 37.155 65.0035 37.2185C64.966 37.2371 64.931 37.2546 64.9025 37.2726C64.805 37.3344 64.9051 37.4063 65.0235 37.492C65.1769 37.6033 65.3614 37.7354 65.1847 37.8963C64.6217 38.4086 64.9837 38.6561 65.2573 38.8421C65.3376 38.8969 65.4101 38.9463 65.4497 38.9957C65.5781 39.1562 65.4392 39.3746 65.2528 39.5381C65.105 39.6673 65.2397 39.9394 65.4154 40.1475C65.4817 40.2265 65.4806 40.3298 65.4788 40.4523C65.477 40.5793 65.4746 40.7251 65.5473 40.8843C65.7312 41.2852 65.8201 41.4985 65.8912 41.6695C65.9115 41.7183 65.93 41.7637 65.9493 41.8092C66.0102 41.9531 66.059 42.1301 66.1083 42.31C66.1673 42.525 66.2272 42.7434 66.3103 42.9106C66.2081 43.3361 66.0842 43.7617 65.9607 44.1877C65.8966 44.4066 65.5595 44.6104 65.0081 44.7536C64.4563 44.8968 63.7395 44.9682 62.9986 44.9513C62.2577 44.9343 61.5449 44.8304 61.0002 44.662C60.456 44.4937 60.128 44.2745 60.074 44.0524C59.9666 43.6053 59.8593 43.1576 59.7762 42.71C59.6751 42.1648 59.6098 41.6195 59.624 41.0757C59.6339 40.695 59.6619 40.3145 59.7045 39.9342C59.7089 39.895 59.7136 39.8559 59.7183 39.8168C59.5451 39.491 59.3888 39.166 59.3367 38.9379C59.2937 38.75 59.3954 38.6167 59.4825 38.503C59.5424 38.4249 59.5954 38.3554 59.5897 38.2833C59.5867 38.2445 59.5772 38.1914 59.5658 38.1276C59.5194 37.866 59.4412 37.4212 59.6346 37.0245C59.7204 36.8487 59.8842 36.6466 60.041 36.4546C60.265 36.1793 60.4746 35.9244 60.4198 35.7877C60.3234 35.5486 60.4265 35.2831 60.5184 35.0489C60.606 34.8255 60.683 34.6308 60.5658 34.5108C60.5162 34.4602 60.4925 34.4135 60.4869 34.367C60.4905 34.3575 60.4864 34.3258 60.4901 34.3164C60.4815 34.2316 60.5333 34.1487 60.5987 34.0445C60.6689 33.9326 60.7546 33.7971 60.7993 33.6033C60.8508 33.3819 60.9656 33.2314 61.0633 33.1021C61.2007 32.9219 61.304 32.7862 61.1491 32.56C60.9767 32.3131 60.8746 32.0513 60.9486 31.8651C60.9825 31.7773 60.9834 31.6747 60.9841 31.5692C60.9851 31.4309 60.9865 31.2808 61.0644 31.1522C61.1286 31.046 61.2786 30.967 61.4116 30.894C61.4531 30.8714 61.4927 30.8499 61.5277 30.8288C61.5323 30.7404 61.536 30.6528 61.5381 30.5656C61.5161 30.5495 61.4916 30.5324 61.4664 30.5147C61.3398 30.4256 61.1844 30.3168 61.1121 30.1926C60.9978 29.9948 61.0902 29.8337 61.188 29.6659C61.2644 29.5321 61.3436 29.3999 61.3307 29.2333C61.322 29.1196 61.2721 28.9933 61.2232 28.862C61.1505 28.6688 61.0786 28.4814 61.1418 28.357C61.1654 28.3109 61.2585 28.2767 61.351 28.2431C61.3515 28.243 61.3521 28.2428 61.3527 28.2427C61.3589 28.2404 61.3651 28.2381 61.3713 28.2359C61.3251 27.9176 61.2711 27.6083 61.2135 27.2896C61.1922 27.2614 61.1712 27.233 61.1506 27.205C61.0501 27.064 60.9522 26.9304 60.8064 26.8373C60.6485 26.734 60.5687 26.5013 60.4842 26.2582C60.4291 26.0953 60.3718 25.9328 60.2896 25.7941C60.2414 25.7149 60.3392 25.6478 60.44 25.579C60.534 25.5151 60.6304 25.4516 60.613 25.3701C60.6042 25.33 60.5685 25.2853 60.5303 25.2383C60.4966 25.1979 60.4611 25.1508 60.4404 25.1057C60.4213 25.0629 60.4776 24.9777 60.5495 24.864C60.5938 24.7958 60.644 24.716 60.6862 24.6332C60.6424 24.4038 60.6003 24.1766 60.561 23.9528C60.4821 23.9015 60.3785 23.8565 60.2443 23.8187C60.1481 23.7907 60.0327 23.7648 59.9147 23.7389C59.7541 23.7037 59.5881 23.6678 59.4564 23.6249C59.4547 23.6244 59.453 23.6238 59.4514 23.6233C59.4845 23.5352 59.4581 23.2422 59.5004 23.1582C59.4074 23.1015 59.3763 23.0467 59.4238 23.0213C59.4463 23.0093 59.4859 23.0039 59.5217 22.999C59.5627 22.9934 59.5992 22.9884 59.6004 22.975C59.6013 22.9654 59.5753 22.9512 59.544 22.9335C59.4941 22.9053 59.4296 22.8684 59.4339 22.83C59.4501 22.6861 59.5013 22.5352 59.5528 22.3906C59.6099 22.2299 59.6664 22.0788 59.6734 21.9497C59.6807 21.8073 59.8264 21.6344 59.972 21.4704C60.074 21.3542 60.1753 21.2427 60.2316 21.1391C60.2865 21.0386 60.2594 20.9125 60.233 20.7909C60.2014 20.6446 60.1714 20.5039 60.287 20.4241C60.3105 20.4079 60.4262 20.4111 60.571 20.4151C60.6736 20.418 60.791 20.4212 60.9007 20.4186C60.9357 20.2897 60.9761 20.1606 61.0203 20.0346C61.0069 20.0259 60.9932 20.017 60.9792 20.008C60.9789 20.0078 60.9786 20.0077 60.9782 20.0075C60.6628 19.8057 60.2329 19.5245 60.5722 19.4029C60.6585 19.3717 60.7997 19.3775 60.9267 19.3833C61.0514 19.3888 61.1629 19.3939 61.1957 19.3632C61.2327 19.3286 61.1761 19.2569 61.114 19.1809C61.0269 19.0738 60.9306 18.9513 61.069 18.9009C61.0785 18.8975 61.0888 18.8938 61.0993 18.8899C61.198 18.8533 61.3449 18.7965 61.6115 18.7802C61.7559 18.5328 61.9111 18.2936 62.0743 18.0564C62.346 17.6622 62.6388 17.277 62.9317 16.8976C63.0752 16.7129 63.4648 16.6179 64.032 16.6405C64.5996 16.664 65.2948 16.8 65.9858 17.0263C66.6767 17.2525 67.3174 17.5534 67.7908 17.8658C68.2633 18.1787 68.525 18.4773 68.5363 18.7032C68.5531 19.0712 68.5718 19.4379 68.5832 19.7992C68.5923 19.8207 68.6009 19.8422 68.6086 19.8632C68.6661 20.0208 68.8253 20.198 68.9848 20.3761C69.0214 20.4169 69.0582 20.4577 69.0938 20.498Z" fill="black"/>
<path d="M68.1813 17.7532C68.4054 17.3559 68.9944 17.3857 69.322 17.3999C69.3279 17.4001 69.3339 17.4002 69.3398 17.4003C69.4172 17.4038 69.4889 17.3944 69.5719 17.3831C69.7691 17.3563 70.0386 17.3196 70.6386 17.424C70.7977 17.3832 70.9607 17.3453 71.1221 17.3121C72.5678 17.0154 74.0697 16.9028 75.593 16.8627C76.0889 16.821 76.6266 16.7997 77.2829 16.8616C77.3291 16.86 77.3798 16.8589 77.4296 16.8584C78.3223 16.7736 80.2115 17.3134 80.9446 18.2821C81.7919 19.3173 81.8626 20.033 81.936 20.5051C82.0787 20.7164 82.0851 21.4236 82.1364 21.6734C82.1246 21.6966 82.1128 21.7194 82.1012 21.7417C81.7801 23.2629 81.4186 24.736 81.1571 26.2014C81.0749 26.6614 81.0028 27.1201 80.9439 27.58C80.8897 28.0035 80.8429 28.4273 80.8025 28.8518C80.8419 29.1087 80.8963 29.3539 80.9454 29.584C81.0148 29.9054 81.0743 30.1935 81.0716 30.4221C81.0649 30.9747 80.8323 31.5613 80.6567 31.9946C80.628 32.0655 80.6008 32.1321 80.5766 32.1937C80.5585 32.5594 80.542 32.9243 80.5247 33.2908C80.4917 33.3091 80.4575 33.3272 80.4224 33.3456C79.9848 33.5754 79.9174 33.9485 79.8067 34.5308C79.758 34.7866 79.7011 35.0804 79.6019 35.4184C79.5379 35.6362 79.3634 35.7206 79.2217 35.7865C79.18 35.8061 79.141 35.8244 79.1084 35.8443C78.997 35.9112 79.0768 36.0296 79.172 36.1651C79.2954 36.3409 79.4433 36.5534 79.2269 36.7445C78.5376 37.3524 78.8295 37.7414 79.0489 38.0452C79.1135 38.1329 79.172 38.2114 79.198 38.2844C79.281 38.5276 79.0861 38.7973 78.86 38.981C78.7642 39.059 78.7359 39.2108 78.7508 39.3723L78.7725 39.2595C78.8036 39.3309 78.8663 39.442 78.9416 39.5406C79.0023 39.6223 78.9949 39.7295 78.9882 39.8653C78.981 40.0086 78.9748 40.1787 79.0462 40.373C79.2277 40.8599 79.3244 41.1322 79.4002 41.3474C79.422 41.4088 79.4419 41.4669 79.4628 41.5244C79.5289 41.7059 79.5852 41.9339 79.6436 42.1658C79.7134 42.4437 79.7864 42.7278 79.8799 42.9443C79.8048 43.5155 79.7133 44.0945 79.6215 44.6932C79.5737 45.0011 79.2518 45.3165 78.7094 45.5618C78.1667 45.8082 77.4511 45.9512 76.7101 45.9453C75.969 45.9439 75.2544 45.839 74.7015 45.6549C74.1491 45.4696 73.8071 45.2039 73.7372 44.9075C73.5976 44.3107 73.456 43.6996 73.344 43.0772C73.2079 42.3183 73.1131 41.5451 73.1219 40.7323C73.1303 40.1557 73.16 39.5861 73.2647 38.881C73.2761 38.8059 73.2888 38.729 73.3024 38.6525C73.288 38.5554 73.2771 38.4466 73.2688 38.3403C73.2808 38.3112 73.2849 38.2144 73.2984 38.1859C73.2307 37.7921 73.1843 37.4077 73.1901 37.1473C73.1981 36.8846 73.3309 36.7349 73.4469 36.5952C73.526 36.5028 73.5956 36.4221 73.6086 36.3256C73.6154 36.2745 73.6202 36.2 73.6248 36.1158C73.6451 35.7653 73.6781 35.1729 73.9629 34.6878C74.0892 34.473 74.2979 34.2369 74.4968 34.0091C74.7808 33.6863 75.0446 33.3809 75.0193 33.1967C74.9756 32.8699 75.1325 32.5401 75.2699 32.2489C75.4014 31.9687 75.5146 31.7253 75.4203 31.5562C75.3077 31.3532 75.3935 31.2185 75.5209 31.0122C75.6095 30.8682 75.7168 30.6955 75.7911 30.4434C75.8767 30.153 76.0133 29.9624 76.1297 29.797C76.2927 29.568 76.4155 29.3907 76.2902 29.0837C76.1512 28.7419 76.08 28.3994 76.1765 28.1512C76.2205 28.0376 76.2328 27.904 76.2452 27.7639C76.2617 27.5786 76.2784 27.3836 76.3692 27.2161C76.444 27.078 76.6021 26.9753 76.7419 26.8841C76.7855 26.8557 76.8271 26.8284 76.864 26.8015C76.8767 26.6847 76.8882 26.5677 76.8979 26.4503C76.8772 26.4287 76.854 26.4058 76.8302 26.3819C76.7106 26.2621 76.5636 26.1166 76.5005 25.9504C76.4007 25.6871 76.5036 25.4789 76.6118 25.2569C76.6959 25.084 76.783 24.904 76.7776 24.6875C76.7739 24.5399 76.7297 24.3688 76.685 24.1999C76.6188 23.9488 76.5515 23.7031 76.617 23.5402C76.6415 23.4792 76.7353 23.4316 76.8285 23.3842C76.829 23.384 76.8296 23.3838 76.8301 23.3836C76.8365 23.3804 76.8427 23.3771 76.849 23.3739C76.807 22.9618 76.753 22.5514 76.6892 22.1446C76.6674 22.1087 76.6459 22.0724 76.6247 22.0365C76.5211 21.8613 76.4191 21.6927 76.2701 21.5816C76.2471 21.5645 76.2257 21.5439 76.2054 21.5202L76.3953 22.6268C76.2766 22.6576 76.1948 22.7339 76.2726 22.9777C76.3278 23.1583 76.4993 23.3958 76.6419 23.5739C76.7263 23.6812 76.8705 23.6392 76.9771 23.5729C77.079 23.512 77.1502 23.4331 77.185 23.4621C77.2027 23.4767 77.2143 23.517 77.2243 23.5594C77.2329 23.5967 77.2402 23.6356 77.2448 23.6593C77.2494 23.6815 77.2584 23.6297 77.2207 23.5672C77.1984 23.5287 77.1584 23.4871 77.1059 23.457C77.0605 23.4856 77.0089 23.5165 76.9503 23.5501C76.7664 23.6228 76.5839 23.6942 76.3994 23.7646C76.3517 23.8577 76.3174 23.9728 76.3008 24.115C76.2889 24.2171 76.2854 24.3368 76.2816 24.4593C76.2766 24.626 76.2713 24.7982 76.2446 24.9402C76.2237 25.0511 76.1828 25.102 76.141 25.0663C76.1215 25.0496 76.102 25.0147 76.0844 24.9831C76.0641 24.947 76.0461 24.9148 76.0329 24.9186C76.0234 24.9213 76.0189 24.9508 76.0133 24.9865C76.0043 25.0436 75.9925 25.1172 75.9538 25.1277C75.8095 25.1668 75.6396 25.179 75.472 25.191C75.2867 25.2042 75.1039 25.2176 74.9674 25.2671C74.8137 25.3227 74.5682 25.2674 74.3199 25.213C74.1476 25.1749 73.9744 25.1373 73.8326 25.1364C73.6944 25.1355 73.5658 25.2207 73.4431 25.3032C73.2958 25.4023 73.1518 25.4983 73.0021 25.4361C72.9715 25.4235 72.9154 25.3201 72.8452 25.1907C72.7955 25.099 72.7385 24.9942 72.6786 24.8991C72.5112 24.9334 72.3396 24.9638 72.1701 24.9897C72.1672 25.0058 72.1642 25.0223 72.1612 25.0391C72.1612 25.0395 72.1611 25.0399 72.1611 25.0403C72.0928 25.4198 72.0009 25.9386 71.6738 25.7065C71.5911 25.6474 71.5213 25.5214 71.4578 25.4082C71.3957 25.297 71.3402 25.1974 71.2859 25.185C71.2243 25.171 71.1729 25.2573 71.1158 25.3513C71.0351 25.4835 70.9457 25.6309 70.808 25.5376C70.7986 25.5312 70.7883 25.5242 70.7778 25.5172C70.6773 25.4514 70.5302 25.3535 70.3591 25.1318C69.9818 25.1377 69.5995 25.1317 69.2155 25.1169C68.5759 25.0919 67.9276 25.0435 67.2695 24.9859C66.9487 24.9571 66.601 24.6647 66.3042 24.1554C66.0093 23.645 65.7988 22.9633 65.704 22.2426C65.6081 21.5218 65.6281 20.8108 65.7433 20.2418C65.8617 19.6731 66.0642 19.2973 66.3257 19.1738C66.7506 18.9742 67.182 18.7671 67.6153 18.5665C67.6364 18.5473 67.6577 18.5285 67.6791 18.5106C67.84 18.3772 67.9663 18.1453 68.0933 17.9126C68.1224 17.8591 68.1516 17.8056 68.1813 17.7532Z" fill="black"/>
<path d="M98.7953 44.9446C98.721 44.992 98.6315 45.0321 98.533 45.0648C97.856 45.3372 96.1853 45.0321 95.2889 44.5041C95.2704 44.4945 95.252 44.4849 95.2337 44.4752C94.9973 44.3475 94.7783 44.2274 94.5412 44.0788C93.9926 43.7393 93.2546 43.1393 92.7221 42.1617C92.7116 42.15 92.7012 42.1382 92.6908 42.1265C92.5499 42.0129 92.3093 41.5347 92.1959 41.3937C92.0563 41.1456 91.9299 40.8927 91.8151 40.6351C90.6361 37.8498 90.5826 35.4774 90.5765 33.1201C90.5706 33.0913 90.5647 33.0619 90.5587 33.0322C90.4415 32.4488 90.3143 31.7534 90.3925 31.2905C90.4928 30.7144 90.6052 30.3042 90.7064 29.9879C90.8227 28.1726 90.9732 26.3901 91.0177 24.6221C91.0316 24.0639 91.0353 23.5175 91.0249 22.962C91.0154 22.4545 90.9981 21.9463 90.9741 21.4378C90.8964 21.1431 90.8055 20.8619 90.7221 20.6004C90.6049 20.2322 90.5023 19.9057 90.4704 19.6349C90.3931 18.9824 90.5339 18.245 90.642 17.7C90.6597 17.6108 90.6765 17.5266 90.6911 17.4487C90.6539 17.0121 90.6152 16.5775 90.5776 16.1395C90.6075 16.1114 90.6387 16.0831 90.6706 16.0544C91.0693 15.6954 91.0802 15.2444 91.1051 14.5257C91.116 14.2134 91.1297 13.8546 91.1803 13.4283C91.2129 13.1547 91.3739 13.023 91.5051 12.9157C91.5437 12.8841 91.5798 12.8546 91.6094 12.8243C91.7107 12.7204 91.6148 12.5999 91.502 12.4545C91.3556 12.2667 91.1801 12.0401 91.3692 11.7702C91.972 10.9128 91.6358 10.4897 91.3801 10.1713C91.3052 10.0782 91.2379 9.99039 91.2036 9.90517C91.0921 9.62747 91.2559 9.2604 91.4617 8.99466C91.6249 8.78213 91.5251 8.31275 91.3782 7.95492C91.3226 7.81983 91.3384 7.64427 91.3585 7.43454C91.3791 7.21846 91.404 6.97036 91.3567 6.69908C91.2387 6.00246 91.1899 5.63401 91.1508 5.33844C91.14 5.25212 91.1304 5.17202 91.1201 5.09209C91.0891 4.85223 91.076 4.56281 91.0651 4.27148C91.0591 4.1579 91.1758 3.83773 91.1891 3.72478C91.1913 3.70883 91.1936 3.69286 91.1958 3.67687C91.2489 3.29877 91.31 2.90903 91.3242 2.60097C91.6614 1.90349 92.034 1.2342 92.4093 0.588042C92.6031 0.255225 93.0459 0.0444823 93.6526 0.00641139C94.2594 -0.0309086 94.9763 0.106013 95.6622 0.386273C96.3479 0.667568 96.9547 1.07195 97.3683 1.5116C97.781 1.95215 97.9644 2.38883 97.8918 2.73611C97.7439 3.43571 97.6137 4.12105 97.4833 4.79241C97.4263 5.08524 97.3685 5.37684 97.3061 5.67138L97.4233 5.15443C97.4023 5.69482 97.3635 6.2565 97.2997 6.80044C97.2288 7.40547 97.1479 7.99732 97.0574 8.5961C97.0481 8.65743 97.0386 8.7189 97.0291 8.7805C97.1618 9.30672 97.2835 9.823 97.3129 10.1848C97.3371 10.4844 97.2233 10.6916 97.1262 10.8677C97.0594 10.9894 97.0004 11.0977 97 11.212C96.9999 11.2733 97.005 11.3576 97.0113 11.4595C97.0365 11.8771 97.0838 12.5758 96.8699 13.2034C96.7748 13.4808 96.6015 13.8017 96.4372 14.111C96.2024 14.5485 95.9861 14.9625 96.038 15.1785C96.1292 15.557 96.0229 15.9796 95.9304 16.357C95.8421 16.7168 95.7667 17.0303 95.8854 17.2137C96.0273 17.4323 95.9626 17.6139 95.8678 17.8845C95.802 18.072 95.722 18.3027 95.6867 18.6178C95.646 18.9814 95.5399 19.2382 95.45 19.4569C95.3236 19.7647 95.2291 19.9972 95.3994 20.3438C95.5886 20.7298 95.7108 21.1299 95.6528 21.4452C95.6264 21.5886 95.6345 21.7545 95.6433 21.9256C95.6549 22.1525 95.6677 22.3903 95.603 22.6083C95.5497 22.7873 95.4087 22.9397 95.2841 23.074C95.2452 23.1159 95.2081 23.1561 95.1756 23.1951C95.1805 23.3385 95.1866 23.4817 95.1944 23.6245C95.2181 23.6471 95.2444 23.6707 95.2715 23.6954C95.4076 23.8196 95.5745 23.9693 95.6616 24.1621C95.7992 24.4657 95.7281 24.736 95.6535 25.0211C95.5955 25.241 95.5358 25.4783 95.5725 25.7395C95.5976 25.9182 95.6661 26.1188 95.7346 26.316C95.8364 26.612 95.9384 26.9043 95.8967 27.1114C95.8811 27.1892 95.7949 27.2604 95.7093 27.3311C95.7088 27.3314 95.7083 27.3317 95.7077 27.3321C95.7019 27.3369 95.6962 27.3417 95.6905 27.3465C95.7905 27.8418 95.9019 28.336 96.0218 28.8249C96.0485 28.8665 96.0749 28.9083 96.101 28.9497C96.2283 29.1521 96.3528 29.3455 96.516 29.4628C96.6926 29.5874 96.8217 29.9428 96.9611 30.3064C97.0523 30.5442 97.1477 30.7859 97.2628 30.9844C97.3298 31.0991 97.2509 31.2236 97.1699 31.3517C97.0943 31.4712 97.017 31.5939 97.0551 31.7115C97.0741 31.7698 97.1213 31.8339 97.1716 31.8993C97.2159 31.9572 97.263 32.018 97.2957 32.0834C97.3261 32.1441 97.2953 32.2926 97.2575 32.4804C97.2341 32.5965 97.208 32.7269 97.1923 32.8687C97.305 33.2183 97.4149 33.5387 97.5301 33.8822C97.6235 33.9394 97.7392 33.9815 97.8819 34.0045C97.9843 34.0209 98.1044 34.0283 98.2272 34.0355C98.3943 34.0453 98.5668 34.0547 98.709 34.0849C98.8201 34.1085 98.871 34.151 98.8353 34.1936C98.8187 34.2139 98.784 34.2344 98.7525 34.2528C98.7165 34.2739 98.6845 34.2928 98.6884 34.307C98.6913 34.3173 98.721 34.3225 98.7569 34.329C98.8142 34.3393 98.8881 34.3526 98.8992 34.3933C98.9402 34.5451 98.9554 34.7196 98.9708 34.8853C98.9885 35.0724 99.01 35.2605 99.0646 35.3903C99.1253 35.5343 99.0831 35.7794 99.0451 36.0174C99.0183 36.1828 98.9919 36.3401 99.0045 36.4735C99.0158 36.601 99.1106 36.6993 99.2011 36.7839C99.3118 36.891 99.4183 36.9839 99.3714 37.1076C99.3619 37.1329 99.2675 37.1987 99.1502 37.2826C99.067 37.3418 98.9725 37.4106 98.8892 37.4822C98.9401 37.5964 98.9849 37.6973 99.0223 37.7839L98.59 37.1435C98.5946 37.1499 98.5991 37.1561 98.6035 37.1622C98.6175 37.1551 98.6317 37.1478 98.6461 37.1402C98.6464 37.14 98.6468 37.1398 98.6471 37.1396C98.9751 36.9728 99.3792 36.6805 99.1396 36.8569C99.0802 36.9037 98.9826 37.0014 98.8985 37.0925C98.8152 37.1815 98.7441 37.2638 98.7174 37.273C98.687 37.2834 98.7055 37.2059 98.7064 37.1131C98.7115 36.9843 98.6658 36.8208 98.535 36.8996C98.5263 36.905 98.517 36.9111 98.5076 36.9172C98.4189 36.9746 98.294 37.0717 98.2128 37.3126C98.1416 37.3389 98.1545 37.3886 98.2372 37.4289C98.3046 37.4609 98.4102 37.4883 98.5328 37.5101C99.0113 37.5925 99.6955 37.5999 100.395 37.5813C100.737 37.5728 101.148 37.8121 101.536 38.2705C101.924 38.7295 102.253 39.367 102.45 40.0669C102.648 40.7666 102.704 41.4809 102.606 42.0765C102.508 42.6713 102.259 43.0954 101.909 43.2714C101.337 43.556 100.734 43.8419 100.012 44.0922C99.9755 44.1139 99.9376 44.1352 99.9001 44.1555C99.6204 44.3057 99.3525 44.5504 99.0291 44.7857C98.9542 44.8398 98.8773 44.8932 98.7953 44.9446Z" fill="black"/>
<path d="M86.0144 8.66933C86.1332 8.32088 86.3617 8.46318 86.4879 8.54134C86.4902 8.54262 86.4925 8.5439 86.4948 8.54518C86.5244 8.56369 86.5525 8.5685 86.5857 8.57375C86.6652 8.58625 86.7709 8.60323 86.9937 8.82534C87.0587 8.81715 87.123 8.8127 87.1879 8.8127C87.8881 8.81271 88.5851 9.10242 89.2861 9.44937C89.2951 9.44758 89.3039 9.44574 89.3129 9.44388C89.4513 9.41531 89.6168 9.38134 89.7493 9.4324C89.7826 9.44559 89.8138 9.46447 89.8418 9.49057C90.0171 9.65222 90.1324 9.80223 90.2313 9.93168C90.7851 10.2109 91.3419 10.4603 91.897 10.5634C92.0712 10.5957 92.2445 10.6134 92.4197 10.6134C92.5788 10.6134 92.7403 10.6023 92.9002 10.5815C92.9943 10.5057 93.0822 10.4156 93.1646 10.3321C93.2807 10.2149 93.3833 10.1107 93.4683 10.0767C93.6741 9.99482 93.9065 10.1241 94.0783 10.2201C94.1065 10.2358 94.1332 10.2506 94.1578 10.2635C94.296 10.2159 94.4313 10.165 94.5695 10.113C94.5788 10.1419 94.5878 10.1721 94.5972 10.2031C94.7133 10.5893 94.8586 10.5843 95.0841 10.5771C95.183 10.574 95.297 10.5706 95.4316 10.5986C95.5183 10.6166 95.5633 10.7697 95.5994 10.8947C95.6101 10.9314 95.6201 10.9658 95.6302 10.9935C95.6649 11.0886 95.7016 10.9858 95.745 10.8644C95.8011 10.7069 95.8694 10.5177 95.958 10.6887C96.242 11.2332 96.3672 10.8638 96.462 10.5843C96.4898 10.5023 96.515 10.4282 96.5408 10.3871C96.6246 10.2537 96.7432 10.3858 96.8334 10.5673C96.9052 10.7111 97.0474 10.5685 97.1559 10.3871C97.1968 10.3185 97.2526 10.3168 97.3175 10.3151C97.3849 10.3134 97.4629 10.3119 97.5466 10.2349C97.7578 10.0404 97.8697 9.94615 97.9602 9.87071C97.9859 9.8492 98.0098 9.82961 98.0337 9.80918C98.1092 9.74463 98.203 9.69145 98.2982 9.63779C98.4118 9.57358 98.527 9.50838 98.615 9.42136C98.8424 9.51345 99.07 9.62739 99.2975 9.74107C99.4146 9.80008 99.5264 10.1325 99.6092 10.6804C99.6918 11.2288 99.7383 11.9439 99.7383 12.6849C99.7383 13.426 99.6918 14.141 99.6092 14.6894C99.5264 15.2373 99.4146 15.5703 99.2975 15.6293C99.0621 15.7469 98.8266 15.8646 98.5912 15.9583C98.3044 16.0725 98.0178 16.1512 97.7307 16.1512C97.5301 16.1512 97.3298 16.1335 97.1287 16.1017C97.108 16.0984 97.0874 16.0948 97.0667 16.0913C96.8988 16.2738 96.7296 16.4397 96.6116 16.4989C96.5138 16.5477 96.4421 16.4503 96.3811 16.367C96.3391 16.3097 96.3019 16.259 96.2644 16.2671C96.2443 16.2714 96.2166 16.2827 96.1832 16.2962C96.0469 16.3514 95.8159 16.4451 95.6055 16.2671C95.5123 16.1881 95.4029 16.0323 95.2997 15.8836C95.1517 15.671 95.0127 15.4729 94.9434 15.5337C94.8209 15.6407 94.6799 15.5501 94.5562 15.47C94.4371 15.3935 94.3338 15.3268 94.2751 15.4502C94.2048 15.5978 94.1442 15.5376 94.0551 15.4486C93.9933 15.3868 93.9176 15.3114 93.8139 15.281C93.6944 15.246 93.6111 15.1426 93.5387 15.0547C93.4372 14.931 93.3626 14.838 93.2487 15.0091C93.1223 15.1992 92.9924 15.3202 92.888 15.2602C92.8408 15.2328 92.7869 15.2394 92.7312 15.2464C92.6572 15.2557 92.5781 15.2652 92.5072 15.197C92.4485 15.1407 92.4006 14.9969 92.3571 14.8696C92.3436 14.8299 92.3306 14.7919 92.3181 14.7586C92.2712 14.7604 92.2244 14.7631 92.1778 14.7674C92.1703 14.7906 92.1623 14.8162 92.1541 14.8427C92.1131 14.9755 92.0607 15.1383 91.9972 15.2195C91.8965 15.3479 91.8092 15.2675 91.7154 15.1821C91.6424 15.1157 91.5691 15.0463 91.4813 15.0712C91.422 15.0882 91.3549 15.147 91.289 15.2052C91.1898 15.2917 91.0919 15.3769 91.0249 15.3228C90.9999 15.3025 90.9775 15.2121 90.9558 15.1223C90.9557 15.1217 90.9556 15.1212 90.9555 15.1206C90.9541 15.1145 90.9526 15.1086 90.9511 15.1025C90.7857 15.1713 90.6202 15.2472 90.456 15.3272C90.4416 15.3504 90.427 15.3733 90.4126 15.3958C90.3422 15.506 90.2746 15.613 90.2309 15.765C90.1816 15.9297 90.0618 16.0255 89.9341 16.1264C89.8707 16.1763 89.8065 16.2273 89.7493 16.2886C89.73 16.3086 89.7115 16.3297 89.694 16.3522C89.6525 16.4056 89.6135 16.3125 89.5737 16.2165C89.5367 16.127 89.4981 16.0351 89.4556 16.0578C89.4344 16.0692 89.4116 16.1077 89.3874 16.149C89.3661 16.1853 89.3436 16.2237 89.3203 16.2473C89.2992 16.2691 89.2487 16.2184 89.1861 16.1539C89.147 16.114 89.1043 16.069 89.0574 16.032C88.9342 16.09 88.8121 16.1456 88.6905 16.1973C88.6656 16.2789 88.6428 16.3849 88.6252 16.5209C88.6125 16.6184 88.6017 16.7351 88.5907 16.8543C88.5757 17.0166 88.5602 17.1842 88.5389 17.3179C88.5223 17.4224 88.5028 17.464 88.4898 17.4207C88.4837 17.4004 88.479 17.3623 88.4748 17.3278C88.47 17.2883 88.4656 17.2532 88.4601 17.2542C88.4562 17.255 88.4521 17.283 88.4471 17.3168C88.4392 17.3709 88.4288 17.4407 88.4131 17.4432C88.3542 17.4524 88.2905 17.4301 88.2243 17.408C88.1517 17.3835 88.083 17.3597 88.026 17.3806C87.9632 17.4039 87.8738 17.3001 87.7843 17.1965C87.7232 17.1243 87.6585 17.0524 87.6056 17.0229C87.5543 16.994 87.4975 17.0515 87.4451 17.1075C87.3828 17.1748 87.3195 17.2398 87.2683 17.1487C87.2578 17.1302 87.2452 17.0177 87.2285 16.8768C87.2167 16.777 87.2032 16.6629 87.1879 16.5577C87.1216 16.5577 87.0556 16.553 86.9891 16.5445C86.9868 16.5598 86.9844 16.5753 86.982 16.5912C86.982 16.5915 86.9819 16.5919 86.9819 16.5923C86.9284 16.9505 86.8527 17.4405 86.7485 17.1482C86.7218 17.0739 86.705 16.9366 86.69 16.8131C86.6752 16.6918 86.6621 16.5832 86.6429 16.5604C86.621 16.5346 86.5945 16.609 86.5662 16.69C86.5265 16.8038 86.4825 16.9309 86.4375 16.8125C86.4344 16.8045 86.4311 16.7956 86.4277 16.7867C86.3954 16.7026 86.348 16.5781 86.3 16.3275C86.159 16.2606 86.0177 16.1823 85.8763 16.0968C85.6414 15.9542 85.4055 15.7917 85.1701 15.6293C85.0557 15.5493 84.9457 15.2081 84.8648 14.6619C84.7838 14.115 84.7383 13.412 84.7383 12.6849C84.7383 11.9579 84.7838 11.2554 84.8648 10.7084C84.9457 10.1622 85.0557 9.82102 85.1701 9.74107C85.3569 9.6122 85.5438 9.48316 85.7304 9.36423C85.7402 9.34913 85.75 9.33452 85.7598 9.32083C85.833 9.21895 85.8999 9.01431 85.9679 8.80941C85.9833 8.76234 85.9988 8.71517 86.0144 8.66933Z" fill="black"/>
<path d="M159.422 19.6107C159.192 20.0123 158.619 20.0104 158.3 20.0281C158.295 20.0285 158.289 20.0289 158.283 20.0293C158.208 20.0328 158.14 20.049 158.062 20.0687C157.876 20.118 157.63 20.1757 157.051 20.1767C156.91 20.245 156.771 20.3123 156.631 20.3785C155.587 20.8744 154.577 21.4055 153.539 22.1236C153.047 22.4749 152.564 22.8363 152.095 23.2163C152.08 23.2363 152.065 23.2567 152.05 23.2773C151.756 23.672 151.421 24.1731 151.097 24.4043C150.682 24.7004 150.374 24.8953 150.118 25.0552C149.034 26.2295 148.118 27.5984 147.533 29.1313C147.349 29.6109 147.199 30.1045 147.084 30.6081C146.979 31.0715 146.901 31.545 146.848 32.0212C146.88 32.3073 146.934 32.5822 146.987 32.8356C147.063 33.1896 147.138 33.5029 147.152 33.7579C147.173 34.1713 147.108 34.6165 147.033 35.0261C147.001 35.074 146.969 35.112 146.943 35.1496C146.93 35.1681 146.919 35.1865 146.909 35.204C146.975 35.2731 147.052 35.3273 147.175 35.4139C147.156 35.4381 147.137 35.4638 147.119 35.4908C146.892 35.8321 147.067 36.0471 147.468 36.3378C147.645 36.4659 147.871 36.6124 148.159 36.8038C148.343 36.9258 148.383 37.1155 148.416 37.2717C148.427 37.3176 148.437 37.3607 148.45 37.398C148.498 37.5262 148.636 37.4771 148.796 37.4155C149.006 37.3364 149.246 37.2331 149.42 37.484C149.995 38.286 150.505 38.0415 150.843 37.8511C150.945 37.7953 151.036 37.7442 151.12 37.7248C151.393 37.6623 151.698 37.8771 151.921 38.1155C152.098 38.3057 152.554 38.2599 152.911 38.1437C153.045 38.1001 153.209 38.1294 153.404 38.1621C153.605 38.1958 153.837 38.2327 154.099 38.1942C154.158 38.1853 154.214 38.1766 154.267 38.168L153.993 38.1425C154.531 38.0034 154.844 37.9223 155.097 37.8571C155.176 37.8364 155.25 37.8175 155.324 37.7975C155.558 37.7343 155.848 37.6807 156.138 37.6231C156.486 37.5544 156.834 37.4794 157.089 37.3819C157.096 37.3826 157.103 37.3833 157.11 37.384C157.77 37.45 158.284 37.5092 158.973 37.5127C159.32 37.5169 159.724 37.7817 160.082 38.2725C160.442 38.7635 160.727 39.4365 160.867 40.1643C161.006 40.8922 160.99 41.6237 160.814 42.2143C160.639 42.8039 160.311 43.2019 159.903 43.327C159.131 43.5689 158.197 43.7805 157.379 43.8999C157.342 43.9057 157.305 43.9114 157.267 43.9169C156.237 44.0687 155.24 44.1499 154.207 44.1205C154.052 44.1159 153.896 44.1095 153.738 44.1012C153.675 44.087 153.48 44.0919 153.42 44.0716C152.849 43.9837 152.282 43.8706 151.719 43.7336C151.646 43.7156 151.572 43.697 151.497 43.678C150.852 43.7324 150.199 43.745 149.748 43.6852C149.375 43.6361 149.136 43.4648 148.936 43.3173C148.798 43.2154 148.676 43.124 148.535 43.0869C148.46 43.0669 148.354 43.0442 148.227 43.0152C147.71 42.8996 146.801 42.6624 146.075 42.1069C145.756 41.8636 145.412 41.5035 145.105 41.1392C144.659 40.6186 144.284 40.0751 143.999 39.9067C143.491 39.6134 143.048 39.0201 142.741 38.421C142.441 37.8499 142.271 37.291 142.043 37.0127C141.769 36.6757 141.728 36.2909 141.752 35.7707C141.765 35.5046 141.796 35.2139 141.844 34.8562C141.861 34.7693 141.877 34.6752 141.889 34.5725C141.942 34.1487 142.065 33.8546 142.171 33.6051C142.321 33.2558 142.436 32.9997 142.31 32.5777C142.168 32.1126 142.114 31.6176 142.232 31.2576C142.285 31.091 142.311 30.8999 142.34 30.6966C142.379 30.429 142.425 30.1462 142.545 29.9075C142.645 29.7108 142.825 29.5678 142.984 29.4485C143.034 29.4108 143.082 29.3748 143.124 29.3392C143.162 29.1751 143.201 29.012 143.24 28.849C143.224 28.8168 143.207 28.7825 143.189 28.7466C143.1 28.5661 142.993 28.3438 142.981 28.0971C142.962 27.7063 143.14 27.417 143.33 27.1247C143.48 26.894 143.637 26.6615 143.728 26.3568C143.789 26.1496 143.825 25.9017 143.868 25.652C143.927 25.2862 144.001 24.9187 144.157 24.716C144.215 24.6396 144.332 24.6056 144.448 24.5731C144.448 24.573 144.449 24.573 144.45 24.5729C144.457 24.5707 144.465 24.5685 144.473 24.5664C144.675 23.9948 144.896 23.4216 145.137 22.8564C145.144 22.799 145.152 22.7403 145.16 22.6839C145.197 22.4068 145.243 22.1333 145.205 21.9109C145.161 21.6722 145.333 21.2323 145.53 20.7801C145.662 20.4792 145.799 20.1795 145.892 19.907C145.946 19.7481 146.111 19.689 146.281 19.6287C146.44 19.5729 146.604 19.5155 146.686 19.3797C146.728 19.3115 146.753 19.2211 146.78 19.1242C146.804 19.039 146.831 18.9485 146.872 18.8646C146.91 18.786 147.07 18.6787 147.275 18.5452C147.402 18.4628 147.548 18.3683 147.693 18.2663C147.96 17.8924 148.243 17.5235 148.536 17.1653C148.543 17.0882 148.541 17.0076 148.528 16.9235C148.521 16.8693 148.51 16.8138 148.493 16.7568C148.463 16.6511 148.414 16.5364 148.365 16.4186C148.299 16.2584 148.231 16.0919 148.207 15.9329C148.187 15.8089 148.222 15.721 148.292 15.7156C148.325 15.7131 148.366 15.728 148.402 15.7416C148.444 15.7571 148.481 15.771 148.497 15.7552C148.509 15.7438 148.503 15.7116 148.496 15.6725C148.485 15.6099 148.472 15.5287 148.52 15.4832C148.701 15.3125 148.93 15.1483 149.161 14.9909C149.416 14.8169 149.671 14.6523 149.853 14.4931C150.057 14.3135 150.433 14.1747 150.811 14.052C151.075 13.9656 151.339 13.8863 151.55 13.7947C151.756 13.7052 151.929 13.5399 152.101 13.382C152.306 13.1925 152.511 13.0134 152.751 12.9961C152.799 12.9927 152.899 13.0689 153.023 13.1655C153.11 13.234 153.21 13.3127 153.312 13.3809C153.559 13.2637 153.81 13.1566 154.063 13.0589C154.066 13.0411 154.069 13.0229 154.072 13.0045C154.072 13.0041 154.072 13.0037 154.072 13.0033C154.137 12.5879 154.258 12.0093 154.774 12.133C154.904 12.1651 155.015 12.2715 155.114 12.3678C155.212 12.4623 155.298 12.5475 155.38 12.544C155.473 12.54 155.548 12.4365 155.633 12.3242C155.753 12.1666 155.89 11.9913 156.098 12.0539C156.112 12.0582 156.127 12.063 156.143 12.0676C156.293 12.1117 156.512 12.1795 156.758 12.3738C157.314 12.2963 157.867 12.254 158.414 12.2391C159.325 12.2143 160.216 12.2655 161.085 12.3553C161.507 12.3998 161.925 12.7167 162.235 13.2485C162.544 13.7811 162.722 14.4791 162.748 15.2056C162.773 15.9323 162.649 16.639 162.429 17.1972C162.205 17.755 161.904 18.115 161.579 18.2228C161.046 18.397 160.532 18.5886 160.042 18.7888C160.018 18.8081 159.993 18.8269 159.969 18.8448C159.788 18.9784 159.646 19.213 159.512 19.449C159.482 19.5032 159.452 19.5575 159.422 19.6107Z" fill="black"/>
<path d="M207.053 28.9483C207.152 29.4894 206.68 30.1489 206.441 30.5388C206.436 30.5459 206.432 30.553 206.428 30.5602C206.37 30.6518 206.329 30.7437 206.282 30.8516C206.171 31.1125 206.016 31.4503 205.583 32.1612C205.527 32.3886 205.474 32.6165 205.421 32.8444C205.045 34.4603 204.796 36.1334 204.728 37.903C204.684 37.8107 204.538 37.5533 204.413 37.4945C204.29 37.4264 204.282 37.539 204.436 37.6929C204.451 37.6988 204.466 37.7051 204.481 37.7115C204.776 37.8415 205.446 38.0184 205.901 38.2548C206.16 38.3936 206.403 38.5171 206.629 38.6315C206.8 38.7493 206.951 38.8469 207.093 38.9313C208.602 39.3813 210.709 38.9017 212.608 37.7328C213.205 37.3717 213.788 36.9524 214.346 36.4886C214.647 36.2381 214.943 35.9757 215.232 35.7033C215.306 35.6295 215.373 35.5421 215.439 35.4289C215.479 35.2343 215.49 35.0055 215.489 34.7675C215.489 34.4326 215.466 34.0834 215.49 33.7847C215.538 33.2256 215.685 32.5151 215.834 31.8408C215.867 31.7377 215.895 31.6368 215.918 31.54C215.934 31.468 215.948 31.3983 215.958 31.3328C215.896 30.9735 215.777 30.6102 215.604 30.2404C215.624 30.2059 215.644 30.1703 215.664 30.1336C215.913 29.671 215.727 29.1962 215.293 28.4981C215.101 28.1926 214.858 27.8411 214.559 27.4155C214.547 27.3987 214.536 27.3821 214.525 27.3656C214.397 27.1545 214.409 26.961 214.414 26.7947C214.416 26.7428 214.416 26.6941 214.411 26.6494C214.394 26.4957 214.226 26.4766 214.034 26.467C213.781 26.4522 213.497 26.4593 213.348 26.1403C212.825 25.1072 212.128 25.2187 211.711 25.3308C211.582 25.3631 211.466 25.3937 211.362 25.3947C211.023 25.3968 210.65 25.1189 210.363 24.8368C210.138 24.6112 209.537 24.5851 209.059 24.655C208.999 24.6632 208.936 24.6632 208.868 24.6576L209.216 24.7172C209.125 24.7296 209.017 24.723 208.89 24.7213C208.695 24.7184 208.449 24.7279 208.182 24.8329C207.506 25.1039 207.122 25.3056 206.818 25.458C206.732 25.5023 206.649 25.5448 206.568 25.5884C206.311 25.7265 205.982 25.883 205.646 26.0547C205.243 26.26 204.832 26.4863 204.532 26.7004C204.367 26.7479 204.201 26.7968 204.033 26.8474L204.191 26.7767C203.511 27.0121 202.809 27.2922 202.08 27.6129C201.622 27.8137 201.028 27.7873 200.424 27.515C199.82 27.2423 199.263 26.7456 198.875 26.1144C198.487 25.4832 198.29 24.7641 198.328 24.0977C198.365 23.4319 198.641 22.8731 199.097 22.5366C199.819 22.0044 200.586 21.4732 201.416 20.9859C201.444 20.9768 201.521 20.9336 201.55 20.9258C201.769 20.81 201.989 20.6977 202.214 20.5872C203.503 19.9579 204.889 19.3974 206.505 19.1003C207.501 18.923 208.595 18.828 209.802 18.9735C209.887 18.9934 210.144 19.0147 210.225 19.0459C210.34 19.0772 210.459 19.1104 210.576 19.144C210.678 19.1734 210.779 19.2033 210.882 19.2344C211.768 19.2792 212.698 19.4122 213.342 19.6033C213.874 19.7597 214.214 20.0209 214.495 20.2487C214.69 20.4062 214.859 20.5495 215.057 20.6467C215.163 20.6989 215.312 20.7672 215.489 20.8547C216.21 21.1988 217.478 21.9494 218.285 23.0691C218.475 23.3282 218.655 23.6285 218.818 23.9493C218.934 24.1991 219.043 24.4606 219.144 24.7195C219.455 25.5068 219.672 26.2696 219.911 26.5896C220.337 27.1501 220.592 27.9553 220.733 28.6921C220.873 29.3964 220.913 30.0312 221.08 30.3818C221.278 30.8034 221.247 31.2059 221.142 31.7734C221.106 31.9588 221.062 32.1621 221.008 32.3914C220.956 32.5777 220.904 32.7942 220.857 33.0545C220.756 33.6229 220.591 34.0383 220.441 34.3902C220.225 34.8908 220.058 35.2556 220.033 35.9276C220.006 36.6738 219.747 37.5448 219.266 38.1204C219.052 38.3804 218.81 38.6921 218.514 38.9904C218.463 39.0426 218.41 39.0945 218.355 39.1457C218.124 39.3643 217.876 39.5818 217.606 39.7346C217.35 39.8799 217.074 39.922 216.83 39.956C216.754 39.9665 216.681 39.9765 216.613 39.9886C216.436 40.1331 216.257 40.2764 216.076 40.419C216.06 40.46 216.045 40.5041 216.028 40.5499C215.943 40.7797 215.833 41.0633 215.617 41.3146C215.274 41.7122 214.847 41.8955 214.393 42.0706C214.04 42.207 213.669 42.3394 213.281 42.5687C213.017 42.7252 212.725 42.9322 212.422 43.1292C211.975 43.4221 211.497 43.6891 211.121 43.7531C210.981 43.7773 210.838 43.7267 210.699 43.6738C210.698 43.6735 210.697 43.6731 210.697 43.6727C210.687 43.6691 210.678 43.6656 210.668 43.6621C209.817 43.9814 208.899 44.2248 207.931 44.3401C207.848 44.3664 207.763 44.3914 207.678 44.415C207.264 44.5313 206.847 44.6146 206.559 44.74C206.342 44.8352 205.903 44.8704 205.379 44.8386C205.201 44.8353 205.001 44.8246 204.797 44.8109C204.355 44.7811 203.877 44.7304 203.456 44.7004C203.211 44.6832 203.014 44.5222 202.816 44.3506C202.63 44.19 202.443 44.0208 202.187 43.9375C202.059 43.8956 201.909 43.8712 201.744 43.8387C201.599 43.8101 201.443 43.7753 201.284 43.7171C201.138 43.6626 200.852 43.4526 200.49 43.1234C200.267 42.9199 200.014 42.6684 199.755 42.375C198.962 41.7293 198.197 40.6908 197.854 39.5304C197.712 39.3064 197.569 39.1174 197.407 38.9624C197.292 38.8499 197.163 38.7623 197.033 38.6612C196.94 38.5899 196.847 38.5143 196.759 38.4256C196.681 38.3872 196.607 38.3441 196.54 38.293C196.43 38.2093 196.383 38.1044 196.423 38.0306C196.441 37.9962 196.478 37.9688 196.511 37.944C196.55 37.9156 196.584 37.8903 196.581 37.8615C196.58 37.8408 196.551 37.8204 196.516 37.7951C196.46 37.7546 196.388 37.7015 196.382 37.6165C196.362 37.3005 196.377 36.9386 196.4 36.5852C196.425 36.1912 196.459 35.8074 196.452 35.4989C196.443 35.1534 196.577 34.6665 196.727 34.1875C196.831 33.8531 196.943 33.5217 197.011 33.2349C197.079 32.954 197.067 32.6499 197.061 32.3528C197.054 31.9967 197.056 31.6498 197.205 31.3877C197.235 31.3348 197.361 31.288 197.518 31.2312C197.629 31.191 197.756 31.1455 197.877 31.0894C197.958 30.7419 198.051 30.3967 198.156 30.0554C198.145 30.0392 198.134 30.0224 198.122 30.0056C198.122 30.0053 198.121 30.005 198.121 30.0047C197.856 29.6277 197.506 29.0782 197.971 28.6213C198.089 28.506 198.249 28.465 198.393 28.4293C198.534 28.3941 198.661 28.3641 198.718 28.274C198.784 28.1717 198.763 28.0145 198.743 27.8424C198.715 27.6012 198.689 27.3257 198.893 27.1488C198.907 27.1368 198.922 27.1239 198.937 27.1103C199.083 26.9818 199.302 26.7936 199.635 26.6685C200.01 26.014 200.425 25.387 200.869 24.7895C201.61 23.7947 202.433 22.8823 203.299 22.0458C203.721 21.6383 204.342 21.4354 205.013 21.5011C205.683 21.5688 206.345 21.8917 206.878 22.3851C207.413 22.8786 207.789 23.5044 207.977 24.1172C208.162 24.7333 208.141 25.2846 207.925 25.6894C207.569 26.3497 207.256 27.0182 206.982 27.6857C206.975 27.7253 206.968 27.7647 206.96 27.8034C206.902 28.0937 206.952 28.4158 207.011 28.7319C207.025 28.8045 207.04 28.8765 207.053 28.9483Z" fill="black"/>
<path d="M22.0583 8.89657C21.6766 9.29814 20.8698 9.30841 20.4209 9.34541C20.4127 9.34616 20.4044 9.34691 20.3962 9.34766C20.2893 9.3556 20.1936 9.37578 20.0798 9.40163C19.8059 9.46706 19.4516 9.54049 18.6337 9.61187C18.4208 9.70222 18.2103 9.79329 17.998 9.88602C15.7198 10.8765 13.4287 12.2551 11.1993 14.0702C11.1758 14.0972 11.1519 14.1247 11.1277 14.1527C10.833 14.4928 10.5149 14.8785 10.1941 15.2236C10.0125 15.4177 9.83954 15.5881 9.67839 15.71C9.13203 16.1279 8.74798 16.4107 8.42851 16.6469C6.97775 18.2666 5.84575 20.2065 5.23978 22.3713C5.04916 23.0481 4.90936 23.7432 4.82183 24.4508C4.74114 25.1027 4.70108 25.7633 4.69744 26.4277C4.75899 26.8166 4.84464 27.186 4.92998 27.5264C5.04992 28.0046 5.16889 28.4249 5.22025 28.7781C5.34202 29.622 5.30525 30.6056 5.29892 31.3555C5.29769 31.4781 5.29682 31.5927 5.29727 31.6993C5.36472 32.024 5.43635 32.3483 5.51065 32.671C5.55828 32.8454 5.61411 33.0062 5.67827 33.1603C5.6565 33.1915 5.63373 33.223 5.61096 33.2564C5.33058 33.6726 5.47446 34.1023 5.8579 34.6577C6.02873 34.9019 6.25101 35.175 6.55187 35.5052C6.74622 35.7167 6.76757 35.9315 6.78946 36.1121C6.79605 36.165 6.80303 36.2148 6.81502 36.2599C6.856 36.4142 7.0302 36.418 7.23136 36.4135C7.49475 36.4089 7.79768 36.3877 7.99648 36.71C8.66751 37.7462 9.36473 37.6374 9.82013 37.5429C9.95821 37.5154 10.083 37.4898 10.1971 37.4947C10.5652 37.5109 10.975 37.8226 11.2716 38.1337C11.5043 38.3808 12.1416 38.4707 12.6611 38.4699C12.8567 38.4696 13.0912 38.5546 13.3741 38.6582C13.5589 38.7259 13.7677 38.8029 13.9948 38.8671L13.7686 38.7926C13.8854 38.8132 14.0021 38.8264 14.1177 38.8275C14.8885 38.8226 15.242 38.7514 15.5945 38.716C15.6916 38.7041 15.7842 38.6928 15.8775 38.68C16.0843 38.6519 16.3306 38.6287 16.599 38.6043C16.7125 38.5937 16.8327 38.5831 16.9528 38.5718C17.4319 38.5272 17.9354 38.4738 18.3218 38.3941C19.3161 38.5046 20.3361 38.6237 21.3606 38.7397C21.8868 38.7999 22.394 39.1324 22.7686 39.6805C23.143 40.2289 23.3539 40.9439 23.354 41.685C23.3539 42.4261 23.1433 43.1411 22.7678 43.6895C22.3923 44.2373 21.8815 44.5701 21.3477 44.628C20.2714 44.743 19.1913 44.8556 18.0871 44.9277C17.4952 44.9658 16.8971 44.993 16.2713 44.9941C15.4735 44.9934 14.6208 44.9567 13.681 44.7866C13.1537 44.6916 12.6271 44.5542 12.1914 44.4241C12.1385 44.4015 11.9698 44.3618 11.9191 44.3345C11.4785 44.1583 11.0193 43.9754 10.5497 43.7816C10.4614 43.7452 10.3718 43.7078 10.2834 43.6708C9.48375 43.5665 8.65342 43.4178 8.0788 43.2369C7.60441 43.0884 7.30564 42.8454 7.05331 42.6345C6.87918 42.4889 6.72626 42.358 6.54431 42.2757C6.44655 42.2314 6.31103 42.1752 6.1458 42.1034C5.47933 41.8177 4.29144 41.2433 3.41131 40.2896C3.02369 39.8729 2.6337 39.3009 2.31555 38.7204C1.85203 37.8906 1.56309 37.0554 1.30224 36.7034C0.830259 36.0821 0.578588 35.1948 0.474937 34.4355C0.419489 34.0513 0.394531 33.7052 0.360436 33.4042C0.338939 33.1971 0.298849 33.0206 0.222771 32.8959C0.0326703 32.5892 0.0551236 32.2955 0.0939524 31.8621C0.121295 31.5619 0.155758 31.1928 0.140466 30.6968C0.123297 30.124 0.199105 29.7108 0.26639 29.3595C0.362376 28.8684 0.439728 28.5037 0.257885 27.9587C0.0561535 27.3544 -0.0561776 26.7024 0.0242715 26.1954C0.0607061 25.9623 0.0670884 25.7004 0.0785229 25.4213C0.0932126 25.0558 0.11745 24.6651 0.22285 24.3225C0.309856 24.038 0.482724 23.8167 0.637176 23.6252C0.685398 23.5653 0.731708 23.508 0.773394 23.4522C0.804455 23.2232 0.837 22.9995 0.871942 22.7713C0.855443 22.7306 0.836933 22.6876 0.818048 22.6425C0.72331 22.4164 0.609552 22.1375 0.596065 21.8071C0.574331 21.2883 0.759173 20.8697 0.964705 20.4416C1.12525 20.1078 1.29899 19.7659 1.41051 19.3485C1.48668 19.0633 1.54335 18.7246 1.6076 18.391C1.70395 17.891 1.81907 17.4022 2.01026 17.1095C2.08139 17.0007 2.2098 16.9377 2.33733 16.8772C2.33803 16.877 2.33873 16.8768 2.33943 16.8766C2.3481 16.8724 2.35664 16.8683 2.36527 16.8641C2.65507 16.0842 2.98664 15.3101 3.35478 14.5576C3.37297 14.4835 3.39234 14.4088 3.41216 14.3348C3.50825 13.9737 3.60965 13.6285 3.61501 13.3518C3.61693 13.056 3.90277 12.4807 4.22823 11.902C4.44569 11.5158 4.67492 11.1321 4.84852 10.7915C4.87819 10.7332 4.9171 10.6838 4.96264 10.6408C5.06764 10.5426 5.20966 10.4823 5.35402 10.4226C5.54479 10.3437 5.73936 10.2659 5.86114 10.1001C5.9211 10.0181 5.97141 9.90723 6.02439 9.79043C6.07113 9.6875 6.12075 9.57899 6.18499 9.47755C6.24586 9.38223 6.44606 9.24622 6.71427 9.06687C6.88047 8.95557 7.0686 8.83187 7.25831 8.69884C7.65457 8.23198 8.06444 7.77724 8.50327 7.32707C8.54715 7.18076 8.563 7.02768 8.54253 6.86652C8.52792 6.75085 8.4936 6.62713 8.46181 6.49806C8.41778 6.3231 8.3733 6.1417 8.37564 5.96632C8.37746 5.82927 8.43243 5.73057 8.51413 5.72016C8.5522 5.71532 8.59561 5.72925 8.63486 5.74187C8.67983 5.75632 8.7198 5.76923 8.74108 5.75085C8.75639 5.73753 8.75533 5.70253 8.75447 5.65987C8.75306 5.59179 8.75188 5.50343 8.81473 5.45061C9.05668 5.24764 9.35124 5.05045 9.64137 4.86469C9.97363 4.65078 10.2913 4.4576 10.5332 4.26864C10.8061 4.05528 11.2648 3.87956 11.7389 3.7133C12.0638 3.60039 12.3979 3.49027 12.6662 3.37513C12.9265 3.26353 13.167 3.07024 13.3996 2.88895C13.6749 2.673 13.9608 2.46366 14.2571 2.428C14.3174 2.42065 14.4284 2.49373 14.5679 2.58555C14.6673 2.65042 14.7805 2.72505 14.8981 2.78849C15.2258 2.64534 15.5574 2.51466 15.8951 2.39484C15.9014 2.37609 15.908 2.35695 15.9145 2.3375C15.9145 2.33708 15.9146 2.33667 15.9147 2.33625C16.0552 1.89992 16.2942 1.28937 16.9388 1.39105C17.1023 1.41718 17.2306 1.52158 17.3449 1.61605C17.4572 1.70886 17.5555 1.79283 17.6621 1.78564C17.7843 1.77713 17.899 1.6673 18.0259 1.54905C18.2027 1.38334 18.4089 1.19931 18.6729 1.25803C18.6909 1.26205 18.7102 1.26657 18.7302 1.27096C18.9193 1.31266 19.1999 1.37698 19.4981 1.57161C20.2448 1.48626 20.9877 1.44994 21.7219 1.45241C22.9435 1.45654 24.1312 1.56981 25.2714 1.72927C25.8252 1.80759 26.345 2.15854 26.7059 2.71364C27.0702 3.26973 27.2524 3.9793 27.2303 4.70592C27.2081 5.43273 26.9812 6.12799 26.6105 6.66599C26.2418 7.20345 25.7641 7.53608 25.2877 7.61748C24.507 7.74835 23.7582 7.90471 23.045 8.08568C23.0085 8.10398 22.9719 8.1219 22.9355 8.13899C22.663 8.26631 22.4314 8.49842 22.2088 8.73453C22.1581 8.78872 22.1083 8.84317 22.0583 8.89657Z" fill="black"/>
</svg>
