<svg width="333" height="70" viewBox="0 0 333 70" fill="none" xmlns="http://www.w3.org/2000/svg">
<path d="M35.3513 9.14744C34.5346 9.47201 33.0181 9.31894 32.1561 9.3047C32.1404 9.3044 32.1247 9.30411 32.109 9.30383C31.9055 9.2982 31.7143 9.30901 31.4901 9.32522C30.9552 9.37026 30.2379 9.4089 28.6988 9.47859C28.2672 9.58069 27.84 9.68993 27.4147 9.8063C26.978 9.92582 26.5434 10.0554 26.1169 10.1939C22.2808 11.3742 19.3853 13.8433 16.5928 17.778C16.5605 17.8347 16.5276 17.8927 16.4944 17.9516C15.8493 19.0883 15.1016 20.578 14.4902 21.461C13.7094 22.5868 13.1574 23.3466 12.6898 23.985C10.758 27.3799 8.92816 30.9195 7.16947 34.5073C6.96066 34.9294 6.76972 35.3572 6.59471 35.7952C6.12992 36.9582 5.78546 38.1791 5.56349 39.4317C5.35891 40.585 5.25348 41.764 5.23802 42.9506C5.29972 43.6437 5.40543 44.3008 5.52108 44.9041C5.68367 45.7539 5.86534 46.4984 5.97306 47.1188C6.22704 48.6099 6.41409 50.3308 6.62941 51.619C6.6639 51.8296 6.69749 52.0254 6.73178 52.2099C7.0484 53.1946 7.40906 54.1662 7.80769 55.1197C7.80044 55.1957 7.79225 55.2726 7.78384 55.3508C7.68289 56.3273 8.07343 57.3619 8.81114 58.916C8.83459 58.9651 8.85832 59.0144 8.88235 59.0641C9.09285 59.4934 9.37176 59.9147 9.81733 60.3504C10.1298 60.65 10.2485 60.9184 10.357 61.1483C10.3895 61.2153 10.4221 61.2783 10.4607 61.3352C10.593 61.5301 10.8562 61.5345 11.1551 61.5164C11.5516 61.4953 11.9962 61.4381 12.5176 61.7731C14.2712 62.8242 15.3865 62.4216 16.0774 62.1671C16.2889 62.0881 16.4819 62.0148 16.6762 61.9766C17.3063 61.8547 18.2086 62.0102 18.9158 62.2029C19.4742 62.3586 20.6007 62.1711 21.466 61.9381C21.7935 61.8505 22.2422 61.8321 22.7757 61.8118C23.1606 61.7972 23.5898 61.7818 24.049 61.7412L23.6205 61.7834C23.812 61.7372 24.0043 61.6849 24.2022 61.6229C25.8132 61.1154 26.6596 60.8339 27.3369 60.6094C27.5315 60.5447 27.7086 60.4852 27.8892 60.4235C28.4548 60.2298 29.1583 60.0133 29.8605 59.7845C30.7016 59.5114 31.5388 59.2184 32.1424 58.9471C32.9007 58.7816 33.6519 58.6034 34.3119 58.4171L34.2865 58.4267C35.2038 58.1517 36.0385 57.8753 36.9616 57.5408C37.8241 57.23 38.7905 57.1915 39.6524 57.4636C40.5099 57.7379 41.1887 58.2972 41.539 59.0425C41.8856 59.7893 41.8794 60.6696 41.5238 61.5059C41.1627 62.3437 40.4827 63.0644 39.6126 63.5221C38.7032 64.0017 37.7055 64.4948 36.7493 64.9219C36.7449 64.9231 36.7323 64.9287 36.7279 64.9299C35.7613 65.3491 34.8383 65.6842 33.9166 65.9929C31.5604 66.7749 29.226 67.3657 26.8666 67.8167C26.1552 67.9519 25.4426 68.0773 24.7291 68.1936C24.6249 68.2029 24.3184 68.2503 24.214 68.2444C23.3255 68.2578 22.4041 68.2798 21.4631 68.2915C21.2929 68.2936 21.1204 68.2953 20.9495 68.2966C19.5572 68.545 18.1022 68.745 17.0436 68.7824C16.1701 68.815 15.5202 68.6676 14.9664 68.5307C14.5827 68.436 14.247 68.346 13.8908 68.3131C13.7001 68.2954 13.4414 68.2757 13.1199 68.2429C11.8451 68.1124 9.43689 67.7701 7.35013 66.3052C6.44212 65.6749 5.47629 64.6804 4.81146 63.5864C4.36401 62.8637 4.05001 62.1308 3.82423 61.482C3.6488 60.9116 3.48767 60.4361 3.32286 60.1502C2.78441 59.2201 2.42828 58.0399 2.15775 56.9957C1.8977 55.9998 1.70879 55.1217 1.43491 54.6701C1.10744 54.1281 1.03252 53.6034 0.943666 52.8262C0.883339 52.2869 0.815944 51.627 0.679607 50.7391C0.524138 49.7144 0.533023 48.9696 0.549676 48.3421C0.576314 47.4555 0.613894 46.8007 0.363555 45.8308C0.0863165 44.7523 -0.0554212 43.5862 0.0459991 42.6737C0.0913019 42.2577 0.109586 41.7824 0.142113 41.2848C0.184469 40.6281 0.253588 39.9338 0.422718 39.3159C0.561701 38.8081 0.796437 38.4087 1.0084 38.0658C1.07463 37.9585 1.13864 37.856 1.1975 37.7565C1.28067 37.3527 1.37155 36.9529 1.47101 36.5517C1.46294 36.4805 1.45343 36.405 1.44403 36.3266C1.39697 35.9339 1.34953 35.4396 1.44117 34.8689C1.58902 33.9611 1.96356 33.2412 2.38911 32.5111C2.41188 32.4721 2.43484 32.433 2.45794 32.3939C2.75045 31.9097 3.04338 31.4152 3.28616 30.8104C3.46796 30.3585 3.62952 29.838 3.79067 29.3206C4.03724 28.536 4.27019 27.7874 4.55646 27.2994C4.66238 27.1195 4.82683 26.9993 4.98974 26.8815C4.99061 26.881 4.99149 26.8806 4.99236 26.8801C5.00342 26.8721 5.01435 26.864 5.02537 26.856C5.51585 25.5869 5.99192 24.3416 6.49269 23.0621C6.51891 22.9453 6.54588 22.8279 6.57267 22.712C6.71106 22.1299 6.84229 21.5786 6.85006 21.1731C6.86033 20.7293 7.20222 19.7765 7.58204 18.7772C7.83734 18.1089 8.10314 17.4333 8.29823 16.8533C8.40844 16.5212 8.6636 16.268 8.92301 16.0191C9.16491 15.7873 9.41489 15.5505 9.57508 15.2206C9.65478 15.0562 9.7159 14.8654 9.78179 14.6628C9.84082 14.4828 9.90707 14.2876 9.99137 14.097C10.0704 13.9191 10.338 13.5851 10.6987 13.152C10.9187 12.8889 11.175 12.5871 11.4403 12.2684C11.9981 11.329 12.6047 10.4012 13.2933 9.48704C13.3739 9.24902 13.4222 9.01234 13.4182 8.78734C13.4153 8.62579 13.3862 8.46318 13.3582 8.29584C13.3206 8.06752 13.2811 7.83341 13.3184 7.57486C13.3466 7.37379 13.4496 7.19816 13.5762 7.1365C13.6351 7.10776 13.6984 7.10341 13.7557 7.09956C13.8214 7.09515 13.8797 7.0914 13.9162 7.05276C13.9426 7.02485 13.9485 6.97464 13.9566 6.91322C13.9702 6.81455 13.9895 6.68565 14.1011 6.57273C14.5147 6.1539 15.0331 5.71452 15.5612 5.30803C16.1501 4.85294 16.7507 4.43931 17.218 4.08995C17.7398 3.69662 18.5947 3.29271 19.4593 2.96225C20.0646 2.72845 20.6674 2.52915 21.1786 2.34102C21.6696 2.16043 22.1599 1.89613 22.6289 1.65991C22.8011 1.57327 22.9731 1.48926 23.1444 1.41288C23.5182 1.24398 23.8878 1.11313 24.2375 1.08222C24.3392 1.07325 24.494 1.15794 24.6858 1.2658C24.8211 1.34243 24.9757 1.43065 25.143 1.50605C25.7377 1.3433 26.3349 1.20351 26.9374 1.08452C26.955 1.0634 26.9733 1.04186 26.9914 1.02C26.9917 1.01953 26.9919 1.01906 26.9922 1.01858C27.3977 0.526592 28.0044 -0.149755 29.0317 0.0291767C29.2917 0.0751642 29.4672 0.20605 29.624 0.324247C29.778 0.440489 29.9145 0.545166 30.0949 0.549944C30.2998 0.555341 30.5293 0.44762 30.783 0.33356C31.1377 0.173412 31.5441 0.0003187 31.9673 0.107808C31.9962 0.11514 32.0272 0.12326 32.0595 0.131373C32.3653 0.208041 32.8168 0.327303 33.2597 0.59773C34.5586 0.647597 35.8542 0.78752 37.1347 1.01704C39.2688 1.39971 41.3641 2.03177 43.3506 2.9184C44.3187 3.34957 45.1103 4.10812 45.4895 4.96863C45.8726 5.83182 45.8207 6.70463 45.4307 7.41025C45.0394 8.11815 44.3552 8.62616 43.5711 8.92038C42.7836 9.21189 41.9569 9.26718 41.1887 9.09338C39.9349 8.80617 38.6487 8.64467 37.3564 8.58425C37.2872 8.59082 37.2179 8.59715 37.1491 8.60282C36.6365 8.6451 36.15 8.82253 35.6767 9.01425C35.5678 9.05831 35.4594 9.10324 35.3513 9.14744Z" fill="black"/>
<path d="M61.8611 49.0962C62.3649 49.7698 62.5208 51.1768 62.6589 51.9426C62.6614 51.9566 62.6639 51.9705 62.6665 51.9845C62.697 52.1645 62.7422 52.3342 62.7964 52.5272C62.9319 52.9884 63.0942 53.616 63.3904 54.9152C63.5521 55.2579 63.7199 55.5957 63.8889 55.9184C64.0609 56.2471 64.2379 56.5631 64.4186 56.8623C64.2806 56.7914 64.9727 57.4841 66.0983 58.0271C67.2112 58.5997 68.6025 59.1675 70.0347 59.7479C71.0523 60.1836 72.1346 60.4979 73.2714 60.6751C73.3214 60.676 73.3732 60.6767 73.4249 60.677C74.4256 60.6931 75.6648 60.5432 76.4772 60.5451C77.5137 60.5541 78.2437 60.5189 78.8493 60.4807C79.4086 60.3592 79.969 60.2047 80.4991 60.0247C82.4744 59.4785 84.361 57.145 85.4479 54.3527C85.8701 53.2995 86.2055 52.1795 86.461 51.0312C86.6964 49.9727 86.8687 48.8906 86.986 47.7969C86.9839 47.1523 86.9466 46.5349 86.9008 45.9686C86.8368 45.17 86.7568 44.4639 86.738 43.8892C86.7329 43.729 86.7299 43.5685 86.7285 43.4087C86.7198 42.4048 86.6646 41.3324 86.4968 40.4866C86.4671 40.3315 86.4349 40.1843 86.4016 40.0493C86.0906 39.3394 85.6918 38.6608 85.2206 38.0171C85.2198 37.9552 85.2195 37.8921 85.2184 37.8269C85.2022 37.0193 84.6757 36.2703 83.6802 35.2789C83.2949 34.8992 82.8346 34.483 82.2997 34.0475C82.2428 34.0005 82.1842 33.9538 82.1233 33.9069C81.7896 33.6533 81.6686 33.4057 81.5564 33.1939C81.5234 33.1323 81.4908 33.0746 81.4533 33.0236C81.3239 32.8484 81.086 32.8742 80.8186 32.9243C80.4658 32.9886 80.0818 33.0934 79.6257 32.8172C78.0834 31.957 77.1587 32.4927 76.6374 32.837C76.4746 32.9433 76.3296 33.0419 76.1777 33.1067C75.956 33.2013 75.6844 33.2477 75.3957 33.2668C75.1281 33.2748 74.8401 33.2522 74.5741 33.2245C74.1854 33.1761 73.5709 33.6328 73.2262 34.1219C73.0933 34.3036 72.8618 34.474 72.5892 34.7082C72.3071 34.9499 71.9818 35.2616 71.6978 35.6933C71.3344 36.247 71.0552 36.7196 70.8013 37.1288L70.9627 36.9148C70.8444 37.1958 70.7497 37.4507 70.6695 37.6824C70.6227 37.8179 70.5795 37.9478 70.5389 38.0795C70.409 38.4971 70.2336 39.0376 70.0763 39.6121C69.887 40.2981 69.7239 41.0306 69.6531 41.6047C69.3261 42.4722 69.0211 43.3717 68.7395 44.2914L68.7666 44.1569C68.6232 44.6857 68.5068 45.1635 68.4152 45.6633C68.2889 46.3388 67.9052 47.0731 67.2902 47.6494C66.6756 48.2238 65.8831 48.566 65.0593 48.5672C64.2363 48.5657 63.4396 48.2317 62.836 47.6042C62.2347 46.9787 61.8763 46.0856 61.8981 45.0872C61.9136 44.3615 61.973 43.6232 62.0521 42.9346C62.0583 42.9123 62.0679 42.8432 62.075 42.8211C62.2477 41.6632 62.4643 40.5025 62.7514 39.3349C63.2812 37.2789 63.8898 35.236 65.3484 33.0309C65.386 32.9859 65.4832 32.8393 65.5244 32.7976C65.6336 32.6627 65.7504 32.5197 65.8695 32.3768C66.8872 31.1506 68.1894 29.7708 69.8974 28.7112C70.073 28.6021 70.252 28.4971 70.4359 28.3953C71.5947 27.5125 73.0404 26.8548 74.226 26.573C74.399 26.5272 74.565 26.4872 74.7222 26.453C75.57 26.2701 76.2269 26.3237 76.782 26.3852C77.1656 26.4281 77.5035 26.4761 77.8485 26.4674C78.0337 26.4628 78.2879 26.4532 78.5987 26.4517C79.8414 26.431 82.1819 26.6258 84.1237 27.8046C84.7416 28.1727 85.3862 28.6832 85.9526 29.2664C86.1267 29.4552 86.2983 29.6505 86.4611 29.8442C87.3116 30.8542 87.9494 31.8525 88.3944 32.2531C89.1812 32.9537 89.8414 33.994 90.3262 34.956C90.7962 35.8759 91.1133 36.7177 91.4448 37.1402C91.8402 37.6464 91.9749 38.1804 92.1072 38.9702C92.1957 39.5197 92.2846 40.1952 92.3838 41.105C92.493 42.1535 92.3899 42.9045 92.2821 43.5242C92.2816 43.5266 92.2812 43.529 92.2807 43.5314C92.1255 44.3052 91.9979 44.8764 92.1287 45.7574C92.2734 46.7353 92.301 47.7663 92.1299 48.5536C92.0526 48.9105 92.0008 49.3276 91.94 49.7583C91.8595 50.3309 91.7613 50.9328 91.5757 51.464C91.4227 51.902 91.1834 52.2378 90.9689 52.5305C90.9019 52.6218 90.8375 52.7091 90.7784 52.7942C90.6939 53.1469 90.6041 53.5009 90.5102 53.8531C90.5189 53.917 90.5293 53.9848 90.5396 54.0556C90.591 54.4104 90.6481 54.8521 90.5734 55.3635C90.4536 56.1747 90.1143 56.8174 89.7257 57.4787C89.4226 57.9923 89.0896 58.5187 88.7719 59.161C88.5534 59.6022 88.3224 60.1209 88.0581 60.632C87.6703 61.3904 87.1876 62.1365 86.7255 62.545C86.552 62.6998 86.341 62.7728 86.1331 62.8379C86.132 62.838 86.131 62.8382 86.1299 62.8384C86.1158 62.8428 86.1018 62.8473 86.0876 62.8517C85.2008 63.8185 84.112 64.695 82.8524 65.336C82.7112 65.4098 82.5601 65.4858 82.4172 65.5563C82.3161 65.6261 82.2122 65.6955 82.1107 65.7624C81.6095 66.0923 81.1074 66.3879 80.8001 66.6616C80.4679 66.9602 79.5078 67.3571 78.4513 67.6792C77.7614 67.8927 77.0313 68.0767 76.4281 68.2422C76.074 68.3395 75.7207 68.2648 75.3655 68.179C75.0311 68.0991 74.6951 68.0098 74.3302 68.0394C74.1474 68.0543 73.9478 68.0972 73.7352 68.1396C73.547 68.177 73.3466 68.2141 73.1371 68.2311C72.9415 68.2467 72.51 68.1696 71.9674 68.0431C71.6303 67.9649 71.2509 67.8676 70.857 67.7643C69.7836 67.6617 68.7148 67.4706 67.6619 67.1878C67.6327 67.1897 67.6036 67.192 67.5748 67.1947C67.3932 67.2249 67.2255 67.2821 67.0737 67.3718C66.9493 67.4446 66.8316 67.5419 66.7108 67.6412C66.5474 67.7765 66.3744 67.9149 66.1725 68.0033C66.0156 68.0727 65.8542 68.0665 65.7737 67.9879C65.736 67.9511 65.7154 67.8992 65.6965 67.8522C65.6745 67.7981 65.6548 67.75 65.6149 67.7374C65.5861 67.7283 65.5463 67.7474 65.4974 67.7702C65.4191 67.8065 65.3193 67.8539 65.2008 67.815C64.7648 67.6722 64.2725 67.4672 63.7777 67.2493C63.2274 67.0076 62.6739 66.7481 62.2009 66.5593C61.6736 66.349 60.9573 65.8805 60.2097 65.2915C59.6886 64.882 59.1521 64.4073 58.6722 63.9565C58.2015 63.5162 57.6412 63.0505 57.1239 62.4809C56.9227 62.2596 56.73 62.0253 56.5555 61.7799C56.3206 61.4748 56.126 61.1645 56.0286 60.8514C55.999 60.7568 56.051 60.5929 56.119 60.39C56.1671 60.246 56.223 60.0817 56.2642 59.9083C55.9965 59.3968 55.7524 58.8746 55.5328 58.3532C55.5091 58.3417 55.485 58.3297 55.4605 58.3177C55.4599 58.3176 55.4594 58.3174 55.4589 58.3173C54.9105 58.0567 54.1462 57.6456 54.1454 56.6863C54.1464 56.445 54.2438 56.2598 54.3322 56.0944C54.4187 55.9307 54.4984 55.79 54.4719 55.6283C54.4419 55.445 54.2968 55.2636 54.1416 55.0651C53.923 54.7842 53.6833 54.467 53.7115 54.0719C53.7135 54.0453 53.7159 54.0165 53.718 53.9867C53.7381 53.7042 53.7718 53.2845 53.9522 52.8421C53.7554 51.7035 53.6283 50.5697 53.5569 49.4363C53.4385 47.5488 53.4764 45.6748 53.6289 43.8276C53.7037 42.9284 54.1005 42.0705 54.7311 41.4783C55.3626 40.8825 56.1655 40.5958 56.9713 40.6447C57.7781 40.6942 58.535 41.0673 59.1206 41.6465C59.7054 42.2261 60.0699 42.9671 60.1707 43.7292C60.3326 44.9729 60.5562 46.1995 60.8315 47.3987C60.8557 47.4603 60.8795 47.5219 60.9025 47.5832C61.0738 48.0424 61.3624 48.4424 61.6577 48.8303C61.7255 48.9196 61.7939 49.0081 61.8611 49.0962Z" fill="black"/>
<path d="M99.6833 61.8015C99.3816 61.1093 99.696 59.8889 99.8685 59.2165C99.8715 59.2041 99.8745 59.1918 99.8775 59.1794C99.9185 59.0199 99.9432 58.8671 99.9717 58.6881C100.04 58.2614 100.132 57.684 100.529 56.5057C100.565 56.1519 100.604 55.7989 100.648 55.4473C101.13 51.6407 101.931 47.8706 102.843 44.0885C102.848 44.04 102.853 43.9907 102.858 43.9411C102.952 42.9697 103.073 41.7805 103.325 41.0406C103.644 40.1139 103.911 39.4841 104.137 38.9755C104.563 37.357 104.995 35.7288 105.479 34.0691C105.81 33.1458 105.761 32.3748 107.186 30.7793C107.525 30.4376 108.315 29.9035 109.163 29.8046C110.059 29.6862 110.741 29.9131 111.244 30.1586C112.126 30.6213 112.522 31.1053 112.861 31.4846C113.745 32.5564 114.225 33.4675 114.742 34.3823C115.202 35.2176 115.627 36.0457 116.039 36.857C116.343 37.2991 116.645 37.7153 116.921 38.097C117.31 38.6367 117.648 39.1137 117.875 39.5334C118.419 40.5408 118.794 41.7699 119.071 42.6596C119.118 42.8073 119.16 42.9437 119.2 43.0671C119.547 43.7143 119.9 44.3514 120.236 44.8788C120.227 44.9313 120.217 44.9835 120.205 45.0351C120.161 45.2071 120.163 45.3866 120.167 45.5106C120.165 45.567 120.179 45.6326 120.164 45.6444C120.144 45.6614 120.144 45.6326 119.85 45.4018C119.673 45.3039 119.531 45.292 119.562 45.2922C119.58 45.2956 119.747 45.2544 119.824 45.2307C119.827 45.2302 119.83 45.2302 119.832 45.2306L119.245 45.8304C119.344 45.7486 119.561 45.6751 119.732 45.6211C119.785 45.6038 119.836 45.5848 119.881 45.5603C120.034 45.4763 119.989 45.2843 119.926 45.0633C119.846 44.7724 119.739 44.4286 120.034 44.0754C120.976 42.8978 120.678 42.1104 120.46 41.5927C120.395 41.4365 120.335 41.2967 120.313 41.1566C120.238 40.7106 120.476 40.1176 120.739 39.6782C120.95 39.3301 120.89 38.5524 120.754 37.9619C120.703 37.7354 120.734 37.4456 120.769 37.0994C120.804 36.7425 120.845 36.3277 120.802 35.8739C120.692 34.7319 120.634 34.1188 120.589 33.6331C120.575 33.494 120.564 33.3616 120.551 33.2331C120.51 32.8244 120.488 32.3169 120.463 31.8019C120.454 31.5987 120.443 31.3931 120.432 31.191C120.431 31.1788 120.437 31.1424 120.436 31.1303C120.421 30.7065 120.403 30.3014 120.369 29.9631C120.588 28.6854 120.861 27.4012 121.144 26.1614C121.291 25.5237 121.735 24.9678 122.394 24.6003C123.053 24.2327 123.871 24.0781 124.689 24.1743C125.507 24.2718 126.266 24.6192 126.814 25.1494C127.362 25.6789 127.65 26.3405 127.636 26.9754C127.606 28.2537 127.599 29.4993 127.59 30.7529C127.588 31.073 127.585 31.3935 127.582 31.7154L127.586 31.66C127.588 32.9274 127.55 34.19 127.439 35.4614C127.342 36.5856 127.212 37.7076 127.044 38.8415C127.027 38.9582 127.009 39.0732 126.991 39.1895C127.078 40.17 127.124 41.1631 127.078 41.8641C127.041 42.44 126.858 42.8483 126.7 43.1875C126.59 43.429 126.493 43.6305 126.454 43.8618C126.433 43.986 126.413 44.1464 126.382 44.3557C126.248 45.1953 126.055 46.6182 125.149 48.1286C124.927 48.4894 124.643 48.8861 124.23 49.3349C124.072 49.5108 123.649 50.023 123.443 50.1393C122.925 50.4324 122.388 50.6281 121.863 50.7506C120.252 51.1409 118.7 50.7708 117.822 50.5119C117.353 50.3882 116.848 50.1514 116.394 49.7951C115.916 49.4115 115.711 49.0923 115.591 48.9235C115.454 48.7197 115.35 48.5327 115.277 48.3877C115.109 48.058 115.015 47.8079 114.908 47.5331C114.653 46.8451 114.472 46.2627 114.211 46.0233C113.894 45.7232 113.819 45.3924 113.705 44.889C113.631 44.5522 113.534 44.1207 113.342 43.5957C113.113 42.9744 113.036 42.5127 112.969 42.1162C112.874 41.5599 112.802 41.1399 112.378 40.6619C111.907 40.1308 111.492 39.5538 111.317 39.0331C111.236 38.7927 111.11 38.5478 110.971 38.285C110.789 37.9403 110.597 37.5886 110.494 37.2326C110.413 36.9483 110.428 36.644 110.447 36.3915C110.453 36.3121 110.458 36.2364 110.459 36.1656C110.335 35.9556 110.216 35.7644 110.094 35.5798C110.052 35.5617 110.007 35.5442 109.96 35.5266C109.728 35.4387 109.452 35.3518 109.228 35.2055C109.061 35.1038 108.938 34.9814 108.886 34.9062C108.829 34.8217 108.813 34.7752 108.974 34.8122C109.098 34.8325 109.44 34.9624 109.98 34.8442C110.237 34.7844 110.451 34.6716 110.604 34.5583C110.752 34.4471 110.81 34.3761 110.859 34.3287C110.961 34.2165 110.926 34.3741 110.927 34.594C110.92 34.7904 110.925 34.9905 110.899 35.2304C110.878 35.4175 110.844 35.5936 110.788 35.7404C110.738 35.873 110.619 35.9566 110.499 36.0495C110.499 36.0499 110.498 36.0502 110.497 36.0506C110.489 36.0568 110.481 36.0631 110.473 36.0694C110.381 36.9377 110.309 37.834 110.252 38.7159C110.265 38.7967 110.277 38.8811 110.289 38.9582C110.35 39.3399 110.407 39.7369 110.538 39.9906C110.679 40.2719 110.684 40.9302 110.692 41.6315C110.699 42.0823 110.704 42.5635 110.751 42.9499C110.778 43.1769 110.646 43.3716 110.509 43.5742C110.381 43.7657 110.252 43.9506 110.244 44.1813C110.241 44.2962 110.266 44.4249 110.293 44.5629C110.317 44.685 110.342 44.8124 110.351 44.9418C110.358 45.0625 110.266 45.3164 110.148 45.6476C110.075 45.8551 109.994 46.0788 109.919 46.324C109.893 46.9975 109.866 47.6615 109.835 48.3301C109.907 48.4793 110.008 48.6144 110.145 48.7289C110.244 48.8112 110.365 48.8861 110.488 48.963C110.656 49.0677 110.83 49.1761 110.962 49.3116C111.065 49.4164 111.097 49.5277 111.04 49.5926C111.014 49.6227 110.968 49.6427 110.927 49.6608C110.88 49.6815 110.839 49.7001 110.836 49.7291C110.834 49.75 110.862 49.7757 110.896 49.8072C110.95 49.8576 111.02 49.923 111.011 50.0078C110.98 50.3242 110.909 50.6779 110.84 51.0237C110.763 51.4093 110.687 51.7885 110.671 52.0931C110.654 52.4353 110.477 52.9078 110.301 53.377C110.178 53.7052 110.055 54.0371 109.986 54.3225C109.918 54.6033 109.944 54.9089 109.969 55.2057C109.999 55.5601 110.029 55.9013 109.893 56.1718C109.865 56.2265 109.732 56.2819 109.566 56.3516C109.448 56.4011 109.313 56.4577 109.186 56.5256C109.141 56.885 109.09 57.2446 109.035 57.6043C109.05 57.6191 109.066 57.6343 109.082 57.6497C109.082 57.6499 109.083 57.6502 109.083 57.6504C109.441 57.9956 109.93 58.4686 109.535 58.9975C109.435 59.1318 109.273 59.2037 109.126 59.2686C108.982 59.3323 108.853 59.3892 108.815 59.4914C108.771 59.6076 108.835 59.7594 108.905 59.9249C109.003 60.1573 109.113 60.4169 108.952 60.6432C108.941 60.6586 108.928 60.6752 108.916 60.6925C108.801 60.8567 108.631 61.0998 108.322 61.3238C108.151 62.084 107.966 62.8428 107.773 63.5996C107.452 64.863 107.106 66.1243 106.758 67.3827C106.587 67.9995 106.132 68.5433 105.47 68.9068C104.809 69.2674 104.001 69.4074 103.201 69.2989C102.4 69.1902 101.66 68.8409 101.117 68.3215C100.575 67.7992 100.277 67.1611 100.272 66.5262C100.263 65.5004 100.252 64.4668 100.252 63.4395C100.242 63.3843 100.233 63.329 100.224 63.274C100.163 62.8642 99.9843 62.4698 99.8054 62.0745C99.7642 61.9837 99.723 61.8926 99.6833 61.8015Z" fill="black"/>
<path d="M156.96 32.423C157.354 32.6981 157.212 33.2481 157.137 33.5556C157.136 33.5612 157.135 33.5668 157.133 33.5724C157.115 33.6444 157.113 33.7157 157.11 33.7939C157.104 33.9847 157.094 34.2423 156.873 34.7947C156.89 34.9529 156.902 35.1085 156.911 35.268C156.966 36.3479 156.905 37.4402 156.789 38.5501C156.722 39.194 156.635 39.8441 156.543 40.4951C156.546 40.5171 156.55 40.5397 156.554 40.5618C156.626 40.9929 156.718 41.5363 156.604 41.8853C156.46 42.3344 156.318 42.6427 156.194 42.8956C155.998 44.31 155.841 45.7244 155.851 47.1259C155.854 47.565 155.874 48.0029 155.914 48.4387C155.95 48.8402 156 49.2409 156.06 49.6394C156.166 49.8652 156.287 50.0785 156.398 50.2746C156.556 50.5534 156.695 50.7968 156.754 51.0073C156.893 51.5087 156.808 52.1058 156.744 52.5456C156.734 52.6181 156.724 52.6864 156.716 52.7492C156.803 53.0841 156.894 53.4196 156.987 53.7578C156.957 53.7839 156.926 53.8102 156.894 53.837C156.497 54.1701 156.54 54.5325 156.608 55.0925C156.638 55.3356 156.672 55.6168 156.678 55.9442C156.678 55.9485 156.678 55.9528 156.678 55.9571C156.683 56.1779 156.526 56.3045 156.398 56.4087C156.36 56.4401 156.325 56.4698 156.297 56.4987C156.202 56.598 156.326 56.6762 156.472 56.7662C156.662 56.8849 156.89 57.027 156.728 57.2676C156.211 58.0395 156.66 58.2902 156.998 58.4788C157.097 58.5335 157.187 58.5809 157.241 58.6377C157.415 58.8183 157.31 59.1183 157.143 59.3625C157.01 59.5538 157.22 59.8701 157.461 60.0852C157.552 60.1685 157.576 60.294 157.605 60.4444C157.635 60.5986 157.67 60.7774 157.791 60.9507C158.097 61.3877 158.256 61.614 158.383 61.7983C158.42 61.8509 158.453 61.8991 158.488 61.9476C158.597 62.1015 158.704 62.2972 158.815 62.4963C158.948 62.7345 159.086 62.9778 159.232 63.1529C159.27 63.6952 159.298 64.2623 159.33 64.8313C159.347 65.1245 159.07 65.494 158.544 65.8632C158.017 66.2304 157.289 66.5713 156.499 66.8044C155.71 67.0379 154.913 67.1471 154.27 67.1187C153.627 67.0883 153.19 66.915 153.044 66.6429C152.751 66.0972 152.456 65.5337 152.196 64.9541C151.877 64.2445 151.605 63.4969 151.442 62.7171C151.327 62.1726 151.244 61.6193 151.188 61.0729C151.183 61.0168 151.177 60.9605 151.172 60.904C150.897 60.4824 150.649 60.0584 150.539 59.7514C150.449 59.497 150.531 59.2966 150.601 59.121C150.65 59.0029 150.694 58.8993 150.672 58.8009C150.66 58.7476 150.639 58.6775 150.613 58.5933C150.507 58.2449 150.332 57.6571 150.468 57.0953C150.504 56.9486 150.569 56.7846 150.643 56.6123C150.694 56.4996 150.75 56.3838 150.805 56.2689C150.998 55.8659 151.18 55.4914 151.094 55.3223C150.943 55.0218 151.006 54.6549 151.062 54.3334C151.115 54.021 151.163 53.7569 151.011 53.6188C150.83 53.457 150.882 53.3003 150.958 53.0626C151.01 52.8997 151.075 52.7002 151.083 52.4345C151.092 52.1316 151.185 51.9036 151.265 51.7151C151.377 51.4473 151.462 51.2451 151.245 50.9779C151.005 50.6789 150.84 50.3612 150.882 50.0931C150.901 49.9715 150.881 49.836 150.86 49.6947C150.832 49.5077 150.803 49.3122 150.862 49.1246C150.911 48.97 151.059 48.8335 151.19 48.712C151.231 48.6741 151.27 48.6378 151.304 48.603C151.291 48.485 151.277 48.3669 151.262 48.2494C151.235 48.2326 151.204 48.215 151.173 48.1967C151.017 48.1047 150.825 47.9912 150.721 47.8387C150.556 47.5975 150.625 47.3666 150.699 47.123C150.756 46.9333 150.816 46.7366 150.769 46.5204C150.738 46.373 150.658 46.2094 150.579 46.0469C150.461 45.8047 150.346 45.5675 150.391 45.3902C150.408 45.3239 150.503 45.2602 150.598 45.1971C150.599 45.1968 150.6 45.1965 150.6 45.1962C150.607 45.1919 150.613 45.1877 150.619 45.1834C150.508 44.7734 150.389 44.3625 150.265 43.9518C150.237 43.9178 150.208 43.8834 150.18 43.8494C150.044 43.6825 149.911 43.5188 149.734 43.4207C149.542 43.3155 149.41 43.0145 149.273 42.7026C149.183 42.4947 149.09 42.2844 148.975 42.1126C148.907 42.012 149.003 41.9046 149.101 41.7947C149.193 41.6924 149.287 41.5872 149.254 41.4813C149.237 41.4285 149.19 41.3739 149.139 41.3157C149.095 41.2646 149.048 41.2106 149.017 41.153C148.989 41.1003 149.036 40.9684 149.095 40.8039C149.132 40.7015 149.174 40.5888 149.206 40.4656C149.119 40.1587 149.034 39.8498 148.955 39.5442C148.86 39.4846 148.738 39.4359 148.584 39.4016C148.474 39.3769 148.343 39.3585 148.209 39.3397C148.026 39.314 147.838 39.2874 147.686 39.2435C147.628 39.2268 147.586 39.2072 147.564 39.1873C147.541 39.1655 147.539 39.1433 147.563 39.124C147.584 39.1064 147.626 39.0912 147.663 39.0775C147.706 39.0617 147.744 39.0477 147.742 39.0339C147.741 39.024 147.709 39.0157 147.67 39.0055C147.609 38.9893 147.53 38.968 147.524 38.9281C147.504 38.781 147.517 38.6075 147.531 38.4394C147.546 38.2556 147.56 38.0675 147.528 37.9265C147.492 37.7685 147.593 37.5273 147.694 37.2893C147.764 37.1207 147.834 36.959 147.859 36.8151C147.883 36.6763 147.811 36.5409 147.742 36.4045C147.658 36.2441 147.577 36.0878 147.671 35.9471C147.69 35.9188 147.813 35.8785 147.967 35.8284C148.077 35.7933 148.202 35.7512 148.316 35.7054C148.307 35.5321 148.304 35.3616 148.306 35.1881C148.288 35.1829 148.271 35.1775 148.253 35.1721C148.252 35.172 148.252 35.1719 148.252 35.1719C147.847 35.0514 147.294 34.8796 147.607 34.5895C147.687 34.5163 147.837 34.4666 147.973 34.4221C148.106 34.378 148.225 34.3375 148.248 34.2858C148.275 34.2268 148.189 34.1624 148.097 34.0928C147.966 33.9921 147.821 33.8809 147.948 33.7599C147.957 33.7515 147.966 33.7425 147.976 33.7331C148.066 33.6432 148.2 33.5164 148.475 33.3808C148.537 33.009 148.614 32.6365 148.702 32.2649C148.847 31.6464 149.02 31.029 149.198 30.4226C149.285 30.1272 149.664 29.8458 150.271 29.6397C150.878 29.4336 151.659 29.3179 152.467 29.3169C153.275 29.3157 154.055 29.4302 154.663 29.6327C155.271 29.8353 155.65 30.1083 155.74 30.3903C155.886 30.8501 156.034 31.3038 156.174 31.7539C156.191 31.7772 156.208 31.8006 156.223 31.8241C156.34 31.9992 156.57 32.1575 156.802 32.314C156.855 32.3501 156.908 32.3872 156.96 32.423Z" fill="black"/>
<path d="M138.482 28.7735C138.626 28.3411 139.118 28.3884 139.389 28.416C139.394 28.4163 139.399 28.4166 139.404 28.417C139.468 28.4234 139.525 28.4158 139.593 28.4064C139.754 28.3846 139.973 28.354 140.473 28.4983C140.601 28.4614 140.731 28.4285 140.861 28.4011C142.275 28.1028 143.769 28.1603 145.243 28.329C145.258 28.3249 145.274 28.3207 145.29 28.3164C145.292 28.3158 145.295 28.3153 145.297 28.3148C145.646 28.2218 146.078 28.111 146.372 28.2137C146.744 28.3442 147.001 28.479 147.211 28.5968C148.352 28.7624 149.47 28.9126 150.563 28.9059C150.905 28.9038 151.245 28.8861 151.583 28.8491C151.893 28.815 152.202 28.7689 152.509 28.712C152.679 28.6086 152.84 28.4902 152.988 28.3806C153.197 28.2266 153.382 28.0897 153.541 28.034C153.924 27.9 154.384 27.9926 154.724 28.0608C154.78 28.0719 154.833 28.0824 154.882 28.0912C155.136 28.0085 155.39 27.9216 155.642 27.8331C155.663 27.8629 155.685 27.8941 155.707 27.9261C155.98 28.3253 156.252 28.2869 156.677 28.2244C156.707 28.2199 156.739 28.2152 156.771 28.2106C156.935 28.1873 157.118 28.1649 157.332 28.1621C157.496 28.16 157.604 28.3168 157.691 28.445C157.717 28.4826 157.741 28.5178 157.764 28.5457C157.844 28.6412 157.898 28.5184 157.96 28.3733C158.04 28.1852 158.139 27.9589 158.331 28.1226C158.953 28.643 159.129 28.1994 159.257 27.8652C159.295 27.7671 159.329 27.6784 159.369 27.6257C159.502 27.4547 159.746 27.564 159.947 27.7352C160.106 27.8712 160.348 27.6702 160.515 27.4371C160.578 27.3489 160.681 27.3293 160.802 27.3064C160.927 27.2826 161.072 27.2554 161.213 27.1434C161.567 26.8605 161.756 26.7188 161.909 26.6053C161.952 26.5729 161.992 26.5433 162.033 26.5126C162.16 26.4158 162.324 26.3249 162.489 26.2326C162.687 26.1222 162.888 26.0095 163.034 25.8826C163.478 25.9003 163.93 25.9396 164.385 25.9773C164.619 25.9973 164.904 26.3166 165.182 26.8818C165.459 27.4476 165.704 28.2086 165.867 29.0158C166.029 29.823 166.098 30.6196 166.06 31.2487C166.023 31.8773 165.881 32.2831 165.67 32.3923C165.244 32.611 164.815 32.8296 164.377 33.0209C163.843 33.2539 163.297 33.4463 162.731 33.5493C162.335 33.6212 161.935 33.672 161.531 33.705C161.49 33.7084 161.448 33.7114 161.406 33.7144C161.106 33.9709 160.799 34.2079 160.573 34.3105C160.386 34.3953 160.225 34.3109 160.09 34.2382C159.996 34.1883 159.913 34.144 159.839 34.1644C159.8 34.1753 159.747 34.196 159.682 34.2209C159.42 34.3226 158.972 34.4937 158.523 34.356C158.324 34.295 158.085 34.1529 157.856 34.0167C157.73 33.9407 157.606 33.8667 157.495 33.8095C157.322 33.7192 157.178 33.6708 157.099 33.7223C156.872 33.8707 156.582 33.805 156.327 33.7458C156.084 33.6895 155.873 33.6395 155.773 33.7893C155.654 33.9683 155.529 33.9156 155.343 33.8373C155.215 33.783 155.056 33.7168 154.851 33.706C154.614 33.6936 154.438 33.5976 154.288 33.5162C154.077 33.4013 153.917 33.315 153.719 33.5282C153.498 33.765 153.259 33.9266 153.051 33.8821C152.957 33.8619 152.853 33.8807 152.746 33.9002C152.603 33.9261 152.454 33.9532 152.308 33.8929C152.188 33.8433 152.077 33.6947 151.978 33.5632C151.948 33.5221 151.918 33.483 151.89 33.4488C151.8 33.4608 151.71 33.4737 151.621 33.4883C151.609 33.5155 151.597 33.5455 151.584 33.5765C151.52 33.7321 151.441 33.9228 151.329 34.026C151.152 34.1893 150.973 34.1194 150.784 34.0452C150.637 33.9875 150.483 33.9273 150.321 33.9736C150.21 34.0052 150.089 34.0848 149.97 34.1638C149.792 34.2812 149.618 34.3968 149.481 34.3524C149.43 34.3357 149.377 34.241 149.324 34.1467C149.324 34.1461 149.324 34.1455 149.323 34.145C149.32 34.1385 149.316 34.1323 149.313 34.1259C149.007 34.2393 148.704 34.3611 148.403 34.4885C148.379 34.5174 148.355 34.5461 148.331 34.5744C148.215 34.7124 148.101 34.8469 148.04 35.025C147.974 35.2181 147.761 35.353 147.539 35.496C147.395 35.5897 147.245 35.6868 147.13 35.8054C147.063 35.8747 146.976 35.7825 146.887 35.6874C146.804 35.5987 146.72 35.5077 146.646 35.544C146.609 35.5622 146.573 35.6107 146.535 35.6626C146.502 35.7082 146.467 35.7566 146.428 35.7889C146.423 35.793 146.417 35.7958 146.41 35.7973C146.364 35.807 146.276 35.7693 146.169 35.7232C146.092 35.6902 146.003 35.6533 145.912 35.6259C145.7 35.7244 145.486 35.8217 145.273 35.9155C145.242 36.0126 145.222 36.1355 145.215 36.2898C145.21 36.4006 145.213 36.5317 145.215 36.6656C145.218 36.8479 145.222 37.0363 145.209 37.1892C145.199 37.3087 145.173 37.3603 145.141 37.3168C145.126 37.2966 145.11 37.2563 145.096 37.2199C145.08 37.1782 145.065 37.1411 145.056 37.1439C145.049 37.1459 145.047 37.1778 145.045 37.2164C145.041 37.278 145.036 37.3576 145.009 37.3652C144.908 37.3933 144.786 37.3898 144.667 37.3864C144.536 37.3825 144.405 37.3798 144.31 37.421C144.203 37.4674 144.024 37.3838 143.842 37.3018C143.717 37.2444 143.589 37.1883 143.487 37.1751C143.387 37.1622 143.301 37.2446 143.22 37.3247C143.121 37.4212 143.027 37.5143 142.913 37.4345C142.89 37.4184 142.842 37.3008 142.78 37.1538C142.737 37.0496 142.686 36.9305 142.635 36.8219C142.516 36.8469 142.395 36.8675 142.274 36.8839C142.274 36.9014 142.273 36.9192 142.272 36.9374C142.272 36.9378 142.272 36.9382 142.272 36.9386C142.258 37.349 142.242 37.9095 141.985 37.6338C141.92 37.5637 141.856 37.4217 141.799 37.2938C141.743 37.1682 141.693 37.0559 141.652 37.039C141.606 37.0199 141.578 37.1112 141.546 37.2106C141.502 37.3502 141.454 37.506 141.344 37.3963C141.337 37.3888 141.328 37.3806 141.32 37.3724C141.24 37.2947 141.123 37.1798 140.973 36.9288C140.7 36.9161 140.421 36.8927 140.139 36.8626C139.67 36.8126 139.19 36.7447 138.707 36.6789C138.472 36.6458 138.174 36.3295 137.874 35.7788C137.574 35.2273 137.299 34.4911 137.103 33.7073C136.907 32.9236 136.803 32.1449 136.809 31.5171C136.815 30.89 136.932 30.4702 137.129 30.3296C137.45 30.1021 137.776 29.8742 138.107 29.6578C138.122 29.6368 138.138 29.6164 138.153 29.597C138.268 29.4528 138.347 29.1999 138.427 28.9468C138.445 28.8887 138.463 28.8304 138.482 28.7735Z" fill="black"/>
<path d="M172.058 60.3136C171.866 59.4711 172.377 58.0707 172.66 57.2985C172.665 57.2843 172.67 57.2702 172.675 57.256C172.742 57.0733 172.792 56.8969 172.85 56.69C172.989 56.1966 173.176 55.5294 173.773 54.1909C173.868 53.7814 173.968 53.3728 174.073 52.9657C175.209 48.5671 176.699 44.2635 178.333 39.9881C178.347 39.9326 178.361 39.8762 178.375 39.8193C178.655 38.7036 179.011 37.3261 179.402 36.5193C179.905 35.4726 180.289 34.7989 180.617 34.2285C182.005 30.8502 183.391 27.5066 184.952 24.0706C185.446 23.0041 185.954 21.9217 186.594 20.7914C186.746 20.5249 186.914 20.247 187.078 19.9936C187.35 19.4702 188.354 18.9752 188.928 18.8431C190.031 18.7256 190.718 19.1105 191.111 19.3271C191.551 19.5898 191.79 19.8003 192.043 20.0305C192.487 20.4449 192.826 20.8543 193.107 21.2095C193.621 21.7516 194.045 22.2251 194.44 22.6852C194.983 23.3178 195.435 23.8888 195.743 24.372C196.5 25.5632 197.062 27.0195 197.459 28.0945C197.524 28.2706 197.586 28.4389 197.645 28.5957C198.076 29.3806 198.507 30.1818 198.932 30.9829C198.927 31.0501 198.921 31.1184 198.915 31.1881C198.837 32.0627 199.229 32.9278 199.817 34.2717C200.08 34.8745 200.368 35.5403 200.68 36.3655C200.878 36.8883 200.834 37.225 200.797 37.4989C200.786 37.5792 200.777 37.657 200.773 37.7278C200.761 37.974 200.957 38.1484 201.188 38.3574C201.489 38.6279 201.853 38.9623 201.893 39.5632C202.028 41.5029 202.706 42.1056 203.219 42.555C203.37 42.6882 203.507 42.8099 203.611 42.9493C203.952 43.4084 204.093 44.1673 204.119 44.7898C204.143 45.2904 204.618 46.0747 205.063 46.6681C205.23 46.8912 205.358 47.218 205.512 47.6129C205.669 48.0196 205.855 48.5 206.125 48.9689C206.813 50.1734 207.165 50.812 207.45 51.3324C207.531 51.4807 207.606 51.6194 207.682 51.758C207.695 51.7809 207.707 51.804 207.72 51.8275C207.951 52.2531 208.201 52.7583 208.46 53.2871C208.784 53.9476 209.114 54.6195 209.403 55.117C209.823 56.5388 210.225 57.9498 210.612 59.4956C210.811 60.2894 210.694 61.2143 210.245 61.9268C209.797 62.6422 209.084 63.1071 208.282 63.2917C207.479 63.4739 206.64 63.3528 205.928 63.0249C205.217 62.6938 204.691 62.2085 204.407 61.5681C203.833 60.273 203.173 58.8992 202.547 57.5189C202.063 56.4563 201.591 55.3852 201.142 54.2927C200.882 53.659 200.636 53.0375 200.399 52.4108C199.942 51.2017 199.504 49.9973 199.075 48.7889C199.031 48.6632 198.986 48.5378 198.942 48.4128C198.367 47.4865 197.799 46.5417 197.463 45.8694C197.181 45.3015 197.114 44.8412 197.058 44.4487C197.018 44.1766 196.98 43.93 196.883 43.7103C196.83 43.592 196.753 43.433 196.66 43.2427C196.282 42.4646 195.627 41.1293 195.3 39.8252C195.148 39.2301 195.049 38.547 194.939 37.8621C194.792 36.911 194.639 36.0003 194.404 35.6319C193.98 34.9549 193.712 34.1015 193.473 33.3551C193.236 32.6252 193.036 32.0169 192.75 31.7277C192.413 31.3956 192.314 31.0276 192.159 30.4779C192.058 30.1103 191.915 29.6243 191.662 29.0453C191.359 28.3562 191.218 27.84 191.099 27.4114C190.921 26.7912 190.783 26.3269 190.277 25.8433C189.714 25.305 189.185 24.7425 188.927 24.3007C188.816 24.1055 188.639 23.9073 188.519 23.803C188.458 23.7471 188.4 23.7178 188.478 23.7661C188.537 23.785 188.825 24.0176 189.557 23.928L191.362 22.8054C191.328 22.8419 191.293 22.8792 191.256 22.917C191.047 23.1314 190.774 23.2918 190.534 23.4371C190.459 23.484 190.386 23.5316 190.318 23.5815C190.191 23.8279 190.077 24.0625 189.954 24.3308C189.957 24.384 189.96 24.4439 189.967 24.4981C189.998 24.7779 190.031 25.1365 189.956 25.5316C189.848 26.1317 189.554 26.6083 189.253 27.1067C189.01 27.5174 188.781 27.8936 188.609 28.4303C188.498 28.7791 188.416 29.1899 188.331 29.6152C188.213 30.2244 188.096 30.8465 187.9 31.2282C187.828 31.3701 187.688 31.4671 187.55 31.564C187.549 31.5644 187.548 31.5648 187.547 31.5651C187.538 31.5717 187.529 31.5784 187.519 31.585C187.249 32.6127 187.005 33.6285 186.771 34.6496C186.768 34.7444 186.764 34.8403 186.76 34.9356C186.738 35.4084 186.727 35.8399 186.803 36.1629C186.886 36.5113 186.761 37.2738 186.633 38.0819C186.546 38.6192 186.465 39.1545 186.434 39.6156C186.416 39.8833 186.245 40.0974 186.071 40.3108C185.908 40.5094 185.742 40.7148 185.691 40.9793C185.665 41.1118 185.666 41.2634 185.666 41.4256C185.667 41.5684 185.667 41.7201 185.65 41.8733C185.635 42.0135 185.495 42.2951 185.316 42.6605C185.205 42.8862 185.079 43.1441 184.958 43.4194C184.808 44.1817 184.654 44.961 184.501 45.7238C184.545 45.9047 184.621 46.0724 184.737 46.2206C184.82 46.3269 184.926 46.4274 185.035 46.5304C185.184 46.6706 185.337 46.8156 185.444 46.9867C185.528 47.1204 185.539 47.2542 185.47 47.3231C185.438 47.3554 185.389 47.3727 185.345 47.3889C185.294 47.4073 185.249 47.4238 185.241 47.4569C185.236 47.4807 185.259 47.5136 185.287 47.5538C185.332 47.618 185.389 47.7013 185.366 47.7978C185.278 48.1568 185.143 48.5569 185.011 48.9505C184.865 49.3873 184.724 49.8111 184.653 50.1633C184.574 50.5576 184.315 51.0801 184.058 51.603C183.878 51.9681 183.698 52.3357 183.579 52.6597C183.463 52.9763 183.436 53.3312 183.411 53.6753C183.38 54.0883 183.351 54.4864 183.17 54.7828C183.133 54.8428 182.991 54.8924 182.814 54.9548C182.688 54.9991 182.543 55.0502 182.406 55.1155C182.3 55.5263 182.189 55.9363 182.075 56.3452C182.088 56.3639 182.1 56.3831 182.114 56.4024C182.114 56.4028 182.114 56.4031 182.115 56.4034C182.414 56.84 182.824 57.4358 182.345 58.0046C182.223 58.1492 182.049 58.2161 181.892 58.2762C181.738 58.3352 181.6 58.388 181.545 58.5023C181.483 58.6321 181.522 58.8139 181.565 59.0118C181.626 59.2898 181.694 59.5996 181.497 59.8445C181.483 59.8613 181.469 59.8793 181.454 59.8982C181.313 60.0768 181.104 60.3412 180.76 60.5701C180.47 61.4285 180.167 62.2925 179.86 63.146C179.345 64.5803 178.816 66.0007 178.289 67.4332C178.032 68.1261 177.5 68.7262 176.789 69.0943C176.078 69.461 175.252 69.5641 174.465 69.3795C173.679 69.1945 172.985 68.7337 172.514 68.0849C172.044 67.435 171.84 66.6541 171.925 65.9138C172.068 64.6995 172.212 63.4903 172.369 62.2865C172.368 62.2209 172.367 62.1551 172.368 62.0898C172.37 61.6031 172.253 61.1238 172.136 60.6447C172.11 60.5346 172.083 60.4241 172.058 60.3136Z" fill="black"/>
<path d="M182.161 46.5377C182.157 46.1147 182.527 46.1235 182.731 46.1296C182.735 46.1296 182.739 46.1295 182.742 46.1295C182.79 46.131 182.831 46.1194 182.878 46.1054C182.99 46.0722 183.142 46.0268 183.54 46.1275C183.624 46.0824 183.712 46.041 183.8 46.0048C184.759 45.6104 185.858 45.5485 186.942 45.5964C186.954 45.5905 186.965 45.5844 186.977 45.5783C187.207 45.4603 187.493 45.3171 187.724 45.3933C187.819 45.4249 187.906 45.4578 187.986 45.4912C188.149 45.5611 188.284 45.6324 188.401 45.6987C189.251 45.768 190.072 45.831 190.847 45.7519C191.091 45.7268 191.331 45.6877 191.562 45.6313C191.779 45.5786 191.99 45.5157 192.2 45.443C192.305 45.332 192.405 45.2061 192.493 45.0909C192.618 44.9285 192.734 44.7837 192.839 44.7216C193.096 44.5707 193.442 44.6423 193.693 44.6976C193.735 44.7065 193.774 44.715 193.81 44.7219C193.986 44.6305 194.154 44.5373 194.329 44.4421C194.348 44.471 194.367 44.5013 194.386 44.5324C194.628 44.9206 194.821 44.8753 195.121 44.8069C195.254 44.7767 195.402 44.7432 195.589 44.7381C195.71 44.7347 195.801 44.8903 195.875 45.0172C195.897 45.0545 195.918 45.0894 195.937 45.1171C196.004 45.2119 196.03 45.0903 196.063 44.9467C196.105 44.7603 196.156 44.5363 196.309 44.7004C196.802 45.2224 196.888 44.7889 196.959 44.4598C196.98 44.3633 196.999 44.2761 197.025 44.2247C197.109 44.0583 197.293 44.1737 197.45 44.3499C197.576 44.4893 197.734 44.2995 197.844 44.075C197.885 43.9902 197.96 43.9747 198.046 43.9575C198.135 43.9397 198.238 43.9196 198.335 43.8156C198.582 43.5524 198.709 43.4241 198.817 43.3202C198.847 43.2906 198.876 43.2636 198.904 43.2356C198.994 43.1473 199.106 43.0679 199.224 42.9872C199.364 42.8907 199.507 42.793 199.607 42.678C199.929 42.7271 200.251 42.8017 200.578 42.8756C200.743 42.9148 200.952 43.2548 201.161 43.8376C201.369 44.4209 201.559 45.195 201.691 46.0077C201.823 46.8204 201.889 47.6146 201.879 48.2337C201.869 48.8523 201.784 49.2411 201.645 49.3306C201.357 49.5105 201.077 49.69 200.79 49.8444C200.441 50.0321 200.085 50.1822 199.718 50.2467C199.458 50.2923 199.201 50.3181 198.935 50.3303C198.908 50.3315 198.88 50.3323 198.853 50.3332C198.676 50.5712 198.49 50.7929 198.353 50.885C198.24 50.9612 198.127 50.8722 198.032 50.7957C197.967 50.7432 197.909 50.6966 197.863 50.7144C197.838 50.724 197.807 50.7426 197.766 50.7656C197.602 50.859 197.331 51.0168 197.025 50.8748C196.892 50.8113 196.718 50.6692 196.555 50.5331C196.324 50.338 196.1 50.1586 196.026 50.2425C195.896 50.3901 195.694 50.3289 195.521 50.2738C195.352 50.2222 195.205 50.1772 195.16 50.327C195.105 50.5061 195.014 50.4572 194.881 50.3845C194.789 50.334 194.675 50.2728 194.537 50.2684C194.378 50.2632 194.247 50.1745 194.135 50.0995C193.977 49.9938 193.86 49.9143 193.758 50.1324C193.647 50.3743 193.511 50.5435 193.368 50.5087C193.302 50.4927 193.236 50.5158 193.167 50.5401C193.076 50.5723 192.984 50.6052 192.876 50.5534C192.787 50.5105 192.689 50.3699 192.602 50.2455C192.575 50.2067 192.549 50.1697 192.524 50.1376C192.467 50.1538 192.407 50.1715 192.35 50.1906C192.347 50.2179 192.344 50.248 192.34 50.2792C192.323 50.4354 192.306 50.6264 192.248 50.734C192.157 50.9041 192.029 50.8445 191.888 50.7829C191.78 50.7348 191.669 50.6839 191.568 50.7392C191.5 50.7769 191.435 50.8617 191.37 50.9463C191.272 51.0721 191.181 51.1951 191.081 51.1604C191.044 51.1473 190.991 51.058 190.937 50.9691C190.937 50.9685 190.937 50.968 190.937 50.9674C190.933 50.9614 190.929 50.9555 190.926 50.9495C190.745 51.0791 190.567 51.2178 190.393 51.3612C190.383 51.391 190.373 51.4204 190.363 51.4496C190.312 51.592 190.265 51.7302 190.261 51.9076C190.258 52.0686 190.177 52.197 190.084 52.324C190.066 52.3487 190.047 52.3734 190.028 52.3983C189.952 52.4988 189.874 52.6025 189.823 52.7254C189.793 52.7971 189.717 52.7127 189.638 52.6262C189.563 52.5455 189.487 52.4629 189.446 52.5027C189.425 52.5227 189.412 52.572 189.399 52.6247C189.386 52.6712 189.373 52.7205 189.354 52.7544C189.336 52.7858 189.262 52.7509 189.167 52.707C189.108 52.6801 189.041 52.6499 188.975 52.6289C188.854 52.7379 188.734 52.8448 188.613 52.9482C188.614 53.044 188.629 53.1637 188.659 53.3133C188.681 53.4205 188.712 53.5469 188.744 53.6761C188.788 53.8519 188.833 54.0335 188.86 54.1818C188.881 54.2977 188.875 54.3489 188.844 54.3087C188.83 54.2899 188.811 54.2519 188.793 54.2176C188.773 54.1782 188.755 54.1433 188.749 54.1464C188.745 54.1488 188.751 54.1796 188.759 54.217C188.77 54.2766 188.786 54.3536 188.769 54.3624C188.709 54.3953 188.63 54.3978 188.55 54.4013C188.462 54.4048 188.376 54.4086 188.323 54.4534C188.265 54.5034 188.126 54.4327 187.987 54.3631C187.89 54.3147 187.792 54.2673 187.721 54.2599C187.652 54.2528 187.615 54.3361 187.581 54.417C187.539 54.5143 187.499 54.6082 187.405 54.5374C187.385 54.5231 187.324 54.4131 187.246 54.2757C187.192 54.1783 187.129 54.067 187.068 53.9658C186.994 53.9958 186.918 54.0218 186.841 54.0437C186.845 54.0604 186.849 54.0775 186.853 54.0949C186.853 54.0953 186.853 54.0957 186.854 54.0961C186.946 54.4887 187.078 55.024 186.836 54.7739C186.775 54.7104 186.696 54.5781 186.625 54.4591C186.556 54.3422 186.494 54.2377 186.462 54.2237C186.426 54.2079 186.43 54.2965 186.434 54.3928C186.44 54.5279 186.447 54.6786 186.345 54.58C186.338 54.5732 186.33 54.5658 186.322 54.5584C186.249 54.4885 186.14 54.385 185.974 54.1543C185.784 54.1566 185.588 54.1494 185.386 54.1363C185.05 54.1146 184.7 54.0773 184.345 54.0435C184.172 54.0261 183.88 53.7439 183.526 53.2395C183.171 52.7345 182.786 52.0526 182.444 51.3207C182.101 50.5889 181.826 49.8562 181.666 49.2598C181.508 48.6641 181.481 48.2581 181.585 48.1117C181.755 47.8747 181.929 47.6363 182.112 47.4073C182.118 47.3863 182.124 47.3658 182.13 47.3463C182.176 47.201 182.169 46.9543 182.164 46.7071C182.162 46.6503 182.161 46.5934 182.161 46.5377Z" fill="black"/>
<path d="M242.555 31.4518C242.33 32.0098 241.487 32.321 241.019 32.5189C241.011 32.5226 241.002 32.5263 240.994 32.5301C240.883 32.5762 240.784 32.6333 240.672 32.7001C240.402 32.8618 240.04 33.0721 239.165 33.4069C238.96 33.5695 238.753 33.7318 238.543 33.8945C236.293 35.6399 233.995 37.4875 231.776 39.5729C231.753 39.6037 231.73 39.6351 231.707 39.6669C231.258 40.2749 230.722 41.0464 230.252 41.4406C229.659 41.9346 229.221 42.2639 228.859 42.5284C227.201 44.3531 225.666 46.3326 224.375 48.4712C224.068 48.9805 223.781 49.4863 223.503 50.0133C223.424 50.1624 223.353 50.3051 223.283 50.4564C223.028 51.0094 222.835 51.575 222.71 52.1437C222.705 52.4935 222.741 52.8221 222.79 53.1179C222.858 53.5354 222.95 53.8882 222.979 54.1751C223.047 54.8616 222.991 55.6632 223.016 56.3175C223.019 56.423 223.024 56.5249 223.031 56.6182C223.196 57.1132 223.399 57.6108 223.632 58.1349C223.613 58.1809 223.593 58.2277 223.573 58.2765C223.541 58.3537 223.517 58.4307 223.499 58.5082L222.703 57.2936C222.849 57.8088 223.276 58.1792 223.933 58.6797C224.263 58.9296 224.648 59.2087 225.095 59.5483C225.384 59.7667 225.449 60.0083 225.505 60.2086C225.522 60.2673 225.538 60.3222 225.558 60.3711C225.627 60.5383 225.823 60.5241 226.049 60.5012C226.342 60.4711 226.688 60.4285 226.922 60.7709C227.697 61.869 228.393 61.7055 228.863 61.57C229.005 61.5307 229.132 61.4937 229.246 61.4903C229.618 61.4803 230.016 61.7838 230.304 62.091C230.531 62.3369 231.148 62.3599 231.618 62.2706C231.798 62.2381 232.011 62.2888 232.265 62.3423C232.526 62.3975 232.832 62.4557 233.163 62.4217C234.002 62.3331 234.397 62.2402 234.7 62.1678C234.788 62.1463 234.862 62.1254 234.938 62.1025C235.102 62.0521 235.283 62.0005 235.417 61.944L235.292 61.9589C235.405 61.9252 235.52 61.891 235.631 61.8564C236.078 61.7182 236.504 61.5658 236.822 61.4001C237.714 61.3183 238.653 61.1909 239.622 61.0176C240.119 60.9296 240.699 61.1238 241.247 61.578C241.796 62.0324 242.263 62.7085 242.541 63.4835C242.817 64.2591 242.883 65.0801 242.706 65.7867C242.531 66.4919 242.126 67.0195 241.591 67.2568C240.517 67.7325 239.391 68.1822 238.187 68.5349C237.546 68.7233 236.885 68.8805 236.254 69.0028C236.23 69.0026 236.158 69.0181 236.134 69.0171C235.019 69.17 234.086 69.1455 233.162 69.0513C232.021 68.9286 230.94 68.6947 229.891 68.3821C229.785 68.3503 229.678 68.3172 229.571 68.2832C228.635 68.2346 227.706 68.1063 227.081 67.9352C226.563 67.7939 226.244 67.541 225.98 67.3249C225.796 67.1747 225.639 67.0416 225.452 66.9645C225.352 66.9233 225.208 66.8698 225.043 66.8063C224.358 66.5465 223.201 66.0493 222.352 65.2768C221.971 64.9346 221.587 64.4711 221.24 64.021C220.74 63.3764 220.319 62.7623 219.995 62.5847C219.559 62.348 219.167 61.9613 218.825 61.5639C218.619 61.3153 218.098 60.6822 218.038 60.3651C218.009 60.2198 217.981 60.0707 217.956 59.9274C217.847 59.3226 217.77 58.776 217.558 58.5026C217.305 58.175 217.292 57.8346 217.294 57.3303C217.298 56.9797 217.307 56.5499 217.278 55.9712C217.247 55.3012 217.349 54.8175 217.445 54.4165C217.585 53.85 217.708 53.4483 217.59 52.7992C217.46 52.0765 217.482 51.3025 217.7 50.7542C217.799 50.5034 217.877 50.2119 217.97 49.9107C218.092 49.5117 218.238 49.0988 218.462 48.767C218.647 48.493 218.905 48.317 219.131 48.1751C219.202 48.1303 219.27 48.0875 219.333 48.0448C219.355 48.0001 219.377 47.9554 219.4 47.9106C219.48 47.7494 219.56 47.5886 219.64 47.4279C219.633 47.3838 219.626 47.3369 219.618 47.288C219.58 47.0427 219.534 46.7411 219.598 46.4302C219.702 45.9335 219.985 45.6026 220.284 45.2599C220.52 44.9892 220.765 44.7114 220.948 44.3393C221.072 44.0871 221.181 43.7707 221.289 43.4627C221.448 43.0057 221.615 42.5513 221.839 42.3038C221.922 42.2111 222.063 42.1746 222.203 42.1395C222.204 42.1394 222.205 42.1394 222.205 42.1393C222.215 42.1369 222.224 42.1344 222.234 42.132C222.592 41.4159 222.955 40.7021 223.331 39.9868C223.348 39.915 223.367 39.8427 223.385 39.7713C223.473 39.4242 223.568 39.0795 223.554 38.8056C223.539 38.508 223.794 37.9617 224.078 37.3881C224.261 37.0149 224.46 36.6256 224.592 36.2867C224.669 36.0882 224.869 35.9989 225.076 35.908C225.27 35.8219 225.468 35.7355 225.579 35.5571C225.634 35.4677 225.671 35.3531 225.711 35.2309C225.746 35.1231 225.783 35.0102 225.838 34.9019C225.889 34.8013 226.088 34.6473 226.344 34.4543C226.502 34.3346 226.68 34.2023 226.862 34.0533C227.212 33.5477 227.569 33.0532 227.943 32.5625C227.962 32.4073 227.952 32.2461 227.901 32.0786C227.865 31.9584 227.807 31.831 227.749 31.699C227.67 31.5197 227.589 31.3339 227.557 31.1518C227.532 31.0094 227.569 30.9038 227.651 30.888C227.69 30.8806 227.737 30.8924 227.78 30.9031C227.829 30.9153 227.873 30.9261 227.891 30.9056C227.904 30.8907 227.896 30.8543 227.887 30.8099C227.872 30.739 227.853 30.647 227.907 30.5875C228.107 30.3677 228.369 30.1386 228.623 29.9215C228.907 29.6801 229.188 29.446 229.384 29.2288C229.603 28.9855 230.021 28.7542 230.446 28.5284C230.741 28.3712 231.036 28.2196 231.27 28.0613C231.498 27.9072 231.674 27.6755 231.846 27.4523C232.055 27.1819 232.261 26.9233 232.537 26.834C232.593 26.816 232.724 26.8719 232.887 26.9428C233.003 26.9932 233.136 27.0498 233.27 27.0939C233.542 26.8832 233.817 26.6815 234.099 26.4864C234.099 26.4655 234.099 26.4442 234.098 26.4225C234.098 26.4221 234.098 26.4216 234.098 26.4212C234.09 25.9335 234.095 25.257 234.738 25.2089C234.901 25.197 235.06 25.2735 235.203 25.3429C235.343 25.4111 235.467 25.4727 235.565 25.438C235.676 25.3984 235.743 25.2552 235.818 25.099C235.925 24.8789 236.048 24.6325 236.317 24.6194C236.335 24.6185 236.355 24.6177 236.376 24.6166C236.569 24.6061 236.856 24.5924 237.213 24.7035C237.883 24.39 238.569 24.1081 239.268 23.8566C240.431 23.4379 241.626 23.1049 242.832 22.8484C243.42 22.7238 244.083 22.9031 244.651 23.3621C245.22 23.8219 245.64 24.5164 245.862 25.2929C246.083 26.07 246.101 26.8751 245.957 27.5562C245.81 28.2375 245.517 28.7351 245.115 28.9797C244.458 29.3772 243.825 29.8048 243.206 30.2511C243.178 30.2835 243.15 30.3151 243.122 30.346C242.91 30.5756 242.771 30.9023 242.643 31.2281C242.614 31.3029 242.585 31.3779 242.555 31.4518Z" fill="black"/>
<path d="M279.924 28.7204C280.245 29.0828 279.991 29.6083 279.855 29.9177C279.853 29.9233 279.851 29.929 279.848 29.9347C279.816 30.0091 279.8 30.0777 279.781 30.1609C279.738 30.3609 279.678 30.6264 279.36 31.1823C279.349 31.3517 279.333 31.5288 279.314 31.6986C279.108 33.5544 278.675 35.4673 278.236 37.4244C278.237 37.4493 278.238 37.4746 278.24 37.5003C278.266 37.9973 278.305 38.6122 278.16 38.9935C277.974 39.4867 277.806 39.8159 277.662 40.0942C277.348 41.6782 277.099 43.2747 277.037 44.8823C277.024 45.2182 277.019 45.5556 277.024 45.8973L277.02 45.8217C277.027 45.9853 277.037 46.1483 277.048 46.3109C277.081 46.7704 277.129 47.2287 277.19 47.6858C277.296 47.947 277.418 48.1916 277.531 48.4194C277.69 48.7383 277.832 49.0214 277.892 49.2616C278.038 49.838 277.962 50.5158 277.908 51.0211C277.899 51.1037 277.89 51.1816 277.884 51.2533C277.978 51.6413 278.077 52.0255 278.179 52.4126C278.15 52.4424 278.12 52.4725 278.089 52.5031C277.701 52.8876 277.754 53.299 277.84 53.9489C277.878 54.2325 277.922 54.5579 277.94 54.9502C277.951 55.2009 277.799 55.3522 277.674 55.4732C277.638 55.5089 277.604 55.5433 277.577 55.5766C277.485 55.691 277.612 55.7816 277.762 55.889C277.956 56.0301 278.19 56.1957 278.035 56.4776C277.543 57.3756 278 57.6855 278.344 57.916C278.446 57.9843 278.537 58.047 278.592 58.115C278.748 58.3067 278.695 58.6106 278.569 58.8733C278.551 58.9135 278.531 58.9527 278.509 58.9903C278.379 59.2165 278.592 59.6112 278.835 59.8922C278.926 59.9972 278.95 60.156 278.978 60.3401C279.007 60.5295 279.04 60.75 279.159 60.9681C279.461 61.5205 279.615 61.7968 279.739 62.0211C279.774 62.0846 279.807 62.1437 279.84 62.2021C279.946 62.3867 280.05 62.6172 280.158 62.8475C280.287 63.1228 280.423 63.3986 280.568 63.5974C280.603 64.1936 280.634 64.8077 280.685 65.4409C280.709 65.7643 280.443 66.1646 279.929 66.5661C279.413 66.964 278.695 67.3302 277.909 67.5739C277.122 67.8175 276.322 67.92 275.667 67.8609C275.012 67.7986 274.559 67.5747 274.396 67.245C274.069 66.5788 273.751 65.8919 273.478 65.1756C273.146 64.3051 272.886 63.3937 272.745 62.5066C272.647 61.8861 272.58 61.2774 272.534 60.6822C272.529 60.6202 272.525 60.559 272.52 60.4983C272.372 60.2383 272.231 59.9869 272.114 59.7505C272.02 59.5622 271.941 59.3835 271.891 59.2325C271.798 58.9547 271.878 58.7317 271.945 58.5404C271.991 58.4069 272.033 58.2939 272.009 58.1836C271.996 58.1242 271.973 58.0457 271.945 57.9503C271.831 57.56 271.639 56.8946 271.755 56.247C271.808 55.9621 271.939 55.6188 272.065 55.2929C272.245 54.8252 272.415 54.3938 272.323 54.195C272.162 53.8483 272.213 53.4196 272.261 53.0436C272.305 52.6831 272.346 52.3688 272.19 52.2104C272.005 52.0195 272.052 51.8347 272.123 51.5596C272.172 51.369 272.232 51.1351 272.235 50.8266C272.238 50.4688 272.328 50.2088 272.405 49.9867C272.514 49.6754 272.596 49.4419 272.376 49.1232C272.132 48.7704 271.965 48.3905 272.006 48.0771C272.025 47.935 272.005 47.7748 271.984 47.6085C271.956 47.3892 271.928 47.1562 271.988 46.939C272.037 46.7594 272.186 46.603 272.318 46.4658C272.359 46.4229 272.399 46.3817 272.433 46.3421C272.427 46.2733 272.421 46.2045 272.415 46.1356C272.417 46.1239 272.41 46.0884 272.412 46.0768C272.408 46.0062 272.403 45.9358 272.398 45.8655C272.371 45.8439 272.342 45.8212 272.312 45.7976C272.16 45.6789 271.973 45.5328 271.877 45.3479C271.724 45.0581 271.805 44.7863 271.891 44.5081C271.959 44.2904 272.03 44.0679 271.996 43.8085C271.972 43.6329 271.902 43.4349 271.834 43.2397C271.731 42.9493 271.631 42.655 271.688 42.4536C271.71 42.3777 271.809 42.3115 271.908 42.2463C271.909 42.246 271.909 42.2457 271.91 42.2454C271.917 42.241 271.923 42.2365 271.93 42.2321C271.846 41.7371 271.758 41.2523 271.667 40.7543C271.641 40.7116 271.616 40.6685 271.591 40.6258C271.468 40.4176 271.349 40.2149 271.18 40.0795C270.998 39.9322 270.892 39.5739 270.784 39.185C270.713 38.9305 270.64 38.6715 270.542 38.4572C270.485 38.3302 270.59 38.2128 270.699 38.0931C270.801 37.9814 270.905 37.8677 270.883 37.741C270.872 37.6778 270.831 37.6082 270.787 37.5324C270.748 37.4661 270.707 37.396 270.683 37.3232C270.66 37.2556 270.72 37.108 270.798 36.9213C270.845 36.8071 270.9 36.6723 270.946 36.5328C270.894 36.1592 270.847 35.7851 270.807 35.4094C270.72 35.3278 270.606 35.2552 270.457 35.1948C270.351 35.1514 270.223 35.1128 270.092 35.0717C269.915 35.0161 269.731 34.9585 269.586 34.8843C269.473 34.8263 269.43 34.7625 269.48 34.724C269.503 34.7061 269.547 34.6937 269.586 34.6824C269.63 34.6695 269.67 34.6581 269.67 34.6414C269.669 34.6295 269.639 34.6153 269.602 34.598C269.544 34.5703 269.468 34.5343 269.468 34.4859C269.468 34.3078 269.505 34.0998 269.542 33.8999C269.583 33.677 269.624 33.4638 269.614 33.2838C269.602 33.0825 269.738 32.82 269.876 32.5432C269.972 32.3526 270.068 32.1654 270.116 32.0019C270.163 31.8377 270.115 31.6594 270.069 31.4874C270.014 31.2835 269.963 31.0773 270.081 30.924C270.105 30.8928 270.234 30.8649 270.395 30.8306C270.509 30.8062 270.64 30.7784 270.762 30.7442C270.784 30.5392 270.815 30.3258 270.849 30.1213C270.833 30.112 270.817 30.1023 270.801 30.0926C270.8 30.0925 270.8 30.0923 270.799 30.0921C270.425 29.8787 269.917 29.5572 270.284 29.2703C270.378 29.1985 270.537 29.1632 270.679 29.1345C270.82 29.1057 270.945 29.0806 270.979 29.0225C271.018 28.9566 270.948 28.8621 270.873 28.759C270.767 28.6164 270.65 28.4465 270.803 28.3238C270.814 28.3154 270.825 28.3064 270.837 28.297C270.946 28.2069 271.107 28.0809 271.408 27.9729C271.56 27.5315 271.731 27.0993 271.923 26.6594C272.241 25.9323 272.609 25.2079 273.029 24.4863C273.234 24.1325 273.728 23.8846 274.391 23.8553C275.061 23.8135 275.833 24.0026 276.574 24.3231C277.315 24.6448 277.985 25.0595 278.481 25.4582C278.979 25.8519 279.256 26.1997 279.261 26.4766C279.268 26.927 279.291 27.3977 279.316 27.8741C279.327 27.9016 279.337 27.9291 279.346 27.9564C279.417 28.1564 279.604 28.3673 279.794 28.5781C279.837 28.6255 279.881 28.673 279.924 28.7204Z" fill="black"/>
<path d="M253.786 25.0311C254.03 24.5685 254.724 24.5577 255.107 24.5541C255.114 24.5539 255.121 24.5536 255.128 24.5534C255.218 24.5526 255.3 24.5381 255.396 24.5208C255.626 24.4797 255.937 24.4235 256.631 24.5157C256.815 24.4637 257 24.4162 257.186 24.3741C259.195 23.9177 261.276 23.8272 263.354 23.8476C263.379 23.8411 263.404 23.8345 263.43 23.8278C263.926 23.6987 264.546 23.5423 264.96 23.6165C265.491 23.7101 265.853 23.8209 266.156 23.9184C267.616 23.9659 269.065 24.0097 270.498 23.9558C270.513 23.9502 270.561 23.9518 270.576 23.9467C270.752 23.9453 270.931 23.9421 271.107 23.9377C271.612 23.9246 272.113 23.8982 272.612 23.8542C273.071 23.8137 273.529 23.7625 273.984 23.7019C274.244 23.596 274.49 23.4758 274.717 23.3647C275.037 23.2085 275.322 23.0702 275.561 23.0138C276.139 22.878 276.811 22.9716 277.309 23.0416C277.39 23.0531 277.467 23.064 277.538 23.073C277.923 22.9915 278.307 22.9066 278.692 22.8204C278.72 22.8506 278.748 22.8822 278.777 22.9145C279.14 23.3181 279.546 23.283 280.184 23.2276C280.463 23.2034 280.784 23.1757 281.165 23.1779C281.41 23.1793 281.548 23.3393 281.662 23.4698C281.695 23.5082 281.726 23.5441 281.757 23.5727C281.862 23.6705 281.958 23.5485 282.069 23.4045C282.212 23.2177 282.386 22.9931 282.649 23.1623C283.495 23.7008 283.809 23.2605 284.044 22.928C284.061 22.9028 284.078 22.8782 284.095 22.8548C284.145 22.7872 284.193 22.7287 284.242 22.6901C284.457 22.5218 284.801 22.6369 285.068 22.8131C285.282 22.9529 285.658 22.7556 285.935 22.5232C286.038 22.4356 286.192 22.4171 286.369 22.3955C286.555 22.373 286.768 22.3471 286.987 22.2353C287.539 21.9526 287.83 21.8092 288.066 21.6946C288.133 21.6618 288.195 21.6318 288.258 21.6007C288.455 21.5027 288.703 21.41 288.955 21.3153C289.257 21.2021 289.564 21.0858 289.792 20.9556C290.434 20.9677 291.089 20.9997 291.749 21.0316C292.088 21.0486 292.46 21.3681 292.78 21.9375C293.1 22.5073 293.342 23.2755 293.458 24.0908C293.573 24.9062 293.553 25.7112 293.409 26.3473C293.265 26.9828 293.005 27.394 292.688 27.5062C292.049 27.731 291.404 27.9578 290.747 28.1563C289.946 28.398 289.126 28.5972 288.29 28.6996C287.707 28.7712 287.117 28.8187 286.529 28.8454C286.469 28.8482 286.406 28.8507 286.347 28.8529C285.877 29.1058 285.404 29.3367 285.063 29.4342C284.925 29.4741 284.8 29.4721 284.687 29.4507C284.575 29.4288 284.473 29.3871 284.38 29.3486C284.25 29.296 284.141 29.2489 284.032 29.2672C283.974 29.277 283.894 29.2963 283.8 29.3192C283.412 29.4136 282.756 29.571 282.139 29.4201C281.863 29.3533 281.541 29.2044 281.234 29.0617C280.794 28.8579 280.386 28.6673 280.192 28.7494C279.854 28.8936 279.447 28.8226 279.09 28.7595C278.748 28.6994 278.45 28.6469 278.293 28.796C278.107 28.9742 277.932 28.92 277.673 28.84C277.493 28.7846 277.273 28.7169 276.979 28.7052C276.64 28.6916 276.394 28.5952 276.185 28.5133C275.89 28.3981 275.668 28.3116 275.365 28.5262C275.028 28.7647 274.671 28.9284 274.376 28.8857C274.241 28.8663 274.092 28.8861 273.935 28.9071C273.728 28.9348 273.511 28.964 273.305 28.9058C273.136 28.8578 272.985 28.7106 272.853 28.5804C272.812 28.5398 272.772 28.5011 272.734 28.4673C272.603 28.4811 272.472 28.496 272.343 28.5127C272.324 28.5403 272.304 28.5707 272.284 28.6021C272.18 28.7598 272.055 28.9533 271.887 29.0599C271.621 29.2286 271.368 29.1637 271.102 29.0953C271.101 29.0949 271.099 29.0946 271.098 29.0942L271.169 29.0859C270.959 29.0394 270.741 28.9918 270.508 29.0509C270.348 29.0916 270.169 29.182 269.995 29.2715C269.737 29.4042 269.478 29.5365 269.283 29.5037C269.21 29.4914 269.136 29.4007 269.062 29.3105C269.062 29.3099 269.061 29.3094 269.061 29.3088C269.056 29.3027 269.051 29.2967 269.046 29.2906C268.599 29.4327 268.156 29.5842 267.716 29.742C267.681 29.7736 267.645 29.8049 267.609 29.8358C267.434 29.9868 267.267 30.1337 267.172 30.3196C267.068 30.5214 266.755 30.6793 266.425 30.8474C266.208 30.9577 265.989 31.0715 265.813 31.2044C265.71 31.282 265.587 31.1982 265.46 31.1119C265.341 31.0314 265.219 30.9489 265.108 30.9939C265.053 31.0165 264.998 31.0696 264.94 31.1264C264.889 31.1763 264.835 31.2293 264.775 31.2665C264.72 31.3009 264.577 31.2692 264.393 31.2296C264.28 31.2051 264.151 31.1777 264.018 31.1602C263.696 31.2849 263.377 31.4076 263.056 31.5278C263.004 31.6301 262.966 31.7572 262.948 31.9147C262.934 32.0277 262.931 32.1604 262.926 32.2963C262.92 32.4811 262.914 32.6721 262.885 32.8291C262.862 32.9518 262.818 33.0075 262.774 32.9672C262.753 32.9483 262.732 32.9092 262.713 32.8739C262.692 32.8334 262.672 32.7975 262.658 32.8014C262.648 32.8043 262.643 32.8369 262.637 32.8764C262.628 32.9395 262.615 33.021 262.574 33.032C262.422 33.0726 262.239 33.084 262.061 33.0948C261.865 33.1068 261.67 33.1198 261.526 33.1734C261.364 33.2333 261.101 33.1705 260.838 33.1087C260.656 33.0655 260.47 33.0238 260.32 33.0228C260.173 33.0219 260.04 33.1162 259.912 33.2084C259.757 33.319 259.612 33.4254 259.45 33.3582C259.417 33.3444 259.355 33.2303 259.277 33.0875C259.221 32.9864 259.157 32.8708 259.091 32.7661C258.914 32.8062 258.735 32.842 258.556 32.8738C258.553 32.8918 258.551 32.9101 258.548 32.9288C258.548 32.9292 258.548 32.9296 258.548 32.93C258.493 33.3515 258.42 33.9276 258.068 33.6774C257.978 33.6139 257.898 33.4761 257.826 33.3522C257.756 33.2306 257.692 33.1218 257.634 33.1096C257.569 33.0958 257.519 33.193 257.464 33.2988C257.388 33.4473 257.305 33.613 257.154 33.5146C257.144 33.5078 257.133 33.5004 257.121 33.4931C257.013 33.4234 256.853 33.3205 256.659 33.0818C256.263 33.1037 255.865 33.1151 255.465 33.1208C254.798 33.1304 254.122 33.1247 253.446 33.1249C253.117 33.1239 252.722 32.8413 252.337 32.3199C251.953 31.7974 251.614 31.0824 251.39 30.3061C251.167 29.5298 251.075 28.7438 251.134 28.095C251.194 27.4468 251.4 26.995 251.698 26.8201C252.187 26.5361 252.675 26.2556 253.172 25.9883C253.195 25.9647 253.219 25.9417 253.243 25.9197C253.42 25.7561 253.556 25.486 253.692 25.216C253.723 25.154 253.754 25.0918 253.786 25.0311Z" fill="black"/>
<path d="M309.034 46.461C309.088 47.1662 308.467 48.0955 308.156 48.6339C308.15 48.6437 308.145 48.6536 308.139 48.6634C308.064 48.79 308.008 48.9159 307.944 49.0637C307.798 49.4085 307.596 49.8576 307.089 50.7722C307.076 50.7919 307.063 50.8119 307.05 50.8323C306.997 51.054 306.953 51.274 306.914 51.4977C306.469 53.8118 307.22 56.9924 309.031 59.916C309.053 59.9412 309.075 59.9666 309.097 59.992C309.098 59.9925 309.099 59.9931 309.1 59.9936C309.146 60.0169 309.209 60.0536 309.35 60.1391C309.488 60.2233 309.699 60.3394 309.888 60.4745C310.376 60.822 310.905 61.07 311.332 61.2646C313.12 61.6819 315.314 61.7507 317.501 61.664C318.339 61.6394 319.156 61.5199 319.942 61.2936C320.738 61.0648 321.496 60.7265 322.19 60.2834C322.829 59.8759 323.417 59.3835 323.936 58.8248C324.187 58.4501 324.385 58.0669 324.545 57.7092C324.687 57.39 324.8 57.0909 324.9 56.8299C324.952 56.6883 325.002 56.5565 325.052 56.4367C325.389 55.6575 325.842 54.7503 326.099 53.985C326.142 53.8615 326.18 53.7431 326.212 53.6322C326.264 52.9941 326.255 52.3421 326.195 51.6897C326.227 51.6459 326.26 51.6014 326.294 51.5559C326.673 51.0398 326.677 50.3816 326.517 49.4286C326.501 49.3355 326.483 49.2405 326.463 49.141C326.369 48.6879 326.23 48.1662 326.034 47.5356C325.906 47.1299 325.971 46.8581 326.024 46.6299C326.039 46.5629 326.053 46.4997 326.059 46.4386C326.081 46.2291 325.894 46.0999 325.672 45.9554C325.383 45.7661 325.038 45.5563 324.967 45.0456C324.736 43.5099 324.026 43.0472 323.49 42.7649C323.46 42.7584 323.431 42.7528 323.402 42.7478C323.277 42.726 323.165 42.7144 323.08 42.6825C322.811 42.5822 322.658 42.2344 322.488 41.8713C322.366 41.5817 321.761 41.4198 321.255 41.4405C321.065 41.4457 320.843 41.3649 320.561 41.281C320.272 41.1944 319.917 41.1054 319.511 41.1129C318.482 41.1389 317.912 41.219 317.46 41.2732C317.434 41.2766 317.408 41.28 317.382 41.2834L317.74 41.2829C317.655 41.306 317.573 41.329 317.492 41.3537C317.17 41.4512 316.767 41.5629 316.362 41.7039C315.877 41.8709 315.392 42.081 315.054 42.2951C314.748 42.3625 314.444 42.4402 314.151 42.5266C313.527 42.7014 312.746 43.0398 311.826 43.4313C311.15 43.7179 310.332 43.7171 309.603 43.3944C308.872 43.0728 308.281 42.4704 307.93 41.7258C307.582 40.9794 307.494 40.1446 307.652 39.3903C307.811 38.6356 308.196 38.0267 308.752 37.6559C309.492 37.1679 310.326 36.5798 311.385 36.0409C311.898 35.7798 312.417 35.548 312.947 35.3427C314.336 34.8067 315.802 34.4394 317.366 34.3204C317.441 34.3247 317.663 34.3079 317.736 34.3199C318.303 34.3357 318.877 34.377 319.456 34.4505C320.88 34.6335 322.352 34.9739 323.837 35.6374C323.99 35.7059 324.142 35.7784 324.295 35.8543C325.636 36.2441 327.04 37.042 327.884 37.8671C328.365 38.3247 328.668 38.7971 328.88 39.225C328.932 39.3518 328.975 39.474 329.016 39.5904C329.105 39.8448 329.185 40.0724 329.321 40.27C329.395 40.3761 329.5 40.5189 329.626 40.6944C330.14 41.4021 331.04 42.7082 331.475 44.1953C331.667 44.8486 331.794 45.6591 331.857 46.4394C331.922 47.2255 331.923 47.9759 331.956 48.5224C331.969 48.7393 331.99 48.9217 332.03 49.0612C332.267 49.8883 332.24 50.8894 332.147 51.7595C332.063 52.5921 331.925 53.3079 332.014 53.7395C332.118 54.2568 331.989 54.6834 331.761 55.2927C331.6 55.7154 331.393 56.2275 331.125 56.9258C330.811 57.7335 330.447 58.2504 330.127 58.6695C329.852 59.0285 329.605 59.3181 329.386 59.6653C329.25 59.8798 329.123 60.1242 329.005 60.4183C328.667 61.2593 328.144 62.0661 327.573 62.5396C327.315 62.7555 327.04 63.0247 326.743 63.2921C326.35 63.6469 325.912 64.0001 325.45 64.229C325.07 64.4181 324.692 64.4672 324.364 64.4985C324.261 64.5086 324.161 64.5177 324.069 64.5278C323.79 64.6901 323.505 64.8444 323.217 64.99C323.181 65.036 323.144 65.0856 323.104 65.137C322.905 65.3943 322.649 65.7078 322.258 65.9564C321.639 66.3481 321 66.4513 320.344 66.5168C319.833 66.5671 319.301 66.5962 318.717 66.709C318.503 66.7501 318.281 66.8013 318.044 66.8553C317.858 66.9008 317.669 66.9506 317.479 66.9995C316.881 67.154 316.277 67.2966 315.847 67.2647C315.685 67.2529 315.543 67.161 315.4 67.0692C315.4 67.0686 315.399 67.068 315.398 67.0674C315.389 67.0612 315.379 67.0551 315.369 67.0489C314.338 67.1834 313.279 67.2938 312.177 67.3372C312.08 67.3589 311.981 67.3797 311.884 67.3995C311.406 67.497 310.927 67.5726 310.592 67.7036C310.234 67.8457 309.344 67.8483 308.319 67.695C307.647 67.5964 306.912 67.4197 306.268 67.2287C305.893 67.1186 305.598 66.8434 305.316 66.5414C305.052 66.2589 304.797 65.9542 304.449 65.6956C304.273 65.5645 304.069 65.4373 303.852 65.2843C303.661 65.1501 303.462 64.9971 303.276 64.8123C303.247 64.7836 303.215 64.7468 303.179 64.7024C303.069 64.5631 302.922 64.2959 302.751 63.9645C302.627 63.7218 302.488 63.4423 302.34 63.1519C301.808 62.4871 301.308 61.7832 300.85 61.0429C300.685 60.9249 300.508 60.8372 300.316 60.7919C300.178 60.7592 300.027 60.7465 299.872 60.7314C299.661 60.7105 299.444 60.688 299.24 60.6038C299.081 60.5381 298.976 60.4189 298.979 60.3071C298.98 60.2549 299.004 60.2046 299.026 60.1592C299.051 60.1071 299.073 60.0608 299.056 60.0238C299.043 59.9971 299.003 59.9812 298.953 59.9612C298.874 59.929 298.772 59.8871 298.723 59.7766C298.54 59.3645 298.38 58.8746 298.241 58.3829C298.087 57.8378 297.959 57.2908 297.829 56.8602C297.682 56.3767 297.643 55.6378 297.66 54.8982C297.671 54.3818 297.705 53.8652 297.717 53.4231C297.728 52.9912 297.66 52.5412 297.612 52.0954C297.554 51.5626 297.528 51.0328 297.684 50.6101C297.716 50.5245 297.855 50.4312 298.029 50.3191C298.153 50.2393 298.296 50.152 298.432 50.0499C298.522 49.5181 298.646 48.9968 298.801 48.4831C298.79 48.4602 298.778 48.4366 298.767 48.4129C298.767 48.4124 298.766 48.412 298.766 48.4116C298.754 48.3869 298.742 48.3617 298.73 48.3359C298.458 47.8733 298.15 47.2303 298.674 46.6664C298.814 46.5171 298.997 46.4588 299.162 46.4077C299.324 46.3572 299.468 46.3137 299.539 46.1983C299.618 46.0674 299.605 45.8716 299.593 45.6573C299.576 45.3568 299.563 45.0166 299.805 44.7855C299.822 44.7698 299.84 44.7529 299.858 44.7353C300.032 44.5683 300.291 44.3236 300.68 44.1493C301.148 43.3161 301.663 42.5174 302.209 41.7542C303.119 40.4815 304.118 39.3078 305.152 38.2086C305.657 37.6734 306.385 37.3571 307.171 37.3461C307.958 37.3346 308.735 37.6226 309.358 38.136C309.982 38.6499 310.413 39.3517 310.602 40.089C310.789 40.8267 310.717 41.5354 310.418 42.091C309.928 42.9966 309.485 43.9062 309.09 44.8119C309.077 44.8645 309.064 44.9169 309.051 44.9686C308.952 45.3535 308.975 45.7703 309.01 46.1798C309.018 46.274 309.027 46.3679 309.034 46.461Z" fill="black"/>
</svg>
