<svg width="170" height="49" viewBox="0 0 170 49" fill="none" xmlns="http://www.w3.org/2000/svg">
<path d="M8.63387 6.89861C8.98278 7.23843 8.84468 7.90138 8.77058 8.26816C8.76937 8.27482 8.76815 8.28149 8.76694 8.28815C8.74932 8.37444 8.74541 8.45624 8.7413 8.55254C8.73166 8.78429 8.71805 9.09032 8.50729 9.74335C8.51879 9.93073 8.52686 10.121 8.5307 10.3102C8.57219 12.3472 8.35147 14.4035 8.09307 16.47C8.09598 16.496 8.09897 16.5225 8.10198 16.5491C8.15998 17.06 8.23392 17.697 8.12633 18.1052C7.98934 18.6219 7.85726 18.9787 7.7425 19.269C7.54751 20.916 7.39378 22.5672 7.39637 24.2103C7.39717 24.725 7.4137 25.2405 7.44866 25.7519C7.481 26.225 7.52503 26.6948 7.57981 27.1668C7.67517 27.4356 7.78408 27.6903 7.88523 27.9268C7.9049 27.9728 7.92427 28.0181 7.94319 28.0626L7.94074 28.0319C8.06184 28.3088 8.16494 28.5505 8.21336 28.7611C8.34852 29.3496 8.28481 30.0304 8.24135 30.5419C8.23413 30.6248 8.22736 30.703 8.22214 30.7762C8.3111 31.1678 8.40532 31.5587 8.50219 31.9521C8.47643 31.982 8.44943 32.0119 8.42179 32.0427C8.07671 32.4286 8.13077 32.8484 8.21465 33.5227C8.25107 33.8167 8.29271 34.1587 8.30787 34.5674C8.31756 34.8307 8.17877 34.9805 8.06561 35.1031C8.03233 35.1393 8.00121 35.1732 7.97659 35.2061C7.89234 35.3192 8.00571 35.4212 8.13911 35.5391C8.24996 35.6397 8.37438 35.7476 8.41233 35.8927C8.43351 35.9718 8.42697 36.0616 8.37448 36.1657C7.90913 37.0692 8.30595 37.4062 8.60821 37.6692C8.69664 37.745 8.77658 37.8144 8.82385 37.8889C8.97686 38.1271 8.87336 38.4962 8.71305 38.7772C8.58622 39.0025 8.76061 39.4155 8.96553 39.7253C9.04301 39.8421 9.05697 40.0073 9.07283 40.2014C9.08929 40.4027 9.10775 40.6355 9.20233 40.8777C9.44146 41.4924 9.55877 41.8193 9.65287 42.0826C9.67973 42.1582 9.70418 42.2271 9.72952 42.2969C9.80963 42.5177 9.88203 42.7931 9.95497 43.0712C10.0424 43.4055 10.1308 43.7428 10.2353 43.998C10.1895 44.6805 10.1213 45.3627 10.0531 46.0454C10.0175 46.3958 9.70812 46.7504 9.1778 47.032C8.64701 47.3133 7.94278 47.4988 7.20338 47.5483C6.46397 47.5978 5.74133 47.5078 5.17777 47.2998C4.61464 47.0914 4.26021 46.7816 4.17811 46.4396C4.01394 45.75 3.84963 45.062 3.70867 44.3717C3.53707 43.5325 3.40003 42.6894 3.34011 41.8451C3.29811 41.2535 3.27295 40.6609 3.26073 40.07C3.25951 40.0097 3.25847 39.9476 3.25748 39.8868C3.03839 39.4053 2.83473 38.926 2.74819 38.5849C2.67687 38.3043 2.7569 38.0881 2.82521 37.9033C2.87238 37.7782 2.91362 37.6627 2.89646 37.5555C2.8873 37.4987 2.86907 37.4171 2.84736 37.3225C2.79523 37.0941 2.72154 36.7753 2.69263 36.4265C2.67207 36.1785 2.674 35.9174 2.72222 35.6611C2.77395 35.3862 2.89616 35.0587 3.01129 34.7434C3.176 34.2927 3.3265 33.8665 3.24255 33.6684C3.09509 33.3214 3.13675 32.8939 3.1746 32.5144C3.21057 32.1518 3.24308 31.8346 3.10122 31.6699C2.93182 31.4748 2.97221 31.2853 3.03331 31.009C3.07566 30.8167 3.12747 30.5804 3.12746 30.2672C3.12738 29.9044 3.20705 29.644 3.27466 29.4189C3.37037 29.1071 3.44235 28.8673 3.24287 28.5472C3.22134 28.512 3.20043 28.4764 3.18026 28.4404C3.18082 28.4355 3.17769 28.4208 3.1783 28.416C2.99481 28.0868 2.87647 27.7477 2.91062 27.4659C2.92781 27.3232 2.90971 27.1629 2.89095 26.9963C2.8661 26.7757 2.84039 26.5445 2.89375 26.3266C2.93775 26.1474 3.0714 25.993 3.18974 25.8566C3.22666 25.8141 3.2619 25.7733 3.29266 25.734C3.28146 25.5956 3.26935 25.4553 3.25583 25.3163C3.23122 25.2953 3.20406 25.2732 3.17601 25.2502C3.03526 25.1347 2.86264 24.9926 2.76933 24.8091C2.62162 24.5177 2.68496 24.2485 2.75271 23.9666C2.80549 23.7477 2.86059 23.5166 2.82 23.2611C2.7923 23.0865 2.72153 22.8912 2.65146 22.6954C2.5474 22.405 2.44549 22.1209 2.48781 21.9147C2.50367 21.8375 2.59011 21.7671 2.67615 21.6974C2.67668 21.6971 2.67721 21.6968 2.67775 21.6965C2.68359 21.6918 2.68928 21.687 2.69509 21.6823C2.59827 21.1949 2.49518 20.7045 2.38925 20.218C2.36378 20.1763 2.33862 20.1342 2.31383 20.0925C2.19273 19.8886 2.07534 19.6912 1.91681 19.5668C1.74502 19.4335 1.63079 19.0734 1.51143 18.6988C1.43327 18.4541 1.35262 18.1961 1.25156 17.9905C1.19247 17.8696 1.28012 17.7498 1.37048 17.6244C1.45479 17.5076 1.5414 17.3879 1.51308 17.263C1.49887 17.2004 1.45734 17.134 1.41296 17.0633C1.37389 17.001 1.33251 16.9353 1.30591 16.8658C1.28126 16.8011 1.3255 16.6508 1.38202 16.4599C1.41695 16.3418 1.45645 16.2081 1.48783 16.0686C1.41482 15.7031 1.34496 15.341 1.27952 14.9746C1.19509 14.9008 1.08677 14.8382 0.948931 14.7905C0.850035 14.7563 0.732306 14.7284 0.61195 14.6997C0.448169 14.6607 0.278919 14.6202 0.14301 14.561C0.0368073 14.5147 -0.00689132 14.4572 0.0350657 14.4161C0.0546355 14.397 0.0922398 14.3815 0.126236 14.3672C0.165182 14.3509 0.199818 14.3364 0.198242 14.3202C0.197039 14.3086 0.168658 14.2974 0.134299 14.2836C0.0794329 14.2616 0.00859489 14.2329 0.00448246 14.1857C-0.0108167 14.0103 0.00481246 13.8105 0.0205466 13.616C0.0379676 13.3977 0.0550835 13.1837 0.029144 13.016C8.84404e-05 12.8293 0.0958542 12.5535 0.191911 12.281C0.258913 12.0911 0.325775 11.901 0.351093 11.7371C0.375909 11.577 0.31443 11.4135 0.254646 11.2557C0.182848 11.065 0.113705 10.8793 0.201414 10.7207C0.219226 10.6885 0.330944 10.6468 0.470731 10.5945C0.569803 10.5576 0.683083 10.5151 0.787342 10.4674C0.783273 10.267 0.784067 10.0653 0.789122 9.86629C0.773725 9.85955 0.758059 9.85259 0.742059 9.84563C0.741691 9.84552 0.741322 9.84541 0.740954 9.8453C0.379965 9.69045 -0.113914 9.46713 0.173881 9.14754C0.247048 9.06626 0.383609 9.01411 0.506516 8.96723C0.627223 8.92104 0.735232 8.8787 0.757308 8.81952C0.782311 8.75218 0.706861 8.67419 0.62488 8.58934C0.509766 8.47005 0.381274 8.33806 0.498315 8.20209C0.506304 8.19269 0.515073 8.18258 0.523853 8.17207C0.607096 8.07241 0.730333 7.9255 0.979861 7.78006C1.04367 7.3538 1.1204 6.92785 1.20604 6.49592C1.34882 5.78214 1.51627 5.07264 1.69003 4.35739C1.77549 4.00864 2.12354 3.68745 2.67566 3.45089C3.22847 3.21833 3.93509 3.10597 4.66186 3.12634C5.38863 3.14715 6.08699 3.29757 6.62801 3.54676C7.16824 3.80031 7.50283 4.11687 7.57752 4.45074C7.69781 4.9933 7.82212 5.53327 7.93932 6.07579C7.95433 6.10447 7.96885 6.1333 7.98247 6.16205C8.08381 6.37122 8.28837 6.56671 8.49355 6.76408C8.54068 6.8098 8.58793 6.85397 8.63387 6.89861Z" fill="black"/>
<path d="M6.11375 3.98554C6.32564 3.54804 6.99895 3.48688 7.36759 3.46136C7.37434 3.46071 7.3811 3.46006 7.38786 3.45942C7.47581 3.45293 7.55535 3.43486 7.64843 3.41367C7.86974 3.36405 8.17285 3.29335 8.85156 3.34939C9.03103 3.29545 9.21245 3.24634 9.39562 3.20291C11.3736 2.73428 13.5135 2.70177 15.6408 3.02239C15.6676 3.02027 15.6948 3.01814 15.7223 3.01604C15.8712 3.00466 16.032 2.99405 16.1937 2.98861C16.6741 2.97424 17.1769 3.01577 17.5123 3.1481C18.1063 3.38164 18.4817 3.61459 18.7787 3.81542C20.5918 4.52232 22.1399 5.6318 23.4232 6.87018C23.8281 7.2597 24.2101 7.6623 24.5775 8.07882C24.8788 8.42052 25.1672 8.77308 25.4424 9.13857C25.4947 9.20998 25.5447 9.28221 25.5923 9.35482C25.9017 9.71082 26.1497 10.0655 26.3462 10.3924C26.6219 10.8534 26.8005 11.2645 26.8798 11.6011C27.072 12.4205 26.9078 13.254 26.7531 13.8148C26.728 13.9072 26.7031 13.9937 26.6804 14.0727C26.6718 14.5282 26.6431 14.9738 26.5944 15.4186C26.5595 15.4411 26.5234 15.4632 26.4863 15.4853C26.4799 15.4891 26.4736 15.4929 26.4673 15.4968C26.0026 15.8287 25.8813 16.3302 25.5027 17.1038C25.3344 17.441 25.1093 17.8239 24.7838 18.2047C24.5733 18.4494 24.3491 18.4688 24.1731 18.4796C24.121 18.4828 24.0724 18.4853 24.0284 18.4922C23.8789 18.5144 23.8705 18.6723 23.8517 18.8624C23.8294 19.1064 23.7843 19.4096 23.4486 19.4719C22.7444 19.5931 22.4943 19.8128 22.3636 20.0895C22.2999 20.2258 22.2686 20.3712 22.2403 20.5017C22.2143 20.6168 22.1917 20.7196 22.1478 20.7964C22.0062 21.0453 21.6342 21.1156 21.3232 21.0857C21.0758 21.0636 20.8008 21.3815 20.6255 21.6822C20.558 21.7968 20.4259 21.8697 20.2712 21.9535C20.1088 22.0413 19.9255 22.1389 19.7628 22.3096C19.3529 22.7398 19.1326 22.9557 18.9566 23.1292C18.9049 23.1793 18.8597 23.224 18.813 23.2704C18.664 23.4176 18.4716 23.5737 18.2764 23.7314C18.0428 23.9201 17.8061 24.1113 17.6437 24.2898C17.0819 24.4678 16.5087 24.6276 15.9426 24.7859C15.6511 24.8669 15.2465 24.6993 14.8103 24.3062C14.3757 23.9119 13.9427 23.3301 13.6064 22.6697C13.2698 22.0096 13.0541 21.3169 12.9947 20.7319C12.9372 20.1466 13.0468 19.7178 13.2901 19.529C13.7799 19.1501 14.276 18.7699 14.7738 18.4162C15.3842 17.9832 16.0044 17.5862 16.6419 17.2613C17.0869 17.0343 17.5302 16.8245 17.9594 16.6272C18.0027 16.6073 18.0476 16.5869 18.0913 16.5669C18.3464 16.2187 18.5756 15.8918 18.7456 15.7161C18.8864 15.5711 19.0492 15.58 19.1903 15.5849C19.2132 15.5857 19.2353 15.5866 19.2564 15.5868C19.3258 15.5864 19.3836 15.58 19.4226 15.5444C19.4497 15.5195 19.4826 15.4817 19.5206 15.4363C19.682 15.248 19.878 14.9599 20.1597 14.9081C20.2888 14.8826 20.4793 14.8933 20.6641 14.8836C20.927 14.8743 21.1812 14.8033 21.1583 14.6984C21.1221 14.5421 21.2234 14.4217 21.3304 14.2742C21.3468 14.2471 21.3632 14.22 21.3793 14.193C21.5056 13.9826 21.6067 13.788 21.502 13.6569C21.3766 13.5008 21.4508 13.4015 21.5553 13.2458C21.6273 13.1388 21.7136 13.0034 21.7472 12.8236C21.7852 12.6177 21.8797 12.4798 21.9566 12.3583C22.0646 12.1926 22.1341 12.0445 21.9334 11.9534C21.7093 11.8535 21.5686 11.8581 21.6131 11.8157C21.6182 11.8098 21.6212 11.8055 21.6229 11.8025C21.589 11.7394 21.5391 11.6784 21.4875 11.6177C21.393 11.5062 21.2912 11.3932 21.253 11.242C21.2212 11.1169 21.265 10.9494 21.2993 10.798C21.3101 10.7509 21.3198 10.7055 21.3265 10.6637C21.2581 10.593 21.1888 10.5251 21.1164 10.4589C21.0889 10.4642 21.0592 10.4708 21.0284 10.4776C20.8736 10.5117 20.6874 10.5586 20.5409 10.5355C20.3097 10.4998 20.2344 10.3325 20.1427 10.1532C20.0717 10.0142 19.991 9.8691 19.8352 9.79391C19.7296 9.74308 19.5866 9.72147 19.4469 9.70593C19.2391 9.68233 19.0396 9.67289 18.9504 9.56814C18.9169 9.52878 18.9194 9.42962 18.9199 9.3304C18.9199 9.32982 18.92 9.32925 18.9201 9.32867C18.9201 9.32195 18.9201 9.31535 18.9201 9.30865C18.6013 9.23433 18.28 9.19234 17.9619 9.17929C17.9296 9.19373 17.8972 9.20803 17.8654 9.22228C17.7111 9.29213 17.5652 9.3661 17.4558 9.49673C17.3358 9.63764 17.1183 9.68851 16.8943 9.75892C16.7484 9.80464 16.5999 9.85803 16.4791 9.94073C16.4094 9.98907 16.3523 9.89252 16.289 9.79382C16.2359 9.71011 16.1775 9.625 16.1115 9.62682C16.1035 9.62699 16.0954 9.62801 16.0873 9.62998C16.0422 9.6409 15.9933 9.67912 15.9414 9.72028C15.8958 9.75651 15.8474 9.79511 15.7975 9.81906C15.7511 9.84125 15.6467 9.79149 15.5099 9.73044C15.4256 9.6927 15.3285 9.65078 15.226 9.618C14.9623 9.68713 14.6986 9.76005 14.436 9.83469C14.387 9.92085 14.3487 10.0307 14.3237 10.1697C14.3058 10.2694 14.2941 10.3877 14.2825 10.5086C14.2666 10.6732 14.2509 10.8433 14.2204 10.9809C14.1964 11.0884 14.1609 11.1341 14.1289 11.0939C14.114 11.0752 14.1001 11.0384 14.0874 11.0051C14.0729 10.967 14.0598 10.9331 14.0488 10.9354C14.0408 10.9371 14.0356 10.9658 14.0291 11.0006C14.0188 11.0562 14.0056 11.128 13.9736 11.1343C13.8544 11.1576 13.7149 11.1528 13.5766 11.1497C13.4234 11.1461 13.2714 11.145 13.1569 11.1843C13.0282 11.2283 12.8233 11.1573 12.6129 11.0906C12.4666 11.0438 12.3176 10.9993 12.196 10.9935C12.0763 10.988 11.9691 11.0688 11.8663 11.1482C11.7421 11.2436 11.6256 11.3363 11.4923 11.2735C11.4653 11.2608 11.4114 11.1577 11.3437 11.0289C11.2956 10.9376 11.2401 10.8334 11.1822 10.739C11.0354 10.7738 10.8875 10.8054 10.7383 10.8344C10.7369 10.8505 10.7354 10.8669 10.734 10.8837C10.734 10.8841 10.734 10.8844 10.734 10.8848C10.7001 11.2632 10.6665 11.7778 10.3628 11.5578C10.2853 11.5019 10.212 11.3798 10.1456 11.2701C10.0805 11.1623 10.0217 11.066 9.9723 11.0562C9.91638 11.0451 9.87905 11.1331 9.83873 11.229C9.782 11.3637 9.71995 11.5142 9.58834 11.4299C9.57932 11.4242 9.56957 11.4178 9.55951 11.4116C9.46426 11.3521 9.3218 11.265 9.14203 11.0582C8.80574 11.0917 8.46505 11.1195 8.11926 11.1461C7.54345 11.1902 6.95623 11.2299 6.36458 11.2829C6.07635 11.3078 5.7034 11.0885 5.31278 10.6569C4.92258 10.2243 4.54787 9.61837 4.27223 8.9455C3.9966 8.2728 3.8405 7.57725 3.83803 6.98871C3.83565 6.40088 3.99005 5.97278 4.25524 5.78545C4.6873 5.48165 5.1274 5.18279 5.5795 4.89966C5.60035 4.87642 5.6215 4.85363 5.64285 4.83176C5.80138 4.66915 5.91495 4.41471 6.03216 4.15996C6.05902 4.10147 6.08605 4.04288 6.11375 3.98554Z" fill="black"/>
<path d="M37.8767 31.7019C38.1327 32.223 37.8693 33.0464 37.7526 33.4888C37.7506 33.4969 37.7485 33.505 37.7464 33.5131C37.7178 33.6196 37.7044 33.719 37.6905 33.8352C37.6606 34.1099 37.608 34.4867 37.4096 35.1976C37.426 35.4003 37.4451 35.5952 37.4659 35.778C37.4984 36.065 37.5402 36.3242 37.5879 36.5486C37.8835 37.9575 38.6849 39.338 40.2464 40.4139C40.2714 40.4237 40.2969 40.4335 40.323 40.4433C40.4139 40.4777 40.5096 40.5116 40.6067 40.5446C40.8577 40.6201 41.1785 40.6723 41.4436 40.7948C41.8537 40.987 42.2399 41.105 42.5653 41.1951C44.1125 41.238 46.0176 40.7304 47.8424 39.9735C48.0772 39.8859 48.2999 39.7726 48.513 39.6297C48.9199 39.3577 49.2934 38.9714 49.6174 38.4826C49.9159 38.0335 50.1735 37.5046 50.393 36.9265C50.4623 36.565 50.5001 36.204 50.5298 35.863C50.5713 35.3835 50.5977 34.9426 50.6692 34.584C50.7392 34.2323 50.8469 33.8607 50.975 33.4855C51.1335 33.039 51.297 32.6159 51.4182 32.2503C51.4514 32.1514 51.4815 32.0567 51.5077 31.9679C51.5347 31.462 51.524 30.9604 51.4774 30.4686C51.5067 30.4364 51.5371 30.4037 51.5681 30.3703C51.9524 29.9453 51.937 29.3934 51.7936 28.5625C51.7296 28.2013 51.6387 27.7854 51.5239 27.2927C51.449 26.9752 51.5379 26.7688 51.6089 26.5933C51.6298 26.542 51.6489 26.4938 51.6615 26.4473C51.7039 26.2863 51.5554 26.1858 51.3799 26.0768C51.1501 25.9317 50.8794 25.7803 50.8832 25.3983C50.8746 24.1619 50.2363 23.9103 49.8104 23.7759C49.6836 23.7366 49.5647 23.697 49.4749 23.6432C49.2066 23.4788 49.0422 23.1062 48.9461 22.753C48.9567 22.7422 48.967 22.7302 48.9768 22.7173C49.0727 22.6024 48.833 22.5891 48.5578 22.6805C48.4572 22.7143 48.3446 22.6761 48.1777 22.6365C48.0067 22.5958 47.7769 22.5557 47.5063 22.6056C47.1774 22.6666 46.9113 22.7328 46.6976 22.7906C46.5429 22.8529 46.4581 22.9084 46.3969 22.9575C46.3636 22.9847 46.3382 23.01 46.3179 23.0359C46.2509 23.1186 46.231 23.1891 46.2397 23.247C46.2518 23.3151 46.2594 23.3942 46.2732 23.5219C46.2668 23.5258 46.2602 23.5302 46.2534 23.535C46.0264 23.6746 45.5997 24.3826 45.255 25.1763C45.0656 25.6007 44.6206 25.979 43.997 26.1945C43.3731 26.4102 42.6276 26.4372 41.9105 26.2498C41.1937 26.0622 40.5537 25.6808 40.1205 25.1721C39.6882 24.6639 39.5034 24.0614 39.6165 23.4797C39.8483 22.3837 40.077 21.1989 40.9347 19.7801C40.994 19.6855 41.0551 19.5927 41.1203 19.4989C42.2221 17.7268 44.8093 16.5825 46.643 16.6554C46.7607 16.6536 46.8798 16.6536 46.9995 16.6555C48.1835 16.6869 49.4303 16.817 50.8716 17.4542C51.0194 17.5216 51.1687 17.5957 51.3193 17.6776C52.0111 17.9244 52.7739 18.3605 53.3929 18.9809C53.7063 19.2471 53.9776 19.5064 54.1904 19.7414C54.5574 20.1469 54.7021 20.5325 54.8181 20.8599C54.8986 21.0871 54.9634 21.285 55.0796 21.4601C55.1421 21.5546 55.2283 21.6761 55.3334 21.8314C55.7596 22.4483 56.4357 23.5816 56.6617 24.7675C56.7653 25.2918 56.7944 25.9207 56.7858 26.5139C56.7769 27.3645 56.6864 28.1316 56.7903 28.5018C56.9765 29.1521 56.9256 29.9324 56.8331 30.6001C56.747 31.2421 56.6305 31.7797 56.7185 32.1079C56.8231 32.4994 56.7184 32.8218 56.5476 33.2687C56.4269 33.5849 56.2744 33.961 56.1107 34.4755C56.0607 34.6319 56.0069 34.7752 55.9512 34.9075C55.8115 35.2219 55.6651 35.4679 55.5336 35.6876C55.2815 36.1076 55.0904 36.4236 55.0817 37.0007C55.0718 37.6425 54.9511 38.3178 54.6833 38.7935C54.5621 39.0097 54.4526 39.2719 54.3273 39.5461C54.1621 39.9084 53.966 40.2935 53.7009 40.5995C53.4827 40.8518 53.2094 41.0011 52.9672 41.122C52.8915 41.1598 52.8186 41.1954 52.7506 41.231C52.5969 41.4405 52.4338 41.6471 52.2611 41.8494C52.25 41.897 52.2387 41.948 52.2262 42.0012C52.1633 42.2672 52.0682 42.6022 51.8312 42.9228C51.4539 43.4302 50.939 43.6997 50.3981 43.9131C50.2219 43.9829 50.0464 44.0448 49.8617 44.111C49.6562 44.177 49.4455 44.2582 49.2297 44.3752C48.9804 44.5105 48.7082 44.6988 48.433 44.8818C48.0246 45.1541 47.6035 45.4149 47.2655 45.4849C47.139 45.5113 47.0046 45.4647 46.8721 45.4173C46.8715 45.4169 46.8708 45.4166 46.8702 45.4162C46.8612 45.413 46.8522 45.4099 46.8433 45.4067C46.0899 45.7526 45.3004 46.0748 44.4523 46.3398C44.3821 46.3787 44.3105 46.417 44.239 46.4543C43.8881 46.6373 43.5299 46.8003 43.2945 46.9826C43.0425 47.1805 42.343 47.358 41.5309 47.4402C41.0002 47.4963 40.423 47.5079 39.9282 47.5129C39.6387 47.5164 39.3865 47.3659 39.1405 47.2013C38.9099 47.0471 38.6841 46.8815 38.4007 46.8022C38.3059 46.7756 38.202 46.7568 38.0912 46.7381C38.0443 46.7323 37.9959 46.727 37.9464 46.7212C37.8156 46.7059 37.6772 46.6878 37.539 46.6511C37.4103 46.6168 37.1658 46.4491 36.8659 46.2192C36.6811 46.0775 36.4747 45.9118 36.2599 45.7403C35.6112 45.4205 34.9816 45.0422 34.3824 44.6014C34.2113 44.5632 34.0401 44.5532 33.8675 44.5805C33.7436 44.6001 33.6153 44.6404 33.4823 44.6794C33.3016 44.7326 33.112 44.7841 32.9172 44.7803C32.7649 44.7774 32.6409 44.7114 32.6104 44.6175C32.5961 44.5737 32.6016 44.5244 32.6067 44.4799C32.6125 44.4288 32.6179 44.3835 32.5927 44.3582C32.5744 44.3401 32.5357 44.3397 32.4883 44.3385C32.4127 44.3365 32.3144 44.3332 32.2416 44.2562C31.9709 43.9698 31.7006 43.608 31.4557 43.2399C31.1824 42.8309 30.9404 42.4139 30.7274 42.0945C30.4865 41.7365 30.2864 41.1412 30.1425 40.5445C30.0405 40.1278 29.9628 39.7112 29.8806 39.3641C29.8233 39.1235 29.7306 38.8902 29.6324 38.6553C29.591 38.5558 29.549 38.4564 29.5086 38.3574C29.3439 37.9566 29.2075 37.5649 29.249 37.2226C29.2574 37.1534 29.3568 37.053 29.4833 36.9342C29.573 36.8501 29.6762 36.7549 29.7703 36.6515C29.7254 36.2555 29.702 35.864 29.6958 35.484C29.68 35.4712 29.6639 35.4579 29.6475 35.4445C29.6472 35.4443 29.6468 35.4441 29.6464 35.4439C29.2773 35.1483 28.7783 34.6972 29.0903 34.1088C29.1697 33.959 29.3111 33.8742 29.4385 33.7963C29.5637 33.7208 29.676 33.6522 29.7051 33.5504C29.738 33.434 29.6733 33.2878 29.6045 33.1293C29.5078 32.9083 29.4035 32.6546 29.5464 32.4307C29.5562 32.4154 29.5669 32.3989 29.5777 32.3817C29.6798 32.2199 29.8332 31.9821 30.1141 31.7732C30.2768 31.0605 30.4758 30.3708 30.6977 29.701C31.0678 28.5849 31.5008 27.5213 31.9593 26.4825C32.1831 25.9779 32.6585 25.5756 33.2913 25.3729C33.9243 25.1721 34.6583 25.1836 35.3518 25.4013C36.0455 25.6193 36.6533 26.0267 37.0734 26.5245C37.4919 27.0248 37.6851 27.5734 37.6305 28.0664C37.5394 28.8721 37.471 29.6647 37.4212 30.4439C37.4273 30.4866 37.433 30.5291 37.4379 30.5711C37.4743 30.8847 37.6204 31.1952 37.7725 31.4948C37.8074 31.5638 37.8425 31.6336 37.8767 31.7019Z" fill="black"/>
<path d="M71.8763 29.6085C72.211 29.1937 72.9447 29.1714 73.3219 29.1397C73.3289 29.139 73.3358 29.1383 73.3427 29.1377C73.4318 29.1311 73.5132 29.1116 73.604 29.0884C73.8173 29.0314 74.1215 28.9586 74.6655 28.9465C74.7904 28.8769 74.8998 28.8119 74.9921 28.7552C75.0469 28.7216 75.095 28.6906 75.1365 28.663C74.7802 28.9473 74.8734 29.0376 75.0044 28.7933C75.1422 28.5643 75.3188 28.1204 75.4762 27.5961C75.7244 26.9355 75.7884 26.185 75.8281 25.9323C75.8241 25.9277 75.8202 25.9235 75.8165 25.9198C75.8055 25.9091 75.7957 25.9029 75.789 25.9018C75.7568 25.9126 75.7949 25.9696 75.8448 25.8701C75.9186 25.723 75.8733 25.5445 75.8004 25.4098C75.7741 25.3917 75.7447 25.3747 75.7124 25.3594C75.0741 25.0117 73.5374 25.7 72.3637 27.1224C71.9676 27.5798 71.5965 28.0918 71.2554 28.6379C71.0845 28.9115 70.92 29.1934 70.7612 29.4822C70.6504 29.6855 70.5444 29.9039 70.4446 30.1313C70.3738 30.451 70.3324 30.7704 70.3001 31.0693C70.2549 31.4894 70.2277 31.8687 70.1611 32.1662C69.9995 32.8815 69.647 33.6539 69.4091 34.2414C69.3701 34.3369 69.3337 34.4279 69.3016 34.5118C69.2387 35.0062 69.1966 35.4975 69.1804 35.9686C69.1473 35.995 69.113 36.022 69.0779 36.0496C69.0303 36.0869 68.9875 36.1257 68.9488 36.1659C68.6362 36.4684 68.5949 36.9172 68.6483 37.4001C68.676 37.6356 68.725 37.8611 68.7937 38.0984C68.8386 38.2501 68.7493 38.397 68.6851 38.5326C68.6662 38.5721 68.6495 38.6098 68.6393 38.6449C68.6049 38.7661 68.7443 38.7846 68.9044 38.7903C69.1162 38.8016 69.35 38.783 69.4114 39.0755C69.4116 39.0766 69.4119 39.0777 69.4121 39.0788L69.1128 38.8426C69.6987 39.8733 70.3199 39.7846 70.7492 39.7043C70.8772 39.6808 70.9924 39.6585 71.0941 39.6656C71.4221 39.6889 71.7403 39.9948 71.9608 40.2959C72.1347 40.5362 72.6704 40.6141 73.0926 40.5818C73.2521 40.5702 73.4345 40.6374 73.6506 40.7114C73.8738 40.7879 74.1331 40.8716 74.4305 40.879C75.1791 40.8939 75.5517 40.8662 75.8498 40.8465C75.9347 40.8402 76.0119 40.8336 76.0899 40.8256C76.3343 40.8 76.6259 40.7842 76.9051 40.7515C77.0705 40.7322 77.2341 40.7072 77.3791 40.6742L77.2847 40.6742C77.4842 40.6362 77.6626 40.5936 77.8119 40.5446C78.5877 40.6105 79.3079 40.6461 80.1064 40.6149C80.5127 40.6005 80.9708 40.8396 81.3984 41.3013C81.8249 41.7636 82.181 42.4094 82.3653 43.1274C82.5482 43.8453 82.5429 44.5861 82.3233 45.2021C82.1051 45.8171 81.685 46.2519 81.1701 46.4063C80.1411 46.7179 79.011 46.9579 77.9334 47.0812C77.7428 47.1038 77.5551 47.1235 77.3716 47.141C77.3548 47.1387 77.3035 47.1436 77.2868 47.1409C75.9956 47.2085 74.7713 47.0707 73.6156 46.7864C72.6697 46.5523 71.7672 46.2368 70.904 45.8619C70.8148 45.8232 70.7265 45.7838 70.6387 45.744C69.8393 45.6152 69.055 45.4245 68.5333 45.2227C68.103 45.0568 67.8555 44.809 67.6503 44.5979C67.5083 44.452 67.3855 44.3223 67.2318 44.241C67.1489 44.1971 67.0342 44.1419 66.896 44.0736C66.6476 43.9508 66.3272 43.7876 65.9865 43.5781C65.8992 43.4998 65.6056 43.3117 65.5327 43.2199C65.0417 42.7853 64.4884 42.1502 64.1329 41.3858C63.8482 40.7877 63.6637 39.9994 63.6246 39.295C63.5602 38.2758 63.7405 37.4837 63.6726 37.1009C63.5811 36.5628 63.6624 35.9938 63.7875 35.497C63.8194 35.3739 63.8542 35.2501 63.8884 35.1347C64.0451 34.6025 64.1995 34.1654 64.1319 33.8805C64.0515 33.5407 64.1687 33.2878 64.3487 32.9229C64.4741 32.67 64.6295 32.3627 64.7829 31.9321C64.9607 31.4347 65.173 31.1104 65.3554 30.8384C65.6138 30.4548 65.8104 30.1767 65.8328 29.6454C65.8579 29.0553 65.9909 28.4494 66.2605 28.0372C66.3818 27.8516 66.4932 27.619 66.6181 27.3781C66.655 27.307 66.6928 27.2357 66.7321 27.1649C66.856 26.9406 66.9939 26.7187 67.1654 26.5387C67.3475 26.3469 67.5825 26.2428 67.7908 26.153C67.8558 26.1251 67.9177 26.099 67.9755 26.071C68.0851 25.8982 68.1961 25.7262 68.3088 25.5539C68.3085 25.5133 68.3069 25.4703 68.3062 25.4247C68.3022 25.1969 68.3014 24.9146 68.4081 24.6337C68.5786 24.1877 68.9004 23.9111 69.2498 23.6344C69.5227 23.4188 69.8126 23.2017 70.091 22.8883C70.2804 22.6752 70.4822 22.4051 70.7024 22.1418C71.0272 21.75 71.4085 21.3708 71.7545 21.2179C71.8845 21.1597 72.0346 21.1751 72.1817 21.1944C72.1824 21.1946 72.1832 21.1948 72.1839 21.195C72.1939 21.1963 72.2039 21.1974 72.2139 21.1987C72.9603 20.6927 73.8686 20.2648 74.8782 20.0619C74.9633 20.0281 75.0503 19.996 75.1379 19.9661C75.3252 19.9022 75.512 19.8472 75.6912 19.7958C75.9337 19.7289 76.1609 19.6708 76.3435 19.6019C76.6902 19.4661 77.5917 19.4891 78.5292 19.8011C79.1427 19.9979 79.7568 20.3117 80.2502 20.6092C80.5405 20.7829 80.7085 21.076 80.8488 21.3761C80.9808 21.6579 81.0906 21.9453 81.2892 22.1994C81.3788 22.3141 81.489 22.4285 81.6037 22.5548C81.6162 22.5685 81.6288 22.5823 81.6414 22.5963C81.7527 22.7193 81.8656 22.8527 81.9618 23.0007C82.0516 23.1384 82.1549 23.4898 82.2265 23.9161C82.2715 24.1796 82.3053 24.4712 82.3315 24.7651C82.5527 25.509 82.6655 26.2327 82.7097 26.9398C82.7897 27.0881 82.8911 27.2196 83.0223 27.3288C83.1164 27.4071 83.2294 27.4768 83.3442 27.5504C83.5005 27.6504 83.6611 27.7572 83.7826 27.9008C83.8777 28.013 83.9064 28.1404 83.854 28.217C83.8296 28.2528 83.7883 28.2774 83.7509 28.2995C83.7081 28.3248 83.67 28.3471 83.6668 28.3796C83.6646 28.4032 83.6892 28.4311 83.7188 28.4656C83.7659 28.5207 83.8265 28.5934 83.8147 28.6893C83.7976 28.8271 83.7726 28.9709 83.7416 29.1173C83.6998 29.3092 83.6458 29.5125 83.5875 29.7178C83.4824 30.0896 83.3616 30.4692 83.288 30.795C83.2062 31.1594 82.9365 31.6607 82.5909 32.1886C82.3509 32.5563 82.0716 32.9368 81.8175 33.2851C81.5696 33.626 81.339 34.0404 81.0385 34.4508C80.7562 34.8386 80.407 35.2184 80.0066 35.4722C79.9381 35.5129 79.8681 35.5467 79.7966 35.5724C79.7277 35.5971 79.5909 35.5533 79.4269 35.4917C79.3101 35.4483 79.1778 35.3971 79.0424 35.3567C78.6965 35.5689 78.3509 35.7487 78.0084 35.9043C78.0031 35.9238 77.9976 35.9437 77.9922 35.9639C77.9921 35.9643 77.9921 35.9647 77.9921 35.9651C77.8719 36.4197 77.6549 37.0543 77.0103 36.9822C76.8483 36.963 76.7189 36.8632 76.6025 36.7731C76.488 36.6846 76.389 36.6039 76.2879 36.6137C76.173 36.6248 76.0698 36.7367 75.9574 36.8564C75.7976 37.0251 75.6171 37.2105 75.3713 37.1553C75.3547 37.1515 75.3368 37.1472 75.3182 37.1431C75.1413 37.1042 74.8842 37.0427 74.6036 36.8529C73.9386 36.9455 73.2852 36.9945 72.6473 37.0158C71.5829 37.0508 70.5488 37.0116 69.536 36.9453C69.0429 36.9121 68.55 36.6094 68.1744 36.0895C67.7981 35.5689 67.566 34.8793 67.5174 34.154C67.4692 33.4285 67.6059 32.7158 67.8813 32.1469C68.1573 31.5787 68.5512 31.2047 68.9771 31.0837C69.6736 30.8878 70.3543 30.6781 71.0062 30.4601C71.0393 30.4398 71.0723 30.42 71.1052 30.4012C71.3485 30.2607 71.5534 30.0187 71.7445 29.7756C71.7882 29.7197 71.8329 29.6634 71.8763 29.6085Z" fill="black"/>
<path d="M111.681 19.4712C111.386 19.8339 110.796 19.7368 110.475 19.695C110.469 19.6944 110.463 19.6937 110.457 19.6931C110.38 19.6829 110.309 19.6862 110.228 19.6909C110.031 19.7036 109.77 19.7152 109.21 19.5921C109.061 19.6282 108.914 19.663 108.77 19.6954C107.876 19.8944 107.104 20.0897 106.538 20.2845C106.174 20.3917 105.784 20.5691 105.365 20.92C105.358 20.9338 105.351 20.948 105.344 20.9623C105.2 21.238 105.047 21.6294 104.817 21.8449C104.522 22.1179 104.289 22.333 104.093 22.5143C103.748 23.118 103.451 23.8147 103.213 24.5591C103.009 25.1195 102.912 25.7111 102.945 26.3329C102.965 26.7289 103.038 27.1352 103.163 27.5447C103.277 27.9219 103.431 28.3016 103.618 28.6821C103.785 28.8781 103.967 29.0558 104.139 29.2195C104.381 29.4494 104.604 29.6528 104.745 29.8464C105.085 30.3113 105.312 30.9657 105.493 31.4689C105.523 31.5509 105.551 31.6287 105.578 31.7004C105.831 32.0398 106.092 32.3856 106.356 32.7428C106.346 32.7828 106.334 32.8236 106.323 32.8652C106.173 33.3853 106.408 33.7829 106.767 34.4556C106.922 34.7492 107.1 35.0965 107.27 35.5359C107.379 35.8194 107.3 36.0262 107.234 36.1914C107.215 36.2401 107.196 36.2857 107.184 36.329C107.142 36.4772 107.285 36.5563 107.453 36.6571C107.671 36.7863 107.936 36.957 107.876 37.323C107.754 38.0382 107.856 38.4315 108.044 38.7171C108.121 38.8984 108.041 39.4184 108.033 39.6149C108.056 39.8491 108.122 40.0498 108.177 40.2333C108.219 40.3737 108.253 40.5036 108.252 40.6253C108.253 41.0235 107.912 41.4617 107.572 41.7049C107.306 41.9022 107.128 42.468 107.004 42.9361C106.959 43.113 106.82 43.2974 106.649 43.5029C106.472 43.7161 106.263 43.9512 106.079 44.2445C105.756 44.7592 105.505 45.0819 105.306 45.3289C105.218 45.4375 105.14 45.5306 105.066 45.6159C104.997 45.6957 104.933 45.7682 104.869 45.8408C104.665 46.0701 104.394 46.3212 104.119 46.56C103.79 46.8464 103.456 47.1163 103.222 47.3471C102.459 47.6688 101.716 47.9086 101 48.1244C100.631 48.2347 100.168 48.0835 99.7038 47.6952C99.2391 47.3063 98.8092 46.7174 98.4973 46.0452C98.1856 45.3728 98.0159 44.6635 98.0147 44.0594C98.0138 43.4556 98.1804 43.0108 98.4664 42.8091C99.0438 42.4036 99.5885 41.9997 100.081 41.6138C100.584 41.2196 101.03 40.8441 101.401 40.5162C101.474 40.4523 101.545 40.3894 101.615 40.3268C101.921 40.0553 102.195 39.7811 102.43 39.509C102.454 39.4811 102.478 39.453 102.502 39.4252C102.519 39.0756 102.474 38.7853 102.474 38.6266C102.474 38.4954 102.588 38.4524 102.688 38.4034C102.715 38.3903 102.741 38.3774 102.762 38.3637L102.743 39.8299C102.759 39.7778 102.765 39.7288 102.749 39.6841C102.736 39.6443 102.711 39.5909 102.681 39.5264C102.557 39.2614 102.319 38.8207 102.285 38.2808C102.27 38.0412 102.3 37.7273 102.315 37.4153C102.336 36.9696 102.328 36.5305 102.181 36.385C101.922 36.1297 101.802 35.7313 101.687 35.3697C101.578 35.0257 101.476 34.7182 101.278 34.6239C101.042 34.5111 101 34.3199 100.936 34.0326C100.892 33.8329 100.836 33.5875 100.699 33.2836C100.54 32.9326 100.496 32.6394 100.461 32.3911C100.412 32.0391 100.379 31.7776 100.055 31.5142C99.696 31.2212 99.3918 30.8528 99.3036 30.4923C99.2631 30.3282 99.1838 30.1535 99.1042 29.9685C98.9985 29.7232 98.8926 29.4581 98.8754 29.1877C98.8612 28.9649 98.9473 28.7519 99.0269 28.567C99.0517 28.5093 99.0757 28.4542 99.096 28.402C99.0496 28.2395 99.0054 28.0754 98.9631 27.9097C98.9343 27.8879 98.9029 27.8651 98.8704 27.8409C98.7077 27.7199 98.5087 27.5626 98.3878 27.335C98.1967 26.9729 98.2356 26.6132 98.2955 26.2467C98.3424 25.9607 98.4017 25.6678 98.3823 25.3334C98.3691 25.1021 98.3227 24.843 98.288 24.5753C98.2483 24.2713 98.2228 23.9722 98.2613 23.7276C98.2711 23.6646 98.2861 23.6067 98.3079 23.5556C98.3429 23.4736 98.4451 23.4161 98.5468 23.3603C98.5474 23.3601 98.548 23.3599 98.5486 23.3596C98.5555 23.3559 98.5623 23.352 98.5692 23.3482C98.604 22.7841 98.6533 22.2094 98.7308 21.6221C98.7219 21.5669 98.7136 21.511 98.7058 21.4555C98.6678 21.1843 98.6391 20.9154 98.5458 20.7115C98.4441 20.4906 98.498 20.0258 98.5948 19.5223C98.6572 19.1929 98.7382 18.8472 98.7849 18.5453C98.8122 18.3685 98.9705 18.2642 99.1343 18.1626C99.2874 18.0676 99.4452 17.9743 99.515 17.8117C99.5502 17.73 99.5668 17.6282 99.5866 17.5188C99.6041 17.4224 99.6242 17.3197 99.6611 17.2213C99.6954 17.1299 99.8561 16.98 100.071 16.7974C100.204 16.6845 100.358 16.5592 100.516 16.426C100.812 15.9745 101.157 15.5352 101.548 15.1255C101.583 14.9868 101.595 14.8389 101.573 14.6809C101.557 14.5674 101.525 14.444 101.493 14.3168C101.45 14.1437 101.41 13.9628 101.417 13.7898C101.423 13.6546 101.482 13.5594 101.564 13.5544C101.602 13.5521 101.644 13.5688 101.682 13.5842C101.725 13.6018 101.764 13.6177 101.786 13.6012C101.802 13.5892 101.803 13.5545 101.805 13.5121C101.807 13.4445 101.813 13.3565 101.88 13.309C101.909 13.2882 101.939 13.2675 101.97 13.247C102.189 13.1027 102.443 12.9723 102.692 12.856C103.004 12.7101 103.307 12.5857 103.53 12.4583C103.78 12.3149 104.194 12.2494 104.59 12.2107C104.867 12.1827 105.139 12.1647 105.358 12.1245C105.575 12.0843 105.769 11.9655 105.961 11.853C106.19 11.7182 106.412 11.594 106.635 11.6337C106.681 11.6418 106.756 11.7395 106.85 11.8623C106.916 11.9493 106.992 12.049 107.072 12.1389C107.317 12.0837 107.563 12.0382 107.806 12.0018C107.811 11.9852 107.817 11.9682 107.823 11.951C107.823 11.9506 107.823 11.9502 107.824 11.9498C107.957 11.561 108.161 11.0272 108.591 11.2596C108.701 11.3187 108.782 11.4461 108.852 11.5611C108.922 11.6739 108.984 11.7752 109.056 11.7887C109.138 11.8041 109.223 11.7184 109.314 11.626C109.441 11.4962 109.591 11.3517 109.761 11.4533C109.772 11.4603 109.785 11.4679 109.798 11.4755C109.921 11.5476 110.104 11.6553 110.29 11.8911C110.788 11.9161 111.28 11.9656 111.762 12.0326C112.568 12.1443 113.352 12.304 114.123 12.4828C114.496 12.5706 114.845 12.9245 115.081 13.4812C115.316 14.0387 115.423 14.7484 115.386 15.4745C115.35 16.2007 115.174 16.8948 114.914 17.4312C114.652 17.9668 114.325 18.2966 113.998 18.3697C113.461 18.4872 112.935 18.6159 112.422 18.7475C112.395 18.7633 112.369 18.7786 112.342 18.793C112.144 18.9004 111.967 19.1119 111.798 19.3251C111.759 19.374 111.72 19.4233 111.681 19.4712Z" fill="black"/>
<path d="M130.338 28.5112C130.696 28.6511 130.576 28.9746 130.51 29.1527C130.509 29.156 130.508 29.1592 130.507 29.1625C130.491 29.2048 130.489 29.2439 130.487 29.2896C130.482 29.3986 130.475 29.5458 130.274 29.8665C130.289 29.9542 130.299 30.0433 130.306 30.1317C130.373 31.089 130.153 32.0625 129.883 33.037C129.885 33.0489 129.888 33.0609 129.891 33.073C129.946 33.3078 130.014 33.5964 129.903 33.7916C129.762 34.0386 129.627 34.2108 129.509 34.352C129.423 34.6641 129.344 34.9751 129.278 35.2832C129.182 35.7369 129.117 36.1865 129.107 36.6334C129.103 36.8689 129.114 37.1034 129.143 37.3369C129.17 37.5518 129.209 37.7664 129.258 37.9814C129.35 38.098 129.456 38.2076 129.553 38.3095C129.69 38.4527 129.813 38.5814 129.862 38.6953C129.98 38.9696 129.894 39.3148 129.829 39.5724C129.819 39.6148 129.808 39.6539 129.8 39.6907C129.871 39.8803 129.945 40.0713 130.019 40.2629C129.991 40.2796 129.963 40.2959 129.934 40.3128C129.731 40.4296 129.65 40.5439 129.624 40.679C129.603 40.7866 129.618 40.9073 129.636 41.0518C129.653 41.1912 129.672 41.3548 129.662 41.5475C129.656 41.673 129.509 41.7486 129.389 41.8117C129.354 41.8302 129.321 41.8476 129.295 41.8644C129.205 41.9217 129.312 41.9639 129.438 42.0145C129.602 42.0796 129.799 42.1589 129.639 42.2987C129.131 42.7441 129.513 42.8872 129.802 42.998C129.887 43.0306 129.964 43.06 130.007 43.0928C130.15 43.1995 130.031 43.377 129.86 43.5168C129.724 43.6275 129.882 43.8161 130.074 43.9538C130.146 44.0056 130.154 44.0836 130.162 44.174C130.171 44.2681 130.18 44.3769 130.266 44.4879C130.481 44.7681 130.586 44.9181 130.67 45.0382C130.694 45.0725 130.716 45.1045 130.738 45.1364C130.81 45.2372 130.872 45.3643 130.935 45.4924C131.01 45.6463 131.086 45.8021 131.181 45.918C131.111 46.2403 131.018 46.5633 130.926 46.8857C130.878 47.0514 130.557 47.2286 130.018 47.3793C129.478 47.53 128.769 47.6419 128.03 47.6914C127.29 47.7409 126.573 47.7244 126.018 47.6471C125.463 47.5697 125.121 47.4373 125.051 47.2801C124.912 46.9636 124.773 46.6475 124.657 46.3306C124.516 45.9446 124.411 45.5572 124.383 45.1659C124.363 44.8921 124.361 44.6175 124.372 44.3425C124.373 44.3144 124.375 44.2857 124.376 44.2574C124.177 44.0425 123.994 43.8275 123.922 43.6727C123.863 43.5447 123.953 43.4409 124.029 43.3521C124.082 43.2915 124.128 43.2365 124.116 43.1868C124.109 43.1599 124.095 43.1243 124.078 43.0804C124.008 42.9024 123.888 42.6027 124.04 42.307C124.107 42.1755 124.249 42.0177 124.384 41.8659C124.577 41.6499 124.755 41.4461 124.685 41.361C124.647 41.3142 124.627 41.2637 124.62 41.2115C124.604 41.0928 124.651 40.9639 124.693 40.8448C124.752 40.6802 124.802 40.5355 124.67 40.4717C124.512 40.3966 124.562 40.31 124.636 40.1804C124.687 40.0907 124.749 39.9801 124.762 39.8378C124.776 39.6737 124.864 39.5463 124.939 39.4379C125.043 39.2851 125.122 39.1695 124.932 39.0372C124.721 38.8903 124.577 38.7247 124.617 38.5737C124.636 38.5045 124.62 38.4311 124.603 38.3536C124.58 38.2516 124.556 38.1438 124.611 38.0347C124.657 37.9461 124.791 37.8587 124.909 37.7833C124.947 37.7597 124.982 37.7369 125.013 37.7154C125.003 37.6496 124.992 37.585 124.98 37.5196C124.955 37.5118 124.929 37.5036 124.901 37.4951C124.762 37.4528 124.591 37.4001 124.5 37.3198C124.356 37.1932 124.421 37.0579 124.491 36.9168C124.545 36.8063 124.602 36.6929 124.564 36.5722C124.538 36.492 124.469 36.4011 124.401 36.3142C124.3 36.1822 124.201 36.0528 124.245 35.951C124.262 35.9132 124.349 35.8732 124.435 35.8335C124.435 35.8333 124.436 35.8331 124.437 35.8329C124.442 35.8302 124.448 35.8276 124.454 35.8249C124.446 35.804 124.437 35.783 124.429 35.762C124.344 35.5571 124.255 35.3506 124.163 35.1461C124.138 35.1279 124.114 35.1094 124.09 35.0915C123.971 35.004 123.856 34.9155 123.699 34.8675C123.529 34.8145 123.418 34.6524 123.302 34.4806C123.226 34.3697 123.148 34.2519 123.049 34.1616C122.991 34.1082 123.079 34.0453 123.17 33.9806C123.255 33.9209 123.342 33.8596 123.315 33.8023C123.301 33.7736 123.26 33.7445 123.216 33.7137C123.177 33.6868 123.136 33.6583 123.11 33.627C123.086 33.5981 123.131 33.5247 123.188 33.4318C123.224 33.3745 123.264 33.3093 123.296 33.2414C123.225 33.075 123.156 32.908 123.091 32.741C123.007 32.7115 122.899 32.6882 122.762 32.6742C122.663 32.6641 122.546 32.658 122.426 32.6516C122.262 32.6429 122.093 32.6339 121.958 32.614C121.852 32.5984 121.808 32.5739 121.85 32.552C121.87 32.5419 121.907 32.5324 121.941 32.5238C121.98 32.5139 122.015 32.5051 122.013 32.4976C122.012 32.4923 121.983 32.4887 121.949 32.4843C121.894 32.4774 121.824 32.4682 121.82 32.4466C121.804 32.3663 121.82 32.2713 121.835 32.1795C121.852 32.0774 121.869 31.9765 121.842 31.9001C121.812 31.8145 121.907 31.681 122.001 31.5492C122.067 31.457 122.132 31.3639 122.156 31.2874C122.18 31.2122 122.117 31.1396 122.056 31.0697C121.983 30.986 121.912 30.9052 121.998 30.8261C122.015 30.8101 122.126 30.784 122.265 30.7514C122.363 30.7283 122.476 30.7017 122.58 30.6732C122.573 30.5813 122.571 30.4883 122.573 30.3961C122.558 30.3939 122.542 30.3916 122.526 30.3894C122.526 30.3893 122.525 30.3893 122.525 30.3893C122.162 30.3387 121.666 30.2685 121.948 30.1033C122.02 30.0612 122.155 30.0285 122.277 29.999C122.396 29.9701 122.503 29.9442 122.524 29.9157C122.548 29.8834 122.471 29.8526 122.388 29.8188C122.27 29.7715 122.139 29.7184 122.253 29.6484C122.261 29.6436 122.269 29.6384 122.278 29.6331C122.359 29.5826 122.479 29.5078 122.724 29.4248C122.777 29.2243 122.842 29.0234 122.914 28.8222C123.035 28.4867 123.175 28.15 123.315 27.8139C123.384 27.6503 123.715 27.4757 124.252 27.3274C124.79 27.179 125.487 27.0693 126.213 27.0207C126.938 26.9721 127.644 26.9881 128.197 27.0633C128.749 27.1386 129.1 27.2675 129.19 27.4201C129.336 27.6692 129.482 27.9178 129.618 28.1672C129.634 28.1797 129.649 28.1922 129.664 28.2048C129.772 28.2981 129.983 28.3775 130.194 28.4565C130.242 28.4747 130.291 28.4928 130.338 28.5112Z" fill="black"/>
<path d="M120.896 8.24866C120.66 7.97558 120.88 7.90271 121.001 7.86256C121.004 7.86174 121.006 7.86091 121.008 7.86009C121.036 7.85054 121.053 7.83443 121.072 7.81534C121.118 7.76981 121.179 7.70834 121.463 7.68407C121.485 7.63643 121.511 7.59087 121.539 7.5478C121.852 7.08265 122.404 6.77893 123.005 6.50711C123.007 6.50023 123.01 6.49323 123.012 6.48615C123.06 6.34945 123.121 6.17999 123.287 6.15994C123.499 6.13445 123.676 6.13954 123.827 6.14721C124.307 5.93331 124.762 5.70284 125.095 5.39083C125.2 5.29304 125.292 5.18708 125.37 5.07129C125.442 4.96466 125.504 4.85183 125.558 4.73361C125.537 4.62926 125.502 4.52001 125.469 4.41875C125.423 4.27646 125.383 4.14993 125.393 4.07441C125.416 3.89248 125.627 3.80987 125.784 3.74855C125.81 3.73853 125.834 3.72909 125.855 3.71987C125.877 3.60217 125.896 3.48259 125.914 3.3624C125.942 3.37244 125.971 3.38313 126.001 3.39414C126.374 3.53152 126.434 3.43309 126.529 3.27849C126.571 3.21116 126.619 3.13326 126.702 3.05934C126.756 3.01171 126.903 3.06742 127.023 3.11284C127.058 3.12621 127.091 3.13867 127.119 3.14739C127.213 3.17722 127.144 3.09552 127.063 2.99902C126.957 2.87383 126.83 2.72351 127.012 2.75944C127.591 2.87391 127.34 2.58476 127.15 2.36602C127.095 2.30186 127.044 2.24383 127.022 2.20375C126.948 2.07383 127.111 2.06825 127.302 2.10946C127.453 2.14214 127.399 1.9677 127.296 1.79458C127.258 1.72911 127.281 1.69132 127.309 1.64702C127.337 1.60118 127.371 1.54838 127.344 1.44993C127.277 1.20113 127.249 1.07397 127.227 0.971937C127.22 0.942847 127.215 0.916002 127.208 0.888705C127.188 0.802443 127.186 0.710399 127.184 0.617311C127.181 0.505912 127.179 0.392838 127.146 0.285951C127.324 0.185916 127.52 0.0980419 127.716 0.0100481C127.817 -0.034802 128.143 0.0758258 128.635 0.326192C129.127 0.576813 129.742 0.944397 130.357 1.35733C130.972 1.77027 131.545 2.19958 131.964 2.56013C132.382 2.92043 132.608 3.18054 132.605 3.29116C132.598 3.51331 132.59 3.73553 132.563 3.94437C132.53 4.19876 132.467 4.43339 132.339 4.62417C132.25 4.75763 132.145 4.88124 132.029 4.997C132.017 5.00892 132.005 5.02065 131.993 5.03241C132.069 5.24621 132.132 5.4506 132.128 5.56241C132.125 5.65472 132.012 5.64791 131.916 5.64215C131.85 5.63818 131.791 5.63466 131.781 5.6642C131.775 5.68006 131.772 5.70471 131.769 5.7344C131.754 5.85562 131.729 6.06148 131.487 6.10242C131.379 6.12058 131.202 6.10605 131.032 6.09217C130.789 6.07232 130.563 6.05385 130.582 6.1342C130.616 6.27533 130.478 6.31839 130.356 6.35634C130.24 6.39254 130.138 6.42426 130.215 6.53225C130.306 6.66131 130.229 6.66774 130.115 6.67749C130.036 6.68426 129.94 6.69279 129.868 6.74457C129.786 6.80436 129.662 6.80286 129.557 6.80158C129.41 6.79976 129.299 6.79844 129.39 6.96907C129.492 7.15863 129.534 7.31344 129.438 7.3488C129.394 7.3649 129.375 7.40447 129.356 7.44567C129.331 7.50021 129.304 7.55749 129.215 7.56691C129.142 7.57466 129.001 7.52681 128.876 7.48446C128.837 7.47125 128.8 7.45868 128.767 7.4484C128.747 7.48055 128.729 7.51319 128.711 7.5467C128.727 7.56465 128.745 7.58423 128.763 7.60451C128.855 7.70626 128.967 7.83116 129.006 7.91864C129.068 8.05708 128.962 8.07095 128.849 8.08528C128.762 8.09644 128.671 8.10793 128.653 8.17928C128.641 8.22794 128.659 8.30534 128.678 8.38205C128.706 8.49598 128.733 8.60833 128.658 8.62326C128.63 8.62885 128.545 8.59303 128.461 8.55732C128.46 8.55708 128.46 8.55683 128.459 8.55659C128.453 8.55417 128.448 8.55183 128.442 8.54942C128.426 8.69759 128.415 8.8497 128.408 9.00405C128.42 9.02651 128.433 9.04888 128.445 9.07098C128.506 9.17893 128.564 9.28381 128.67 9.39799C128.786 9.52174 128.811 9.65548 128.838 9.79645C128.856 9.88877 128.874 9.98417 128.919 10.0819C128.945 10.139 128.85 10.1131 128.752 10.0863C128.661 10.0614 128.568 10.0357 128.568 10.0764C128.568 10.0967 128.59 10.1333 128.613 10.1725C128.634 10.2069 128.656 10.2434 128.665 10.2723C128.673 10.299 128.609 10.3034 128.527 10.3092C128.477 10.3128 128.42 10.317 128.368 10.3271C128.362 10.4408 128.354 10.5532 128.342 10.6633C128.398 10.7258 128.476 10.7995 128.582 10.887C128.657 10.9497 128.749 11.0218 128.843 11.0956C128.971 11.1959 129.104 11.2997 129.205 11.3884C129.284 11.4577 129.31 11.494 129.268 11.4786C129.249 11.4714 129.215 11.4533 129.184 11.4369C129.149 11.4182 129.118 11.4015 129.117 11.4057C129.116 11.4087 129.137 11.4269 129.163 11.4491C129.204 11.4845 129.258 11.5302 129.253 11.5419C129.235 11.5857 129.186 11.6172 129.139 11.648C129.087 11.6821 129.036 11.7157 129.028 11.7645C129.019 11.8193 128.893 11.8209 128.767 11.8228C128.679 11.8241 128.592 11.8257 128.543 11.845C128.496 11.8639 128.519 11.9323 128.542 11.9989C128.569 12.0787 128.596 12.1557 128.497 12.1395C128.477 12.1362 128.378 12.0822 128.253 12.0146C128.165 11.9667 128.065 11.912 127.971 11.8635C127.941 11.9076 127.908 11.9491 127.871 11.9884C127.882 11.9985 127.894 12.0088 127.906 12.0192C127.907 12.0194 127.907 12.0197 127.907 12.0199C128.18 12.2557 128.554 12.5783 128.265 12.485C128.191 12.4613 128.07 12.3959 127.96 12.3371C127.853 12.2794 127.757 12.2277 127.729 12.2279C127.698 12.2281 127.748 12.2869 127.803 12.3509C127.88 12.4408 127.965 12.5411 127.847 12.5049C127.839 12.5024 127.83 12.4996 127.821 12.4969C127.737 12.4715 127.612 12.434 127.383 12.326C127.264 12.3827 127.136 12.433 127.002 12.4794C126.779 12.5566 126.539 12.6227 126.299 12.6888C126.181 12.7204 125.849 12.6033 125.359 12.3529C124.869 12.1019 124.265 11.7405 123.661 11.3353C123.057 10.9302 122.494 10.5085 122.076 10.1498C121.659 9.79157 121.425 9.52839 121.409 9.40764C121.386 9.21159 121.362 9.01539 121.347 8.82486C121.338 8.80994 121.331 8.79526 121.324 8.78112C121.272 8.6759 121.132 8.51693 120.992 8.35778C120.96 8.32122 120.928 8.28458 120.896 8.24866Z" fill="black"/>
<path d="M151.221 8.37378C151.636 8.05864 152.375 8.27321 152.781 8.39805C152.788 8.40017 152.796 8.40229 152.803 8.40442C152.9 8.43383 152.992 8.44915 153.1 8.46709C153.361 8.51106 153.71 8.56708 154.42 8.89361C154.639 8.91723 154.853 8.9455 155.072 8.98082C157.004 9.30098 158.985 9.92121 160.985 11.0812C161.462 11.3536 161.918 11.6628 162.343 12.0002C162.377 12.0192 162.411 12.0387 162.446 12.0587C163.119 12.438 163.887 13.014 164.212 13.507C164.628 14.1305 164.818 14.5879 164.96 14.9616C166.118 16.822 166.717 18.655 167.336 20.3482C167.371 20.4437 167.405 20.539 167.44 20.6341C167.477 20.6894 167.516 20.8863 167.545 20.9462C167.642 21.4026 167.74 21.8598 167.841 22.3113C167.954 22.8186 168.068 23.3266 168.181 23.8308C168.31 24.1132 168.448 24.3818 168.573 24.63C168.75 24.9811 168.902 25.2955 168.975 25.5639C169.151 26.211 169.112 26.9758 169.073 27.5374C169.067 27.6298 169.061 27.716 169.056 27.7961C169.146 28.2305 169.235 28.6654 169.319 29.1014C169.293 29.133 169.265 29.1648 169.236 29.1971C168.878 29.5994 168.914 30.0544 168.954 30.7754C168.971 31.0893 168.988 31.4534 168.971 31.8825C168.96 32.1593 168.809 32.3038 168.686 32.421C168.65 32.4555 168.616 32.4877 168.588 32.5203C168.495 32.6317 168.599 32.7461 168.721 32.8828C168.88 33.0597 169.07 33.2756 168.898 33.5588C168.348 34.4564 168.702 34.8525 168.972 35.1662C169.051 35.2575 169.122 35.3405 169.16 35.4246C169.283 35.6977 169.134 36.0749 168.936 36.3517C168.781 36.5713 168.895 37.0332 169.049 37.3943C169.108 37.5304 169.095 37.7086 169.079 37.9179C169.074 37.9919 169.067 38.0698 169.064 38.1512C169.065 38.1659 169.055 38.2097 169.056 38.2244C169.044 38.3819 169.042 38.5511 169.07 38.7335C169.175 39.4353 169.211 39.8151 169.24 40.1178C169.248 40.2043 169.255 40.2848 169.263 40.3653C169.287 40.6198 169.288 40.9311 169.286 41.2433C169.284 41.6178 169.279 41.9913 169.311 42.281C169.083 42.9718 168.831 43.6336 168.58 44.2917C168.451 44.6287 168.057 44.8992 167.47 45.0338C166.883 45.1707 166.154 45.168 165.428 45.0217C164.701 44.8742 164.029 44.5928 163.542 44.2356C163.055 43.881 162.798 43.4742 162.811 43.1135C162.839 42.3863 162.868 41.6622 162.908 40.9633C162.958 40.1091 163.02 39.3024 163.132 38.5008C163.176 38.1835 163.223 37.8645 163.272 37.5416L163.263 37.6302C163.293 37.3843 163.324 37.1364 163.356 36.8895C163.364 36.8308 163.372 36.7721 163.379 36.7133C163.231 36.2198 163.09 35.7325 163.045 35.3936C163.007 35.1131 163.111 34.9144 163.2 34.742C163.26 34.6234 163.314 34.5183 163.308 34.4103C163.305 34.3524 163.295 34.273 163.283 34.1774C163.236 33.7867 163.146 33.1285 163.314 32.5225C163.389 32.2534 163.538 31.9378 163.677 31.6336C163.875 31.199 164.054 30.7867 163.982 30.5873C163.857 30.2373 163.922 29.8261 163.974 29.4596C164.025 29.111 164.065 28.8032 163.926 28.6445C163.76 28.4539 163.804 28.2769 163.865 28.0094C163.908 27.8242 163.959 27.5965 163.953 27.2946C163.947 26.9463 164.017 26.6908 164.075 26.4707C164.157 26.163 164.217 25.9269 163.997 25.6284C163.752 25.2956 163.568 24.945 163.573 24.6407C163.575 24.5015 163.54 24.3517 163.502 24.1935C163.452 23.9854 163.397 23.7682 163.421 23.5537C163.44 23.3781 163.55 23.2091 163.647 23.06C163.677 23.0134 163.705 22.9687 163.73 22.9262C163.697 22.7947 163.663 22.6623 163.627 22.5325C163.599 22.5167 163.569 22.5006 163.538 22.4838C163.38 22.3985 163.186 22.2951 163.062 22.1423C163.058 22.1371 163.054 22.1319 163.05 22.1267L163.152 22.4277C162.934 22.2121 162.91 21.9563 162.881 21.6858C162.858 21.4713 162.832 21.2475 162.706 21.0398C162.619 20.8979 162.484 20.7561 162.35 20.6205C162.15 20.4177 161.953 20.2307 161.912 20.0479C161.897 19.9795 161.947 19.8848 161.996 19.7899C161.996 19.7894 161.997 19.789 161.997 19.7885C162 19.782 162.004 19.7756 162.007 19.7692C161.727 19.4227 161.433 19.1046 161.129 18.823C161.09 18.8082 161.05 18.7934 161.011 18.779C160.821 18.7081 160.638 18.65 160.457 18.6696C160.261 18.6897 160.017 18.551 159.764 18.4394C159.599 18.3656 159.429 18.3025 159.271 18.2871C159.179 18.2782 159.185 18.1625 159.185 18.0407C159.187 17.9276 159.182 17.8092 159.105 17.7812C159.066 17.7673 159.009 17.7742 158.949 17.7832C158.896 17.7912 158.84 17.8007 158.792 17.7975C158.747 17.7945 158.702 17.7054 158.635 17.5927C158.594 17.5232 158.544 17.4447 158.484 17.3727C158.397 17.353 158.31 17.336 158.223 17.3204C158.054 17.2836 157.878 17.248 157.7 17.2147C157.615 17.2697 157.529 17.3508 157.444 17.4645C157.384 17.5463 157.321 17.6477 157.257 17.7516C157.171 17.893 157.083 18.0397 156.994 18.1505C156.925 18.237 156.871 18.2629 156.857 18.2125C156.851 18.1889 156.853 18.1494 156.855 18.1137C156.857 18.0727 156.858 18.0363 156.846 18.0334C156.838 18.0314 156.82 18.0551 156.799 18.0838C156.765 18.1297 156.721 18.1888 156.687 18.1805C156.56 18.1495 156.421 18.0838 156.279 18.0205C156.123 17.9503 155.963 17.8832 155.826 17.8697C155.67 17.854 155.48 17.701 155.279 17.5504C155.138 17.4449 154.994 17.3413 154.862 17.2844C154.733 17.229 154.578 17.2575 154.43 17.2872C154.251 17.3223 154.081 17.3587 153.957 17.2455C153.932 17.2225 153.916 17.1057 153.895 16.9595C153.881 16.8559 153.863 16.7374 153.839 16.6269C153.657 16.5976 153.479 16.5657 153.296 16.5305C153.288 16.5447 153.279 16.5591 153.27 16.5738C153.27 16.5742 153.27 16.5745 153.269 16.5749C153.069 16.9079 152.802 17.365 152.552 17.0384C152.488 16.9553 152.459 16.8134 152.433 16.6856C152.407 16.5601 152.383 16.4479 152.331 16.4186C152.273 16.3855 152.19 16.4506 152.101 16.522C151.977 16.6221 151.839 16.7344 151.726 16.6031C151.718 16.5942 151.71 16.5844 151.701 16.5745C151.62 16.4811 151.498 16.3431 151.386 16.0801C150.991 15.9732 150.589 15.8588 150.186 15.7411C149.513 15.5448 148.834 15.3388 148.145 15.1406C147.809 15.0432 147.5 14.6878 147.28 14.1319C147.061 13.5753 146.947 12.8678 146.975 12.1412C147.002 11.4147 147.17 10.7178 147.445 10.1819C147.72 9.64661 148.081 9.32129 148.448 9.26018C149.045 9.16191 149.646 9.06922 150.251 8.99409C150.284 8.98132 150.316 8.96907 150.349 8.95775C150.589 8.87338 150.823 8.68658 151.058 8.50059C151.112 8.45789 151.166 8.41506 151.221 8.37378Z" fill="black"/>
<path d="M161.792 34.3495C161.404 34.6279 160.818 34.3786 160.496 34.2496C160.49 34.2474 160.484 34.2452 160.478 34.2429C160.403 34.2122 160.328 34.1958 160.241 34.1774C160.036 34.1348 159.757 34.0734 159.208 33.7885C159.042 33.7785 158.874 33.7664 158.711 33.7522C157.493 33.6426 156.343 33.5342 155.616 33.5237C155.525 33.4527 155.234 33.4607 154.872 33.5833C154.86 33.5933 154.849 33.6036 154.837 33.6141C154.606 33.8159 154.294 34.1434 153.984 34.2676C153.589 34.4236 153.278 34.5423 153.02 34.6369C151.87 35.5083 150.759 36.6787 149.84 37.9898C149.552 38.4018 149.282 38.8293 149.033 39.2715C149.003 39.3243 148.974 39.3774 148.944 39.4307C148.797 39.6981 148.692 39.9593 148.635 40.1924C148.657 40.3684 148.718 40.5151 148.787 40.6219C148.883 40.7739 148.992 40.8436 149.03 40.8884C149.1 40.9662 149.059 41.0326 149.056 41.183L148.608 40.5698C148.653 40.6518 148.697 40.7322 148.741 40.806C148.77 40.8529 148.797 40.897 148.825 40.9373C149.054 41.0702 149.303 41.1848 149.568 41.2837C149.569 41.3181 149.569 41.3536 149.57 41.3901C149.586 41.8459 149.886 42.0072 150.384 42.1978C150.603 42.2807 150.863 42.3698 151.175 42.4902C151.376 42.5673 151.447 42.7428 151.507 42.8869C151.525 42.9293 151.542 42.9689 151.561 43.0022C151.628 43.1163 151.746 43.0381 151.883 42.9435C152.061 42.8207 152.262 42.6688 152.462 42.8766C153.115 43.5371 153.53 43.1941 153.796 42.9376C153.877 42.8619 153.948 42.7929 154.019 42.7566C154.25 42.6391 154.554 42.7859 154.796 42.973C154.867 43.0292 154.969 43.0448 155.083 43.0319L154.909 43.0366C155.093 43.0016 155.302 42.8865 155.468 42.7567C155.57 42.6778 155.713 42.6609 155.884 42.6382C156.06 42.6148 156.265 42.5849 156.471 42.474C156.991 42.1925 157.262 42.0356 157.482 41.9115C157.546 41.8756 157.603 41.8429 157.661 41.8087C157.845 41.7009 158.079 41.5898 158.316 41.4735C158.6 41.3344 158.888 41.1868 159.099 41.0356C159.729 40.9505 160.383 40.8632 161.039 40.7631C161.379 40.7113 161.791 40.9203 162.206 41.355C162.615 41.7925 162.992 42.417 163.241 43.1149C163.491 43.8125 163.595 44.535 163.536 45.1369C163.472 45.7406 163.248 46.1706 162.911 46.3457C162.24 46.695 161.547 47.0375 160.829 47.3399C159.952 47.7087 159.026 48.0215 158.041 48.2058C157.352 48.3347 156.639 48.419 155.929 48.4533C155.855 48.4569 155.782 48.4597 155.71 48.4622C155.563 48.5211 155.415 48.5774 155.271 48.6295C155.222 48.6231 155.073 48.6463 155.024 48.6362C154.591 48.7574 154.174 48.8445 153.855 48.8701C153.5 48.8983 153.248 48.7793 153.038 48.6759C152.89 48.6044 152.763 48.54 152.627 48.5325C152.553 48.5285 152.452 48.5279 152.331 48.5258C151.836 48.5198 150.964 48.4743 150.226 48.1044C149.899 47.9421 149.543 47.6798 149.214 47.4146C148.742 47.0371 148.336 46.6537 148.067 46.5998C147.592 46.5072 147.135 46.1698 146.757 45.8441C146.394 45.5339 146.101 45.2381 145.836 45.189C145.518 45.1295 145.358 44.9202 145.147 44.6034C145.065 44.4792 144.974 44.337 144.865 44.1765C144.792 44.0633 144.522 43.7807 144.482 43.6521C144.421 43.4849 144.353 43.2982 144.278 43.085C144.08 42.5171 144.088 42.0647 144.119 41.7075C144.168 41.1972 144.247 40.8565 144.115 40.3223C143.972 39.7244 144.004 39.093 144.205 38.6872C144.296 38.5031 144.371 38.2854 144.455 38.0696C144.568 37.7829 144.7 37.4947 144.894 37.2828C144.918 37.2567 144.943 37.2324 144.969 37.2097C145.102 37.1106 145.271 37.0575 145.422 37.0107C145.477 36.9935 145.53 36.9772 145.579 36.9593C145.651 36.8296 145.722 36.7003 145.793 36.5705C145.785 36.538 145.776 36.5032 145.766 36.467C145.719 36.2852 145.661 36.0629 145.696 35.8457C145.751 35.5033 145.969 35.3016 146.2 35.0934C146.381 34.9307 146.569 34.7635 146.701 34.5169C146.791 34.348 146.861 34.1351 146.935 33.9225C147.043 33.6077 147.159 33.295 147.333 33.1447C147.399 33.088 147.514 33.0823 147.628 33.0779C147.629 33.078 147.63 33.078 147.63 33.0781C147.638 33.0778 147.646 33.0774 147.653 33.0771C147.917 32.5978 148.192 32.1158 148.489 31.6325C148.502 31.5803 148.516 31.5279 148.53 31.4762C148.6 31.2206 148.673 30.9745 148.666 30.7549C148.655 30.519 148.874 30.1333 149.139 29.7258C149.312 29.458 149.505 29.1817 149.65 28.9301C149.737 28.7806 149.915 28.75 150.101 28.72C150.275 28.6911 150.447 28.6695 150.57 28.5452C150.631 28.4835 150.682 28.3967 150.737 28.3041C150.788 28.2219 150.843 28.1342 150.912 28.0571C150.974 27.9865 151.179 27.905 151.445 27.8145C151.613 27.7558 151.8 27.6967 152.005 27.6266C152.462 27.3095 152.985 27.0127 153.591 26.7781C153.658 26.7039 153.718 26.6232 153.769 26.5342C153.791 26.4851 153.81 26.4331 153.826 26.3779C153.857 26.2693 153.877 26.1443 153.899 26.0164C153.929 25.8424 153.963 25.6623 154.033 25.5103C154.087 25.3914 154.171 25.3315 154.241 25.3619C154.274 25.3761 154.303 25.4093 154.329 25.4394C154.358 25.474 154.384 25.5047 154.408 25.4993C154.425 25.4952 154.438 25.4644 154.454 25.427C154.48 25.3674 154.515 25.2902 154.585 25.2756C154.846 25.2216 155.141 25.203 155.422 25.1942C155.732 25.1845 156.025 25.1862 156.256 25.1519C156.509 25.1133 156.877 25.2035 157.223 25.3052C157.467 25.3758 157.7 25.4508 157.902 25.4855C158.095 25.5193 158.302 25.47 158.498 25.4239C158.737 25.3688 158.961 25.3187 159.144 25.424C159.18 25.4453 159.218 25.5611 159.264 25.7062C159.297 25.8091 159.335 25.9267 159.379 26.0362C159.61 26.0562 159.841 26.0838 160.065 26.117C160.074 26.1027 160.084 26.0882 160.094 26.0733C160.094 26.073 160.095 26.0726 160.095 26.0723C160.321 25.737 160.642 25.281 160.963 25.6192C161.043 25.7051 161.082 25.8491 161.115 25.9786C161.149 26.1058 161.178 26.2197 161.239 26.2515C161.308 26.2877 161.405 26.2267 161.512 26.1611C161.664 26.0691 161.829 25.9664 161.96 26.1076C161.968 26.1172 161.978 26.1277 161.988 26.1383C162.083 26.2393 162.217 26.3879 162.331 26.6619C162.777 26.8075 163.22 26.9715 163.649 27.146C164.37 27.438 165.067 27.7621 165.754 28.0953C166.089 28.2586 166.343 28.674 166.452 29.2657C166.561 29.858 166.52 30.574 166.336 31.2775C166.153 31.9811 165.841 32.6254 165.474 33.0963C165.106 33.5661 164.713 33.8193 164.37 33.8186C163.812 33.8162 163.258 33.822 162.713 33.8279C162.683 33.8369 162.652 33.8453 162.622 33.853C162.4 33.9104 162.17 34.0722 161.947 34.2371C161.896 34.275 161.843 34.3128 161.792 34.3495Z" fill="black"/>
</svg>
