<svg width="226" height="84" viewBox="0 0 226 84" fill="none" xmlns="http://www.w3.org/2000/svg">
<path d="M4.66407 71.2125C4.02512 70.1775 3.70517 67.969 3.54819 66.7547C3.54509 66.7325 3.54199 66.7103 3.53889 66.688C3.50096 66.3998 3.4517 66.1295 3.39449 65.8133C3.25985 65.0599 3.07188 64.0384 2.93517 61.8702C2.81624 61.2526 2.70493 60.636 2.60124 60.0156C1.48249 53.3249 1.05387 46.5247 1.07532 39.7564C1.06874 39.6713 1.06208 39.5847 1.05541 39.4972C0.954208 38.1788 0.854014 36.6154 0.869772 35.3598C0.873399 34.9826 0.889288 34.6321 0.917762 34.3224C1.08447 32.5431 1.31739 31.3541 1.52558 30.3856C2.22361 24.7992 3.77518 19.3967 6.03409 14.3182C6.74342 12.7263 7.5243 11.1657 8.37751 9.64206C9.16321 8.23907 10.0149 6.86826 10.9363 5.54016C11.415 4.72581 11.8844 3.95177 12.3424 3.24457C12.3589 3.21916 12.3753 3.19383 12.3918 3.16859C13.3511 1.76917 14.8086 0.82957 15.9849 0.444319C19.015 -0.542428 21.7481 0.337366 23.4803 0.944007C23.7656 1.04818 24.0398 1.15455 24.2803 1.25136C25.6828 1.67333 27.0024 2.1846 28.2818 2.73888C28.3513 2.80824 28.4204 2.8793 28.4902 2.95193C29.3585 3.85932 30.6211 4.51027 32.5305 5.6282C32.8949 5.84193 33.2815 6.07245 33.6883 6.32257C34.2872 6.69071 34.92 7.131 35.5657 7.67379C36.3032 8.29969 36.5395 8.78163 36.7227 9.15852C36.7768 9.27094 36.8259 9.37626 36.8798 9.47753C37.0645 9.82494 37.4132 10.042 37.8196 10.3258C38.3427 10.691 38.9794 11.1856 39.3327 12.1311C40.37 15.1219 40.9524 16.2321 41.5577 17.1454C41.722 17.4112 41.866 17.6566 41.9715 17.9183C42.2555 18.6171 42.3492 19.6239 42.3005 20.4884C42.339 20.6952 42.2712 21.267 42.2339 21.4741C42.1577 21.6486 42.078 21.8149 41.9976 21.9697C41.6471 22.6642 41.3105 24.148 40.9975 25.2977C40.8834 25.733 40.6237 26.2773 40.283 26.8983C39.9305 27.5417 39.4913 28.265 39.0365 29.0579C37.8697 31.0571 37.0286 31.999 36.3746 32.7534C36.1846 32.9669 36.0032 33.1623 35.8194 33.3555C35.2393 33.9668 34.4581 34.6686 33.6141 35.3168C33.0625 35.742 32.4857 36.1458 31.9358 36.5061C31.8954 36.5329 31.7636 36.5942 31.7216 36.6183C31.2722 36.8757 30.8624 37.1042 30.5198 37.3055C28.4333 38.1075 26.6435 38.781 24.7456 39.6428C23.7773 40.0774 22.708 40.2483 21.7403 40.0964C20.7774 39.9415 20.0022 39.4744 19.5869 38.763C19.1765 38.0496 19.157 37.1406 19.5468 36.2195C19.9405 35.2971 20.7136 34.4447 21.7016 33.8516C23.6575 32.6614 25.8465 31.5372 27.7491 30.5876C28.0401 30.4385 28.3197 30.2921 28.5891 30.1452L28.3977 30.2455C30.0634 29.1879 31.5374 27.8814 32.7907 26.3995C33.7964 25.2109 34.6439 23.892 35.303 22.4778C35.371 22.3319 35.4369 22.1858 35.5009 22.038C35.6777 21.2875 35.7998 20.536 35.8818 19.862L35.7893 21.2314C35.6709 20.7391 35.5517 20.2988 35.4535 19.9294C35.2595 19.2039 35.2238 18.6669 35.1781 18.2012C35.1462 17.8821 35.1082 17.6002 35.001 17.3423C34.9434 17.2041 34.8573 17.0188 34.7469 16.8016C34.3021 15.8976 33.4188 14.5659 32.5181 13.3961C32.1237 12.8683 31.6439 12.2345 31.0954 11.6656C30.957 11.5219 30.8196 11.3851 30.676 11.2518C29.8515 10.5322 29.0996 9.93407 28.618 9.72538C27.594 9.27951 26.5331 8.59962 25.5819 8.04508C24.6762 7.51394 23.8701 7.09904 23.3535 7.0465C22.7346 6.98378 22.2898 6.75147 21.6222 6.45266C21.1647 6.25067 20.5845 6.00994 19.8337 5.87578C18.9672 5.72689 18.4365 5.6562 18.0035 5.63415C17.4107 5.61071 16.962 5.69544 16.6744 6.19954C16.6123 6.31247 16.5603 6.42377 16.5062 6.54443C16.044 7.32926 15.5705 8.08446 15.1021 8.65189C14.8355 8.97441 14.5708 9.37233 14.3044 9.79236C13.9512 10.3483 13.5961 10.9422 13.2102 11.4512C12.8922 11.8705 12.5419 12.1712 12.2332 12.4436C12.137 12.5285 12.045 12.6109 11.9596 12.6927C11.7636 13.0661 11.5736 13.4441 11.3913 13.8247C11.3842 13.8974 11.3781 13.9744 11.3718 14.0547C11.34 14.4577 11.307 14.9494 11.1583 15.504C10.9241 16.381 10.5457 17.0718 10.1619 17.8178C9.86394 18.3982 9.56393 19.0118 9.35017 19.7593C9.20448 20.2688 9.09064 20.8648 8.99104 21.4558C8.84189 22.3343 8.72628 23.2016 8.53396 23.7791C8.46168 23.9955 8.32187 24.1647 8.18368 24.3338C8.1829 24.3345 8.18213 24.3353 8.18135 24.336C8.17197 24.3474 8.16275 24.359 8.15341 24.3705C7.92012 25.8382 7.76608 27.3156 7.68847 28.7924C7.69973 28.9224 7.71106 29.0535 7.72268 29.1833C7.77905 29.8175 7.84965 30.4298 7.99158 30.8327C8.14421 31.269 8.18761 32.3366 8.29091 33.4517C8.34308 34.0269 8.40922 34.6152 8.49696 35.1349C8.52085 35.2844 8.54572 35.4289 8.5717 35.5666C8.64319 35.9455 8.55255 36.3094 8.46025 36.685C8.37419 37.0361 8.28687 37.3971 8.32952 37.7853C8.35091 37.9797 8.40346 38.1881 8.46013 38.411C8.51002 38.6071 8.56319 38.8141 8.60073 39.0315C8.63556 39.2336 8.60311 39.6886 8.56604 40.2742C8.54312 40.6361 8.51846 41.0457 8.50582 41.4775C8.64514 42.6051 8.79278 43.73 8.94722 44.8548C9.05783 45.0825 9.19313 45.2762 9.35807 45.4239C9.4764 45.5298 9.61442 45.6169 9.75559 45.7059C9.94771 45.8271 10.1463 45.9521 10.3126 46.1336C10.4426 46.2755 10.5058 46.4508 10.4696 46.5762C10.4526 46.6346 10.4147 46.6819 10.3804 46.7248C10.3411 46.774 10.3062 46.818 10.3121 46.8668C10.3165 46.902 10.351 46.9358 10.393 46.9774C10.4599 47.0437 10.5464 47.13 10.5636 47.2725C10.6274 47.8032 10.6664 48.4084 10.7079 49.0029C10.7538 49.6628 10.8032 50.3089 10.8886 50.8172C10.9839 51.3861 10.9726 52.2169 10.9691 53.0497C10.9665 53.631 10.9675 54.2124 11.006 54.7075C11.0437 55.1924 11.1811 55.6821 11.3168 56.1563C11.4795 56.725 11.6393 57.2702 11.6165 57.7598C11.6118 57.8588 11.5078 57.9978 11.378 58.1725C11.286 58.2964 11.1811 58.4387 11.089 58.597C11.1902 59.2022 11.289 59.8054 11.3871 60.4114C11.4076 60.4297 11.4285 60.4486 11.4498 60.4674C11.4503 60.4677 11.4507 60.468 11.4512 60.4683C11.9316 60.8945 12.5885 61.4693 12.4498 62.4757C12.4146 62.7315 12.2943 62.9125 12.186 63.0754C12.0798 63.2355 11.9849 63.3788 11.9945 63.5596C12.0056 63.765 12.1335 63.9845 12.2733 64.2235C12.4696 64.5596 12.6898 64.9329 12.6447 65.3624C12.6416 65.3917 12.6381 65.4233 12.6349 65.4561C12.6041 65.7675 12.5599 66.2289 12.3804 66.7184C12.583 68.0138 12.7873 69.3097 12.9983 70.6074C13.3498 72.7698 13.7195 74.9341 14.1284 77.0955C14.3261 78.147 14.2431 79.2337 13.8735 80.132C13.503 81.0306 12.8787 81.6655 12.1046 81.8972C11.3308 82.1287 10.4583 81.939 9.657 81.364C8.85674 80.7898 8.20048 79.8759 7.82145 78.8351C7.2049 77.1383 6.61106 75.43 6.05213 73.7091C6.01327 73.6213 5.9749 73.5329 5.93768 73.4445C5.66074 72.7873 5.28843 72.2054 4.91784 71.6182C4.83278 71.4836 4.74768 71.3485 4.66407 71.2125Z" fill="black"/>
<path d="M50.6623 56.6048C51.1586 57.1116 51.257 58.2251 51.3381 58.8503C51.3397 58.8615 51.3412 58.8728 51.3427 58.884C51.3608 59.0305 51.3912 59.1618 51.4302 59.3221C51.5244 59.6999 51.6404 60.2013 51.7557 61.3048C51.8656 61.5963 51.978 61.8935 52.0875 62.1836C53.2716 65.3145 54.6461 68.3391 56.5769 70.5823C56.6055 70.6051 56.6345 70.6278 56.6637 70.6505C56.9744 70.8929 57.3256 71.1354 57.6359 71.3502C57.7828 71.4544 57.9204 71.5524 58.0305 71.6693C58.3355 71.9921 58.6756 72.225 58.9838 72.4044C59.7623 72.6252 60.7728 72.6667 61.8403 72.5405C63.0822 72.4223 64.2901 71.9217 65.3264 71.044C65.5583 70.8483 65.781 70.6349 65.993 70.4058C66.2219 70.1635 66.4376 69.8569 66.6272 69.5017C66.9251 68.9457 67.1633 68.27 67.3349 67.5529C67.3682 67.1107 67.3593 66.6855 67.3417 66.2794C67.3155 65.715 67.2692 65.2032 67.2803 64.7857C67.309 63.7819 67.5139 62.6179 67.6368 61.7273C67.6571 61.5835 67.6756 61.4463 67.6912 61.3185C67.6458 60.6086 67.5793 59.8917 67.498 59.1757C67.5285 59.1262 67.5604 59.0767 67.593 59.0266C67.9993 58.3962 67.961 57.6293 67.8639 56.4225C67.8211 55.8965 67.7666 55.2876 67.7274 54.5635C67.702 54.0986 67.8453 53.8405 67.9627 53.631C67.9971 53.5691 68.0292 53.511 68.0539 53.4529C68.0991 53.3467 68.0815 53.244 68.0308 53.138C67.9874 53.0531 67.9184 52.9681 67.8437 52.8797C67.6344 52.6279 67.3825 52.3517 67.4891 51.9157C67.8115 50.4987 67.1523 50.1196 66.7414 49.9855C66.6164 49.9421 66.5055 49.9129 66.4271 49.8715C66.1711 49.7314 66.1366 49.4607 66.1317 49.1961C66.1283 49.0399 65.9495 48.9843 65.7842 49.046C65.7344 49.0732 65.6786 49.1111 65.6251 49.1561C65.5526 49.2183 65.469 49.2057 65.3327 49.2062C65.1947 49.2065 64.9983 49.2264 64.8087 49.3609C64.3331 49.7095 64.1658 49.9721 64.0477 50.1534C64.0149 50.2069 63.9873 50.2565 63.9632 50.3065C63.8994 50.4385 63.8335 50.5799 63.7949 50.7147C63.7883 50.7395 63.7816 50.7657 63.7748 50.793C63.7252 50.9887 63.6676 51.2847 63.6738 51.5694C63.3482 52.1884 63.0587 53.1979 62.8395 54.3107C62.7244 54.8839 62.3212 55.4521 61.6882 55.8672C61.0549 56.2821 60.2482 56.4999 59.4259 56.4556C58.6038 56.4112 57.8235 56.1154 57.2407 55.6189C56.6588 55.1226 56.3264 54.4567 56.3211 53.7507C56.3208 52.3326 56.3536 50.8021 56.8647 49.0387C57.1159 48.1957 57.5001 47.29 58.1112 46.4224C59.0384 45.1082 60.2946 44.12 61.6997 43.5009C63.3266 42.8035 65.1836 42.4634 67.2819 43.0255C67.4971 43.0861 67.7126 43.1579 67.9284 43.2421C67.9496 43.2475 67.9707 43.2529 67.9919 43.2585C69.7763 43.6961 71.2211 44.9443 71.8812 45.809C72.457 46.5463 72.6221 47.1564 72.7429 47.6491C72.8234 47.9895 72.876 48.2813 72.9815 48.5505C73.0381 48.6953 73.1172 48.8885 73.205 49.1236C73.5227 49.9523 73.8832 51.2514 73.9045 52.4797C73.9061 52.6406 73.903 52.8011 73.8943 52.9598C73.8643 53.5015 73.7542 54.1409 73.6424 54.7487C73.4833 55.6192 73.3191 56.4233 73.412 56.8208C73.5761 57.514 73.5163 58.3377 73.4495 59.0577C73.3866 59.7473 73.3184 60.3466 73.4565 60.6935C73.6213 61.1033 73.5527 61.4602 73.4421 61.9816C73.3647 62.3462 73.2678 62.7905 73.2 63.3983C73.1206 64.1025 72.961 64.5934 72.8198 65.0124C72.6196 65.5977 72.4613 66.0309 72.5378 66.7387C72.6218 67.5275 72.5741 68.3706 72.3286 68.9987C72.2176 69.2846 72.1251 69.617 72.0102 69.9741C71.862 70.438 71.6722 70.942 71.3945 71.3528C71.1632 71.6971 70.8594 71.9225 70.5875 72.1066C70.5034 72.1628 70.4194 72.2201 70.3424 72.2737C70.1733 72.5491 69.9866 72.8244 69.7843 73.0912C69.7709 73.1502 69.7572 73.2133 69.7417 73.2789C69.7178 73.3799 69.6903 73.4881 69.6548 73.6016C69.5932 73.8371 69.5006 74.0976 69.338 74.3545C68.965 74.9413 68.4425 75.2857 67.8816 75.5991C67.4423 75.8436 66.9782 76.0716 66.4815 76.3944C66.1426 76.6146 65.7627 76.8868 65.3649 77.1346C64.7767 77.5044 64.1439 77.8136 63.6675 77.8804C63.489 77.9061 63.3153 77.846 63.1482 77.7825C63.1474 77.7821 63.1466 77.7817 63.1458 77.7812C63.1345 77.7769 63.1231 77.7727 63.1117 77.7684C63.0757 77.7794 63.0396 77.7901 63.0033 77.8007C62.0354 78.0903 61.0112 78.3239 59.9108 78.4321C59.8127 78.4599 59.7123 78.4862 59.6118 78.5109C59.1216 78.6329 58.6189 78.7163 58.2677 78.8462C57.8909 78.9891 56.9358 78.9734 55.8878 78.7362C55.2029 78.586 54.4913 78.3402 53.9047 78.1145C53.6775 78.0279 53.4962 77.8761 53.3363 77.6991C53.2736 77.6214 53.2153 77.5377 53.1572 77.4526C52.9957 77.2173 52.843 76.9777 52.5983 76.8193C52.4747 76.7391 52.3252 76.6746 52.1683 76.605C52.0297 76.5432 51.8823 76.475 51.7405 76.387C51.6137 76.3093 51.393 76.0417 51.1382 75.7004C50.9806 75.4896 50.8027 75.2439 50.6221 74.9978C50.0136 74.4615 49.4415 73.8917 48.9099 73.3048C48.7361 73.2297 48.5537 73.1847 48.3654 73.186C48.2297 73.1861 48.0839 73.2075 47.9341 73.2278C47.7303 73.2555 47.5185 73.282 47.313 73.2511C47.1515 73.2256 47.0387 73.1467 47.0271 73.0462C47.0218 72.9996 47.0384 72.9494 47.0534 72.904C47.0706 72.852 47.086 72.8057 47.0647 72.777C47.0493 72.7563 47.0085 72.7519 46.9587 72.7459C46.8793 72.7363 46.7761 72.723 46.7145 72.6369C46.4889 72.3219 46.267 71.9332 46.0661 71.5598C45.8395 71.1399 45.6321 70.7294 45.4325 70.4199C45.2084 70.0734 45.0325 69.5012 44.882 68.9409C44.7738 68.5445 44.6758 68.1524 44.5637 67.8294C44.4518 67.5088 44.2567 67.2252 44.0672 66.9392C43.838 66.592 43.6298 66.2703 43.6028 65.9243C43.5977 65.8551 43.6836 65.7309 43.7932 65.5801C43.8711 65.4736 43.9603 65.3517 44.0367 65.2231C43.8932 64.8431 43.7584 64.4535 43.6368 64.0698C43.6161 64.0618 43.595 64.0534 43.5735 64.0451C43.573 64.045 43.5725 64.0449 43.5721 64.0449C43.0872 63.8565 42.4224 63.5866 42.5412 62.8647C42.5712 62.6799 42.6893 62.5422 42.7945 62.4144C42.8982 62.2897 42.9913 62.1789 42.9829 62.0588C42.9733 61.9223 42.8503 61.793 42.7168 61.6491C42.53 61.4495 42.3238 61.2276 42.3821 60.9299C42.3861 60.9096 42.3906 60.8878 42.3949 60.8652C42.4355 60.6494 42.4985 60.3343 42.7023 59.9929C42.5739 59.1465 42.4827 58.3046 42.4208 57.4688C42.3162 56.0683 42.2912 54.673 42.3141 53.2873C42.3271 52.6228 42.6426 51.9377 43.2086 51.4322C43.7748 50.9197 44.5359 50.6052 45.3414 50.5459C46.1472 50.4862 46.9433 50.6812 47.5853 51.0568C48.2262 51.4281 48.6588 51.9703 48.814 52.5427C49.0677 53.498 49.3434 54.4175 49.6374 55.3419C49.6624 55.3881 49.687 55.4344 49.7106 55.4804C49.8858 55.8224 50.1745 56.125 50.4634 56.4074C50.5298 56.4726 50.5964 56.5376 50.6623 56.6048Z" fill="black"/>
<path d="M92.0009 38.9037C92.4366 39.3298 92.3823 40.2758 92.3524 40.7847C92.3521 40.7941 92.3517 40.8034 92.3513 40.8128C92.3443 40.9341 92.3517 41.047 92.3608 41.1789C92.3827 41.4945 92.4133 41.9338 92.2715 42.8456C92.3103 43.0988 92.3465 43.3631 92.3774 43.6226C92.7109 46.4231 92.7482 49.2308 92.7748 52.067C92.782 52.1018 92.7892 52.1371 92.7966 52.1727C92.9368 52.8528 93.1195 53.7183 93.0636 54.2684C92.995 54.9852 92.9074 55.4777 92.8278 55.8755C92.8884 58.1196 93.02 60.3407 93.393 62.5018C93.5102 63.179 93.6523 63.8512 93.8212 64.5002C93.9796 65.1092 94.1585 65.7057 94.355 66.2746C94.5425 66.6029 94.7344 66.8746 94.9219 67.1426C95.1835 67.5135 95.4176 67.8188 95.5616 68.0884C95.905 68.7364 96.0944 69.4934 96.2538 69.9842C96.2814 70.0683 96.3069 70.1438 96.3307 70.2102C96.5719 70.5087 96.8298 70.7372 96.9707 70.786C96.955 70.8154 96.9384 70.8457 96.9215 70.8767C96.9115 70.8947 96.9023 70.9121 96.8937 70.9287L96.495 70.6393C96.6087 71.1409 97.0305 71.3756 97.7176 71.6762C98.0332 71.8136 98.4075 71.9652 98.8517 72.1616C99.1379 72.2876 99.2368 72.4999 99.3202 72.6745C99.3447 72.7258 99.368 72.7738 99.3942 72.8149C99.4843 72.9559 99.651 72.8895 99.8445 72.8081C100.097 72.7028 100.39 72.5715 100.658 72.8421C101.527 73.7041 102.108 73.3963 102.509 73.1633C102.629 73.0946 102.736 73.0317 102.838 73.0048C103.02 72.9566 103.225 73.0021 103.421 73.0934C103.582 73.1681 103.734 73.2729 103.866 73.3839C104.099 73.5815 104.63 73.4895 105.024 73.3195C105.174 73.2559 105.367 73.2689 105.598 73.2799C105.836 73.2914 106.117 73.3008 106.425 73.221C107.199 73.0176 107.622 72.8994 107.964 72.8082C108.059 72.7819 108.149 72.7575 108.241 72.732C108.525 72.6516 108.888 72.5785 109.252 72.5019C109.692 72.4101 110.139 72.3128 110.48 72.1957C111.38 72.245 112.303 72.308 113.221 72.3671C113.696 72.3979 114.174 72.7318 114.553 73.3131C114.93 73.8951 115.187 74.6719 115.251 75.4928C115.315 76.3136 115.182 77.121 114.896 77.7543C114.607 78.3873 114.177 78.7911 113.701 78.8919C112.751 79.0929 111.78 79.2912 110.811 79.4521C109.618 79.6478 108.411 79.7934 107.129 79.7995C106.236 79.8029 105.3 79.7571 104.349 79.6341C104.251 79.6214 104.154 79.6079 104.057 79.5938C103.424 79.6855 102.791 79.7382 102.291 79.7427C102.144 79.7444 102.004 79.7413 101.879 79.7339C101.426 79.7065 101.126 79.5341 100.872 79.3854C100.698 79.283 100.544 79.1911 100.375 79.1614C100.283 79.1453 100.158 79.129 100.006 79.1078C99.389 79.0238 98.3253 78.8469 97.4511 78.3438C97.0638 78.1222 96.6421 77.7869 96.25 77.4538C95.6877 76.9788 95.1906 76.506 94.8625 76.4202C94.3727 76.2941 93.8912 75.9722 93.4677 75.6279C93.3954 75.5661 93.1493 75.4252 93.0882 75.3524C92.995 75.2548 92.9077 75.156 92.8255 75.0578C92.3083 74.4336 92.0543 73.9299 91.7525 73.7393C91.3884 73.4966 91.2839 73.2016 91.1445 72.7506C91.0581 72.4543 90.9502 72.0681 90.78 71.6231C90.5707 71.0788 90.5445 70.7067 90.5094 70.3564C90.4772 69.9015 90.4497 69.5303 90.113 69.1415C89.7296 68.6811 89.4338 68.1925 89.3642 67.7302C89.3361 67.5317 89.2642 67.3141 89.19 67.0829C89.0901 66.7709 88.994 66.4619 88.9887 66.1479C88.985 65.8917 89.0845 65.6386 89.1788 65.4364C89.2078 65.3718 89.2355 65.3097 89.2587 65.2505C89.2091 65.0625 89.1588 64.8724 89.1071 64.6804C89.0745 64.6552 89.0388 64.629 89.0019 64.6014C88.8153 64.458 88.5921 64.3026 88.4434 64.0618C88.2085 63.6825 88.2129 63.2935 88.2239 62.8993C88.2323 62.5917 88.2384 62.2509 88.1404 61.9146C88.0726 61.6811 87.9528 61.4208 87.8344 61.1584C87.6578 60.765 87.4909 60.3994 87.4965 60.1065C87.4988 59.9979 87.5804 59.8892 87.6618 59.7815C87.6623 59.781 87.6629 59.7805 87.6634 59.78C87.6689 59.7727 87.6743 59.7654 87.6798 59.7581C87.4798 59.1073 87.2726 58.4295 87.0713 57.7854C87.0358 57.7317 87.0006 57.6772 86.9659 57.6231C86.7963 57.3585 86.6317 57.097 86.4344 56.9404C86.2217 56.7775 86.0357 56.306 85.8407 55.7962C85.712 55.4569 85.584 55.1302 85.4387 54.8547C85.354 54.6953 85.4315 54.5187 85.5117 54.3367C85.5864 54.1669 85.6632 53.9914 85.613 53.8268C85.5877 53.7435 85.5315 53.6576 85.4715 53.5657C85.4187 53.4847 85.3627 53.3988 85.3226 53.3059C85.2853 53.2195 85.3115 53.0109 85.3448 52.7413C85.3653 52.574 85.3888 52.3866 85.4029 52.1944C85.2686 51.7103 85.1362 51.2102 85.0109 50.7201C84.907 50.6294 84.7781 50.5555 84.6186 50.5047C84.5043 50.4683 84.3699 50.4422 84.2326 50.4151C84.0456 50.3784 83.8524 50.3401 83.6934 50.2725C83.5691 50.2197 83.5124 50.145 83.5529 50.0843C83.5718 50.056 83.6111 50.0309 83.6467 50.0082C83.6875 49.9821 83.7238 49.9589 83.7197 49.937C83.7167 49.9212 83.6837 49.9088 83.6437 49.8934C83.5798 49.8688 83.4973 49.8368 83.4859 49.7726C83.4435 49.532 83.4326 49.2599 83.4226 48.9938C83.4113 48.6973 83.4002 48.4055 83.3476 48.1776C83.2885 47.9208 83.3565 47.5402 83.4251 47.1625C83.4728 46.898 83.5202 46.6319 83.5255 46.4071C83.5308 46.1878 83.4392 45.9652 83.3516 45.7606C83.2461 45.5117 83.1443 45.2707 83.2192 45.0458C83.2345 45.0003 83.3523 44.9319 83.4997 44.8462C83.6041 44.7855 83.7235 44.7157 83.8321 44.6394C83.7999 44.3683 83.7724 44.0917 83.7508 43.8251C83.7328 43.8176 83.7145 43.8099 83.6959 43.8021C83.6954 43.802 83.695 43.8019 83.6946 43.8018C83.2735 43.6278 82.6973 43.3876 82.9706 42.9212C83.0401 42.8026 83.1838 42.7164 83.313 42.6388C83.44 42.5626 83.5536 42.4945 83.5697 42.4118C83.5878 42.3172 83.4937 42.2218 83.3913 42.1175C83.2475 41.9708 83.0868 41.8064 83.1971 41.6102C83.2046 41.5968 83.2129 41.5824 83.2212 41.5674C83.2993 41.4254 83.415 41.2149 83.67 40.9893C83.6791 40.3977 83.7038 39.8238 83.7358 39.2358C83.7885 38.2482 83.8688 37.2878 83.9486 36.3043C83.9892 35.833 84.3207 35.3475 84.891 34.9558C85.4621 34.564 86.2204 34.2992 87.0242 34.2182C87.828 34.1371 88.6234 34.2451 89.2613 34.5121C89.8985 34.7792 90.3208 35.1833 90.4565 35.6319C90.6768 36.3709 90.8985 37.1098 91.1098 37.8428C91.1308 37.8807 91.1512 37.9188 91.1705 37.9569C91.3147 38.2397 91.5701 38.4874 91.8259 38.7337C91.8846 38.7903 91.9435 38.8469 92.0009 38.9037Z" fill="black"/>
<path d="M95.1867 55.9941C95.2842 55.5827 95.6338 55.6793 95.826 55.7321C95.8295 55.7329 95.8329 55.7337 95.8364 55.7345C95.882 55.747 95.9226 55.7449 95.97 55.7421C96.083 55.7353 96.2356 55.7263 96.5918 55.9106C96.6805 55.8847 96.7698 55.8629 96.8601 55.8459C97.8343 55.662 98.857 55.7897 99.8916 55.966C99.9032 55.9616 99.9151 55.957 99.927 55.9523C100.158 55.8629 100.443 55.751 100.658 55.8484C100.932 55.9723 101.128 56.0991 101.291 56.2098C102.112 56.3425 102.927 56.4313 103.696 56.3465C103.777 56.3375 103.857 56.3267 103.937 56.3138C104.095 56.2881 104.25 56.2545 104.404 56.2115C104.616 56.152 104.826 56.0789 105.033 55.9943C105.134 55.877 105.223 55.746 105.306 55.6244C105.423 55.4535 105.526 55.3013 105.628 55.2305C105.874 55.0604 106.228 55.1002 106.493 55.1286C106.537 55.1332 106.578 55.1375 106.616 55.1406C106.785 55.0318 106.954 54.9187 107.124 54.8038C107.146 54.8304 107.169 54.8584 107.192 54.8871C107.482 55.2451 107.678 55.1766 107.988 55.0691C108.123 55.0222 108.279 54.9684 108.476 54.938C108.602 54.9187 108.716 55.0612 108.809 55.1773C108.836 55.2115 108.861 55.2434 108.885 55.2682C108.966 55.3534 108.982 55.2285 109.001 55.0808C109.026 54.8894 109.059 54.6584 109.239 54.8004C109.819 55.2518 109.871 54.8057 109.911 54.468C109.923 54.3689 109.934 54.2793 109.956 54.2243C110.032 54.0455 110.241 54.1347 110.429 54.2878C110.577 54.4095 110.731 54.1967 110.826 53.957C110.862 53.8666 110.939 53.8411 111.032 53.8113C111.129 53.7801 111.237 53.7459 111.332 53.6284C111.572 53.3312 111.702 53.1841 111.808 53.0657C111.837 53.0321 111.865 53.0012 111.893 52.9695C111.981 52.8693 112.102 52.7725 112.22 52.6766C112.362 52.5612 112.511 52.4435 112.609 52.3151C112.967 52.3199 113.329 52.3506 113.688 52.383C113.876 52.3994 114.131 52.7128 114.409 53.2685C114.686 53.8247 114.959 54.5743 115.172 55.3695C115.385 56.1648 115.525 56.9498 115.57 57.5688C115.615 58.1875 115.562 58.585 115.419 58.6924C115.135 58.9057 114.85 59.121 114.559 59.3118C114.205 59.5442 113.847 59.7391 113.459 59.8539C113.19 59.9336 112.912 59.9963 112.634 60.0439C112.605 60.0489 112.576 60.0537 112.547 60.0584C112.379 60.3215 112.206 60.5677 112.068 60.6795C111.951 60.7725 111.823 60.699 111.714 60.6361C111.638 60.5931 111.57 60.5552 111.522 60.5797C111.496 60.5929 111.463 60.6165 111.423 60.6449C111.257 60.7613 110.976 60.9594 110.629 60.8623C110.475 60.8194 110.274 60.7018 110.081 60.59C109.806 60.4299 109.549 60.2811 109.472 60.3766C109.339 60.5439 109.113 60.5106 108.914 60.4807C108.722 60.4526 108.556 60.4275 108.514 60.5846C108.465 60.7722 108.361 60.7351 108.205 60.6803C108.097 60.6423 107.965 60.5959 107.809 60.6093C107.629 60.6245 107.474 60.5519 107.344 60.4897C107.16 60.4023 107.023 60.3361 106.916 60.5669C106.797 60.8233 106.645 61.0085 106.477 60.9883C106.4 60.979 106.324 61.0088 106.245 61.0398C106.14 61.0808 106.029 61.1234 105.904 61.0798C105.802 61.0439 105.688 60.9097 105.588 60.7908C105.557 60.7537 105.527 60.7183 105.499 60.6876C105.431 60.7085 105.365 60.7298 105.298 60.7529C105.294 60.7808 105.289 60.8114 105.285 60.8431C105.272 60.9341 105.258 61.0369 105.234 61.1293C105.217 61.1982 105.195 61.2612 105.165 61.309C105.055 61.4863 104.902 61.434 104.742 61.3775C104.617 61.3337 104.489 61.287 104.369 61.3458C104.287 61.3859 104.206 61.4737 104.124 61.5607C104.002 61.69 103.883 61.8166 103.769 61.7822C103.726 61.7693 103.671 61.6794 103.616 61.5899C103.616 61.5893 103.616 61.5888 103.615 61.5882C103.612 61.5821 103.608 61.5762 103.604 61.5701C103.382 61.7023 103.16 61.841 102.939 61.9829C102.924 62.0128 102.909 62.0425 102.893 62.0717C102.818 62.2145 102.745 62.353 102.718 62.5323C102.687 62.7268 102.533 62.8705 102.37 63.0213C102.263 63.1202 102.153 63.2218 102.071 63.3435C102.022 63.4147 101.943 63.3259 101.862 63.2342C101.786 63.1488 101.709 63.0609 101.652 63.0987C101.624 63.1177 101.6 63.1667 101.573 63.219C101.551 63.2651 101.526 63.3139 101.497 63.3469C101.47 63.3774 101.386 63.3374 101.28 63.2865C101.214 63.2549 101.139 63.2194 101.063 63.1931C100.898 63.2933 100.732 63.3903 100.565 63.4828C100.545 63.5792 100.536 63.7011 100.541 63.8544C100.544 63.9644 100.554 64.0946 100.564 64.2277C100.577 64.4089 100.591 64.5961 100.589 64.7481C100.587 64.8668 100.568 64.918 100.539 64.8746C100.525 64.8544 100.51 64.8142 100.496 64.7779C100.48 64.7364 100.466 64.6994 100.459 64.7021C100.453 64.7041 100.453 64.7357 100.453 64.774C100.454 64.8353 100.454 64.9143 100.431 64.9216C100.348 64.9487 100.246 64.9437 100.146 64.9384C100.035 64.9325 99.927 64.9269 99.8494 64.9656C99.7626 65.0091 99.6093 64.9213 99.4567 64.8337C99.3503 64.7725 99.2439 64.7117 99.1595 64.6945C99.0767 64.6777 99.0091 64.7556 98.9435 64.8315C98.8648 64.9226 98.789 65.0105 98.6945 64.9254C98.6754 64.9081 98.6331 64.7888 98.5803 64.6395C98.5428 64.5337 98.4999 64.4128 98.4561 64.3021C98.36 64.3202 98.2632 64.3332 98.1656 64.3418C98.1653 64.3591 98.165 64.3768 98.1648 64.3948C98.1648 64.3952 98.1648 64.3956 98.1648 64.396C98.1595 64.802 98.1511 65.3574 97.9401 65.0663C97.8865 64.9923 97.8344 64.8469 97.7875 64.716C97.7415 64.5874 97.7004 64.4724 97.6677 64.4526C97.6307 64.4303 97.6084 64.5186 97.5838 64.6147C97.5494 64.7496 97.5109 64.9003 97.4226 64.7829C97.4166 64.7749 97.4101 64.766 97.4034 64.7572C97.3397 64.6739 97.2458 64.5505 97.1269 64.2893C96.9101 64.2536 96.6915 64.2051 96.4718 64.1486C96.1055 64.0544 95.7364 63.9377 95.368 63.8209C95.1886 63.7631 94.9645 63.4183 94.7412 62.8419C94.5178 62.2647 94.3142 61.5077 94.1706 60.7127C94.0271 59.9178 93.9533 59.1379 93.9607 58.519C93.9682 57.9009 94.0572 57.4997 94.2041 57.3828C94.4441 57.1939 94.6835 57.0049 94.924 56.8268C94.9349 56.8078 94.9459 56.7893 94.957 56.7718C95.0397 56.6417 95.0943 56.4006 95.1488 56.1592C95.1613 56.1038 95.1738 56.0482 95.1867 55.9941Z" fill="black"/>
<path d="M90.079 44.6023C89.927 44.202 90.2866 44.0573 90.4848 43.9776C90.4883 43.976 90.4918 43.9745 90.4953 43.9729C90.5423 43.954 90.5766 43.9262 90.6165 43.8935C90.7118 43.8153 90.8405 43.7096 91.2592 43.6338C91.3231 43.5554 91.3901 43.4797 91.4609 43.4075C92.2245 42.6279 93.2348 42.0712 94.3036 41.5766C94.3123 41.5654 94.3212 41.5541 94.3302 41.5425C94.5033 41.3202 94.7221 41.0439 94.9782 40.9969C95.3044 40.9365 95.5563 40.93 95.7677 40.9303C96.631 40.5542 97.4794 40.1708 98.2411 39.6834C98.2939 39.6495 98.3463 39.6153 98.3981 39.5805C98.5821 39.4569 98.7599 39.3273 98.9317 39.1897C99.1355 39.0265 99.3331 38.8558 99.5265 38.6781C99.596 38.5184 99.6513 38.3509 99.704 38.1955C99.7781 37.977 99.8466 37.7828 99.9383 37.6692C100.159 37.3952 100.557 37.2898 100.851 37.2167C100.899 37.2047 100.944 37.1937 100.985 37.1827C101.141 37.0119 101.295 36.8396 101.45 36.6675C101.481 36.6861 101.512 36.7058 101.543 36.726C101.939 36.9788 102.129 36.8474 102.431 36.6456C102.564 36.5569 102.715 36.4569 102.914 36.3696C103.042 36.3139 103.192 36.4213 103.314 36.5092C103.35 36.535 103.384 36.5592 103.413 36.5772C103.515 36.6388 103.504 36.5114 103.493 36.3605C103.478 36.1647 103.461 35.9288 103.68 36.0191C104.375 36.3071 104.332 35.8573 104.304 35.5136C104.296 35.4129 104.289 35.3217 104.301 35.2616C104.34 35.0669 104.575 35.1004 104.799 35.2039C104.974 35.2877 105.091 35.0377 105.137 34.7798C105.155 34.6821 105.229 34.6377 105.317 34.5855C105.409 34.5314 105.512 34.4715 105.585 34.3326C105.765 33.9833 105.87 33.8058 105.95 33.6653C105.973 33.6251 105.995 33.5881 106.017 33.5502C106.085 33.4305 106.186 33.3073 106.285 33.1848C106.405 33.0372 106.528 32.887 106.6 32.7375C106.962 32.6565 107.329 32.6011 107.696 32.5462C107.888 32.517 108.212 32.7622 108.612 33.238C109.013 33.7144 109.452 34.3802 109.842 35.1056C110.232 35.8309 110.545 36.5647 110.723 37.1605C110.901 37.7562 110.932 38.1598 110.806 38.3022C110.559 38.5844 110.312 38.8671 110.053 39.1278C109.738 39.4444 109.41 39.7252 109.04 39.932C108.783 40.0755 108.515 40.2038 108.243 40.3179C108.215 40.3296 108.188 40.3406 108.159 40.3525C108.044 40.6514 107.926 40.9326 107.813 41.0748C107.719 41.1923 107.575 41.1515 107.453 41.1158C107.369 41.0911 107.294 41.07 107.252 41.1054C107.229 41.1244 107.201 41.1554 107.168 41.1926C107.033 41.3442 106.804 41.6032 106.448 41.5896C106.288 41.5848 106.069 41.5172 105.856 41.4561C105.553 41.3669 105.267 41.2886 105.221 41.3986C105.138 41.5931 104.919 41.6165 104.723 41.6395C104.537 41.6611 104.373 41.682 104.382 41.842C104.392 42.0336 104.285 42.0252 104.126 42.0153C104.015 42.0085 103.88 42.0005 103.741 42.0572C103.582 42.1224 103.418 42.0986 103.278 42.0791C103.082 42.0516 102.933 42.0333 102.917 42.2816C102.9 42.5576 102.835 42.7754 102.679 42.8113C102.608 42.8277 102.553 42.8799 102.495 42.9346C102.419 43.0071 102.339 43.0832 102.213 43.0866C102.109 43.0895 101.956 43.0078 101.819 42.9361C101.777 42.9138 101.736 42.8926 101.699 42.875C101.648 42.9188 101.597 42.9638 101.548 43.0098C101.556 43.0366 101.565 43.0659 101.575 43.0962C101.618 43.2359 101.671 43.4044 101.67 43.5295C101.67 43.5405 101.67 43.5512 101.669 43.5615C101.65 43.7622 101.497 43.7744 101.334 43.7879C101.207 43.7984 101.074 43.8104 100.998 43.9124C100.946 43.9821 100.916 44.095 100.886 44.2065C100.842 44.3724 100.8 44.5358 100.687 44.5556C100.645 44.563 100.555 44.5088 100.465 44.4551C100.464 44.4547 100.464 44.4544 100.463 44.454C100.457 44.4504 100.451 44.4468 100.445 44.4432C100.318 44.6591 100.196 44.8822 100.08 45.1094C100.082 45.1424 100.083 45.1753 100.085 45.2078C100.093 45.3665 100.101 45.5209 100.169 45.6881C100.243 45.8694 100.187 46.0658 100.131 46.2728C100.093 46.4087 100.055 46.5488 100.052 46.6922C100.049 46.776 99.9374 46.7398 99.822 46.7025C99.7142 46.6677 99.6033 46.6324 99.5767 46.6929C99.5634 46.7231 99.5692 46.7769 99.5754 46.8344C99.5811 46.8849 99.5871 46.9384 99.5806 46.981C99.5745 47.0205 99.4844 47.0291 99.3689 47.0411C99.2974 47.0486 99.2167 47.0571 99.1396 47.0746C99.0565 47.2452 98.9724 47.414 98.8851 47.5804C98.9221 47.6712 98.9817 47.7777 99.0696 47.9033C99.1327 47.9933 99.2126 48.0965 99.2943 48.202C99.4055 48.3456 99.5204 48.494 99.6029 48.6213C99.6673 48.7208 99.6797 48.7737 99.6322 48.7529C99.61 48.7432 99.5753 48.7179 99.544 48.695C99.5081 48.6688 99.4761 48.6455 99.4714 48.6518C99.4681 48.6563 99.4858 48.6825 99.5072 48.7143C99.5414 48.765 99.5855 48.8305 99.5714 48.8483C99.5191 48.9147 99.4336 48.9646 99.3499 49.0135C99.2568 49.0678 99.1658 49.1215 99.1245 49.1957C99.0784 49.2786 98.9049 49.2895 98.7307 49.3017C98.6094 49.31 98.4881 49.3191 98.4093 49.3523C98.332 49.3848 98.321 49.4869 98.3107 49.5862C98.2982 49.7054 98.2865 49.8204 98.1606 49.8042C98.1351 49.8009 98.0323 49.727 97.9036 49.6348C97.8124 49.5694 97.7079 49.4948 97.6086 49.4291C97.5399 49.4993 97.4675 49.566 97.392 49.6297C97.4018 49.644 97.4116 49.6587 97.4217 49.6735C97.422 49.6739 97.4222 49.6742 97.4225 49.6745C97.6508 50.0104 97.964 50.4691 97.6231 50.3538C97.5364 50.3245 97.4097 50.236 97.2956 50.1565C97.1836 50.0784 97.0833 50.0085 97.045 50.0116C97.0015 50.0151 97.034 50.1006 97.0692 50.1935C97.1186 50.324 97.174 50.4698 97.0333 50.4262C97.0237 50.4232 97.0132 50.4198 97.0026 50.4166C96.9018 50.3863 96.7528 50.3413 96.5031 50.1991C96.3026 50.2995 96.0929 50.3916 95.8771 50.4788C95.5174 50.6241 95.141 50.7555 94.7641 50.8878C94.58 50.9515 94.191 50.8094 93.6678 50.4783C93.1439 50.1466 92.5321 49.6562 91.9488 49.0972C91.3655 48.5384 90.8497 47.9485 90.496 47.4392C90.1429 46.9304 89.9849 46.5475 90.0415 46.36C90.1352 46.0554 90.2294 45.7502 90.3326 45.4522C90.3309 45.4298 90.3296 45.4076 90.3291 45.3863C90.3249 45.2273 90.2329 44.995 90.1412 44.762C90.1201 44.7085 90.099 44.6549 90.079 44.6023Z" fill="black"/>
<path d="M148.988 31.7654C148.759 32.3842 147.851 32.8548 147.358 33.142C147.349 33.1473 147.34 33.1526 147.331 33.158C147.214 33.2252 147.113 33.3003 146.995 33.3896C146.715 33.6057 146.338 33.8849 145.445 34.3859C145.241 34.5919 145.039 34.7969 144.837 35.0023C142.799 37.0715 140.944 39.2754 139.491 41.8338C139.399 41.9914 139.312 42.1476 139.229 42.3027C139.219 42.3354 139.209 42.3685 139.2 42.4019C139.005 43.0593 138.88 43.8414 138.678 44.3253C138.417 44.9361 138.246 45.3863 138.111 45.769C137.84 47.9361 138.447 50.4137 139.734 52.7052C140.134 53.4249 140.595 54.127 141.105 54.8083C141.576 55.4369 142.081 56.0451 142.619 56.6456C142.983 56.9455 143.355 57.2203 143.7 57.4707C144.186 57.8232 144.627 58.137 144.948 58.4337C145.727 59.1528 146.467 60.1571 147.031 60.9588C147.123 61.0904 147.209 61.2139 147.288 61.3271C147.742 61.7911 148.198 62.2658 148.675 62.8679C148.8 63.0284 148.919 63.1924 149.035 63.3622C149.044 63.4393 149.052 63.5189 149.059 63.599C149.119 64.5935 149.623 65.5605 149.82 67.2908C149.895 68.0363 149.883 68.9186 149.652 69.8885C149.499 70.5134 149.226 70.7684 149.014 70.9633C148.95 71.0207 148.89 71.0734 148.837 71.1281C148.653 71.3155 148.665 71.5856 148.657 71.9167C148.655 71.9936 148.652 72.0735 148.646 72.1557C148.609 72.5448 148.482 72.9954 148.05 73.3358C146.378 74.5638 146.031 75.1941 145.722 75.8576C145.631 76.0404 145.546 76.2036 145.434 76.338C145.069 76.7779 144.325 77.0585 143.737 77.1407C143.272 77.213 142.563 77.73 142.026 78.1619C141.822 78.3273 141.51 78.4514 141.138 78.5856C141.034 78.6233 140.924 78.6621 140.81 78.7032C140.511 78.8109 140.186 78.9329 139.86 79.0932C138.721 79.648 138.111 79.8802 137.623 80.0753C137.483 80.1302 137.354 80.1795 137.224 80.2295C136.815 80.3873 136.303 80.5458 135.787 80.6966C135.169 80.8775 134.546 81.0483 134.08 81.2151C132.818 81.2987 131.579 81.3257 130.356 81.3426C129.727 81.3504 129.094 81.0505 128.592 80.4945C128.09 79.938 127.759 79.1756 127.666 78.3575C127.574 77.5392 127.729 76.7224 128.092 76.0682C128.455 75.4145 128.996 74.9809 129.592 74.8448C130.792 74.5721 131.976 74.2915 133.132 74.0128C134.539 73.6729 135.907 73.3367 137.195 73.0087C137.725 72.8734 138.242 72.7306 138.732 72.5781C139.074 72.4713 139.41 72.3582 139.736 72.2378C139.819 72.2073 139.9 72.1769 139.981 72.1458C140.55 71.6764 141.023 71.197 141.338 70.9107C141.599 70.6745 141.847 70.6191 142.063 70.5626C142.211 70.5238 142.338 70.4864 142.419 70.3987C142.462 70.3522 142.515 70.2837 142.573 70.2026C142.751 69.9583 142.942 69.6087 143.113 69.3613C143.193 69.2393 143.277 69.1211 143.373 69.0092C143.532 68.8246 143.762 68.6136 143.95 68.3714C144.224 68.0323 144.388 67.6135 144.278 67.4435C144.092 67.154 144.05 66.7846 143.924 66.4126C143.901 66.3458 143.877 66.2811 143.85 66.2177C143.711 65.9116 143.507 65.6142 143.278 65.5116C142.952 65.3735 142.815 65.11 142.595 64.7121C142.443 64.4375 142.243 64.09 141.911 63.6774C141.52 63.1926 141.299 62.7834 141.117 62.4402C140.852 61.9471 140.659 61.582 140.109 61.2529C139.498 60.8871 138.92 60.4276 138.606 59.95C138.461 59.7317 138.263 59.5052 138.061 59.2697C137.792 58.9559 137.512 58.6197 137.328 58.2558C137.176 57.9548 137.141 57.6415 137.113 57.3638C137.104 57.2772 137.095 57.1942 137.084 57.1161C136.929 56.9046 136.776 56.6938 136.622 56.4799C136.577 56.4595 136.528 56.4387 136.477 56.4166C136.222 56.3054 135.909 56.1642 135.635 55.9051C135.202 55.494 135.011 55.0042 134.828 54.485C134.685 54.0798 134.547 53.6569 134.298 53.213C134.129 52.9102 133.903 52.5774 133.688 52.236C133.368 51.7306 133.073 51.201 132.999 50.7872C132.971 50.6325 133.026 50.4742 133.083 50.3195C133.084 50.3187 133.084 50.318 133.084 50.3173C133.088 50.3068 133.092 50.2963 133.096 50.2858C132.729 49.3501 132.427 48.3666 132.219 47.3422C132.183 47.2559 132.148 47.1678 132.114 47.0798C131.947 46.6487 131.807 46.2185 131.632 45.9331C131.439 45.622 131.327 44.8222 131.3 43.9546C131.279 43.3983 131.294 42.7965 131.285 42.3191C131.28 42.035 131.439 41.7957 131.608 41.5572C131.764 41.3378 131.926 41.1261 131.98 40.8532C132.007 40.7167 132.01 40.5605 132.016 40.3921C132.022 40.2421 132.028 40.0904 132.054 39.9363C132.078 39.7932 132.238 39.5099 132.459 39.1531C132.5 39.087 132.543 39.0184 132.588 38.9476C132.685 38.7986 132.79 38.6394 132.894 38.4742C133.129 37.7804 133.394 37.0944 133.688 36.4201C133.68 36.2424 133.64 36.0692 133.559 35.9032C133.501 35.7842 133.419 35.6642 133.337 35.5406C133.224 35.3724 133.109 35.1972 133.046 35.0078C132.997 34.8598 133.019 34.7295 133.103 34.6826C133.142 34.6607 133.193 34.6567 133.24 34.6531C133.293 34.649 133.341 34.6455 133.357 34.6162C133.368 34.5951 133.354 34.5578 133.338 34.512C133.311 34.439 133.278 34.3439 133.326 34.2588C133.506 33.9423 133.748 33.6055 133.991 33.2819C134.26 32.9218 134.532 32.5774 134.716 32.2809C134.922 31.9477 135.347 31.5688 135.779 31.2072C136.08 30.9545 136.386 30.7086 136.622 30.4795C136.854 30.2546 137.025 29.9612 137.196 29.678C137.4 29.3379 137.604 29.0137 137.898 28.8534C137.957 28.8212 138.102 28.8504 138.284 28.8882C138.412 28.9151 138.559 28.9461 138.706 28.9632C138.985 28.6804 139.271 28.4076 139.565 28.1424C139.563 28.1205 139.562 28.0981 139.56 28.0754C139.56 28.0749 139.56 28.0745 139.56 28.074C139.521 27.564 139.492 26.8471 140.186 26.6731C140.362 26.6294 140.538 26.6795 140.695 26.7253C140.85 26.7703 140.988 26.8115 141.093 26.7569C141.211 26.6949 141.277 26.5325 141.35 26.3561C141.453 26.1087 141.573 25.8309 141.865 25.7698C141.884 25.7657 141.906 25.7614 141.928 25.7567C142.137 25.712 142.447 25.6476 142.838 25.7029C143.546 25.2658 144.273 24.8658 145.012 24.4988C146.243 23.8877 147.506 23.3689 148.779 22.9193C149.399 22.7012 150.127 22.7733 150.787 23.1377C151.448 23.5027 151.985 24.1216 152.31 24.8609C152.635 25.6006 152.733 26.4088 152.626 27.1272C152.516 27.8459 152.208 28.4136 151.763 28.7415C151.036 29.2754 150.337 29.8339 149.664 30.4058C149.634 30.4441 149.604 30.4822 149.573 30.5193C149.344 30.7958 149.206 31.1569 149.076 31.5177C149.046 31.6006 149.017 31.6836 148.988 31.7654Z" fill="black"/>
<path d="M176.37 48.7843C176.724 49.0929 176.508 49.5815 176.389 49.8499C176.387 49.8548 176.385 49.8598 176.383 49.8647C176.355 49.9284 176.343 49.9905 176.329 50.063C176.295 50.236 176.249 50.4693 175.949 50.9334C175.942 51.0771 175.93 51.2211 175.915 51.3635C175.744 52.9051 175.266 54.4014 174.753 55.8876C174.753 55.9069 174.754 55.9266 174.754 55.9464C174.762 56.3309 174.775 56.8041 174.613 57.0878C174.49 57.3029 174.375 57.4771 174.27 57.6232C174.198 57.7235 174.13 57.8112 174.067 57.8914C173.683 59.0692 173.361 60.2669 173.221 61.4894C173.177 61.8723 173.151 62.2574 173.146 62.6446C173.142 63.0012 173.15 63.3598 173.17 63.7203C173.252 63.9308 173.35 64.1322 173.441 64.3192C173.569 64.5824 173.682 64.8178 173.717 65.0128C173.803 65.482 173.65 66.0173 173.534 66.4159C173.531 66.4277 173.528 66.4393 173.524 66.4508C173.509 66.5031 173.495 66.5528 173.482 66.5993C173.527 66.9181 173.574 67.234 173.623 67.5468C173.59 67.5665 173.556 67.5863 173.521 67.6065C173.084 67.8584 173.079 68.1828 173.073 68.6854C173.071 68.9065 173.068 69.1562 173.03 69.4546C173.006 69.6423 172.833 69.7417 172.693 69.8169C172.652 69.8395 172.613 69.8608 172.582 69.8826C172.475 69.9567 172.587 70.0439 172.721 70.1393C172.894 70.2653 173.102 70.4183 172.909 70.611C172.297 71.2315 172.707 71.5121 173.017 71.721C173.108 71.7832 173.19 71.839 173.236 71.8946C173.384 72.0774 173.237 72.3381 173.037 72.5392C172.878 72.6962 173.038 73.0145 173.242 73.2473C173.32 73.3362 173.323 73.462 173.327 73.6026C173.33 73.7497 173.335 73.9268 173.423 74.1062C173.647 74.5712 173.758 74.8163 173.846 75.0104C173.871 75.066 173.894 75.1182 173.918 75.1706C173.994 75.3388 174.058 75.5395 174.123 75.7491C174.202 76.0035 174.281 76.2464 174.384 76.443C174.298 76.9419 174.189 77.4589 174.082 77.9627C174.026 78.2268 173.667 78.4874 173.067 78.6968C172.465 78.9065 171.676 79.0471 170.853 79.0818C170.031 79.1169 169.232 79.0431 168.616 78.8802C168 78.7178 167.62 78.4798 167.544 78.2132C167.393 77.6865 167.243 77.1451 167.123 76.6138C166.976 75.964 166.871 75.3022 166.858 74.642C166.849 74.1775 166.862 73.7189 166.892 73.2513C166.896 73.2037 166.899 73.1564 166.903 73.1094C166.696 72.7172 166.511 72.3321 166.445 72.0532C166.39 71.8268 166.499 71.6581 166.592 71.5174C166.656 71.4218 166.713 71.3333 166.705 71.2455C166.7 71.1983 166.688 71.1341 166.674 71.0576C166.615 70.7388 166.517 70.1987 166.725 69.7132C166.817 69.4981 166.995 69.2487 167.166 69.0164C167.411 68.6797 167.64 68.3716 167.577 68.2109C167.467 67.9282 167.577 67.6144 167.674 67.3398C167.767 67.0767 167.848 66.8503 167.714 66.7163C167.578 66.5808 167.608 66.4669 167.684 66.3175C167.697 66.2911 167.712 66.2635 167.728 66.2345C167.799 66.1005 167.886 65.9354 167.924 65.7081C167.967 65.4456 168.085 65.2601 168.184 65.1018C168.325 64.8791 168.43 64.7103 168.243 64.4549C168.034 64.1711 167.903 63.8743 167.972 63.6413C168.003 63.535 167.997 63.4133 167.991 63.286C167.982 63.1177 167.974 62.9399 168.051 62.7787C168.115 62.6451 168.277 62.5374 168.419 62.4409C168.464 62.4108 168.507 62.3824 168.544 62.3545C168.543 62.2482 168.542 62.1408 168.539 62.0343C168.514 62.0166 168.485 61.998 168.456 61.9785C168.31 61.8803 168.131 61.7605 168.044 61.6125C167.906 61.3792 167.999 61.1776 168.099 60.9654C168.177 60.8006 168.259 60.6294 168.237 60.4287C168.222 60.2933 168.162 60.1349 168.102 59.9799C168.014 59.7475 167.928 59.5174 167.994 59.3634C168.019 59.3055 168.122 59.2588 168.224 59.2128C168.224 59.2126 168.225 59.2124 168.226 59.2122C168.232 59.209 168.239 59.2059 168.246 59.2028C168.186 58.8179 168.12 58.4312 168.053 58.0429C168.029 58.0083 168.006 57.9731 167.982 57.9382C167.87 57.7688 167.76 57.6029 167.598 57.4888C167.504 57.423 167.435 57.3096 167.378 57.17C167.327 57.0508 167.286 56.9116 167.243 56.7697C167.184 56.5704 167.123 56.3632 167.034 56.1915C166.982 56.0904 167.092 56.0081 167.206 55.9231C167.312 55.8439 167.421 55.762 167.404 55.6633C167.395 55.6136 167.357 55.5575 167.316 55.4974C167.28 55.4446 167.241 55.3881 167.22 55.3316C167.2 55.2788 167.266 55.1705 167.35 55.031C167.401 54.9456 167.46 54.8485 167.511 54.7453C167.471 54.4581 167.436 54.1715 167.405 53.8848C167.32 53.8179 167.208 53.756 167.061 53.7013C166.956 53.6621 166.829 53.6251 166.7 53.5871C166.524 53.5354 166.342 53.4817 166.199 53.418C166.087 53.3685 166.045 53.3187 166.096 53.2929C166.12 53.2809 166.163 53.2741 166.202 53.2679C166.247 53.2609 166.287 53.2546 166.287 53.2421C166.287 53.2331 166.257 53.2208 166.221 53.2058C166.163 53.1817 166.088 53.1505 166.089 53.1141C166.092 52.9785 166.131 52.8298 166.171 52.6828C166.214 52.5203 166.257 52.3612 166.247 52.2303C166.236 52.084 166.373 51.8901 166.509 51.6978C166.604 51.563 166.698 51.4289 166.744 51.3099C166.789 51.193 166.739 51.0616 166.69 50.934C166.631 50.7805 166.575 50.6334 166.689 50.526C166.712 50.5042 166.839 50.4882 166.999 50.4681C167.112 50.4538 167.242 50.4372 167.362 50.4156C167.378 50.2657 167.4 50.1154 167.426 49.9666C167.41 49.9595 167.394 49.9521 167.377 49.9447C167.376 49.9445 167.376 49.9444 167.375 49.9443C166.994 49.7768 166.472 49.546 166.821 49.3457C166.91 49.2948 167.066 49.2741 167.206 49.2555C167.344 49.2371 167.467 49.2211 167.498 49.1801C167.532 49.1337 167.456 49.0656 167.374 48.9912C167.259 48.8868 167.13 48.7702 167.273 48.6846C167.282 48.6788 167.293 48.6725 167.304 48.666C167.405 48.6038 167.555 48.5113 167.844 48.4363C167.955 48.1265 168.079 47.8182 168.21 47.512C168.43 47.0011 168.672 46.494 168.914 45.9878C169.033 45.7417 169.439 45.5408 170.063 45.4316C170.688 45.3225 171.476 45.3135 172.278 45.4095C173.08 45.5054 173.843 45.7 174.425 45.9532C175.006 46.2065 175.353 46.4969 175.411 46.7632C175.503 47.1972 175.596 47.6308 175.678 48.0623C175.692 48.086 175.705 48.1098 175.718 48.1334C175.811 48.3086 176.019 48.4858 176.228 48.6624C176.276 48.7029 176.324 48.7437 176.37 48.7843Z" fill="black"/>
<path d="M187.652 73.6057C187.513 72.7521 188.1 71.3793 188.421 70.6203C188.427 70.6064 188.432 70.5925 188.438 70.5785C188.514 70.3989 188.572 70.2255 188.64 70.0214C188.803 69.529 189.021 68.8773 189.672 67.5532C189.784 67.1451 189.898 66.7415 190.017 66.3371C191.306 61.9636 192.854 57.6534 194.442 53.339C194.455 53.2829 194.469 53.2259 194.483 53.1684C194.749 52.0499 195.08 50.6557 195.45 49.8358C195.926 48.774 196.288 48.0803 196.596 47.4985C197.86 44.0528 199.067 40.6127 200.243 37.0714C200.556 36.1371 200.862 35.209 201.207 34.2331C201.55 32.7993 203.091 32.2942 204.523 32.6449C204.878 32.7713 205.216 32.9445 205.476 33.1022C207.01 34.0927 207.703 35.0905 208.454 36.0512C208.936 36.5814 209.36 37.0593 209.753 37.5262C210.293 38.1624 210.753 38.7535 211.067 39.2571C211.83 40.4816 212.394 41.9874 212.785 43.0984C212.849 43.2801 212.909 43.4533 212.966 43.6142C213.393 44.4311 213.819 45.2707 214.228 46.0948C214.222 46.1641 214.215 46.2344 214.208 46.306C214.118 47.2045 214.487 48.0823 215.048 49.4914C215.292 50.1034 215.568 50.8102 215.857 51.6652C216.04 52.2084 215.985 52.5484 215.939 52.8249C215.926 52.9065 215.913 52.9826 215.907 53.0557C215.887 53.3075 216.078 53.4957 216.304 53.7209C216.598 54.0154 216.947 54.3617 216.968 54.9852C217.032 56.9644 217.683 57.6098 218.183 58.1074C218.329 58.2512 218.46 58.3823 218.559 58.5295C218.879 59.0089 218.991 59.803 218.988 60.4347C218.988 60.8622 219.306 61.5273 219.657 62.1063C219.66 62.1135 219.666 62.1366 219.669 62.1438C219.731 62.2505 219.794 62.3526 219.855 62.4482C220.007 62.6817 220.118 63.0349 220.247 63.4537C220.379 63.8825 220.531 64.383 220.77 64.8961C221.375 66.1939 221.675 66.898 221.915 67.4614C221.984 67.6224 222.047 67.7723 222.11 67.922C222.311 68.3948 222.528 68.9901 222.744 69.5909C223.002 70.3097 223.258 71.0373 223.492 71.5783C223.756 73.0682 223.986 74.5468 224.219 76.031C224.339 76.7956 224.152 77.5865 223.693 78.2657C223.228 78.9298 222.532 79.4248 221.733 79.6217C220.933 79.8192 220.087 79.7042 219.367 79.3295C218.644 78.9395 218.112 78.3217 217.864 77.5865C217.368 76.1107 216.876 74.6403 216.405 73.1777C215.832 71.3927 215.29 69.6399 214.789 67.8774C214.438 66.6432 214.086 65.4024 213.736 64.1535C213.722 64.1021 213.708 64.0504 213.693 63.9984L213.708 64.0462C213.685 63.968 213.662 63.8898 213.639 63.8117C213.106 62.8326 212.586 61.8581 212.277 61.1514C212.022 60.5658 211.976 60.1004 211.934 59.6922C211.905 59.4133 211.879 59.1675 211.791 58.9415C211.744 58.8209 211.673 58.6552 211.587 58.4557C211.239 57.6463 210.64 56.2728 210.355 54.9345C210.226 54.3326 210.145 53.6231 210.059 52.9361C209.939 51.9605 209.817 51.0508 209.586 50.6547C209.186 49.9725 208.936 49.0946 208.707 48.323C208.491 47.5909 208.296 46.9582 208.016 46.6623C207.683 46.3161 207.59 45.9434 207.442 45.3852C207.344 45.0079 207.211 44.524 206.958 43.9249C206.664 43.232 206.523 42.7067 206.402 42.2655C206.227 41.6399 206.091 41.1726 205.574 40.664C205.004 40.1057 204.474 39.5303 204.186 39.0206C204.062 38.7966 203.871 38.557 203.68 38.3413C203.433 38.0613 203.163 37.8009 203.029 37.5962C202.915 37.4228 202.92 37.2484 202.946 37.1051C202.95 37.0829 202.955 37.0617 202.961 37.0416L205.612 35.7714C205.581 35.8 205.55 35.8287 205.52 35.8578C205.431 36.1213 205.333 36.4254 205.251 36.6957C205.261 36.749 205.272 36.806 205.284 36.8658C205.339 37.1777 205.42 37.5206 205.383 37.9477C205.333 38.5987 205.084 39.1226 204.824 39.6752C204.619 40.1135 204.412 40.5536 204.284 41.106C204.201 41.4679 204.137 41.9354 204.087 42.3538C204.006 42.9993 203.926 43.6397 203.75 44.0518C203.684 44.2069 203.548 44.322 203.414 44.4328C203.413 44.4332 203.412 44.4336 203.411 44.434C203.402 44.4413 203.394 44.4487 203.385 44.4559C203.175 45.5054 202.966 46.5891 202.768 47.6492C202.769 47.7463 202.768 47.8446 202.768 47.9423C202.763 48.424 202.762 48.8814 202.848 49.2059C202.941 49.559 202.835 50.354 202.723 51.1914C202.646 51.7518 202.575 52.3014 202.549 52.7811C202.534 53.0596 202.365 53.2845 202.194 53.5068C202.033 53.7165 201.868 53.9332 201.818 54.2081C201.794 54.3458 201.795 54.5028 201.796 54.6709C201.797 54.8208 201.8 54.9705 201.784 55.1275C201.769 55.2726 201.63 55.5667 201.45 55.9488C201.339 56.1853 201.212 56.4544 201.092 56.7337C200.94 57.5243 200.783 58.323 200.621 59.1131C200.663 59.3 200.737 59.4732 200.851 59.6262C200.933 59.7359 201.039 59.8395 201.146 59.9459C201.293 60.0897 201.446 60.237 201.551 60.4122C201.633 60.549 201.642 60.6861 201.572 60.7569C201.54 60.7899 201.491 60.8084 201.446 60.8253C201.395 60.8446 201.35 60.8619 201.341 60.8962C201.335 60.921 201.358 60.955 201.385 60.9966C201.429 61.0631 201.485 61.1494 201.46 61.2498C201.365 61.6241 201.222 62.0392 201.083 62.4412C200.927 62.8896 200.773 63.3334 200.694 63.6973C200.606 64.1005 200.332 64.6363 200.057 65.1778C199.864 65.5557 199.674 65.9255 199.544 66.2588C199.416 66.5837 199.375 66.9538 199.337 67.3073C199.291 67.7305 199.247 68.1399 199.052 68.443C199.013 68.5043 198.868 68.5523 198.687 68.6127C198.559 68.6556 198.412 68.7051 198.272 68.7693C198.148 69.1892 198.019 69.6057 197.885 70.0243C197.897 70.044 197.909 70.0642 197.921 70.0846C197.922 70.0849 197.922 70.0853 197.922 70.0856C198.201 70.5454 198.581 71.1751 198.071 71.7445C197.942 71.8895 197.764 71.9519 197.603 72.0082C197.446 72.0634 197.305 72.1127 197.244 72.2287C197.174 72.36 197.203 72.5507 197.235 72.7555C197.28 73.0432 197.329 73.3654 197.118 73.6098C197.103 73.6265 197.087 73.6443 197.071 73.6631C196.919 73.8407 196.694 74.104 196.335 74.325C195.991 75.194 195.629 76.0683 195.26 76.9286C194.643 78.3706 193.997 79.8024 193.344 81.2269C193.024 81.9222 192.437 82.4933 191.693 82.8108C190.948 83.128 190.112 83.1654 189.345 82.9098C188.579 82.6542 187.933 82.1237 187.523 81.4307C187.113 80.7376 186.975 79.9419 187.122 79.2036C187.362 78.0038 187.597 76.7998 187.836 75.6005C187.84 75.5345 187.843 75.4685 187.848 75.403C187.883 74.9161 187.797 74.4288 187.71 73.9426C187.69 73.8309 187.671 73.7179 187.652 73.6057Z" fill="black"/>
<path d="M196.647 56.4169C196.848 56.0029 197.345 56.1034 197.619 56.159C197.624 56.1598 197.629 56.1607 197.634 56.1615C197.699 56.1747 197.759 56.1731 197.829 56.1708C197.996 56.1655 198.221 56.1581 198.717 56.3504C198.851 56.326 198.987 56.3057 199.123 56.2905C200.594 56.1262 202.11 56.2939 203.626 56.5455C203.644 56.5418 203.663 56.5381 203.682 56.5343C204.051 56.4613 204.508 56.3728 204.81 56.4898C205.193 56.6386 205.457 56.7852 205.672 56.9128C206.589 57.0796 207.498 57.2353 208.404 57.3225C208.684 57.3497 208.965 57.3702 209.244 57.3824C209.614 57.3984 209.981 57.3996 210.348 57.3822C210.686 57.3663 211.023 57.339 211.36 57.3017C211.553 57.2093 211.735 57.1017 211.905 57.0023C212.143 56.8625 212.356 56.7387 212.534 56.6945C212.962 56.5878 213.458 56.7151 213.823 56.8105C213.883 56.8261 213.939 56.8409 213.992 56.8536C214.278 56.792 214.565 56.7271 214.851 56.6614C214.871 56.693 214.891 56.726 214.912 56.7599C215.17 57.1822 215.47 57.1686 215.944 57.1492C216.151 57.1408 216.389 57.1314 216.672 57.1563C216.854 57.1723 216.951 57.3404 217.03 57.4776C217.053 57.518 217.075 57.5557 217.097 57.5861C217.172 57.6902 217.246 57.5744 217.334 57.4377C217.448 57.2604 217.585 57.0474 217.775 57.2336C218.38 57.8272 218.633 57.4124 218.826 57.0985C218.883 57.0064 218.934 56.9232 218.987 56.8766C219.159 56.7255 219.411 56.8682 219.602 57.0668C219.753 57.2243 220.049 57.0613 220.272 56.8564C220.356 56.7789 220.472 56.7753 220.608 56.7716C220.749 56.7677 220.911 56.7637 221.085 56.6758C221.522 56.4538 221.755 56.3461 221.942 56.2599C221.995 56.2353 222.045 56.2129 222.095 56.1896C222.252 56.1159 222.446 56.0544 222.644 55.9924C222.88 55.9182 223.119 55.843 223.301 55.7442C223.776 55.841 224.252 55.9623 224.726 56.0834C224.97 56.1463 225.207 56.5131 225.386 57.12C225.564 57.7274 225.67 58.5208 225.678 59.3442C225.687 60.1675 225.599 60.963 225.434 61.5742C225.269 62.1849 225.04 62.5573 224.798 62.6255C224.311 62.7616 223.823 62.8978 223.336 63.0076C222.743 63.1413 222.149 63.2359 221.555 63.2437C221.14 63.2492 220.724 63.2353 220.309 63.2062C220.266 63.2032 220.223 63.1998 220.181 63.1965C219.835 63.4044 219.491 63.5943 219.247 63.6641C219.046 63.7217 218.897 63.6161 218.769 63.5257C218.682 63.4636 218.604 63.4086 218.526 63.4189C218.485 63.4245 218.428 63.438 218.36 63.4543C218.08 63.5208 217.607 63.634 217.168 63.4454C216.974 63.3616 216.747 63.1935 216.529 63.0332C216.219 62.804 215.928 62.5908 215.786 62.662C215.536 62.7871 215.245 62.6941 214.987 62.6122C214.741 62.5339 214.525 62.466 214.408 62.6067C214.268 62.7749 214.143 62.7118 213.956 62.6186C213.826 62.554 213.668 62.4752 213.454 62.4486C213.208 62.4178 213.03 62.3091 212.879 62.2168C212.668 62.0868 212.506 61.9893 212.281 62.1882C212.031 62.4092 211.768 62.5544 211.552 62.4967C211.454 62.4704 211.344 62.4825 211.23 62.4952C211.078 62.5121 210.918 62.53 210.769 62.461C210.646 62.4041 210.539 62.2492 210.444 62.1121C210.414 62.0694 210.386 62.0286 210.358 61.9928C210.262 61.9995 210.167 62.0072 210.071 62.0168C210.057 62.0433 210.042 62.0725 210.026 62.1028C209.948 62.2545 209.852 62.4406 209.727 62.5374C209.529 62.6907 209.345 62.6113 209.149 62.5273C209.009 62.4672 208.864 62.4048 208.706 62.4247C208.692 62.4264 208.678 62.4288 208.664 62.4319C208.544 62.4579 208.411 62.5315 208.28 62.6045C208.084 62.7131 207.892 62.8203 207.75 62.7694C207.697 62.7504 207.645 62.6532 207.595 62.5565C207.594 62.5559 207.594 62.5553 207.594 62.5547C207.59 62.5482 207.587 62.5418 207.584 62.5352C207.252 62.6341 206.922 62.7419 206.591 62.8555C206.564 62.8834 206.537 62.9109 206.509 62.9381C206.377 63.0707 206.246 63.1999 206.169 63.3752C206.086 63.5651 205.849 63.6903 205.6 63.823C205.438 63.9099 205.269 64 205.135 64.1131C205.057 64.1792 204.969 64.0829 204.879 63.9836C204.794 63.891 204.708 63.7959 204.625 63.8285C204.583 63.8449 204.541 63.8916 204.495 63.9416C204.456 63.9856 204.414 64.0322 204.368 64.0625C204.326 64.0906 204.222 64.0433 204.088 63.9835C204.005 63.9465 203.911 63.9049 203.814 63.8725C203.571 63.9596 203.33 64.0445 203.087 64.1257C203.044 64.221 203.01 64.3425 202.99 64.4963C202.975 64.6067 202.966 64.7378 202.956 64.8718C202.943 65.0542 202.93 65.2427 202.902 65.3948C202.88 65.5136 202.845 65.5635 202.813 65.5182C202.799 65.497 202.785 65.4558 202.773 65.4186C202.758 65.3759 202.746 65.3379 202.735 65.3401C202.727 65.3417 202.722 65.3735 202.716 65.4119C202.706 65.4733 202.693 65.5525 202.662 65.5583C202.546 65.5802 202.41 65.569 202.278 65.5578C202.13 65.5455 201.985 65.5339 201.875 65.5686C201.751 65.6075 201.558 65.5118 201.365 65.4166C201.23 65.3502 201.095 65.2844 200.983 65.2636C200.873 65.2431 200.768 65.3187 200.668 65.3924C200.547 65.4808 200.431 65.5663 200.314 65.4774C200.29 65.4594 200.25 65.338 200.199 65.1862C200.163 65.0786 200.122 64.9556 200.078 64.8429C199.944 64.8579 199.808 64.868 199.672 64.8738C199.669 64.8912 199.666 64.9089 199.663 64.927C199.663 64.9274 199.663 64.9278 199.663 64.9282C199.598 65.3363 199.508 65.8944 199.258 65.5962C199.195 65.5204 199.143 65.3728 199.097 65.24C199.051 65.1096 199.01 64.9929 198.968 64.9723C198.92 64.9489 198.876 65.0373 198.829 65.1334C198.762 65.2683 198.688 65.4192 198.582 65.2992C198.575 65.291 198.567 65.282 198.559 65.273C198.482 65.1879 198.368 65.0619 198.238 64.7969C197.941 64.7571 197.641 64.7051 197.34 64.6454C196.839 64.546 196.333 64.4254 195.827 64.3053C195.58 64.2458 195.308 63.8971 195.067 63.3151C194.826 62.7323 194.638 61.9684 194.54 61.1665C194.442 60.3647 194.441 59.5784 194.535 58.9547C194.628 58.3319 194.809 57.9279 195.036 57.8108C195.405 57.6216 195.775 57.4323 196.147 57.2544C196.166 57.2352 196.184 57.2167 196.203 57.1991C196.34 57.0686 196.454 56.8259 196.568 56.583C196.594 56.5273 196.62 56.4714 196.647 56.4169Z" fill="black"/>
</svg>
