<svg width="216" height="50" viewBox="0 0 216 50" fill="none" xmlns="http://www.w3.org/2000/svg">
<path d="M7.84499 15.873C8.34029 16.3297 8.50767 17.4384 8.59625 18.047C8.59803 18.0581 8.59981 18.0692 8.60159 18.0803C8.62277 18.2248 8.65494 18.358 8.69286 18.514C8.78298 18.8857 8.90578 19.3892 8.9733 20.4865C9.06321 20.7871 9.14894 21.0883 9.22977 21.3902C10.1042 24.6572 10.6475 28.0067 11.0888 31.3609C11.1004 31.4017 11.1119 31.4422 11.124 31.4849C11.3562 32.3063 11.6347 33.3044 11.6603 33.9835C11.6898 34.8327 11.6682 35.4184 11.6455 35.9078C11.8953 38.044 12.1505 40.1869 12.44 42.3216C12.4692 42.6501 12.5644 43.0009 12.6244 43.147C12.6408 43.201 12.6646 43.2161 12.5466 43.1057C12.4837 43.0519 12.3765 42.9565 12.15 42.8544C11.932 42.7527 11.549 42.6682 11.192 42.7216C10.8399 42.7682 10.5784 42.9126 10.4552 42.9991C10.3263 43.0901 10.289 43.1383 10.2744 43.154C10.2512 43.1848 10.3139 43.1107 10.3738 43.0129C10.6284 42.6065 10.9329 41.9234 11.1916 41.2677C11.2869 40.8533 11.3563 40.4457 11.4203 40.0612C11.5092 39.5231 11.5822 39.044 11.6917 38.6616C11.8587 38.0778 12.1198 37.4705 12.3831 36.9131C12.5317 36.6007 12.6854 36.2931 12.8191 36.0264C12.8796 35.9049 12.9366 35.7907 12.9874 35.6873C13.1642 35.0554 13.3312 34.4345 13.501 33.7994C13.5427 33.7685 13.5857 33.7375 13.6297 33.706C14.1814 33.3046 14.4018 32.6653 14.7531 31.6429C14.9074 31.1939 15.0839 30.6802 15.3214 30.0864C15.4767 29.6975 15.6894 29.5534 15.8652 29.4293C15.9168 29.3932 15.9651 29.3591 16.0074 29.3223C16.1528 29.1947 16.113 28.9975 16.0666 28.7623C16.0067 28.4569 15.9351 28.0889 16.2368 27.7445C17.1991 26.6444 17.0498 25.9548 16.9355 25.437C16.902 25.2849 16.8721 25.1467 16.8743 25.0165C16.8819 24.5927 17.1949 24.1017 17.5093 23.7558C17.7581 23.4827 17.8511 22.7912 17.8535 22.2412C17.8551 22.0312 17.9407 21.7847 18.0439 21.489C18.1512 21.1819 18.2739 20.8323 18.3361 20.4284C18.4922 19.4114 18.5853 18.8733 18.6604 18.4407C18.6818 18.3173 18.7027 18.2014 18.7219 18.0875C18.7831 17.7266 18.887 17.2815 18.9906 16.8371C19.1158 16.302 19.243 15.7605 19.3058 15.3339C19.7659 14.3398 20.2495 13.3529 20.7358 12.3674C20.9856 11.8628 21.4858 11.4724 22.1375 11.2939C22.7899 11.1147 23.5376 11.1577 24.2314 11.4181C24.9252 11.6784 25.5166 12.1373 25.8928 12.6973C26.2687 13.2566 26.3943 13.8732 26.2572 14.413C25.9789 15.5029 25.7039 16.594 25.4095 17.6769C25.0507 18.9966 24.6626 20.3057 24.2034 21.59C23.8828 22.4864 23.5453 23.3829 23.1969 24.2715C23.1609 24.3633 23.1247 24.4548 23.0886 24.5462C22.9934 25.3623 22.8827 26.1758 22.7521 26.7251C22.6426 27.1834 22.4392 27.4688 22.2638 27.7168C22.1429 27.888 22.0363 28.0386 21.9848 28.2099C21.9571 28.302 21.9247 28.4283 21.8843 28.5843C21.7221 29.2137 21.4459 30.2863 20.9457 31.1764C20.7243 31.5698 20.4049 32.0108 20.1013 32.4276C19.6659 33.0273 19.2614 33.581 19.2065 33.9205C19.1146 34.5044 18.8029 35.1161 18.5295 35.6476C18.2667 36.1604 18.0367 36.6064 18.0584 36.9122C18.0821 37.284 17.9309 37.5272 17.6984 37.9084C17.5703 38.1149 17.4135 38.3737 17.2556 38.698C17.2177 38.7767 17.1797 38.8591 17.1419 38.9453C16.9114 39.4703 16.6681 39.8249 16.4652 40.1133C16.1739 40.5332 15.9582 40.8369 15.9146 41.4156C15.8667 42.0566 15.7296 42.7122 15.4665 43.1698C15.3486 43.3742 15.2407 43.636 15.1259 43.9013C14.9715 44.2577 14.794 44.6451 14.531 44.9809C14.3136 45.2581 14.0263 45.4521 13.7386 45.6321C13.6454 45.6926 13.5604 45.7413 13.4653 45.8041C13.211 46.0747 12.9189 46.5489 11.9303 46.8175C11.866 46.8418 11.7988 46.8641 11.7295 46.8837C11.636 46.9103 11.5376 46.9322 11.4344 46.9479C10.4717 47.1038 9.52664 46.6086 9.05716 46.1481C8.29622 45.3925 8.19161 44.7817 8.06952 44.1657C8.01537 43.8471 7.98195 43.531 7.9354 43.1981C7.92147 43.079 7.89908 42.9534 7.86423 42.82C7.79182 42.5415 7.67441 42.2559 7.55372 41.9559C7.37638 41.5194 7.19984 41.0902 7.185 40.7571C7.18011 40.6355 7.248 40.5199 7.31474 40.4013C7.31518 40.4007 7.31563 40.4002 7.31607 40.3996C7.32061 40.3916 7.325 40.3836 7.32951 40.3756C7.09898 39.6206 6.86035 38.8793 6.61296 38.1304C6.57577 38.0697 6.53865 38.008 6.50192 37.9465C6.32167 37.6425 6.14782 37.3556 5.95353 37.184C5.74209 36.994 5.52496 36.4659 5.29021 35.8932C5.13947 35.5309 4.97885 35.1387 4.81555 34.8396C4.7199 34.6637 4.76868 34.4629 4.81856 34.2547C4.86482 34.0593 4.91305 33.8625 4.84559 33.6751C4.81173 33.5811 4.74951 33.4853 4.68286 33.3826C4.62419 33.2922 4.56195 33.1963 4.51289 33.0916C4.46726 32.9939 4.46413 32.7613 4.45757 32.4565C4.45381 32.2694 4.44764 32.0506 4.43309 31.832C4.24182 31.2857 4.0503 30.7339 3.86194 30.1843C3.75377 30.0862 3.62552 30.0085 3.47368 29.9608C3.36481 29.9269 3.23952 29.906 3.11137 29.8845C2.93697 29.8551 2.75672 29.8247 2.60277 29.7594C2.48247 29.7083 2.41972 29.6283 2.44676 29.5573C2.45939 29.5242 2.491 29.4933 2.51956 29.4653C2.55228 29.4332 2.58135 29.4046 2.57425 29.3803C2.56906 29.3627 2.53732 29.351 2.49881 29.3365C2.43731 29.3133 2.35784 29.283 2.33749 29.2117C2.26216 28.9481 2.20866 28.6429 2.15511 28.3405C2.0952 28.0028 2.03764 27.6794 1.95195 27.4278C1.85599 27.1461 1.85208 26.7125 1.84663 26.2779C1.84273 25.9743 1.83771 25.6694 1.8025 25.418C1.76784 25.171 1.64662 24.9354 1.52846 24.7071C1.38693 24.4342 1.25031 24.1727 1.27507 23.912C1.28016 23.8593 1.37306 23.7707 1.48914 23.6595C1.57141 23.5807 1.66534 23.4901 1.74834 23.3933C1.66763 23.0919 1.59078 22.7888 1.51719 22.4845C1.49956 22.4779 1.48159 22.471 1.46329 22.4641C1.46288 22.4641 1.46248 22.464 1.46208 22.4639C1.04888 22.309 0.484689 22.1014 0.635937 21.549C0.674371 21.4086 0.785695 21.2961 0.885847 21.1947C0.984212 21.0951 1.07221 21.006 1.06982 20.9119C1.06704 20.805 0.962498 20.7069 0.848672 20.6C0.688834 20.45 0.510204 20.2829 0.567393 20.0489C0.571296 20.0329 0.57566 20.0157 0.579864 19.9978C0.619739 19.8285 0.678485 19.5779 0.85838 19.2937C0.741331 18.6353 0.632669 17.9738 0.528045 17.3105C0.354456 16.2075 0.190821 15.0949 0.0193139 13.9892C-0.0638587 13.4488 0.107689 12.8565 0.511828 12.3244C0.917295 11.794 1.52053 11.3744 2.21277 11.1518C2.90492 10.9295 3.64022 10.9205 4.28007 11.1284C4.91973 11.338 5.40448 11.7425 5.64533 12.2516C6.03571 13.0789 6.42074 13.9089 6.79153 14.7449C6.81942 14.7861 6.84689 14.8276 6.87341 14.8692C7.0707 15.1784 7.35919 15.4363 7.64746 15.6945C7.71363 15.7537 7.77993 15.813 7.84499 15.873Z" fill="black"/>
<path d="M44.9876 31.0168C45.3422 31.15 45.2125 31.4422 45.1411 31.6036C45.1399 31.6066 45.1388 31.6095 45.1376 31.6125C45.1207 31.6507 45.1174 31.6861 45.1139 31.728C45.1056 31.8277 45.0944 31.9622 44.8839 32.2512C44.8953 32.3322 44.9031 32.4136 44.9063 32.4952C44.9413 33.3762 44.6832 34.2759 44.3566 35.183C44.3587 35.1944 44.3608 35.206 44.3629 35.2176C44.4039 35.4424 44.4533 35.7233 44.3286 35.9036C44.2015 36.0867 44.0807 36.2235 43.9715 36.3351C43.9445 36.3633 43.9182 36.3898 43.8927 36.4152C43.6183 37.143 43.3589 37.8631 43.2348 38.5705C43.196 38.7922 43.1709 39.0128 43.163 39.2324C43.1557 39.4346 43.1591 39.6359 43.1721 39.8363C43.2434 39.9556 43.3291 40.069 43.4086 40.1742C43.5202 40.3216 43.6194 40.4523 43.6494 40.5579C43.7217 40.8122 43.5823 41.0903 43.4794 41.2968C43.4625 41.3309 43.4466 41.3623 43.4328 41.3917C43.4422 41.429 43.4517 41.4665 43.4614 41.5042C43.4953 41.6338 43.5312 41.7649 43.5679 41.8957C43.5386 41.906 43.5081 41.9163 43.4769 41.9268C43.0867 42.059 43.0868 42.2341 43.087 42.5118C43.0872 42.6331 43.0872 42.7728 43.0555 42.9374C43.0351 43.0435 42.8808 43.0944 42.7549 43.1368C42.7178 43.1492 42.6832 43.161 42.6552 43.1727C42.5592 43.2133 42.661 43.2607 42.7812 43.3167C42.9372 43.39 43.1246 43.4757 42.9515 43.5826C42.4 43.9216 42.7667 44.0833 43.044 44.2055C43.1253 44.2411 43.1988 44.2734 43.2394 44.3059C43.3709 44.4116 43.2362 44.5556 43.0529 44.6637C42.9075 44.7492 43.0472 44.9278 43.2264 45.0648C43.2941 45.1163 43.2948 45.1846 43.2951 45.2654C43.2955 45.3487 43.2955 45.4452 43.3709 45.5496C43.5613 45.8136 43.6535 45.9537 43.7273 46.066C43.7484 46.0981 43.7675 46.128 43.7875 46.158C43.8507 46.2523 43.9022 46.3693 43.9541 46.4874C44.0163 46.629 44.0795 46.7724 44.165 46.8825C44.069 47.1628 43.9512 47.4431 43.8337 47.7236C43.7728 47.8677 43.4385 48.0023 42.8892 48.0973C42.3395 48.1924 41.6238 48.2404 40.8828 48.2304C40.1418 48.2205 39.4276 48.1531 38.8806 48.0433C38.3341 47.9334 38.0031 47.7897 37.946 47.6437C37.8324 47.3498 37.7187 47.0557 37.6291 46.7616C37.5199 46.4033 37.4464 46.045 37.4518 45.6877C37.4556 45.4376 37.4772 45.1876 37.513 44.9377C37.5167 44.9119 37.5208 44.8862 37.5248 44.8604C37.3458 44.6472 37.1835 44.4335 37.127 44.2844C37.0803 44.1606 37.1793 44.0735 37.264 43.9982C37.3223 43.9465 37.3739 43.9014 37.3667 43.8538C37.3629 43.8283 37.3523 43.7934 37.3396 43.7514C37.2876 43.5799 37.1997 43.2881 37.3836 43.0269C37.4651 42.9108 37.6239 42.7775 37.7756 42.6511C37.9926 42.469 38.1951 42.3011 38.1365 42.2111C38.0336 42.0546 38.1289 41.8788 38.2136 41.7248C38.2943 41.577 38.3651 41.4483 38.2441 41.37C38.2263 41.3586 38.2117 41.3475 38.1999 41.3366C38.1152 41.2566 38.1733 41.1895 38.2548 41.0921C38.3192 41.0162 38.3978 40.9225 38.4328 40.7941C38.4732 40.6452 38.5805 40.5434 38.6717 40.4569C38.8001 40.3353 38.8966 40.2445 38.7311 40.0968C38.5472 39.933 38.4327 39.7655 38.4976 39.6401C38.5272 39.5831 38.5231 39.5163 38.5188 39.4471C38.513 39.3556 38.5071 39.2596 38.5785 39.1749C38.6373 39.1053 38.7832 39.0511 38.9123 39.0032C38.9525 38.9882 38.991 38.9739 39.0248 38.9598C39.025 38.9026 39.0242 38.8455 39.0219 38.7884C38.999 38.7784 38.9737 38.7679 38.9476 38.7569C38.8166 38.7018 38.6558 38.6345 38.577 38.5553C38.4524 38.4303 38.5358 38.3271 38.624 38.2175C38.6927 38.1325 38.7643 38.0437 38.7417 37.9394C38.7262 37.8688 38.669 37.787 38.6121 37.7069C38.5277 37.5874 38.4441 37.4708 38.4992 37.391C38.5198 37.361 38.6104 37.3359 38.7006 37.3113C38.7011 37.3112 38.7017 37.3111 38.7022 37.311C38.7083 37.3093 38.7143 37.3076 38.7204 37.3059C38.6535 37.1085 38.5785 36.9117 38.4983 36.7158C38.4751 36.6988 38.4521 36.682 38.4296 36.6651C38.3192 36.5824 38.2118 36.5023 38.0595 36.4511C38.0107 36.4347 37.9678 36.4106 37.929 36.3809C37.8367 36.3116 37.7672 36.2095 37.6948 36.1048C37.6275 36.0065 37.5577 35.9057 37.465 35.8238C37.4108 35.7762 37.5031 35.7281 37.5981 35.6783C37.6869 35.6324 37.7779 35.5847 37.7542 35.5346C37.7423 35.5094 37.7032 35.4831 37.6613 35.4551C37.6245 35.4303 37.5855 35.4041 37.5613 35.3763C37.5389 35.3503 37.5883 35.2907 37.651 35.2139C37.6898 35.1664 37.7335 35.112 37.7691 35.0557C37.7074 34.9095 37.6478 34.7635 37.5918 34.6176C37.5093 34.5891 37.4026 34.5653 37.2661 34.5482C37.1681 34.536 37.0511 34.5267 36.9315 34.5171C36.7688 34.504 36.6006 34.4905 36.4662 34.469C36.3612 34.4521 36.3188 34.4298 36.3617 34.4125C36.3817 34.4045 36.4196 34.3976 36.4539 34.3914C36.4932 34.3842 36.5282 34.3778 36.527 34.3714C36.526 34.3668 36.4979 34.3629 36.4639 34.3581C36.4095 34.3503 36.3394 34.3402 36.3363 34.3216C36.3249 34.2523 36.3446 34.1717 36.3641 34.0933C36.3857 34.0057 36.4066 33.9201 36.3834 33.8532C36.3574 33.7778 36.4574 33.6667 36.5568 33.5538C36.6263 33.4757 36.6953 33.3968 36.7223 33.3303C36.7488 33.2655 36.6888 33.201 36.6303 33.1384C36.5601 33.0636 36.4923 32.9916 36.5807 32.9244C36.5987 32.9108 36.7106 32.8905 36.8505 32.865C36.9497 32.8468 37.0631 32.826 37.1675 32.8032C37.1643 32.7221 37.1656 32.6409 37.1709 32.5595C37.1555 32.5572 37.1398 32.5549 37.1239 32.5526C37.1235 32.5526 37.1231 32.5525 37.1228 32.5525C36.7621 32.5002 36.2688 32.4299 36.5555 32.2895C36.6284 32.2537 36.7647 32.2276 36.8873 32.204C37.0078 32.1807 37.1156 32.16 37.1374 32.1352C37.1621 32.1071 37.0863 32.0783 37.0039 32.0469C36.8882 32.0029 36.7589 31.954 36.8748 31.8941C36.8827 31.89 36.8914 31.8856 36.9 31.8811C36.9824 31.8377 37.1043 31.7736 37.3521 31.7043C37.4114 31.5274 37.4821 31.3502 37.5598 31.1722C37.6894 30.8755 37.8386 30.5772 37.9878 30.2785C38.0612 30.1331 38.3959 29.9816 38.937 29.8565C39.4789 29.7314 40.1786 29.6431 40.9049 29.6102C41.6312 29.5773 42.3356 29.6019 42.8865 29.6776C43.4367 29.7533 43.7837 29.8742 43.87 30.0129C44.0092 30.239 44.1486 30.4657 44.2777 30.6931C44.2933 30.7046 44.3085 30.7162 44.3227 30.7278C44.4285 30.8139 44.6367 30.8893 44.8451 30.9647C44.893 30.982 44.9409 30.9993 44.9876 31.0168Z" fill="black"/>
<path d="M40.9059 12.0696C40.8196 11.7317 40.8864 11.8603 40.9231 11.9309C40.9237 11.932 40.9244 11.9332 40.925 11.9343C40.9337 11.951 40.9383 11.9547 40.9436 11.9586C40.9561 11.9679 40.9731 11.9805 41.062 12.1858C41.067 12.1757 41.0731 12.1693 41.0805 12.1671C41.1601 12.1433 41.3226 12.3971 41.5015 12.7058C41.502 12.7038 41.5025 12.7017 41.503 12.6996C41.5127 12.6592 41.5247 12.6092 41.5767 12.7263C41.6427 12.8753 41.6991 13.015 41.7472 13.1358C41.8903 13.3844 42.0249 13.6045 42.1176 13.6844C42.1467 13.7095 42.1716 13.7205 42.1914 13.7146C42.2096 13.7091 42.2247 13.6931 42.237 13.6677C42.2259 13.5918 42.2103 13.5025 42.1957 13.4197C42.1753 13.3034 42.1572 13.2001 42.1572 13.1646C42.1571 13.0792 42.2205 13.1951 42.2677 13.2813C42.2754 13.2954 42.2826 13.3087 42.2891 13.3202C42.2911 13.2699 42.2922 13.2165 42.2929 13.162C42.3022 13.1894 42.3119 13.218 42.3218 13.2473C42.4457 13.6134 42.4606 13.6038 42.4843 13.5892C42.4947 13.5829 42.5067 13.5757 42.53 13.5979C42.545 13.6122 42.5939 13.7574 42.6338 13.8759C42.6456 13.9108 42.6566 13.9434 42.6657 13.9696C42.6968 14.0596 42.6716 13.9598 42.6418 13.842C42.6031 13.6892 42.5566 13.5056 42.6157 13.6664C42.8039 14.1785 42.7124 13.8202 42.6432 13.5492C42.6229 13.4697 42.6046 13.3979 42.5957 13.3576C42.5671 13.2269 42.6185 13.3495 42.6806 13.5203C42.7299 13.6557 42.7054 13.5142 42.6658 13.3367C42.6508 13.2695 42.6566 13.266 42.6635 13.2622C42.6707 13.2583 42.6792 13.2542 42.6667 13.1776C42.635 12.984 42.6208 12.8899 42.6095 12.8145C42.6063 12.7931 42.6034 12.7735 42.6003 12.7531C42.5904 12.6887 42.5859 12.6345 42.5813 12.5799C42.5759 12.5145 42.5703 12.4481 42.5554 12.3617C42.6077 12.4422 42.6662 12.5437 42.7246 12.6449C42.7548 12.6974 42.8627 13.0121 43.029 13.5343C43.1953 14.057 43.4053 14.7405 43.6174 15.4506C43.8294 16.1606 44.0288 16.8473 44.1764 17.3756C44.3238 17.9034 44.4063 18.2262 44.4099 18.2868C44.4168 18.4075 44.4237 18.5283 44.4237 18.6261C44.4237 18.7452 44.4136 18.8303 44.3809 18.8401C44.3581 18.8469 44.3302 18.8368 44.2983 18.8132C44.295 18.8107 44.2916 18.808 44.2882 18.8053C44.3213 18.9858 44.3496 19.1506 44.353 19.2113C44.3559 19.2614 44.3199 19.1705 44.2891 19.0928C44.2679 19.0393 44.2491 18.992 44.2472 19.001C44.2461 19.0058 44.2462 19.0176 44.2463 19.0316C44.2466 19.0892 44.2471 19.1868 44.1722 19.0234C44.1389 18.9509 44.082 18.8053 44.0276 18.6664C43.9499 18.4677 43.8774 18.2825 43.8869 18.3432C43.9036 18.4499 43.8617 18.3679 43.8246 18.2953C43.7892 18.2261 43.7583 18.1657 43.7869 18.2859C43.8212 18.4297 43.7971 18.3741 43.7615 18.2918C43.7367 18.2348 43.7065 18.1651 43.6861 18.1395C43.6625 18.11 43.6233 18.0138 43.5899 17.932C43.543 17.8169 43.5078 17.7304 43.5439 17.8982C43.584 18.0846 43.6037 18.205 43.5747 18.151C43.5615 18.1264 43.5573 18.1346 43.5529 18.1432C43.5471 18.1545 43.5409 18.1664 43.5133 18.1034C43.4905 18.0515 43.4438 17.9153 43.4024 17.7948C43.3896 17.7572 43.3772 17.7213 43.3663 17.6898C43.3615 17.6932 43.3569 17.6973 43.3528 17.703C43.3586 17.7254 43.365 17.7503 43.3716 17.7759C43.4049 17.9046 43.4457 18.0624 43.4617 18.1423C43.487 18.2688 43.4539 18.1947 43.4189 18.1161C43.3916 18.0549 43.3632 17.991 43.3605 18.0178C43.3586 18.036 43.3678 18.0946 43.3769 18.1527C43.3904 18.239 43.4037 18.3239 43.3805 18.2743C43.3718 18.2558 43.3435 18.17 43.3153 18.0846C43.3151 18.084 43.3149 18.0835 43.3148 18.083C43.3129 18.0772 43.311 18.0715 43.3091 18.0658C43.31 18.1374 43.3129 18.2157 43.317 18.2979C43.322 18.3206 43.3269 18.3431 43.3318 18.3652C43.3553 18.4731 43.3782 18.578 43.4167 18.7251C43.4583 18.8845 43.472 18.9804 43.4864 19.0815C43.4958 19.1477 43.5055 19.216 43.5237 19.306C43.5343 19.3585 43.5032 19.2707 43.4712 19.18C43.4413 19.0955 43.4106 19.0087 43.4123 19.0319C43.4132 19.0436 43.4216 19.0813 43.4306 19.1216C43.4386 19.1571 43.447 19.1948 43.4511 19.2181C43.4548 19.2398 43.4347 19.1929 43.4091 19.1332C43.3933 19.0963 43.3754 19.0547 43.3595 19.0208C43.3622 19.0805 43.3642 19.138 43.3651 19.1917C43.3855 19.2707 43.4133 19.373 43.4503 19.5039C43.4768 19.5978 43.5089 19.7099 43.5418 19.8246C43.5865 19.9805 43.6328 20.1417 43.6686 20.2706C43.6966 20.3712 43.7063 20.4118 43.6924 20.3707C43.6859 20.3515 43.6744 20.3151 43.6641 20.2822C43.6522 20.2446 43.6417 20.211 43.6413 20.2122C43.6411 20.2131 43.6487 20.24 43.6578 20.2726C43.6724 20.3247 43.6912 20.3919 43.6901 20.3948C43.6861 20.4057 43.6722 20.3865 43.6586 20.3676C43.6434 20.3465 43.6285 20.3261 43.6281 20.348C43.6277 20.3725 43.5878 20.2761 43.5479 20.1799C43.5202 20.1128 43.4925 20.0461 43.4779 20.0196C43.4636 19.9937 43.4739 20.0507 43.4839 20.1062C43.4959 20.1728 43.5075 20.2371 43.4755 20.1517C43.469 20.1343 43.4353 20.0269 43.3931 19.8925C43.3632 19.7972 43.329 19.6883 43.2972 19.588C43.2897 19.5903 43.2808 19.5881 43.2708 19.5822C43.2749 19.5969 43.2791 19.6118 43.2833 19.6271C43.2834 19.6275 43.2835 19.6278 43.2836 19.6282C43.38 19.9733 43.5117 20.4453 43.4162 20.1688C43.3919 20.0985 43.3507 19.9676 43.3136 19.8497C43.2772 19.734 43.2446 19.6304 43.2359 19.6092C43.226 19.5852 43.2444 19.6574 43.2643 19.736C43.2923 19.8464 43.3237 19.9696 43.2847 19.8578C43.2821 19.8501 43.2791 19.8418 43.2762 19.8334C43.2484 19.7538 43.2074 19.6362 43.1302 19.3977C43.095 19.3384 43.0565 19.2682 43.016 19.191C42.9484 19.0625 42.875 18.9148 42.8018 18.7671C42.7658 18.6944 42.6557 18.3712 42.4901 17.8506C42.3244 17.3293 42.118 16.6573 41.9099 15.9606C41.7018 15.264 41.5059 14.5893 41.3586 14.0625C41.2115 13.5364 41.1263 13.2057 41.1165 13.1252C41.1009 12.9954 41.0852 12.8654 41.0724 12.7451C41.0692 12.7303 41.0662 12.716 41.0633 12.7025C41.0425 12.6024 40.9916 12.404 40.9407 12.2054C40.9289 12.1598 40.9172 12.1141 40.9059 12.0696Z" fill="black"/>
<path d="M47.9321 12.2416C48.274 12.1689 48.1532 12.2617 48.0869 12.3127C48.0858 12.3136 48.0848 12.3145 48.0837 12.3154C48.068 12.3275 48.0653 12.3353 48.0625 12.3443C48.0559 12.3659 48.0469 12.395 47.8492 12.5092C47.8615 12.5216 47.8701 12.5351 47.8745 12.5498C47.9221 12.709 47.692 12.9511 47.4071 13.2096C47.4095 13.2111 47.4118 13.2127 47.4142 13.2142C47.4606 13.2438 47.518 13.2806 47.4055 13.3481C47.2624 13.4339 47.1267 13.5037 47.0093 13.5628C46.7796 13.7692 46.5783 13.967 46.5173 14.123C46.4982 14.1719 46.4931 14.2166 46.5049 14.2562C46.5158 14.2927 46.5373 14.326 46.5681 14.3566C46.6471 14.3561 46.7395 14.3505 46.8251 14.3454C46.9453 14.3381 47.0521 14.3318 47.0905 14.3414C47.1829 14.3646 47.0748 14.4545 46.9946 14.5213C46.9815 14.5322 46.969 14.5425 46.9584 14.5518C47.0133 14.5694 47.0714 14.5861 47.1306 14.6024C47.1035 14.6128 47.0752 14.6235 47.0462 14.6345C46.6841 14.7717 46.6986 14.803 46.7209 14.8525C46.7305 14.874 46.7416 14.8991 46.7239 14.9377C46.7126 14.9626 46.5689 15.0166 46.4516 15.0606C46.4172 15.0736 46.3849 15.0857 46.359 15.0959C46.2702 15.1311 46.3712 15.11 46.4905 15.0851C46.6453 15.0529 46.8311 15.0141 46.6734 15.0833C46.1709 15.3038 46.5334 15.2266 46.8077 15.1682C46.8881 15.151 46.9608 15.1356 47.002 15.1297C47.1355 15.1105 47.017 15.1755 46.8493 15.2479C46.7163 15.3053 46.8626 15.297 47.0438 15.2697C47.1123 15.2594 47.1178 15.2715 47.1238 15.2859C47.13 15.3008 47.1368 15.3181 47.2162 15.3151C47.4169 15.3075 47.5149 15.3061 47.5933 15.305C47.6156 15.3047 47.636 15.3045 47.6572 15.3041C47.7242 15.3029 47.7816 15.309 47.8394 15.3153C47.9087 15.3228 47.979 15.3304 48.0684 15.3255C47.9956 15.4036 47.9019 15.488 47.8085 15.5724C47.7598 15.6159 47.449 15.7365 46.9296 15.9122C46.4098 16.0879 45.7278 16.3031 45.0177 16.5152C44.3077 16.7273 43.6194 16.9214 43.0883 17.0595C42.5576 17.1975 42.231 17.2673 42.1665 17.2576C42.0378 17.2376 41.909 17.2177 41.8032 17.1909C41.6743 17.1583 41.5795 17.1155 41.5599 17.0502C41.5463 17.0046 41.5496 16.9538 41.5664 16.8991C41.5681 16.8934 41.5702 16.8877 41.5722 16.882C41.3859 16.8958 41.2154 16.905 41.1507 16.895C41.0972 16.8867 41.1857 16.8425 41.2613 16.8048C41.3134 16.7788 41.3595 16.7558 41.3492 16.7496C41.3436 16.7462 41.331 16.7431 41.3158 16.7394C41.2536 16.7243 41.1481 16.6985 41.3044 16.5996C41.3737 16.5557 41.5156 16.4864 41.651 16.4202C41.8446 16.3256 42.0251 16.2374 41.962 16.239C41.8512 16.2417 41.9284 16.1838 41.9967 16.1325C42.0619 16.0837 42.1189 16.041 41.9966 16.0629C41.8504 16.0891 41.9039 16.0582 41.9832 16.0124C42.0382 15.9806 42.1053 15.9418 42.1274 15.9096C42.1528 15.8724 42.2461 15.8236 42.3255 15.7821C42.4372 15.7237 42.5211 15.6798 42.3495 15.703C42.1587 15.7288 42.0339 15.7335 42.0844 15.6928C42.1074 15.6742 42.0974 15.6639 42.0869 15.6531C42.073 15.6388 42.0585 15.6238 42.119 15.588C42.1689 15.5586 42.3034 15.5063 42.4225 15.4601C42.4597 15.4457 42.4951 15.4319 42.5262 15.4195C42.5213 15.4094 42.5155 15.3995 42.5082 15.3901C42.4855 15.395 42.4604 15.4005 42.4345 15.4062C42.3044 15.4347 42.1449 15.4696 42.0628 15.4784C41.9329 15.4923 42.0039 15.4492 42.0794 15.4035C42.1382 15.368 42.1995 15.331 42.1698 15.3184C42.1495 15.3099 42.0886 15.3114 42.0283 15.313C41.9387 15.3152 41.8504 15.3174 41.8977 15.2865C41.9154 15.2749 42.0005 15.2441 42.0851 15.2134C42.0856 15.2133 42.0862 15.2131 42.0867 15.2129C42.0924 15.2108 42.098 15.2088 42.1037 15.2067C42.0266 15.1888 41.9426 15.173 41.8548 15.1583C41.8316 15.1616 41.8086 15.1649 41.7861 15.1681C41.6757 15.1837 41.5686 15.1988 41.42 15.2322C41.2589 15.2684 41.1589 15.2683 41.0535 15.2682C40.9844 15.2682 40.9132 15.2681 40.8208 15.2782C40.7669 15.2841 40.8534 15.2486 40.9427 15.212C41.0259 15.1778 41.1114 15.1428 41.0867 15.1397C41.0744 15.1382 41.0359 15.144 40.9947 15.1503C40.9585 15.1558 40.9201 15.1617 40.8959 15.163C40.8735 15.1643 40.9188 15.1386 40.9763 15.1059C41.0119 15.0856 41.052 15.0627 41.0844 15.0416C41.0205 15.0303 40.9589 15.0184 40.901 15.0053C40.8211 15.0229 40.718 15.0482 40.5865 15.0831C40.4922 15.1082 40.3797 15.1391 40.2647 15.1707C40.1082 15.2138 39.9465 15.2582 39.817 15.2916C39.7157 15.3177 39.6745 15.3252 39.7152 15.3098C39.7341 15.3026 39.7703 15.2906 39.8031 15.2797C39.8406 15.2673 39.8739 15.2563 39.8726 15.2553C39.8716 15.2547 39.8445 15.2618 39.8117 15.2703C39.7594 15.284 39.6918 15.3017 39.6884 15.2988C39.6756 15.2882 39.6925 15.2668 39.7092 15.2458C39.7278 15.2224 39.7458 15.1996 39.7221 15.1928C39.6954 15.1852 39.7888 15.1351 39.882 15.0851C39.9469 15.0502 40.0115 15.0153 40.0361 14.9947C40.0602 14.9744 40.0015 14.9784 39.9442 14.9824C39.8754 14.9871 39.8089 14.9918 39.8926 14.9539C39.9097 14.9462 40.0166 14.911 40.1505 14.8669C40.2453 14.8357 40.3538 14.8 40.4535 14.7664C40.449 14.7513 40.449 14.7349 40.4527 14.7174C40.4379 14.7212 40.4228 14.7251 40.4074 14.7291C40.4071 14.7292 40.4067 14.7293 40.4064 14.7294C40.0594 14.8196 39.5848 14.9428 39.8578 14.8354C39.9272 14.808 40.0576 14.7649 40.1749 14.7262C40.2902 14.6881 40.3933 14.654 40.4138 14.643C40.4371 14.6306 40.364 14.646 40.2844 14.6628C40.1727 14.6863 40.0479 14.7125 40.1583 14.6685C40.1658 14.6655 40.1741 14.6622 40.1824 14.6589C40.2608 14.6275 40.3768 14.5809 40.6137 14.4984C40.6682 14.4471 40.7336 14.3925 40.8059 14.3359C40.9265 14.2415 41.0662 14.1413 41.2058 14.0413C41.2746 13.9923 41.5941 13.8696 42.112 13.6949C42.6305 13.5199 43.301 13.3083 43.9977 13.1002C44.6943 12.8922 45.3705 12.7015 45.9001 12.5634C46.429 12.4255 46.7634 12.3529 46.8478 12.3561C46.9839 12.3617 47.1203 12.3673 47.2469 12.3758C47.2621 12.3737 47.2767 12.3718 47.2905 12.3701C47.3931 12.3575 47.5938 12.3143 47.7947 12.271C47.8409 12.2611 47.8871 12.2512 47.9321 12.2416Z" fill="black"/>
<path d="M77.978 13.5247C77.7544 14.0471 76.9397 14.3461 76.4932 14.5161C76.4851 14.5194 76.4769 14.5226 76.4687 14.5259C76.3622 14.5664 76.2682 14.6157 76.159 14.6736C75.9001 14.8116 75.547 14.9974 74.7213 15.2408C74.522 15.3722 74.3146 15.5056 74.1129 15.6315C71.9256 17.0042 69.619 18.2375 67.7573 19.5437C67.7385 19.5645 67.7195 19.5856 67.7007 19.6068C67.3269 20.0194 66.9697 20.5061 66.7147 20.6582C66.6337 20.7049 66.5594 20.749 66.4987 20.7769C66.296 20.8882 66.1509 20.9541 66.025 21.016C65.7822 21.3226 65.624 21.5875 65.7493 22.2078C65.8739 22.8073 66.3131 23.5746 66.9105 24.2944C67.2856 24.7498 67.7222 25.1977 68.1986 25.6377C68.6378 26.0436 69.1081 26.4447 69.6056 26.8672C69.9396 27.0678 70.2715 27.2511 70.5997 27.4536C71.0552 27.7332 71.4829 28.0283 71.8364 28.4178C72.1575 28.7916 72.5308 29.2322 72.8275 30.1855C73.0624 31.0329 73.0598 31.8869 72.9791 32.5238C72.9583 32.6951 72.9327 32.855 72.9066 32.998C72.8791 33.8115 72.7403 34.5615 72.5555 35.2539C72.5125 35.2896 72.4683 35.324 72.4229 35.3586C71.8561 35.7859 71.5977 36.4109 71.1128 37.3075C70.9021 37.6955 70.6486 38.1293 70.3162 38.5973C70.1018 38.8985 69.8705 38.9679 69.683 39.024C69.6278 39.0404 69.5762 39.0557 69.5297 39.0749C69.3707 39.1409 69.3716 39.3224 69.3711 39.5374C69.371 39.8154 69.3679 40.1512 69.0227 40.3441C68.6749 40.5381 68.4399 40.7293 68.284 40.9136C68.262 40.9576 68.1584 41.0628 68.1311 41.1038C67.7075 41.5004 67.6315 41.9036 67.56 42.242C67.529 42.3871 67.4997 42.518 67.4435 42.6279C67.2629 42.984 66.7671 43.2483 66.3402 43.3642C66.0034 43.4584 65.592 43.9613 65.2896 44.3928C65.176 44.5566 64.9674 44.7018 64.7167 44.8653C64.4571 45.0347 64.1534 45.2225 63.8563 45.4789C63.1015 46.1248 62.6552 46.422 62.3023 46.6619C62.201 46.7297 62.1057 46.7916 62.0104 46.8535C61.8255 46.9735 61.6074 47.0985 61.3734 47.2223C61.3501 47.2353 61.2714 47.2544 61.2476 47.2665C61.1053 47.3356 60.9581 47.4043 60.8111 47.4718C60.3548 47.681 59.9086 47.8758 59.5851 48.0569C58.6629 48.2189 57.7759 48.3372 56.8873 48.461C56.4293 48.5241 55.9228 48.3178 55.4657 47.8749C55.0074 47.4319 54.6449 46.7901 54.4467 46.076C54.2516 45.3611 54.2351 44.6239 54.4066 44.0083C54.5769 43.3935 54.9143 42.9564 55.3453 42.7783C56.2086 42.4216 57.0787 42.0681 57.9079 41.7381C58.3787 41.5502 58.8278 41.3706 59.2532 41.1955L59.1312 41.2384C59.5771 41.0306 60.0092 40.8173 60.4363 40.601C60.9968 40.3172 61.5402 40.0092 62.0728 39.6684C62.1276 39.6334 62.1826 39.598 62.2371 39.5623C62.5582 39.1003 62.8479 38.6341 63.0805 38.3397C63.2727 38.0968 63.4997 38.0091 63.6974 37.9277C63.8327 37.8721 63.9532 37.8199 64.0314 37.725C64.0731 37.6744 64.125 37.6024 64.1877 37.5138L63.9294 37.8352C63.9301 37.8339 63.9308 37.8327 63.9315 37.8314C64.201 37.3536 64.6396 36.5809 65.2048 36.056C65.457 35.8215 65.7944 35.5878 66.106 35.3624C66.5524 35.0415 66.9438 34.7315 66.9897 34.5041C67.0723 34.1056 67.3207 33.7627 67.5068 33.462C67.6854 33.1772 67.8063 32.9318 67.7075 32.7773C67.5888 32.5942 67.6617 32.4901 67.754 32.3216C67.8166 32.2067 67.887 32.0617 67.8814 31.8817C67.8792 31.8193 67.8814 31.7623 67.8858 31.7062C67.9879 31.8484 68.0225 31.7246 68.0248 31.6292C68.0204 31.4074 67.9203 31.148 67.5425 31.0082C67.1165 30.8466 66.6803 30.6112 66.4281 30.3017C66.3149 30.1623 66.1541 30.0268 65.986 29.8852C65.7633 29.6976 65.5239 29.4954 65.3537 29.2479C65.2156 29.0459 65.165 28.8034 65.1225 28.5893C65.1093 28.5227 65.0966 28.4587 65.082 28.3992C64.9401 28.2679 64.7969 28.1346 64.6536 28.0005C64.6147 27.9948 64.5728 27.9896 64.5292 27.9838C64.3105 27.9547 64.0394 27.9145 63.788 27.7701C63.3896 27.5405 63.1784 27.1872 62.9712 26.8067C62.8077 26.507 62.6469 26.1926 62.3883 25.8704C62.2119 25.6504 61.983 25.4102 61.7614 25.1452C61.4335 24.7581 61.1288 24.3076 61.0431 23.9288C61.0108 23.7883 61.0552 23.6423 61.103 23.5C61.1034 23.4993 61.1037 23.4986 61.1041 23.4979C61.1073 23.4882 61.1104 23.4785 61.1137 23.4689C60.7623 22.6207 60.5536 21.6018 60.6118 20.5751C60.6002 20.4849 60.591 20.3928 60.584 20.3006C60.5503 19.8441 60.5654 19.4165 60.5166 19.0964C60.4594 18.7846 60.6273 18.1055 60.9202 17.4419C60.9404 17.3949 60.9611 17.3479 60.9823 17.3008C61.1958 16.8322 61.417 16.4253 61.5837 16.073C61.6789 15.8702 61.8801 15.7771 62.087 15.6876C62.2747 15.6102 62.4719 15.5306 62.5927 15.37C62.6525 15.2903 62.6992 15.1861 62.7511 15.0744C62.7975 14.9753 62.8449 14.8733 62.9062 14.7798C62.9619 14.6941 63.1678 14.5635 63.4161 14.4204C63.572 14.3295 63.7519 14.2263 63.9279 14.1194C64.2997 13.7112 64.668 13.3311 65.0523 12.9574C65.0862 12.8258 65.0952 12.6836 65.0709 12.5296C65.0535 12.4191 65.0184 12.2984 64.9832 12.1746C64.9351 12.0064 64.8877 11.8308 64.8785 11.6689C64.872 11.542 64.9152 11.4564 64.9875 11.4557C65.0213 11.4554 65.0609 11.4732 65.0967 11.4892C65.1378 11.5076 65.1743 11.5239 65.1924 11.509C65.2054 11.4981 65.2026 11.4651 65.1995 11.425C65.1946 11.361 65.1887 11.2779 65.2425 11.2343C65.4366 11.0769 65.6845 10.9216 65.922 10.7767C66.1849 10.6164 66.4494 10.4581 66.6302 10.3061C66.8373 10.1324 67.2074 10.0031 67.5803 9.87656C67.8406 9.78802 68.0948 9.70535 68.3011 9.60494C68.5021 9.50727 68.6583 9.33706 68.8157 9.16895C69.0058 8.96647 69.1808 8.7782 69.4144 8.73855C69.4615 8.73075 69.5677 8.79689 69.7006 8.87977C69.7952 8.93826 69.9012 9.00654 70.0099 9.06268C70.2384 8.91993 70.4782 8.77728 70.7113 8.64491C70.7115 8.62691 70.7118 8.60853 70.7119 8.58984C70.7119 8.58945 70.7118 8.58906 70.7117 8.58866C70.7133 8.16803 70.7288 7.58529 71.246 7.61736C71.378 7.62522 71.5074 7.70803 71.6238 7.78266C71.7381 7.856 71.8406 7.92149 71.9204 7.90092C72.0102 7.87796 72.0633 7.76037 72.1221 7.6321C72.2043 7.45219 72.2993 7.24984 72.5164 7.261C72.5312 7.26182 72.5471 7.26285 72.5635 7.26363C72.719 7.27101 72.9497 7.28188 73.2425 7.40326C73.7738 7.17693 74.3106 6.96605 74.8518 6.76567C75.7527 6.4324 76.6648 6.12899 77.5779 5.83618C78.0196 5.69604 78.5709 5.79641 79.104 6.13773C79.6394 6.47871 80.1178 7.02488 80.4456 7.67383C80.7735 8.32275 80.9302 9.03045 80.9001 9.65971C80.8711 10.2876 80.6493 10.7851 80.2996 11.0576C79.722 11.5041 79.156 11.9513 78.5858 12.3969C78.5603 12.428 78.5345 12.4587 78.5084 12.4885C78.3161 12.7095 78.1866 13.0143 78.0634 13.3169C78.035 13.3865 78.0068 13.4562 77.978 13.5247Z" fill="black"/>
<path d="M91.0491 22.5954C91.4382 23.056 91.3865 24.0115 91.3641 24.5379C91.3638 24.5476 91.3636 24.5572 91.3633 24.5669C91.3578 24.692 91.3655 24.8089 91.375 24.9456C91.3984 25.2713 91.4279 25.7113 91.3211 26.6528C91.3625 26.9172 91.4013 27.1835 91.4366 27.448C91.8197 30.3115 92.0359 33.1814 92.3895 36.0281C92.3999 36.0625 92.4106 36.0974 92.4214 36.1326C92.6299 36.8171 92.9063 37.6513 92.9406 38.2132C92.9844 38.9324 92.987 39.4276 92.9873 39.8413C93.0532 40.1742 93.1247 40.5091 93.1995 40.8376C93.1223 40.7937 93.0758 40.8717 93.1682 41.0238C93.2555 41.1738 93.4604 41.3702 93.7276 41.5447C94.267 41.9003 95.0365 42.1778 95.8156 42.3094C96.3918 42.4079 96.9891 42.4311 97.5055 42.3671C97.8955 42.3245 98.2701 42.196 98.3305 42.1366L97.8411 42.4948C97.9025 42.4324 97.9626 42.3695 98.0215 42.306C98.1964 42.0232 98.3341 41.7349 98.449 41.4654C98.6092 41.088 98.7262 40.7468 98.8569 40.4899C99.1723 39.8768 99.6534 39.2298 99.9886 38.6909C100.043 38.6038 100.095 38.5203 100.141 38.4419C100.286 37.9612 100.408 37.463 100.511 36.9534C100.548 36.9289 100.588 36.9042 100.628 36.879C101.126 36.5635 101.278 36.0138 101.47 35.1257C101.554 34.737 101.645 34.2837 101.775 33.7433C101.859 33.3962 102.041 33.2392 102.191 33.1114C102.235 33.0738 102.276 33.0383 102.311 33.0011C102.429 32.8735 102.354 32.7029 102.265 32.503C102.149 32.2432 102.008 31.9324 102.237 31.5851C102.965 30.4736 102.683 29.874 102.473 29.4223C102.411 29.2895 102.356 29.1687 102.334 29.0502C102.261 28.6664 102.479 28.1662 102.728 27.8028C102.924 27.515 102.9 26.8622 102.821 26.3423C102.795 26.1681 102.831 25.953 102.883 25.7024L102.862 25.8087C102.867 25.7797 102.872 25.7503 102.877 25.7204C102.923 25.45 102.973 25.1367 102.948 24.7895C102.883 23.9131 102.842 23.4455 102.812 23.0664C102.803 22.9574 102.795 22.8583 102.787 22.7564C102.758 22.4374 102.749 22.0411 102.738 21.6354C102.725 21.1492 102.71 20.6526 102.662 20.267C102.853 19.3028 103.068 18.328 103.288 17.3551C103.402 16.8571 103.786 16.4081 104.371 16.112C104.956 15.8198 105.69 15.6989 106.426 15.7834C107.162 15.8683 107.849 16.1522 108.355 16.5626C108.859 16.9771 109.137 17.4893 109.142 17.9904C109.15 19.0035 109.165 20.0148 109.154 21.0354C109.141 22.2761 109.093 23.5431 108.917 24.8429C108.828 25.4995 108.716 26.1603 108.584 26.8153C108.576 26.8403 108.567 26.9193 108.558 26.9439C108.505 27.1571 108.452 27.3728 108.399 27.5898C108.38 27.6704 108.36 27.7513 108.341 27.8325C108.389 28.535 108.436 29.2444 108.414 29.7415C108.395 30.1517 108.252 30.4338 108.129 30.6772C108.044 30.8447 107.969 30.9936 107.952 31.1545C107.943 31.2408 107.936 31.3598 107.927 31.5038C107.89 32.0905 107.827 33.1067 107.487 34.0144C107.336 34.4162 107.094 34.8752 106.855 35.3118C106.513 35.9386 106.177 36.5161 106.158 36.8475C106.127 37.4284 105.864 38.0522 105.61 38.5952C105.369 39.1143 105.137 39.5608 105.15 39.8739C105.166 40.2478 104.999 40.5056 104.74 40.8743C104.559 41.1309 104.335 41.4411 104.07 41.884C103.762 42.3955 103.453 42.7064 103.188 42.9612C102.811 43.3197 102.527 43.5677 102.314 44.1211C102.079 44.7337 101.707 45.3259 101.291 45.6534C101.211 45.7164 101.13 45.7873 101.048 45.863C100.949 45.9342 100.685 46.1686 100.571 46.2121C100.362 46.3237 100.143 46.4282 99.9342 46.5143C99.4548 46.7115 98.9865 46.8343 98.5643 46.8411C98.2185 46.8456 97.9338 46.7327 97.6953 46.6264C97.6211 46.5931 97.5505 46.5606 97.4828 46.5319C97.2392 46.5505 96.997 46.5613 96.7585 46.5662C96.7197 46.5895 96.6787 46.615 96.6354 46.6411C96.4214 46.7722 96.1479 46.9277 95.8096 46.9844C95.2743 47.0732 94.8181 46.9304 94.357 46.757C93.9969 46.6209 93.6316 46.4663 93.1865 46.3607C92.8818 46.2882 92.5234 46.2291 92.1566 46.1428C91.616 46.0189 91.0562 45.8216 90.7301 45.5506C90.6063 45.4489 90.5426 45.297 90.4864 45.147C90.4863 45.1462 90.4861 45.1454 90.4859 45.1446C90.4822 45.1345 90.478 45.1242 90.474 45.1139C89.6574 44.6079 88.7655 43.8218 88.2484 42.6107C88.2312 42.5749 88.2139 42.5392 88.1967 42.5033C88.1532 42.4501 88.1097 42.3959 88.0669 42.3419C87.8573 42.0772 87.6574 41.8189 87.4495 41.6743C87.2235 41.5166 86.9608 41.0202 86.696 40.4929C86.5217 40.1457 86.3469 39.7889 86.1712 39.5023C86.0687 39.3353 86.1111 39.1397 86.1555 38.9376C86.197 38.7491 86.2406 38.5566 86.1703 38.3788C86.135 38.2895 86.0717 38.1995 86.0042 38.1029C85.9448 38.0179 85.8819 37.9272 85.833 37.8297C85.7875 37.7386 85.7825 37.5113 85.7778 37.219C85.775 37.0389 85.7727 36.836 85.7611 36.624C85.5788 36.1 85.4053 35.5748 85.2412 35.0465C85.1376 34.9505 85.0136 34.8746 84.8645 34.8249C84.7575 34.7892 84.6335 34.7653 84.5067 34.7404C84.3342 34.7066 84.1558 34.671 84.0055 34.602C83.8881 34.5481 83.8296 34.4679 83.8604 34.4001C83.8747 34.3686 83.9079 34.34 83.938 34.3142C83.9724 34.2847 84.003 34.2584 83.9974 34.2348C83.9932 34.2178 83.9622 34.2053 83.9247 34.1898C83.8647 34.1651 83.7873 34.1327 83.7713 34.0634C83.7118 33.8056 83.6776 33.5049 83.6463 33.2127C83.6113 32.8864 83.5792 32.5684 83.5154 32.322C83.4436 32.0447 83.4788 31.6294 83.5167 31.2129C83.5431 30.9227 83.5709 30.6343 83.5636 30.3904C83.5564 30.1516 83.4636 29.918 83.3739 29.6894C83.2661 29.4145 83.1637 29.1524 83.2221 28.9077C83.234 28.8583 83.3376 28.7848 83.4673 28.693C83.5593 28.6278 83.6644 28.5534 83.7597 28.4723C83.7207 28.18 83.6873 27.8848 83.6592 27.5913C83.6428 27.5829 83.626 27.5742 83.6089 27.5655C83.6086 27.5654 83.6082 27.5653 83.6078 27.5651C83.2225 27.3699 82.6949 27.094 82.9317 26.5956C82.9919 26.4688 83.1199 26.3789 83.2351 26.2981C83.3482 26.2188 83.4495 26.1479 83.4627 26.0597C83.4776 25.9597 83.391 25.8532 83.2969 25.7364C83.1649 25.5728 83.0175 25.3879 83.1149 25.1785C83.1216 25.1642 83.1289 25.1488 83.1362 25.1328C83.2052 24.9812 83.3077 24.7568 83.5366 24.522C83.5422 23.8924 83.5643 23.2626 83.5982 22.633C83.6547 21.5842 83.7443 20.5378 83.8457 19.4954C83.8959 18.988 84.2113 18.4874 84.7395 18.108C85.2685 17.7281 85.9622 17.5 86.6885 17.4672C87.4148 17.4344 88.1252 17.5978 88.6883 17.9137C89.2507 18.2298 89.6156 18.6734 89.7237 19.1496C89.8985 19.9261 90.0804 20.7005 90.2593 21.4708C90.2775 21.5106 90.2952 21.5505 90.3121 21.5903C90.4375 21.8864 90.6646 22.1505 90.8928 22.4139C90.9452 22.4743 90.9978 22.5348 91.0491 22.5954Z" fill="black"/>
<path d="M118.654 9.08711C118.873 8.57189 119.787 8.29872 120.355 8.18245C120.365 8.18011 120.375 8.17777 120.385 8.17544C120.519 8.14662 120.641 8.10924 120.792 8.06618C121.058 7.99304 121.397 7.89244 122.065 7.8622C122.304 7.8522 122.577 7.85507 122.894 7.88399C123.244 7.84422 123.601 7.82954 123.956 7.84174C126.464 7.92579 128.422 9.2135 129.632 10.4083C129.869 10.5273 130.288 11.1543 130.473 11.3434C130.865 12.1434 131.179 12.959 131.437 13.775C131.451 13.8003 131.466 13.826 131.481 13.852C131.767 14.3558 132.093 14.994 132.14 15.4514C132.202 16.0331 132.189 16.436 132.171 16.768C132.498 18.5118 132.685 20.211 132.916 21.8702C132.988 22.3896 133.064 22.9068 133.149 23.4202C133.227 23.8936 133.308 24.3657 133.392 24.8357C133.505 25.1012 133.627 25.3537 133.739 25.5876C133.896 25.9169 134.032 26.2135 134.092 26.4633C134.236 27.0669 134.164 27.7722 134.102 28.2906C134.092 28.3754 134.083 28.4555 134.075 28.5294C134.148 28.9333 134.221 29.3375 134.291 29.7426C134.264 29.7711 134.235 29.7998 134.205 29.829C133.834 30.1923 133.855 30.6143 133.876 31.2811C133.885 31.5718 133.894 31.9081 133.868 32.3042C133.851 32.5598 133.697 32.6905 133.572 32.7965C133.535 32.8278 133.501 32.857 133.473 32.8865C133.377 32.9876 133.479 33.0954 133.6 33.2237C133.756 33.3899 133.942 33.5918 133.767 33.8499C133.206 34.6718 133.559 35.0423 133.828 35.3326C133.907 35.4174 133.978 35.4937 134.016 35.5718C134.138 35.825 133.989 36.1691 133.794 36.423C133.638 36.626 133.756 37.0482 133.915 37.3811C133.975 37.5064 133.965 37.6696 133.952 37.8606C133.95 37.8974 133.947 37.9351 133.945 37.9739C133.946 37.9806 133.941 38.001 133.942 38.0077C133.93 38.1779 133.926 38.3628 133.97 38.5643C134.106 39.192 134.167 39.527 134.215 39.7954C134.228 39.873 134.241 39.9417 134.254 40.0146C134.295 40.2396 134.318 40.5186 134.341 40.7987C134.368 41.1343 134.395 41.473 134.452 41.7335C134.285 42.3735 134.096 42.9889 133.917 43.5916C133.825 43.9017 133.464 44.1681 132.897 44.3425C132.33 44.5168 131.607 44.5824 130.869 44.518C130.13 44.452 129.429 44.2585 128.906 43.9663C128.383 43.6753 128.085 43.3118 128.063 42.9639C128.019 42.2638 127.984 41.5765 127.967 40.9108C127.947 40.0994 127.954 39.3072 128.031 38.5184C128.065 38.1748 128.104 37.8312 128.148 37.4863L128.144 37.5273C128.168 37.3246 128.193 37.1209 128.218 36.9163C128.226 36.8606 128.233 36.8042 128.24 36.7491C128.088 36.2834 127.946 35.8209 127.901 35.5001C127.864 35.2337 127.969 35.0478 128.058 34.8859C128.12 34.7748 128.174 34.6759 128.169 34.5738C128.166 34.5187 128.157 34.4443 128.146 34.3543C128.102 33.986 128.02 33.3646 128.2 32.7981C128.279 32.5472 128.434 32.2527 128.58 31.9711C128.788 31.5678 128.978 31.1861 128.912 30.9981C128.796 30.6677 128.873 30.2847 128.938 29.9435C129 29.6186 129.051 29.3328 128.918 29.1803C128.76 28.9983 128.81 28.833 128.882 28.5853C128.932 28.4137 128.992 28.2022 128.999 27.92C129.008 27.5946 129.089 27.3572 129.158 27.1541C129.254 26.8687 129.325 26.6516 129.12 26.3642C128.893 26.0457 128.729 25.7099 128.751 25.4253C128.761 25.2956 128.735 25.1529 128.706 25.0038C128.668 24.8065 128.627 24.6005 128.664 24.4007C128.695 24.2353 128.815 24.0824 128.922 23.9463C128.955 23.9038 128.986 23.863 129.013 23.824C128.99 23.6989 128.965 23.5751 128.938 23.4502C128.912 23.434 128.883 23.4173 128.853 23.3999C128.702 23.3124 128.516 23.2067 128.404 23.0556C128.227 22.8172 128.258 22.5701 128.289 22.3098C128.314 22.108 128.337 21.8932 128.26 21.6746C128.207 21.5255 128.108 21.3655 128.008 21.208C127.861 20.974 127.713 20.75 127.717 20.5626C127.719 20.4927 127.791 20.4131 127.862 20.3337C127.862 20.3333 127.863 20.3329 127.863 20.3325C127.868 20.3271 127.873 20.3218 127.877 20.3164C127.693 19.9155 127.493 19.5222 127.282 19.1384C127.248 19.1104 127.214 19.082 127.181 19.054C127.019 18.9174 126.86 18.7884 126.679 18.7327C126.482 18.6719 126.289 18.4215 126.078 18.1628C125.941 17.9942 125.797 17.8258 125.645 17.7032C125.557 17.6321 125.605 17.5089 125.653 17.3807C125.698 17.2615 125.743 17.1373 125.679 17.053C125.647 17.0109 125.588 16.9768 125.526 16.9413C125.471 16.9099 125.413 16.8774 125.367 16.8366C125.324 16.7988 125.319 16.6714 125.308 16.5072C125.301 16.4059 125.293 16.2911 125.274 16.1758C125.085 15.9429 124.895 15.7187 124.703 15.4997C124.603 15.4906 124.486 15.502 124.349 15.5393C124.251 15.566 124.139 15.6069 124.025 15.6493C123.87 15.7069 123.71 15.7675 123.573 15.8008C123.529 15.8113 123.494 15.8156 123.469 15.814L124.447 16.901C124.415 16.9141 124.4 16.9079 124.407 16.8801C124.412 16.8583 124.43 16.8238 124.446 16.7925C124.464 16.7567 124.48 16.7247 124.473 16.7204C124.467 16.7174 124.445 16.7358 124.419 16.7581C124.377 16.7937 124.322 16.8401 124.303 16.8287C124.23 16.7858 124.171 16.7169 124.118 16.6556C124.058 16.5873 124.005 16.5287 123.949 16.5218C123.886 16.5139 123.87 16.3902 123.854 16.2717C123.842 16.1891 123.831 16.109 123.812 16.0727C123.793 16.0369 123.754 16.0866 123.728 16.1386C123.695 16.2008 123.683 16.2651 123.683 16.1736C123.683 16.1551 123.69 16.0427 123.693 15.9017C123.696 15.8019 123.696 15.6876 123.691 15.5822C123.657 15.581 123.623 15.5773 123.584 15.5722C123.584 15.5876 123.585 15.6032 123.585 15.6191C123.585 15.6195 123.585 15.6198 123.585 15.6202C123.587 15.8608 123.615 16.1585 123.617 16.2436C123.614 16.2863 123.601 16.2777 123.557 16.1887C123.523 16.1205 123.475 15.9912 123.428 15.8758C123.383 15.7624 123.339 15.6619 123.31 15.6465C123.278 15.6292 123.268 15.7101 123.259 15.7985C123.246 15.9227 123.237 16.0608 123.133 15.9741C123.126 15.9682 123.118 15.9617 123.11 15.9552C123.035 15.8944 122.917 15.8076 122.736 15.6135C122.472 15.6567 122.168 15.7232 121.843 15.8073C121.3 15.9476 120.701 16.1354 120.083 16.351C119.781 16.4549 119.338 16.3427 118.843 16.0187C118.347 15.6941 117.844 15.1859 117.436 14.5844C117.027 13.983 116.738 13.3299 116.624 12.7468C116.509 12.1644 116.584 11.7017 116.827 11.4444C117.224 11.0266 117.646 10.6009 118.122 10.181C118.143 10.1513 118.164 10.122 118.186 10.0935C118.346 9.88179 118.449 9.58869 118.569 9.29143C118.596 9.22325 118.624 9.15481 118.654 9.08711Z" fill="black"/>
<path d="M129.618 35.4857C129.274 35.7688 128.79 35.5365 128.519 35.4182C128.514 35.4162 128.509 35.4141 128.504 35.4121C128.44 35.3837 128.378 35.3699 128.305 35.3545C128.129 35.3186 127.9 35.2673 127.429 35.0044C127.285 35.0008 127.145 34.9958 127.004 34.9884C125.54 34.9136 124.211 34.7914 122.818 34.9412C122.771 34.9464 122.724 34.9519 122.678 34.9576C122.662 34.9656 122.646 34.9738 122.629 34.9821C122.313 35.1416 121.953 35.3619 121.659 35.3784C121.284 35.3985 121.002 35.4018 120.765 35.4042C119.67 35.8019 118.625 36.5116 117.92 37.4886C117.699 37.7931 117.514 38.1196 117.376 38.4562C117.249 38.7663 117.159 39.0819 117.112 39.3807C117.132 39.4879 117.161 39.589 117.196 39.6783C117.228 39.7109 117.262 39.7415 117.296 39.77C117.407 39.8638 117.518 39.934 117.562 40.0014C117.666 40.1563 117.632 40.4444 117.667 40.6975C117.672 40.738 117.678 40.7767 117.685 40.8122C117.81 40.9317 117.948 41.0374 118.091 41.1229C118.105 41.1294 118.12 41.1361 118.135 41.1429C118.121 41.1697 118.106 41.1979 118.092 41.2271C117.918 41.5951 118.099 41.7536 118.441 41.9388C118.592 42.0202 118.779 42.1091 119.007 42.2275C119.154 42.3031 119.189 42.4744 119.222 42.6165C119.232 42.6581 119.242 42.6971 119.254 42.7299C119.297 42.8421 119.402 42.7653 119.519 42.6699C119.672 42.5466 119.835 42.3909 119.977 42.5899C120.105 42.7657 120.233 42.8636 120.346 42.9073C120.643 43.0203 120.829 42.7691 120.954 42.5657C121.006 42.4829 121.05 42.4074 121.096 42.3641C121.244 42.2247 121.47 42.336 121.68 42.4876C121.846 42.6098 122.126 42.4123 122.311 42.179C122.381 42.0913 122.497 42.0598 122.638 42.018C122.784 41.975 122.958 41.9207 123.123 41.7853C123.336 41.6096 123.502 41.4716 123.638 41.36C123.767 41.2543 123.867 41.172 123.957 41.0982C124.009 41.0548 124.058 41.0147 124.107 40.9735C124.262 40.8436 124.463 40.7048 124.669 40.5608C124.914 40.3887 125.165 40.2091 125.342 40.0363C125.927 39.8795 126.534 39.7261 127.15 39.5645C127.466 39.4821 127.89 39.6503 128.332 40.0477C128.775 40.4455 129.198 41.0367 129.513 41.7072C129.829 42.3777 130.016 43.08 130.039 43.6752C130.062 44.27 129.916 44.7065 129.639 44.9009C129.08 45.2914 128.509 45.6831 127.908 46.0488C127.239 46.456 126.53 46.8322 125.757 47.1293C125.684 47.157 125.613 47.1837 125.539 47.2101C124.936 47.4254 124.282 47.6175 123.57 47.7537C123.497 47.7677 123.422 47.781 123.348 47.7936C122.789 48.1059 122.144 48.3615 121.662 48.4528C121.265 48.5296 120.961 48.4346 120.711 48.3478C120.538 48.2878 120.389 48.2309 120.234 48.2296C120.151 48.2289 120.037 48.2323 119.9 48.2332C119.869 48.2333 119.837 48.2334 119.804 48.2332C119.242 48.236 118.348 48.1535 117.629 47.7473C117.293 47.5596 116.936 47.2614 116.619 46.956C116.162 46.5206 115.795 46.0696 115.525 45.9639C115.046 45.7809 114.618 45.3277 114.293 44.8761C114.263 44.8355 114.234 44.795 114.206 44.7549C113.959 44.3936 113.776 44.0786 113.557 43.9645C113.268 43.8122 113.175 43.5608 113.073 43.1934C113.003 42.9369 112.927 42.6246 112.8 42.2137C112.655 41.736 112.668 41.3595 112.694 41.0494C112.735 40.6068 112.79 40.3033 112.617 39.813C112.52 39.5308 112.465 39.2208 112.466 38.9202C112.459 38.6896 112.489 38.4744 112.561 38.2974C112.626 38.1353 112.67 37.9411 112.721 37.7453C112.788 37.4843 112.869 37.217 113.022 37.0037C113.148 36.8319 113.347 36.7278 113.52 36.6463C113.575 36.6203 113.627 36.5958 113.675 36.571C113.737 36.4273 113.801 36.2842 113.867 36.1428C113.857 36.11 113.846 36.0748 113.835 36.038C113.78 35.853 113.717 35.6225 113.754 35.3907C113.812 35.0261 114.045 34.8032 114.292 34.588C114.485 34.4188 114.688 34.2525 114.845 34.0065C114.952 33.8378 115.047 33.6255 115.15 33.414C115.301 33.1028 115.469 32.7971 115.671 32.6681C115.746 32.6203 115.863 32.6311 115.978 32.6437C115.979 32.6438 115.979 32.644 115.98 32.6442C115.988 32.645 115.995 32.6458 116.003 32.6466C116.351 32.2071 116.725 31.7824 117.126 31.3773C117.15 31.3293 117.176 31.2812 117.202 31.2336C117.33 31.0014 117.462 30.7793 117.507 30.566C117.554 30.3353 117.863 30.0176 118.211 29.7035C118.438 29.4974 118.681 29.2924 118.87 29.0967C118.981 28.982 119.148 29.0055 119.32 29.0321C119.481 29.0568 119.641 29.0861 119.768 29.0069C119.832 28.9672 119.892 28.9005 119.957 28.8295C120.015 28.7667 120.073 28.7018 120.143 28.6491C120.197 28.6088 120.331 28.5909 120.507 28.5778C120.544 28.5752 120.582 28.5728 120.622 28.5705C120.765 28.5621 120.926 28.5547 121.091 28.5402C121.481 28.3534 121.881 28.1847 122.288 28.036C122.356 27.9361 122.409 27.8156 122.441 27.6693C122.464 27.5643 122.477 27.4421 122.492 27.3172C122.512 27.1471 122.533 26.9713 122.585 26.8244C122.626 26.7097 122.691 26.6546 122.748 26.688C122.774 26.7036 122.799 26.7378 122.821 26.7687C122.846 26.8042 122.868 26.8358 122.888 26.8312C122.902 26.8278 122.912 26.7976 122.924 26.761C122.943 26.7026 122.968 26.6271 123.026 26.6147C123.239 26.5683 123.486 26.5526 123.727 26.5428C123.995 26.5316 124.254 26.5273 124.456 26.4875C124.683 26.4425 125.018 26.5209 125.343 26.6092C125.57 26.6705 125.794 26.7358 125.983 26.7623C126.169 26.7882 126.359 26.7303 126.546 26.6764C126.771 26.6115 126.986 26.5527 127.165 26.651C127.201 26.671 127.241 26.7853 127.29 26.9286C127.325 27.0302 127.365 27.1464 127.411 27.2541C127.635 27.2659 127.854 27.2855 128.075 27.3123C128.084 27.2977 128.093 27.2829 128.102 27.2677C128.102 27.2674 128.102 27.267 128.103 27.2666C128.31 26.9246 128.618 26.4603 128.938 26.7918C129.018 26.876 129.058 27.0192 129.092 27.1479C129.125 27.2743 129.155 27.3874 129.215 27.4183C129.283 27.4533 129.377 27.3908 129.481 27.3237C129.625 27.2291 129.79 27.1251 129.917 27.2648C129.925 27.2744 129.935 27.2848 129.944 27.2953C130.035 27.3949 130.169 27.543 130.277 27.8162C130.71 27.9594 131.135 28.1243 131.546 28.3031C132.234 28.6018 132.892 28.941 133.53 29.2945C133.841 29.4676 134.057 29.8909 134.119 30.4831C134.181 31.0761 134.087 31.7851 133.863 32.4766C133.639 33.1682 133.301 33.7969 132.934 34.2546C132.565 34.7112 132.196 34.9552 131.893 34.9507C131.399 34.9419 130.912 34.9463 130.437 34.956C130.41 34.9651 130.383 34.9737 130.356 34.9816C130.16 35.0402 129.953 35.204 129.754 35.3713C129.709 35.4097 129.663 35.4483 129.618 35.4857Z" fill="black"/>
<path d="M151.142 12.829C151.475 13.1305 151.306 13.6686 151.215 13.9687C151.214 13.9741 151.212 13.9795 151.211 13.9849C151.189 14.0547 151.181 14.1222 151.173 14.2024C151.152 14.3908 151.124 14.6468 150.882 15.1771C150.885 15.3333 150.883 15.4917 150.878 15.6478C150.835 16.9075 150.642 18.1764 150.39 19.4476C150.304 19.8797 150.21 20.3249 150.113 20.7604C150.115 20.7821 150.116 20.8043 150.118 20.8267C150.146 21.2609 150.181 21.7941 150.049 22.1309C149.88 22.5546 149.726 22.8467 149.593 23.0819C149.293 24.4502 149.026 25.8177 148.906 27.1908C148.869 27.6204 148.846 28.0511 148.841 28.4816C148.837 28.8782 148.844 29.2749 148.86 29.6716C148.934 29.9029 149.021 30.1243 149.103 30.3285C149.217 30.6148 149.318 30.8723 149.35 31.0822C149.427 31.5906 149.292 32.1643 149.191 32.5901C149.175 32.66 149.16 32.7259 149.146 32.7867C149.19 33.1246 149.238 33.4672 149.287 33.8055C149.257 33.828 149.227 33.8507 149.196 33.8737C148.807 34.16 148.808 34.5164 148.81 35.0762C148.811 35.3216 148.811 35.603 148.78 35.9365C148.76 36.1483 148.606 36.2602 148.48 36.3488C148.443 36.3751 148.408 36.3996 148.38 36.4244C148.284 36.5099 148.386 36.6002 148.507 36.7087C148.663 36.8514 148.85 37.0214 148.677 37.2374C148.125 37.9389 148.492 38.2464 148.769 38.4896C148.85 38.5595 148.923 38.6224 148.964 38.6859C148.982 38.715 148.996 38.7457 149.004 38.7775C149.056 38.9818 148.934 39.2138 148.776 39.4106C148.63 39.5851 148.769 39.9422 148.947 40.2115C149.014 40.3165 149.014 40.4492 149.014 40.613C149.014 40.783 149.013 40.9737 149.087 41.1834C149.275 41.7111 149.366 41.9874 149.438 42.2156C149.458 42.279 149.477 42.3379 149.497 42.3993C149.559 42.589 149.608 42.8203 149.658 43.0608C149.718 43.3456 149.778 43.6316 149.861 43.8553C149.759 44.4232 149.634 44.9918 149.506 45.5622C149.439 45.8557 149.099 46.1275 148.545 46.3174C147.991 46.5071 147.273 46.6005 146.532 46.579C145.792 46.5574 145.08 46.4214 144.538 46.2022C143.996 45.9825 143.671 45.7002 143.619 45.4135C143.516 44.836 143.41 44.2607 143.327 43.6813C143.225 42.9747 143.156 42.2716 143.166 41.561C143.172 41.0675 143.196 40.5718 143.233 40.0766C143.237 40.0257 143.241 39.9764 143.246 39.9257C143.068 39.5025 142.906 39.0928 142.85 38.7961C142.845 38.7673 142.842 38.7393 142.84 38.7121C142.827 38.5156 142.913 38.3621 142.988 38.227C143.047 38.1251 143.098 38.0346 143.091 37.9412C143.087 37.8911 143.077 37.8223 143.064 37.7385C143.012 37.4063 142.924 36.8277 143.108 36.3113C143.189 36.0775 143.347 35.8154 143.498 35.5571C143.715 35.1945 143.916 34.8501 143.857 34.6791C143.753 34.3736 143.847 34.0287 143.93 33.7197C144.009 33.4285 144.079 33.1716 143.957 33.0239C143.811 32.849 143.873 32.7011 143.964 32.4799C144.027 32.3267 144.104 32.141 144.137 31.8844C144.175 31.589 144.281 31.3822 144.371 31.2047C144.497 30.9559 144.592 30.7697 144.424 30.4866C144.237 30.1742 144.119 29.8461 144.182 29.591C144.211 29.4745 144.206 29.3408 144.2 29.2017C144.193 29.0176 144.186 28.824 144.256 28.648C144.314 28.503 144.459 28.3842 144.587 28.2791C144.627 28.2463 144.666 28.2149 144.699 28.1844C144.699 28.0684 144.697 27.9525 144.695 27.8365C144.672 27.8174 144.646 27.7973 144.62 27.7764C144.488 27.6714 144.327 27.5422 144.248 27.3839C144.122 27.134 144.205 26.9149 144.293 26.6858C144.362 26.5079 144.434 26.3204 144.411 26.1063C144.396 25.9604 144.34 25.7932 144.283 25.6272C144.2 25.3811 144.118 25.1386 144.174 24.9706C144.196 24.9078 144.287 24.8549 144.377 24.8026C144.378 24.8024 144.378 24.8021 144.379 24.8019C144.385 24.7984 144.391 24.7948 144.397 24.7913C144.334 24.3812 144.264 23.9712 144.19 23.5595C144.167 23.5237 144.145 23.4876 144.122 23.4519C144.015 23.2787 143.91 23.1049 143.76 22.9933C143.597 22.8724 143.506 22.5692 143.41 22.2521C143.347 22.047 143.282 21.8262 143.194 21.6518C143.142 21.5497 143.237 21.4536 143.335 21.3545C143.426 21.2624 143.519 21.1683 143.498 21.064C143.488 21.0114 143.45 20.9564 143.41 20.8937C143.375 20.8392 143.338 20.7818 143.315 20.7223C143.294 20.667 143.347 20.5457 143.414 20.3927C143.456 20.2963 143.503 20.1857 143.543 20.0715C143.499 19.8188 143.457 19.5532 143.418 19.3012C143.41 19.2518 143.403 19.2026 143.396 19.1537C143.316 19.0877 143.211 19.0302 143.076 18.9836C142.979 18.9502 142.863 18.9211 142.744 18.8913C142.583 18.8506 142.416 18.8093 142.284 18.7529C142.18 18.7081 142.14 18.6573 142.184 18.6249C142.204 18.6098 142.243 18.5988 142.277 18.5888C142.317 18.5773 142.353 18.5671 142.352 18.5536C142.351 18.5439 142.324 18.5332 142.29 18.52C142.236 18.499 142.167 18.4717 142.166 18.4328C142.16 18.2902 142.186 18.1207 142.212 17.9602C142.241 17.7845 142.269 17.6026 142.252 17.4637C142.233 17.3105 142.343 17.0808 142.452 16.8625C142.529 16.7042 142.605 16.5534 142.639 16.4178C142.672 16.2839 142.619 16.1481 142.567 16.0115C142.505 15.8456 142.445 15.6961 142.54 15.5636C142.56 15.5374 142.673 15.508 142.815 15.4715C142.916 15.4457 143.031 15.4161 143.138 15.3818C143.143 15.2156 143.154 15.0482 143.169 14.8817C143.154 14.8751 143.138 14.8684 143.123 14.8617C143.122 14.8616 143.122 14.8615 143.122 14.8614C142.769 14.7104 142.286 14.502 142.589 14.2503C142.666 14.1864 142.805 14.1479 142.93 14.1149C143.052 14.0822 143.162 14.0532 143.187 14.0056C143.215 13.952 143.144 13.8828 143.066 13.8068C142.957 13.7002 142.834 13.5849 142.958 13.4749C142.966 13.4675 142.975 13.4595 142.985 13.4513C143.073 13.3732 143.202 13.2582 143.459 13.1487C143.542 12.7942 143.639 12.4403 143.744 12.0872C143.919 11.4995 144.119 10.9131 144.321 10.3345C144.421 10.0529 144.78 9.80319 145.339 9.64143C145.899 9.47977 146.609 9.41747 147.334 9.46911C148.059 9.52067 148.752 9.68339 149.283 9.9212C149.814 10.1591 150.135 10.4517 150.196 10.735C150.294 11.1967 150.394 11.6542 150.486 12.1099C150.5 12.134 150.513 12.1584 150.525 12.1826C150.617 12.3647 150.812 12.5384 151.008 12.7092C151.053 12.7489 151.098 12.7888 151.142 12.829Z" fill="black"/>
<path d="M167.808 24.775C168.37 24.3865 169.502 24.438 170.124 24.4577C170.135 24.4579 170.146 24.4581 170.158 24.4584C170.305 24.4633 170.443 24.455 170.605 24.4446C170.991 24.4187 171.511 24.3875 172.612 24.4797C172.923 24.4339 173.234 24.39 173.545 24.3485C174.485 24.223 175.418 24.1023 176.343 23.9766C176.344 23.9926 176.227 24.0418 176.107 24.1472C175.985 24.2491 175.906 24.3876 175.924 24.4149C175.967 24.4796 176.226 24.0893 176.479 23.3333C176.7 22.767 176.853 22.2263 176.928 21.7495C176.926 21.7246 176.924 21.6996 176.921 21.6747C176.894 21.4187 176.837 21.1709 176.786 20.9704C176.742 20.7969 176.7 20.6367 176.693 20.4871C176.67 20.0842 176.587 19.7538 176.493 19.4766C176.416 19.3647 176.328 19.2546 176.232 19.1478C175.714 18.577 175.141 18.2505 174.485 18.2074C173.697 18.1874 172.956 18.3838 172.233 18.8474C171.713 19.1808 171.217 19.6507 170.775 20.2154C170.367 20.7351 170 21.3322 169.678 21.9687C169.547 22.3693 169.45 22.7694 169.37 23.1432C169.258 23.6683 169.176 24.1432 169.065 24.5218C168.798 25.4291 168.338 26.4311 168.015 27.2031C167.962 27.3288 167.913 27.448 167.868 27.5589C167.735 28.2089 167.618 28.867 167.513 29.5304C167.474 29.5672 167.435 29.6041 167.394 29.6417C166.887 30.1098 166.732 30.8092 166.515 31.9163C166.421 32.398 166.314 32.9627 166.163 33.6209C166.101 33.8957 166.001 34.072 165.896 34.2046C165.841 34.2554 165.785 34.2979 165.734 34.3385C165.692 34.3717 165.653 34.4037 165.62 34.4379C165.51 34.5554 165.599 34.7082 165.713 34.8721C165.861 35.0897 166.049 35.3098 165.91 35.6492C165.493 36.794 166.098 37.2778 166.479 37.5098C166.596 37.5851 166.703 37.6499 166.781 37.729C167.034 37.9834 167.129 38.4706 167.165 38.897C167.19 39.2356 167.648 39.6966 168.074 39.9745C168.234 40.0805 168.379 40.274 168.559 40.5006C168.744 40.7341 168.968 41.0031 169.274 41.2332C169.451 41.3665 169.611 41.4829 169.756 41.5868L169.37 41.2437C169.76 41.3817 170.01 41.4262 170.224 41.4633C170.304 41.4762 170.378 41.4869 170.453 41.4952C170.691 41.5218 170.985 41.5618 171.304 41.5786C171.684 41.6 172.101 41.586 172.432 41.5221C172.496 41.5338 172.561 41.545 172.627 41.5558C173.392 41.6858 174.048 41.7224 174.996 41.634C175.508 41.5881 176.103 41.7823 176.633 42.2115C177.162 42.641 177.577 43.2687 177.771 43.9843C177.962 44.7 177.92 45.453 177.635 46.0932C177.35 46.7325 176.839 47.2046 176.192 47.3994C175.059 47.7509 173.627 48.0282 172.288 48.0313C172.13 48.0336 171.969 48.0333 171.808 48.0302C169.996 48.0023 167.903 47.5536 166.115 46.332C166.004 46.257 165.896 46.1803 165.788 46.1006C165.701 46.0193 165.422 45.8076 165.351 45.7119C164.625 44.9316 163.945 44.0875 163.333 43.1682C163.264 43.0647 163.195 42.9593 163.128 42.8535C162.402 42.1125 161.735 41.2512 161.355 40.5657C161.04 40.0008 160.958 39.5108 160.901 39.0935C160.862 38.8055 160.836 38.5503 160.758 38.3038C160.717 38.172 160.656 37.9906 160.59 37.7682C160.31 36.8801 159.989 35.1534 160.413 33.593C160.444 33.474 160.48 33.3523 160.521 33.229C160.679 32.8331 160.89 32.3959 161.095 31.9773C161.449 31.2544 161.79 30.5785 161.807 30.2066C161.835 29.5498 162.086 28.8407 162.319 28.2155C162.541 27.6195 162.745 27.1004 162.708 26.7629C162.664 26.359 162.809 26.0609 163.03 25.6224C163.184 25.3178 163.374 24.946 163.578 24.4216C163.813 23.8149 164.068 23.4148 164.288 23.0778C164.599 22.6039 164.836 22.2583 164.93 21.6135C165.035 20.899 165.26 20.1672 165.601 19.673C165.757 19.4451 165.903 19.1762 166.071 18.8882C166.289 18.5135 166.541 18.1161 166.847 17.8124C167.103 17.5559 167.395 17.4188 167.659 17.2996C167.741 17.2627 167.82 17.2283 167.894 17.1937C168.073 16.982 168.264 16.7708 168.461 16.5658C168.477 16.5169 168.493 16.4645 168.51 16.41C168.599 16.1367 168.726 15.793 168.994 15.4678C169.422 14.9515 169.973 14.6768 170.564 14.4526C171.026 14.2784 171.516 14.1316 172.06 13.9249C172.435 13.7826 172.856 13.6124 173.297 13.4772C173.546 13.4 173.8 13.3336 174.048 13.2864C174.474 13.2082 174.88 13.194 175.192 13.2489C175.384 13.2824 175.538 13.3905 175.683 13.5015C175.684 13.5022 175.685 13.5028 175.685 13.5034C175.695 13.511 175.705 13.5184 175.715 13.526C176.928 13.6306 178.09 14.0474 179.09 14.6453C179.187 14.6837 179.283 14.7247 179.378 14.7672C179.454 14.8016 179.53 14.8369 179.605 14.8725C179.978 15.0491 180.326 15.2393 180.608 15.3419C180.974 15.4707 181.679 16.077 182.279 16.8853C182.675 17.4099 183.023 18.0108 183.294 18.5196C183.41 18.7342 183.442 18.9696 183.443 19.2076C183.443 19.2986 183.439 19.3902 183.433 19.4815C183.412 19.788 183.376 20.0903 183.441 20.3983C183.474 20.5528 183.532 20.7165 183.589 20.8925C183.639 21.0473 183.688 21.2122 183.718 21.3851C183.747 21.5458 183.706 21.9086 183.621 22.347C183.569 22.6184 183.5 22.9183 183.426 23.2244C183.396 23.8503 183.32 24.4569 183.212 25.0448C183.186 25.2023 183.155 25.3724 183.119 25.5521C183.157 25.7242 183.219 25.892 183.315 26.0445C183.384 26.1541 183.473 26.2603 183.563 26.3721C183.684 26.5249 183.808 26.6876 183.877 26.8932C183.931 27.0536 183.912 27.2245 183.829 27.3147C183.791 27.3567 183.74 27.3805 183.694 27.402C183.641 27.4267 183.594 27.4484 183.577 27.4922C183.564 27.5239 183.576 27.5675 183.589 27.6218C183.611 27.7084 183.636 27.8231 183.575 27.9584C183.348 28.46 182.983 29.0642 182.487 29.6459C181.942 30.296 181.23 30.8788 180.632 31.2758C179.971 31.7386 178.855 32.0871 177.909 32.1487C177.878 32.1512 177.848 32.1536 177.818 32.1557C177.483 32.1461 177.152 32.1351 176.872 32.1529C176.584 32.1712 176.299 32.2746 176.022 32.3734C175.69 32.4921 175.37 32.604 175.078 32.5526C175.019 32.5421 174.934 32.4403 174.827 32.3127C174.751 32.2223 174.665 32.1188 174.57 32.0253C174.218 32.0724 173.865 32.1124 173.513 32.1462C173.502 32.1628 173.491 32.1798 173.48 32.1971C173.48 32.1975 173.48 32.1979 173.48 32.1983C173.234 32.5884 172.89 33.1222 172.301 32.8908C172.152 32.8319 172.048 32.7045 171.956 32.5899C171.865 32.4773 171.784 32.3764 171.679 32.364C171.56 32.3499 171.431 32.4376 171.289 32.5326C171.089 32.6661 170.866 32.8146 170.619 32.718C170.603 32.7114 170.585 32.7041 170.566 32.6968C170.388 32.6282 170.124 32.5264 169.854 32.2975C169.107 32.2928 168.361 32.2694 167.619 32.2333C166.381 32.1732 165.152 32.0775 163.93 31.9745C163.336 31.9235 162.755 31.6087 162.315 31.082C161.876 30.5545 161.611 29.8627 161.579 29.1364C161.545 28.4101 161.747 27.6978 162.135 27.1326C162.524 26.568 163.067 26.2015 163.643 26.0933C164.581 25.9184 165.515 25.7393 166.442 25.5627C166.489 25.5446 166.538 25.5269 166.586 25.5102C166.944 25.3855 167.266 25.159 167.587 24.9311C167.66 24.8788 167.735 24.8262 167.808 24.775Z" fill="black"/>
<path d="M208.442 7.47715C208.132 7.87282 207.501 7.87863 207.168 7.91767C207.162 7.91841 207.156 7.91916 207.149 7.91992C207.07 7.92791 207 7.94877 206.92 7.97436C206.729 8.0406 206.484 8.10819 205.915 8.20167C205.788 8.29252 205.665 8.38511 205.544 8.48019C205.409 8.58579 205.278 8.69623 205.149 8.81417C203.613 10.2377 202.226 11.9785 201.141 14.0895C201.132 14.1212 201.123 14.1534 201.113 14.1861C200.927 14.8162 200.75 15.6128 200.51 16.0884C200.419 16.2659 200.336 16.4281 200.259 16.5767C200.088 16.8669 199.954 17.0985 199.839 17.3116C199.362 19.0641 199.576 21.2083 200.356 23.3155C200.598 23.9769 200.889 24.635 201.222 25.2862C201.527 25.8855 201.864 26.4819 202.221 27.0744C202.486 27.39 202.756 27.6786 203.009 27.9502C203.364 28.3289 203.685 28.6709 203.907 28.9845C204.44 29.7348 204.866 30.7303 205.17 31.498C205.221 31.6245 205.268 31.7439 205.311 31.8539C205.661 32.4129 206.008 32.9939 206.34 33.6239C206.333 33.6789 206.324 33.7347 206.315 33.7914C206.191 34.5082 206.495 35.1549 206.792 36.4374C206.823 36.5789 206.853 36.7271 206.878 36.8828C206.995 37.5739 206.948 38.3102 206.77 38.9865C206.612 39.5679 206.361 39.7648 206.168 39.9236C206.111 39.9693 206.057 40.0109 206.009 40.0547C205.844 40.2029 205.854 40.4298 205.854 40.7007C205.856 41.049 205.837 41.4781 205.444 41.7868C204.54 42.4789 204.267 42.9564 204.168 43.4018C204.111 43.5934 204.075 43.7717 204.036 43.9382C203.995 44.1156 203.95 44.2787 203.875 44.4218C203.633 44.8905 202.978 45.306 202.439 45.4726C202.016 45.6158 201.401 46.1695 200.936 46.5965C200.762 46.7601 200.483 46.8932 200.164 47.03C199.883 47.1501 199.571 47.2737 199.256 47.4369C199.199 47.4667 199.14 47.4982 199.081 47.5315C198.121 48.0689 197.59 48.2942 197.173 48.481C197.053 48.5333 196.942 48.5808 196.832 48.6283C196.482 48.7787 196.045 48.93 195.607 49.0736C195.079 49.2462 194.555 49.4075 194.161 49.564C193.089 49.6558 192.035 49.6973 190.988 49.7273C190.453 49.7416 189.903 49.4785 189.462 48.9828C189.024 48.4862 188.726 47.8028 188.633 47.0676C188.541 46.3322 188.661 45.5968 188.95 45.0067C189.243 44.4165 189.687 44.0224 190.183 43.8943C191.187 43.6369 192.178 43.3696 193.145 43.1056C194.322 42.7833 195.455 42.4681 196.477 42.159C196.743 42.0788 197.003 41.9953 197.262 41.907C197.707 41.7549 198.112 41.6014 198.459 41.4453C198.516 41.4197 198.571 41.3944 198.625 41.3687C198.968 40.9715 199.13 40.6181 199.268 40.397C199.381 40.2152 199.557 40.1531 199.72 40.0776C199.725 40.0749 199.731 40.0722 199.737 40.0695C199.878 39.9707 199.999 39.8833 200.077 39.7649C200.12 39.6984 200.174 39.6046 200.236 39.494C200.493 39.0426 200.846 38.3139 201.161 37.9768C201.308 37.8245 201.488 37.718 201.636 37.7017C201.705 37.693 201.77 37.7012 201.831 37.7132C201.91 37.4522 201.919 37.1799 201.836 37.0428C201.625 36.6936 201.53 36.1874 201.411 35.7211C201.297 35.2738 201.167 34.8641 200.949 34.707C200.685 34.5141 200.628 34.276 200.524 33.8992C200.456 33.6445 200.363 33.32 200.17 32.9194C199.944 32.4513 199.847 32.0792 199.763 31.7613C199.645 31.3127 199.555 30.9746 199.15 30.6189C198.703 30.2271 198.298 29.766 198.117 29.3206C198.035 29.1186 197.908 28.9045 197.777 28.6791C197.603 28.3821 197.422 28.0639 197.328 27.7358C197.25 27.4653 197.274 27.1959 197.298 26.9587C197.305 26.8846 197.312 26.8137 197.316 26.7466C197.217 26.5507 197.119 26.3541 197.021 26.156C196.985 26.1335 196.946 26.1103 196.905 26.0858C196.701 25.963 196.451 25.8086 196.253 25.5594C195.94 25.1652 195.849 24.7311 195.767 24.2743C195.703 23.9173 195.644 23.546 195.49 23.1454C195.384 22.8713 195.232 22.5686 195.088 22.257C194.875 21.7973 194.684 21.3192 194.672 20.9627C194.668 20.8295 194.737 20.7013 194.808 20.5768C194.808 20.5763 194.809 20.5757 194.809 20.5751C194.814 20.5666 194.819 20.5582 194.823 20.5497C194.618 19.7218 194.469 18.8579 194.401 17.9681C194.379 17.8909 194.358 17.8124 194.338 17.7341C194.239 17.3504 194.162 16.9702 194.037 16.7072C193.918 16.4561 193.892 15.8971 193.935 15.2592C193.939 15.1799 193.943 15.0993 193.948 15.0179C193.973 14.5911 194.012 14.1482 194.017 13.7763C194.019 13.5589 194.163 13.389 194.313 13.2198C194.453 13.0606 194.597 12.9016 194.64 12.6903C194.662 12.585 194.661 12.463 194.661 12.3319C194.661 12.2165 194.662 12.0949 194.68 11.972C194.697 11.8577 194.828 11.6366 195.003 11.3583C195.111 11.1859 195.236 10.9924 195.361 10.7869C195.546 10.1854 195.759 9.58729 196.003 8.9966C195.991 8.84087 195.951 8.68939 195.874 8.5437C195.819 8.4392 195.743 8.33378 195.667 8.22498C195.562 8.07686 195.455 7.92293 195.395 7.75543C195.349 7.62467 195.366 7.50857 195.44 7.46711C195.475 7.4477 195.521 7.44413 195.562 7.44093C195.61 7.43726 195.652 7.43407 195.666 7.40817C195.676 7.38945 195.663 7.35631 195.648 7.3157C195.623 7.25094 195.592 7.16626 195.634 7.09068C195.791 6.8096 196.005 6.50928 196.222 6.22133C196.463 5.90006 196.708 5.59434 196.877 5.32978C197.066 5.03291 197.455 4.69714 197.854 4.38149C198.134 4.16018 198.417 3.94766 198.64 3.74879C198.859 3.55367 199.027 3.295 199.197 3.04662C199.242 2.98109 199.287 2.91619 199.333 2.85338C199.528 2.59829 199.74 2.37496 199.989 2.25592C200.054 2.22526 200.192 2.25574 200.363 2.2979C200.485 2.32775 200.622 2.36326 200.762 2.38707C201.09 2.13012 201.433 1.89328 201.787 1.67869C201.791 1.65798 201.796 1.63678 201.8 1.61529C201.8 1.61485 201.8 1.61441 201.8 1.61398C201.892 1.13353 202.089 0.443697 202.831 0.410001C203.018 0.402672 203.171 0.483843 203.308 0.557846C203.442 0.630733 203.56 0.697446 203.677 0.672649C203.809 0.644494 203.928 0.515678 204.06 0.378503C204.245 0.185635 204.462 -0.0265247 204.757 0.00291788C204.777 0.0049321 204.799 0.00731007 204.821 0.00959433C205.031 0.030892 205.343 0.0680323 205.672 0.241166C206.477 0.098937 207.265 0.0405868 208.033 0.0392676C209.313 0.0382316 210.528 0.194231 211.687 0.421992C212.251 0.533788 212.761 0.924883 213.08 1.50986C213.402 2.09594 213.513 2.82121 213.419 3.54186C213.325 4.26297 213.036 4.93244 212.647 5.43949C212.256 5.94577 211.796 6.24557 211.353 6.30078C210.629 6.38868 209.935 6.51748 209.293 6.68281C209.26 6.70031 209.227 6.71745 209.194 6.73378C208.951 6.85545 208.747 7.08433 208.565 7.3171C208.523 7.37062 208.482 7.42445 208.442 7.47715Z" fill="black"/>
</svg>
