<svg width="325" height="80" viewBox="0 0 325 80" fill="none" xmlns="http://www.w3.org/2000/svg">
<path d="M12.7153 33.8808C13.6091 34.5011 14.5881 36.226 15.1223 37.1761C15.1322 37.1934 15.1422 37.2108 15.1522 37.2281C15.2793 37.4538 15.4108 37.6589 15.5644 37.8981C15.9267 38.4631 16.4308 39.2469 17.2823 40.9741C17.5999 41.4358 17.9107 41.8959 18.2144 42.3553C21.538 47.3765 24.5006 52.5883 27.4429 57.7757C27.4854 57.8368 27.5286 57.8987 27.5721 57.961C28.4262 59.1878 29.4851 60.6868 30.0056 61.6998C30.6819 63.0115 31.1035 63.8964 31.4523 64.6237C31.9098 65.3532 32.3538 66.0407 32.8177 66.6958C33.2397 67.3138 33.8435 68.0088 33.916 68.099L30.202 68.3376C32.1877 66.7895 33.9635 64.6205 35.5035 62.2595C36.2695 61.0845 36.9916 59.8324 37.6522 58.5641C38.262 57.3934 38.8358 56.1883 39.3771 54.9655C39.6263 54.2274 39.8412 53.5045 40.031 52.8421C40.3051 51.8942 40.5262 51.0755 40.7698 50.3929C41.342 48.7868 42.1964 47.0109 42.8117 45.6967C42.9129 45.4806 43.0098 45.2722 43.096 45.0847C43.453 43.9922 43.8027 42.8823 44.1432 41.772C44.1999 41.7098 44.2581 41.6475 44.3176 41.584C45.0555 40.8029 45.4621 39.6515 46.085 37.83C46.354 37.0427 46.6682 36.1154 47.0621 35.0477C47.3164 34.3578 47.5988 34.0502 47.8294 33.799C47.8974 33.7244 47.9602 33.6571 48.0168 33.5851C48.2105 33.3389 48.2008 33.007 48.1892 32.614C48.1741 32.1043 48.1566 31.4887 48.5728 30.8309C49.9041 28.7166 49.8408 27.5697 49.7923 26.7107C49.7782 26.4578 49.7657 26.2284 49.7896 26.005C49.868 25.2781 50.3167 24.3601 50.743 23.6884C51.0822 23.1526 51.2993 21.9503 51.3887 21.004C51.4229 20.6448 51.563 20.1979 51.73 19.666C51.9024 19.1169 52.104 18.4756 52.2373 17.7726C52.3619 17.116 52.467 16.5713 52.5576 16.1071C52.5667 16.0683 52.6121 15.9578 52.6235 15.9197C52.8344 15.1183 52.9912 14.5601 53.1288 14.0767C53.1915 13.8573 53.2499 13.6557 53.3086 13.4521C53.4932 12.8107 53.7557 12.0287 54.0259 11.2441C54.3487 10.3056 54.6794 9.36541 54.8927 8.6347C55.7673 6.88772 56.6578 5.16872 57.5389 3.44124C57.9912 2.55719 58.7077 1.82044 59.5411 1.41723C60.3776 1.00785 61.2638 0.952194 62.0228 1.27138C62.7801 1.59464 63.3566 2.2709 63.6395 3.16222C63.9247 4.04666 63.8836 5.08387 63.5477 6.0294C62.8679 7.93941 62.1749 9.84746 61.4687 11.7256C60.6182 13.9842 59.7818 16.1663 58.9394 18.3616L59.0125 18.1536C59.0015 18.1883 58.9906 18.2229 58.9796 18.2575C58.4602 19.8957 57.9236 21.5239 57.369 23.1504C57.3118 23.3183 57.2543 23.4858 57.1968 23.6532C56.9536 25.0856 56.688 26.5208 56.4399 27.5073C56.2337 28.3262 55.9434 28.8733 55.6943 29.3424C55.522 29.6681 55.3696 29.9554 55.2782 30.2658C55.2291 30.4325 55.1677 30.6618 55.0937 30.9376C54.7909 32.066 54.2686 33.9926 53.5068 35.6436C53.1655 36.3868 52.7058 37.2083 52.2593 38.0053C51.623 39.1398 51.0237 40.1922 50.8886 40.7821C50.654 41.8123 50.1505 42.9279 49.7006 43.9068C49.2711 44.8427 48.8923 45.651 48.841 46.1802C48.7809 46.8092 48.5376 47.266 48.1663 47.9589C47.9093 48.4374 47.5975 49.0131 47.2343 49.8401C46.8199 50.7814 46.4332 51.4257 46.1075 51.9602C45.6504 52.7074 45.2936 53.2905 45.0823 54.2592C44.8388 55.3549 44.491 56.4559 44.049 57.2476C43.8518 57.6001 43.6502 58.0452 43.4451 58.489C43.1758 59.0726 42.8739 59.707 42.5239 60.2275C42.2382 60.6513 41.8908 60.9713 41.5902 61.2363C41.496 61.3198 41.4058 61.3994 41.3218 61.4777C41.1334 61.8335 40.9323 62.2075 40.7357 62.5686C40.7256 62.6395 40.7161 62.7146 40.7058 62.7928C40.6559 63.1817 40.5843 63.6719 40.3713 64.2073C40.0413 65.0417 39.5337 65.6845 38.9937 66.3287C38.5667 66.8392 38.1222 67.3491 37.6752 68.0025C37.3801 68.435 37.0429 68.9807 36.7102 69.4885C36.2009 70.2649 35.6514 71.0097 35.155 71.4303C34.9721 71.5854 34.7528 71.662 34.5334 71.736C34.5323 71.7362 34.5312 71.7364 34.5302 71.7366C34.5153 71.7416 34.5005 71.7467 34.4857 71.7516C34.2721 71.9794 34.0558 72.2015 33.8365 72.4177C32.9938 73.0582 31.6584 73.2739 30.8335 72.6106C29.3112 71.5501 28.6568 70.6778 27.8084 69.7573C27.7098 69.6729 27.6098 69.5851 27.5098 69.4959C27.0182 69.0557 26.5675 68.6409 26.2014 68.4234C25.8066 68.192 25.0901 67.3705 24.3706 66.5209C23.8892 65.951 23.4192 65.3923 22.9827 64.9247C22.7367 64.665 22.6382 64.3317 22.5317 63.9797C22.4302 63.6481 22.3345 63.3193 22.115 63.0335C22.0046 62.8898 21.8603 62.7493 21.7052 62.5975C21.5685 62.4635 21.4231 62.3206 21.2924 62.1698C21.1696 62.0274 20.9879 61.6487 20.7467 61.1498C20.5972 60.841 20.4403 60.5098 20.2556 60.1517C19.6214 59.2988 18.9964 58.4517 18.3851 57.6168C18.1903 57.4837 17.9879 57.3882 17.7787 57.3438C17.6287 57.3118 17.4695 57.3047 17.3064 57.2969C17.0837 57.285 16.8565 57.2773 16.6338 57.2073C16.4597 57.1524 16.3299 57.0376 16.3091 56.917C16.2994 56.8609 16.313 56.804 16.3251 56.7524C16.3391 56.6934 16.3514 56.6407 16.3255 56.6029C16.3068 56.5757 16.262 56.5638 16.2074 56.5488C16.1201 56.5249 16.0072 56.4933 15.9316 56.3821C15.6456 55.9609 15.3691 55.49 15.0861 55.0101C14.7701 54.4742 14.469 53.9634 14.1891 53.5762C13.8743 53.1407 13.5536 52.4377 13.2344 51.7391C13.01 51.2492 12.7807 50.7533 12.5613 50.3588C12.344 49.9687 12.0339 49.6127 11.731 49.2655C11.3721 48.8557 11.0279 48.4646 10.8671 48.0373C10.8348 47.951 10.8776 47.7888 10.9307 47.5853C10.9684 47.441 11.0108 47.2753 11.0361 47.1015C10.7285 46.6363 10.4223 46.1649 10.1165 45.6873C10.0913 45.6801 10.0655 45.6725 10.0394 45.665C10.0389 45.665 10.0383 45.6649 10.0378 45.6649C9.44425 45.4909 8.65099 45.2812 8.42399 44.3571C8.36654 44.1226 8.41353 43.9186 8.45565 43.7348C8.49634 43.5533 8.53549 43.395 8.46532 43.2448C8.38577 43.0746 8.19462 42.9382 7.98591 42.789C7.69286 42.5794 7.36459 42.3445 7.26027 41.9547C7.25315 41.9281 7.24564 41.8993 7.23749 41.8696C7.16041 41.5881 7.05119 41.1792 7.05475 40.688C6.43976 39.6474 5.84288 38.6172 5.23605 37.5654C4.24065 35.8357 3.2395 34.0783 2.23954 32.3453C1.75002 31.4959 1.5212 30.5186 1.61489 29.6047C1.70911 28.69 2.11532 27.9165 2.77208 27.446C3.42854 26.9753 4.29226 26.8399 5.19178 27.0547C6.0903 27.2694 6.94562 27.8194 7.58837 28.5778C8.62796 29.8051 9.66559 31.0433 10.6927 32.2992C10.7544 32.3591 10.8158 32.4196 10.8762 32.4803C11.3242 32.9308 11.8403 33.2808 12.3594 33.6361C12.4783 33.7173 12.5974 33.7986 12.7153 33.8808Z" fill="black"/>
<path d="M83.0268 50.0068C83.416 50.2059 83.2625 50.5982 83.1786 50.8138C83.1772 50.8178 83.1759 50.8217 83.1745 50.8257C83.1546 50.8768 83.1499 50.9251 83.1449 50.9816C83.1329 51.1164 83.1165 51.2979 82.8761 51.6805C82.887 51.7903 82.8939 51.9001 82.8959 52.0103C82.9178 53.1967 82.6286 54.3829 82.2909 55.5801C82.2935 55.5949 82.2962 55.61 82.2989 55.6252C82.3508 55.921 82.4163 56.284 82.2861 56.5222C82.1204 56.8233 81.9641 57.032 81.8288 57.2034C81.6731 57.7735 81.5325 58.3453 81.4345 58.9163C81.3678 59.3023 81.3209 59.6908 81.3018 60.0766C81.287 60.3757 81.2893 60.6741 81.3119 60.9724C81.3326 61.2455 81.3662 61.519 81.4111 61.7917C81.5079 61.9448 81.6199 62.0879 81.7239 62.2217C81.8699 62.4082 81.9999 62.5751 82.0498 62.7172C82.1697 63.0591 82.061 63.47 81.9807 63.7742C81.9675 63.824 81.9551 63.8711 81.9446 63.9147C82.018 64.1448 82.0954 64.3754 82.1742 64.6045C82.1435 64.623 82.1116 64.6418 82.0788 64.661C81.6696 64.9007 81.6975 65.147 81.7416 65.5352C81.7607 65.704 81.7828 65.9004 81.7737 66.1342C81.7679 66.2852 81.6058 66.378 81.4735 66.4535C81.4346 66.4758 81.3982 66.4966 81.3691 66.517C81.2696 66.5869 81.3893 66.6392 81.5308 66.7011C81.7143 66.7816 81.9346 66.8772 81.7603 67.0487C81.2051 67.5958 81.6349 67.7725 81.9598 67.9047C82.0552 67.9436 82.1413 67.9789 82.1912 68.0189C82.3528 68.1486 82.2268 68.3672 82.0415 68.5422C81.8946 68.6813 82.0766 68.9109 82.2958 69.0778C82.3787 69.141 82.39 69.2357 82.403 69.3479C82.4165 69.4638 82.4317 69.5987 82.5312 69.7337C82.7827 70.0758 82.9064 70.2584 83.0055 70.4055C83.0337 70.4474 83.0596 70.4866 83.0863 70.5256C83.1708 70.6484 83.2459 70.8041 83.3219 70.962C83.4127 71.1506 83.505 71.3422 83.6166 71.4839C83.5546 71.8862 83.4688 72.2921 83.3832 72.6974C83.3386 72.9059 82.9909 73.137 82.3998 73.3416C81.8082 73.5463 81.0261 73.7073 80.2069 73.791C79.3878 73.8747 78.5892 73.8751 77.9685 73.7943C77.3482 73.7134 76.9604 73.5573 76.8745 73.3619C76.703 72.9684 76.5313 72.574 76.3863 72.1775C76.2097 71.6939 76.0724 71.2057 76.0224 70.7088C75.9874 70.3607 75.9722 70.0109 75.9727 69.6592C75.9727 69.623 75.9731 69.5867 75.9735 69.5505C75.7427 69.2784 75.5303 69.0035 75.4447 68.8042C75.374 68.6391 75.4696 68.5045 75.5513 68.3895C75.6076 68.3103 75.6574 68.2398 75.6421 68.1752C75.6339 68.1405 75.6167 68.0936 75.5962 68.0372C75.5122 67.807 75.3697 67.4143 75.5319 67.0285C75.6038 66.8578 75.7581 66.6512 75.9057 66.4558C76.1167 66.1747 76.3137 65.9151 76.2351 65.7989C76.0971 65.5961 76.1749 65.3419 76.244 65.1174C76.31 64.904 76.3677 64.7155 76.222 64.6253C76.0478 64.5176 76.105 64.4058 76.1899 64.2416C76.2489 64.1277 76.3207 63.9877 76.3388 63.8043C76.3597 63.5934 76.4616 63.4356 76.5483 63.3024C76.6705 63.1153 76.7623 62.9734 76.5566 62.7918C76.328 62.59 76.1753 62.3703 76.2274 62.1839C76.2511 62.0987 76.2363 62.0048 76.2209 61.9074C76.2005 61.779 76.1792 61.6414 76.2453 61.5111C76.2997 61.4036 76.4526 61.3063 76.588 61.2202C76.6302 61.1934 76.6706 61.1677 76.7059 61.1431C76.6977 61.0613 76.6887 60.9799 76.6779 60.8985C76.6513 60.8871 76.6218 60.8751 76.5914 60.8627C76.4389 60.8001 76.2518 60.723 76.1539 60.6182C75.9989 60.4526 76.077 60.2892 76.1604 60.1201C76.2253 59.9875 76.2932 59.8491 76.2556 59.6997C76.2299 59.5975 76.1569 59.4827 76.0848 59.37C76.0611 59.3328 76.0374 59.2958 76.0156 59.2593C75.9388 59.1299 75.8843 59.008 75.9254 58.9125C75.9451 58.8666 76.043 58.8219 76.1404 58.7776C76.141 58.7774 76.1416 58.7772 76.1422 58.777C76.1488 58.774 76.1552 58.771 76.1618 58.768C76.068 58.4813 75.9672 58.1957 75.8627 57.9086C75.8356 57.8847 75.8088 57.8605 75.7824 57.8366C75.6536 57.7197 75.5286 57.6058 75.3559 57.5355C75.1687 57.4596 75.0516 57.251 74.9287 57.0299C74.8482 56.8865 74.7653 56.7349 74.6583 56.615C74.5957 56.545 74.696 56.4703 74.7994 56.3942C74.8959 56.3231 74.995 56.2506 74.9667 56.1773C74.9524 56.1408 74.9079 56.1018 74.8604 56.0604C74.8185 56.024 74.7741 55.9855 74.7463 55.9445C74.7204 55.9063 74.7732 55.8179 74.8405 55.703C74.8821 55.6321 74.929 55.5519 74.9671 55.4685C74.8945 55.2537 74.8251 55.0394 74.7604 54.8236C74.6682 54.7813 74.5493 54.746 74.3973 54.7198C74.2882 54.701 74.158 54.6864 74.025 54.671C73.8439 54.65 73.6568 54.6282 73.5071 54.5947C73.3902 54.5685 73.3428 54.5347 73.3903 54.5095C73.4124 54.4978 73.4545 54.4881 73.4925 54.4792C73.5361 54.4691 73.5749 54.46 73.5735 54.4505C73.5724 54.4437 73.5411 54.4374 73.5032 54.4298C73.4427 54.4176 73.3647 54.4016 73.3611 54.3739C73.3476 54.2703 73.369 54.1508 73.3902 54.0349C73.4138 53.9059 73.4368 53.7788 73.411 53.6798C73.3821 53.5688 73.4934 53.4052 73.6046 53.2436C73.6821 53.1299 73.7594 53.0167 73.7901 52.9209C73.8201 52.8266 73.7542 52.7302 73.69 52.6374C73.6129 52.5264 73.5385 52.418 73.6379 52.3238C73.6581 52.3048 73.7827 52.2792 73.9387 52.2472C74.0492 52.2245 74.1755 52.1987 74.2919 52.1694C74.2897 52.0518 74.2928 51.9348 74.3003 51.8176C74.2833 51.8137 74.2659 51.8097 74.2482 51.8058C74.2478 51.8057 74.2474 51.8056 74.247 51.8056C73.8474 51.7158 73.3009 51.5929 73.6228 51.4022C73.7047 51.3539 73.8567 51.322 73.9936 51.2934C74.128 51.2653 74.2482 51.2402 74.2731 51.2057C74.3013 51.1667 74.2179 51.1218 74.1272 51.073C73.9998 51.0045 73.8576 50.928 73.988 50.8478C73.9969 50.8424 74.0067 50.8365 74.0165 50.8303C74.1093 50.772 74.2465 50.6859 74.5239 50.5989C74.5952 50.3497 74.6795 50.1007 74.772 49.8525C74.9263 49.4385 75.1034 49.0257 75.2806 48.6144C75.3679 48.4142 75.7455 48.2203 76.3513 48.075C76.958 47.9297 77.7385 47.8449 78.5463 47.8388C79.3541 47.8328 80.1353 47.906 80.744 48.0419C81.352 48.1779 81.7325 48.3654 81.8229 48.5629C81.9686 48.8851 82.1147 49.2062 82.2498 49.5265C82.2668 49.5432 82.2832 49.56 82.2985 49.5767C82.4129 49.701 82.6414 49.8148 82.8703 49.9283C82.9229 49.9544 82.9756 49.9805 83.0268 50.0068Z" fill="black"/>
<path d="M81.8141 25.5928C82.1972 25.5329 82.052 25.6071 81.975 25.6578C81.9737 25.6586 81.9725 25.6595 81.9712 25.6603C81.9528 25.6719 81.9493 25.68 81.9456 25.689C81.9369 25.7115 81.9243 25.7393 81.7031 25.867C81.7169 25.8831 81.727 25.9012 81.7325 25.921C81.7916 26.1334 81.569 26.4972 81.3012 26.9088C81.3043 26.9118 81.3075 26.9149 81.3107 26.9179C81.3261 26.9327 81.3426 26.9485 81.3569 26.9657C81.3995 27.0152 81.4236 27.0801 81.3385 27.1593C81.1956 27.2956 81.0565 27.403 80.9365 27.4956C80.7326 27.8531 80.5663 28.2163 80.5514 28.5278C80.5469 28.6259 80.5576 28.7189 80.5871 28.8071C80.6139 28.8875 80.6528 28.9659 80.7014 29.0403C80.7971 29.0619 80.9074 29.0773 81.0094 29.0916C81.1528 29.1117 81.2804 29.1313 81.3308 29.1653C81.452 29.2467 81.3538 29.4154 81.2798 29.5395C81.2677 29.5598 81.2563 29.5791 81.2466 29.5965C81.3195 29.6554 81.396 29.7146 81.4735 29.7745C81.4441 29.7886 81.4133 29.803 81.3818 29.8177C80.9881 30.0014 81.0156 30.0768 81.0578 30.2001C81.0761 30.2536 81.097 30.3164 81.0869 30.3997C81.0803 30.4535 80.9221 30.5214 80.7929 30.5762C80.7549 30.5923 80.7193 30.6074 80.6909 30.6207C80.5935 30.6662 80.7092 30.6579 80.8462 30.6491C81.0237 30.6374 81.2375 30.6257 81.0656 30.7222C80.5169 31.0259 80.9312 30.999 81.2472 30.9882C81.3398 30.9846 81.4235 30.9818 81.4715 30.9874C81.6274 31.0059 81.4998 31.111 81.3137 31.206C81.1661 31.2811 81.3388 31.3352 81.5497 31.365C81.6294 31.3762 81.638 31.411 81.6475 31.4524C81.6573 31.4953 81.6679 31.5447 81.7614 31.5845C81.9982 31.6876 82.1133 31.7496 82.2057 31.8013C82.232 31.816 82.2559 31.8299 82.2808 31.8438C82.3595 31.8877 82.4272 31.947 82.4952 32.0113C82.5766 32.0877 82.6583 32.1671 82.7616 32.228C82.6779 32.4188 82.5656 32.6136 82.4475 32.8115C82.3861 32.9125 82.019 33.0216 81.4108 33.0907C80.802 33.1609 80.0071 33.1846 79.1838 33.1801C78.3604 33.1757 77.5661 33.1506 76.9565 33.1335C76.3475 33.1151 75.9772 33.1049 75.9107 33.0837C75.778 33.0395 75.6437 32.9967 75.5342 32.95C75.4009 32.8933 75.3044 32.8308 75.2912 32.7484C75.2818 32.6903 75.2904 32.626 75.3125 32.5548C75.3148 32.5475 75.3174 32.54 75.32 32.5326C75.1103 32.5167 74.9186 32.5015 74.846 32.4771C74.786 32.4569 74.8864 32.4104 74.9719 32.369C75.0308 32.3406 75.0827 32.315 75.0709 32.304C75.0646 32.2981 75.0502 32.2912 75.0328 32.2832C74.9619 32.2497 74.8415 32.1953 75.0133 32.0692C75.0895 32.013 75.2462 31.9288 75.3951 31.8459C75.6079 31.7276 75.8046 31.6126 75.7316 31.6026C75.6034 31.5852 75.6841 31.5014 75.7548 31.4254C75.8223 31.3531 75.8805 31.2884 75.7417 31.3031C75.5759 31.3206 75.6326 31.2771 75.716 31.2109C75.7738 31.1651 75.8442 31.1086 75.8629 31.0548C75.8845 30.9926 75.9828 30.9222 76.0662 30.8619C76.1837 30.7772 76.2713 30.7118 76.0744 30.7204C75.8558 30.7302 75.7094 30.7148 75.7582 30.6491C75.7804 30.6191 75.7657 30.5981 75.7502 30.5758C75.7297 30.5463 75.7083 30.5155 75.7698 30.4602C75.8205 30.4148 75.9648 30.3423 76.0925 30.2781C76.1323 30.2581 76.1703 30.2389 76.2035 30.2215C76.1946 30.2012 76.1846 30.1811 76.1731 30.1617C76.1476 30.1665 76.1194 30.172 76.0903 30.1777C75.9442 30.2065 75.7649 30.2411 75.6699 30.2418C75.5194 30.2426 75.5909 30.1753 75.666 30.102C75.7246 30.0453 75.7858 29.986 75.7462 29.9561C75.7191 29.9353 75.6467 29.9258 75.575 29.9167C75.4687 29.9034 75.3637 29.8895 75.4096 29.8384C75.4268 29.8193 75.5181 29.7763 75.609 29.7335C75.6095 29.7332 75.6101 29.733 75.6106 29.7328C75.6168 29.7299 75.6228 29.727 75.629 29.7241C75.5302 29.6731 75.4238 29.6242 75.3125 29.5748C75.2858 29.5765 75.2594 29.5781 75.2333 29.5795C75.1061 29.5865 74.9829 29.5943 74.8158 29.6278C74.6347 29.6644 74.5142 29.6419 74.3863 29.6153C74.3023 29.5975 74.2159 29.5798 74.1076 29.5769C74.0441 29.5748 74.135 29.5209 74.2288 29.4656C74.3163 29.414 74.4062 29.3613 74.3749 29.3478C74.3732 29.3471 74.3712 29.3465 74.3688 29.3459C74.3494 29.3412 74.3093 29.3428 74.2667 29.3444C74.2247 29.3461 74.1802 29.3478 74.1511 29.3437C74.1242 29.3398 74.169 29.2962 74.2258 29.2405C74.2608 29.2055 74.3004 29.166 74.3313 29.1285C74.249 29.0855 74.168 29.0374 74.092 28.9896C74.0012 29.0036 73.8853 29.0277 73.7384 29.0646C73.633 29.0911 73.5078 29.1251 73.3797 29.1597C73.2055 29.2068 73.0254 29.2553 72.8801 29.2888C72.7665 29.3149 72.719 29.318 72.7624 29.2955C72.7826 29.285 72.822 29.2693 72.8577 29.2551C72.8986 29.2388 72.9349 29.2243 72.9329 29.2215C72.9313 29.2196 72.9009 29.2267 72.8642 29.2353C72.8055 29.249 72.7297 29.2665 72.7242 29.2582C72.7034 29.227 72.7153 29.1825 72.7263 29.1357C72.7387 29.0842 72.7515 29.0364 72.7186 29.0083C72.6819 28.9775 72.776 28.8906 72.8694 28.8017C72.9347 28.7404 72.9999 28.6794 73.0214 28.6365C73.0425 28.5948 72.9716 28.5796 72.9018 28.5625C72.8183 28.5427 72.7377 28.5235 72.8253 28.4614C72.8432 28.4489 72.9611 28.4064 73.1089 28.3537C73.2136 28.3163 73.3333 28.2736 73.4433 28.2327C73.4316 28.1908 73.4248 28.1467 73.4225 28.1015C73.4057 28.1044 73.3886 28.1073 73.3711 28.1103C73.3707 28.1104 73.3703 28.1105 73.3699 28.1106C72.9761 28.1788 72.4358 28.2662 72.7309 28.1101C72.8061 28.0709 72.9509 28.0218 73.0812 27.9771C73.2091 27.9333 73.3237 27.8946 73.345 27.8751C73.369 27.8531 73.2843 27.8556 73.1922 27.8579C73.0626 27.8603 72.9174 27.8614 73.0377 27.7991C73.0459 27.7948 73.0549 27.7902 73.0639 27.7855C73.1491 27.74 73.2755 27.6732 73.539 27.5774C73.5883 27.4612 73.6511 27.3415 73.7236 27.2217C73.8444 27.0226 73.9922 26.8219 74.147 26.6472C74.2232 26.5614 74.5884 26.4415 75.1821 26.3089C75.7767 26.176 76.5459 26.0383 77.3447 25.9179C78.1435 25.7974 78.9189 25.7048 79.5254 25.6511C80.1312 25.5977 80.5126 25.5841 80.6064 25.6081C80.7579 25.6484 80.9075 25.6701 81.0456 25.6882C81.0625 25.6873 81.0789 25.6864 81.0942 25.6857C81.2086 25.6807 81.4344 25.65 81.66 25.6162C81.7118 25.6084 81.7637 25.6005 81.8141 25.5928Z" fill="black"/>
<path d="M112.111 22.1053C112.18 22.7261 111.57 23.4456 111.244 23.852C111.238 23.8595 111.233 23.8669 111.227 23.8744C111.15 23.9695 111.088 24.0687 111.018 24.1833C110.854 24.4563 110.625 24.8245 110.005 25.5126C109.898 25.7479 109.788 25.9855 109.679 26.2173C108.69 28.3187 107.747 30.3388 107.155 32.3512C107.036 32.7595 106.929 33.1795 106.835 33.6077C106.834 33.641 106.834 33.6749 106.834 33.7092C106.827 34.3719 106.87 35.2003 106.745 35.7367C106.585 36.4196 106.455 36.9052 106.345 37.3078C106.228 39.578 106.422 41.9729 106.908 44.3438C107.061 45.0877 107.242 45.83 107.452 46.5686C107.645 47.249 107.857 47.9269 108.086 48.6046C108.286 48.9779 108.498 49.3288 108.694 49.6536C108.97 50.1087 109.219 50.5191 109.368 50.8729C109.728 51.7284 109.905 52.7817 110.033 53.5693C110.054 53.6986 110.074 53.8205 110.093 53.933C110.324 54.5173 110.56 55.1127 110.792 55.7097C110.772 55.7597 110.752 55.8105 110.731 55.8621C110.467 56.5048 110.655 57.1435 110.927 58.1773C111.045 58.627 111.178 59.1554 111.286 59.7885C111.355 60.1965 111.232 60.4468 111.13 60.6434C111.1 60.7016 111.072 60.756 111.051 60.8094C110.98 60.9923 111.124 61.1406 111.295 61.3251C111.516 61.5636 111.78 61.8488 111.658 62.3161C111.26 63.7761 111.693 64.3442 112.033 64.82C112.131 64.9575 112.218 65.0828 112.268 65.2156C112.375 65.5032 112.35 65.8794 112.253 66.2317C112.281 66.4487 112.099 67.024 112.047 67.2366C111.924 67.4159 111.784 67.5793 111.643 67.7165C111.322 68.0353 111.058 68.8441 110.829 69.4986C110.746 69.7462 110.542 70.0203 110.285 70.3227C110.019 70.6364 109.697 70.9787 109.387 71.3805C108.591 72.3914 108.075 72.8278 107.678 73.185C107.564 73.2852 107.455 73.3765 107.347 73.4667C107.192 73.5955 107.017 73.7291 106.827 73.8631C106.595 74.0269 106.345 74.1897 106.092 74.3453C105.541 74.6855 104.984 74.9882 104.577 75.2439C103.397 75.5765 102.269 75.7739 101.189 75.9362C100.632 76.0188 100.036 75.7907 99.5196 75.2943C99.0033 74.7973 98.6058 74.0784 98.4024 73.2806C98.1992 72.4826 98.2081 71.6608 98.4161 70.9787C98.6244 70.297 99.0113 69.8156 99.4794 69.621C100.424 69.2301 101.315 68.8263 102.108 68.4122C102.609 68.1512 103.069 67.8863 103.478 67.6236C103.864 67.3764 104.215 67.1274 104.535 66.8807C104.999 66.5218 105.381 66.1532 105.703 65.751C105.736 65.7096 105.768 65.6677 105.8 65.6254C105.844 65.2978 105.851 64.9865 105.859 64.7276L105.577 66.1019C105.54 65.9515 105.509 65.8101 105.487 65.6831C105.427 65.3385 105.521 65.0858 105.598 64.8516C105.65 64.6905 105.695 64.5485 105.673 64.4085C105.661 64.3333 105.638 64.2306 105.609 64.1053C105.494 63.596 105.26 62.7263 105.283 61.8451C105.294 61.4535 105.368 60.9789 105.429 60.514C105.517 59.8524 105.578 59.2125 105.436 58.9421C105.186 58.4604 105.12 57.8461 105.054 57.2941C104.992 56.771 104.932 56.3096 104.725 56.0967C104.479 55.8461 104.467 55.5724 104.445 55.1607C104.429 54.8756 104.411 54.5289 104.306 54.0736C104.185 53.5501 104.182 53.1535 104.179 52.8134C104.175 52.3377 104.172 51.9786 103.838 51.5424C103.469 51.06 103.164 50.5226 103.092 50.0499C103.059 49.8344 102.981 49.599 102.9 49.354C102.793 49.03 102.682 48.6871 102.664 48.3495C102.649 48.0714 102.742 47.8119 102.824 47.5827C102.85 47.5112 102.875 47.4427 102.895 47.3774C102.835 47.1701 102.775 46.9625 102.713 46.7549C102.679 46.7278 102.642 46.6997 102.604 46.6702C102.411 46.5223 102.174 46.3388 102.012 46.0749C101.756 45.6568 101.741 45.2323 101.73 44.7866C101.722 44.4384 101.716 44.0768 101.6 43.6868C101.521 43.4208 101.39 43.1245 101.263 42.8294C101.074 42.3923 100.893 41.9499 100.894 41.6207C100.895 41.4973 100.975 41.377 101.056 41.2586C101.057 41.2581 101.057 41.2575 101.058 41.257C101.063 41.249 101.068 41.2409 101.074 41.2329C100.863 40.4699 100.663 39.6977 100.482 38.9128C100.449 38.847 100.416 38.7802 100.383 38.7132C100.223 38.3868 100.074 38.0655 99.8869 37.8614C99.6841 37.6421 99.5294 37.0443 99.391 36.4059C99.2995 35.9855 99.2147 35.5459 99.1125 35.1836C99.0526 34.9713 99.1576 34.7679 99.268 34.5627C99.3711 34.3708 99.4786 34.1766 99.4619 33.9595C99.4535 33.8509 99.416 33.7312 99.3769 33.6028C99.3424 33.4898 99.3066 33.3696 99.2885 33.2445C99.2719 33.1283 99.3453 32.876 99.4466 32.5559C99.5093 32.3575 99.5826 32.1331 99.652 31.8977C99.6556 31.6909 99.6621 31.4835 99.6716 31.2757C99.6925 30.8322 99.7281 30.3885 99.7766 29.9507C99.7144 29.8007 99.6236 29.6612 99.4958 29.5372C99.4041 29.4479 99.2898 29.3646 99.1735 29.2777C99.0152 29.1596 98.8522 29.0358 98.7344 28.8874C98.6423 28.7716 98.6232 28.6534 98.6871 28.5953C98.717 28.5679 98.7643 28.553 98.8071 28.5395C98.8562 28.524 98.8998 28.5104 98.9058 28.4818C98.9101 28.4612 98.8853 28.4324 98.8555 28.397C98.8079 28.3405 98.7467 28.2666 98.7657 28.1829C98.8359 27.8727 98.957 27.5305 99.0798 27.2052C99.2174 26.8391 99.357 26.4918 99.4303 26.2009C99.5115 25.8763 99.7778 25.4665 100.051 25.0699C100.241 24.7942 100.435 24.5216 100.569 24.2788C100.702 24.0384 100.75 23.7588 100.802 23.4829C100.862 23.1558 100.926 22.8365 101.127 22.6402C101.168 22.6002 101.31 22.5923 101.487 22.5833C101.612 22.5769 101.755 22.5696 101.894 22.5503C102.034 22.2528 102.184 21.9556 102.338 21.6679C102.328 21.65 102.318 21.6316 102.307 21.613C102.307 21.6126 102.307 21.6123 102.306 21.6119C102.071 21.1931 101.757 20.6074 102.29 20.2963C102.425 20.2182 102.598 20.2169 102.755 20.2161C102.908 20.2155 103.045 20.215 103.113 20.1437C103.19 20.0631 103.178 19.9122 103.167 19.7467C103.151 19.514 103.135 19.254 103.357 19.1288C103.373 19.1203 103.389 19.1112 103.406 19.1016C103.566 19.0097 103.803 18.876 104.159 18.818C104.569 18.2649 104.997 17.7298 105.438 17.2101C106.173 16.343 106.945 15.5151 107.727 14.7135C108.109 14.3232 108.718 14.1253 109.43 14.1797C110.141 14.2351 110.893 14.5322 111.543 15.0122C112.193 15.4922 112.698 16.121 112.982 16.7643C113.263 17.4086 113.295 18.0138 113.085 18.4682C112.741 19.2086 112.413 19.9504 112.094 20.6862C112.086 20.7301 112.077 20.7738 112.068 20.8168C111.997 21.136 112.036 21.4993 112.081 21.858C112.091 21.9408 112.101 22.0235 112.111 22.1053Z" fill="black"/>
<path d="M129.147 43.658C129.65 44.2008 129.746 45.4237 129.807 46.0957C129.808 46.108 129.809 46.1203 129.81 46.1326C129.825 46.2925 129.852 46.4408 129.885 46.6136C129.965 47.0264 130.069 47.5836 130.108 48.7941C130.198 49.1279 130.285 49.4609 130.369 49.7958C131.277 53.4073 132.026 57.0551 132.915 60.6853C132.933 60.7288 132.951 60.773 132.969 60.8177C133.321 61.6821 133.775 62.7415 133.909 63.4662C134.047 64.2174 134.13 64.7827 134.191 65.2528C134.196 65.3389 134.201 65.4198 134.206 65.4969C134.833 67.6914 136.139 69.1851 138.247 69.4022C138.3 69.4076 138.354 69.4122 138.407 69.4158C138.954 69.4564 139.55 69.3764 140.146 69.1783C140.745 68.9802 141.343 68.6698 141.909 68.2741C142.2 67.9844 142.45 67.6719 142.668 67.3722C142.975 66.9498 143.219 66.5542 143.454 66.2575C143.748 65.8862 144.095 65.511 144.437 65.1417C144.749 64.8046 145.06 64.4683 145.322 64.1676C145.412 64.0644 145.495 63.9674 145.571 63.8742C145.884 63.2876 146.171 62.6762 146.437 62.0481C146.487 62.0232 146.537 61.9983 146.59 61.9729C147.239 61.6527 147.567 60.9887 148.018 59.9168C148.214 59.4488 148.433 58.9017 148.705 58.2591C148.88 57.8449 149.117 57.6832 149.311 57.549C149.368 57.5095 149.421 57.4723 149.468 57.4319C149.627 57.2931 149.581 57.0727 149.524 56.8147C149.45 56.4792 149.357 56.0837 149.673 55.6933C150.551 54.5982 150.473 53.8682 150.316 53.3437C150.294 53.2667 150.269 53.1936 150.245 53.1236C150.19 52.9622 150.139 52.8173 150.124 52.6774C150.075 52.2253 150.343 51.6633 150.624 51.2442C150.85 50.9126 150.816 50.1569 150.691 49.5811C150.644 49.3632 150.679 49.0821 150.715 48.7507C150.753 48.4064 150.793 48.0075 150.744 47.5701C150.62 46.4683 150.537 45.88 150.475 45.409C150.456 45.2741 150.439 45.1468 150.421 45.023C150.363 44.6253 150.317 44.1337 150.264 43.6336C150.202 43.0382 150.13 42.4188 150.031 41.9592C150.127 40.7452 150.226 39.5291 150.311 38.2886C150.356 37.6595 150.701 37.035 151.291 36.5574C151.881 36.0863 152.663 35.7893 153.486 35.7535C154.309 35.7166 155.114 35.9445 155.742 36.3739C156.369 36.8096 156.763 37.4249 156.85 38.0729C157.024 39.3939 157.185 40.7109 157.295 42.0574C157.428 43.6916 157.485 45.3557 157.375 47.0449C157.299 48.2277 157.163 49.4208 156.958 50.6117C156.937 50.7341 156.915 50.8559 156.892 50.9788C156.943 52.0119 156.927 53.0525 156.838 53.7664C156.782 54.2235 156.645 54.562 156.504 54.846C156.463 54.9279 156.422 55.0054 156.382 55.08C156.259 55.3086 156.15 55.508 156.102 55.7273C156.076 55.845 156.046 56.0065 156.008 56.202C155.857 56.9978 155.563 58.3549 154.96 59.4799C154.693 59.9789 154.307 60.5285 153.928 61.0424C153.386 61.7791 152.856 62.44 152.746 62.8461C152.555 63.561 152.094 64.2783 151.664 64.8971C151.254 65.4891 150.875 65.9902 150.805 66.3704C150.722 66.8239 150.467 67.106 150.075 67.5103C149.803 67.7901 149.466 68.1298 149.042 68.6231C149.02 68.6483 148.998 68.6729 148.977 68.697C148.511 69.2201 148.093 69.5283 147.732 69.7827C147.197 70.1556 146.796 70.4115 146.383 71.0324C145.922 71.7235 145.295 72.3603 144.673 72.6777C144.389 72.8237 144.084 73.0156 143.749 73.2045C143.309 73.4539 142.82 73.6933 142.328 73.8033C141.922 73.8946 141.549 73.8476 141.225 73.794C141.125 73.7771 141.029 73.7597 140.937 73.7456C140.629 73.8282 140.312 73.8991 139.993 73.9556C139.945 73.9895 139.894 74.0262 139.841 74.0636C139.573 74.2512 139.221 74.474 138.748 74.5778C138.603 74.6096 138.458 74.6292 138.316 74.6386C137.753 74.6773 137.228 74.5544 136.703 74.3859C136.194 74.2213 135.683 74.0166 135.081 73.8299C134.67 73.7025 134.191 73.5659 133.725 73.3884C133.031 73.1289 132.372 72.7702 132.023 72.4018C131.892 72.2642 131.836 72.082 131.789 71.9035C131.788 71.9026 131.788 71.9017 131.788 71.9008C131.785 71.8886 131.782 71.8766 131.778 71.8644C130.849 71.1172 130.064 70.228 129.418 69.2899C129.346 69.2173 129.276 69.1446 129.206 69.0699C128.866 68.7065 128.559 68.3368 128.281 68.1254C128.197 68.062 128.103 67.9589 128.002 67.8235C127.773 67.5469 127.509 67.1078 127.24 66.651C126.994 66.2347 126.745 65.8026 126.506 65.4621C126.366 65.2629 126.383 65.0171 126.402 64.7646C126.42 64.5291 126.439 64.2876 126.333 64.0714C126.279 63.963 126.194 63.8559 126.104 63.7413C126.024 63.6405 125.94 63.5336 125.87 63.4152C125.804 63.3052 125.763 63.0229 125.712 62.6613C125.68 62.4377 125.644 62.1841 125.597 61.9216C125.31 61.2842 125.03 60.6431 124.761 59.9983C124.63 59.8881 124.479 59.8041 124.305 59.7549C124.179 59.7197 124.037 59.7008 123.892 59.681C123.694 59.6541 123.49 59.6259 123.311 59.5536C123.171 59.4972 123.093 59.4029 123.117 59.316C123.127 59.2755 123.16 59.2369 123.189 59.2019C123.222 59.1618 123.252 59.1262 123.242 59.0972C123.234 59.0762 123.198 59.0635 123.154 59.0475C123.083 59.0221 122.991 58.9887 122.962 58.9037C122.853 58.5872 122.766 58.2168 122.683 57.8535C122.59 57.4495 122.502 57.055 122.39 56.7524C122.264 56.4136 122.234 55.8879 122.207 55.363C122.189 54.997 122.171 54.6302 122.123 54.3257C122.076 54.0274 121.933 53.7409 121.796 53.4637C121.631 53.1312 121.474 52.8087 121.498 52.4957C121.503 52.4324 121.606 52.3292 121.735 52.2003C121.826 52.1088 121.931 52.0038 122.023 51.8913C121.931 51.5255 121.846 51.1593 121.766 50.7905C121.747 50.7816 121.727 50.7723 121.706 50.7631C121.706 50.763 121.706 50.7629 121.705 50.7628C121.246 50.5565 120.616 50.2665 120.797 49.6108C120.844 49.4445 120.971 49.3172 121.085 49.2027C121.198 49.0902 121.299 48.99 121.299 48.877C121.299 48.7487 121.186 48.6231 121.063 48.4858C120.89 48.2933 120.697 48.0755 120.772 47.7997C120.777 47.7809 120.782 47.7606 120.788 47.7396C120.84 47.5405 120.917 47.2448 121.134 46.9227C121.04 46.1254 120.964 45.3221 120.904 44.5215C120.804 43.1843 120.744 41.8435 120.703 40.5054C120.684 39.8547 120.96 39.1824 121.49 38.6419C122.021 38.0996 122.757 37.7363 123.556 37.6161C124.355 37.4962 125.163 37.6254 125.831 37.9668C126.498 38.3076 126.966 38.8313 127.155 39.4239C127.462 40.3914 127.78 41.3546 128.097 42.3149C128.123 42.3633 128.149 42.4119 128.174 42.4606C128.359 42.8227 128.651 43.1349 128.945 43.444C129.013 43.5151 129.08 43.5863 129.147 43.658Z" fill="black"/>
<path d="M165.285 66.1108C165 65.3004 165.36 63.8567 165.565 63.0666C165.568 63.052 165.572 63.0375 165.576 63.023C165.624 62.8353 165.656 62.6567 165.693 62.4459C165.783 61.942 165.901 61.267 166.373 59.886C166.43 59.4719 166.493 59.0605 166.562 58.649C167.307 54.1987 168.502 49.8214 169.936 45.513C169.947 45.4568 169.959 45.3997 169.971 45.3421C170.196 44.2369 170.499 42.8562 170.868 42.0266C171.33 40.9948 171.706 40.2827 172.015 39.729C173.327 36.3407 174.715 32.9903 176.395 29.6434C176.934 28.5833 177.5 27.5344 178.178 26.4721C178.491 25.9825 178.835 25.4859 179.212 25.0118C179.529 24.5235 180.573 24.1299 181.15 24.0504C182.398 23.9842 183.593 24.5655 184.277 25.1211C185.144 25.7211 185.681 26.3053 186.142 26.8172C186.782 27.5504 187.224 28.1775 187.531 28.7251C188.263 30.0459 188.669 31.5739 188.941 32.7031C188.984 32.8837 189.024 33.0575 189.063 33.2203C189.244 33.6766 189.42 34.134 189.595 34.6007C189.737 34.979 189.882 35.3743 190.02 35.756C190.006 35.8226 189.991 35.8903 189.975 35.9593C189.772 36.8069 190.028 37.6992 190.404 39.1034C190.568 39.7189 190.751 40.4195 190.93 41.2671C191.043 41.8027 190.947 42.1299 190.866 42.383C190.842 42.4584 190.82 42.5292 190.806 42.5992C190.755 42.838 190.922 43.0428 191.117 43.2781C191.37 43.5806 191.676 43.9596 191.62 44.5499C191.443 46.4455 192.017 47.1316 192.452 47.6458C192.58 47.7978 192.696 47.9365 192.776 48.0875C193.037 48.5685 193.059 49.3428 192.985 49.9424C192.927 50.421 193.277 51.2718 193.619 51.8964C193.749 52.1335 193.826 52.4787 193.914 52.8801C194.007 53.2979 194.112 53.7814 194.307 54.2806C194.799 55.543 195.048 56.2154 195.249 56.7581C195.306 56.9134 195.358 57.0562 195.412 57.1994C195.581 57.652 195.761 58.2223 195.943 58.7977C196.161 59.4885 196.381 60.1875 196.589 60.7106C196.784 62.1408 196.952 63.5749 197.12 65.0074C197.206 65.7435 196.988 66.5127 196.498 67.1463C196.007 67.7805 195.288 68.2289 194.482 68.3958C193.676 68.5628 192.838 68.4365 192.136 68.0495C191.434 67.663 190.928 67.0442 190.714 66.3356C190.285 64.9078 189.855 63.481 189.449 62.0493C188.955 60.307 188.498 58.5563 188.122 56.7915C187.859 55.558 187.613 54.3211 187.378 53.0814C187.354 52.9542 187.331 52.8271 187.307 52.7004C186.882 51.7051 186.475 50.7233 186.248 50.0085C186.062 49.4283 186.067 48.96 186.074 48.5718C186.077 48.3005 186.08 48.059 186.019 47.8325C185.986 47.7098 185.936 47.5491 185.874 47.3464C185.623 46.5322 185.193 45.1517 185.075 43.8334C185.023 43.2474 185.029 42.5494 185.032 41.8874C185.034 40.9324 185.031 40.058 184.852 39.6516C184.543 38.954 184.408 38.091 184.281 37.3365C184.218 36.9534 184.151 36.5801 184.071 36.2919C183.999 36.0349 183.916 35.8317 183.807 35.6984C183.521 35.3367 183.474 34.9763 183.396 34.4426C183.339 34.0663 183.271 33.6189 183.084 33.0354C182.871 32.3694 182.785 31.879 182.707 31.4686C182.596 30.8959 182.493 30.4502 182.036 30.0471C181.531 29.5966 181.063 29.2733 181.014 29.1688C180.986 29.1073 180.997 29.1463 181.135 29.1876C181.19 29.2036 181.259 29.2133 181.313 29.2117L183.224 28.2636C183.08 28.4416 182.906 28.6562 182.726 28.8283C182.506 29.0358 182.216 29.1956 181.977 29.3153C181.901 29.3554 181.828 29.3957 181.759 29.4379C181.623 29.6711 181.493 29.9088 181.369 30.1462C181.371 30.197 181.374 30.2513 181.377 30.308C181.39 30.5965 181.416 30.9393 181.334 31.309C181.197 31.9128 180.911 32.3239 180.599 32.8036C180.364 33.1574 180.107 33.5712 179.946 34.0509C179.833 34.3833 179.74 34.8027 179.663 35.1917C179.543 35.7846 179.432 36.3777 179.241 36.745C179.168 36.884 179.03 36.9783 178.892 37.0729C178.891 37.0733 178.89 37.0736 178.889 37.074C178.88 37.0804 178.871 37.0869 178.862 37.0934C178.609 38.0688 178.381 39.0582 178.168 40.0647C178.168 40.1552 178.167 40.2467 178.166 40.3375C178.16 40.7811 178.156 41.2189 178.241 41.5312C178.336 41.861 178.235 42.6032 178.138 43.3881C178.076 43.8954 178.011 44.4345 178.001 44.8772C177.996 45.1341 177.836 45.3394 177.672 45.5529C177.519 45.752 177.361 45.9585 177.322 46.2192C177.304 46.3469 177.312 46.4922 177.321 46.6476C177.329 46.7845 177.337 46.9295 177.329 47.0774C177.32 47.2148 177.194 47.4951 177.034 47.8594C176.937 48.0798 176.826 48.3319 176.721 48.601C176.613 49.3563 176.509 50.1009 176.404 50.8561C176.459 51.03 176.545 51.1909 176.67 51.3275C176.76 51.4256 176.873 51.5169 176.988 51.6104C177.145 51.7377 177.308 51.8692 177.426 52.0279C177.519 52.1519 177.539 52.2794 177.475 52.3489C177.445 52.3813 177.398 52.401 177.355 52.419C177.306 52.4396 177.262 52.458 177.257 52.4905C177.253 52.514 177.278 52.5446 177.309 52.582C177.357 52.6419 177.42 52.7195 177.404 52.8144C177.34 53.1698 177.236 53.5577 177.134 53.943C177.02 54.37 176.91 54.7957 176.867 55.1356C176.82 55.5177 176.603 56.036 176.389 56.5611C176.24 56.9251 176.092 57.2884 176.001 57.6094C175.912 57.923 175.915 58.271 175.92 58.6026C175.926 59.0013 175.933 59.3856 175.78 59.686C175.749 59.7468 175.612 59.8056 175.441 59.8799C175.319 59.9326 175.18 59.9934 175.049 60.0676C174.982 60.4719 174.911 60.8747 174.836 61.279C174.85 61.296 174.865 61.3135 174.88 61.331C174.88 61.3313 174.881 61.3316 174.881 61.3319C175.22 61.7291 175.686 62.2674 175.267 62.855C175.16 63.0047 174.994 63.084 174.844 63.1557C174.697 63.2261 174.565 63.2893 174.522 63.4044C174.474 63.5352 174.532 63.7074 174.595 63.8942C174.684 64.156 174.784 64.4478 174.614 64.702C174.602 64.7193 174.59 64.738 174.577 64.7574C174.456 64.942 174.277 65.2157 173.96 65.47C173.764 66.3269 173.561 67.1856 173.356 68.0432C173.013 69.474 172.662 70.9066 172.327 72.345C172.162 73.0436 171.716 73.686 171.063 74.1311C170.409 74.576 169.605 74.7882 168.801 74.713C167.996 74.6376 167.246 74.2781 166.691 73.7039C166.137 73.1302 165.831 72.3886 165.821 71.6485C165.807 70.4406 165.802 69.232 165.818 68.0236C165.809 67.959 165.801 67.8943 165.794 67.8299C165.739 67.3512 165.569 66.8914 165.4 66.4299C165.361 66.3237 165.322 66.2173 165.285 66.1108Z" fill="black"/>
<path d="M172.085 52.8992C172.25 52.5097 172.58 52.6631 172.761 52.7474C172.765 52.7488 172.768 52.7502 172.771 52.7515C172.814 52.7715 172.855 52.7763 172.902 52.7814C173.016 52.7937 173.169 52.8104 173.491 53.0526C173.584 53.0422 173.676 53.036 173.769 53.0347C174.771 53.0204 175.777 53.3281 176.784 53.6993C176.797 53.6972 176.81 53.6949 176.823 53.6927C177.074 53.6492 177.384 53.5953 177.582 53.7338C177.834 53.9099 178.005 54.0741 178.146 54.216C178.946 54.5148 179.746 54.7807 180.543 54.884C180.793 54.9163 181.043 54.9324 181.292 54.9289C181.522 54.9256 181.751 54.9101 181.98 54.8837C182.113 54.7976 182.239 54.6957 182.355 54.6012C182.519 54.4686 182.665 54.3508 182.786 54.3113C183.079 54.2161 183.414 54.355 183.662 54.4582C183.703 54.475 183.741 54.491 183.777 54.5048C183.973 54.4491 184.168 54.3898 184.364 54.3292C184.377 54.3612 184.391 54.3945 184.405 54.4287C184.579 54.8554 184.785 54.847 185.109 54.8344C185.25 54.8289 185.414 54.8229 185.607 54.8512C185.731 54.8694 185.798 55.0386 185.852 55.1767C185.868 55.2173 185.882 55.2553 185.897 55.2859C185.949 55.3909 186 55.2759 186.06 55.1402C186.138 54.964 186.232 54.7525 186.362 54.9406C186.778 55.5398 186.951 55.1268 187.083 54.8144C187.121 54.7227 187.156 54.6399 187.192 54.5937C187.31 54.4438 187.483 54.5882 187.615 54.7879C187.719 54.9462 187.921 54.7849 188.074 54.5811C188.131 54.5041 188.21 54.5011 188.304 54.4979C188.401 54.4947 188.512 54.4914 188.631 54.4042C188.93 54.1838 189.089 54.0768 189.217 53.9911C189.254 53.9667 189.288 53.9445 189.322 53.9213C189.429 53.848 189.563 53.787 189.698 53.7255C189.86 53.6518 190.024 53.577 190.148 53.4786C190.476 53.5763 190.804 53.6982 191.131 53.8199C191.3 53.8831 191.466 54.2501 191.593 54.8572C191.72 55.4648 191.797 56.2582 191.809 57.0816C191.821 57.9049 191.765 58.7002 191.656 59.3112C191.546 59.9216 191.391 60.2938 191.224 60.3617C190.889 60.4972 190.553 60.6327 190.217 60.7417C189.808 60.8743 189.399 60.9675 188.988 60.9734C188.7 60.9774 188.413 60.9619 188.125 60.9307C188.095 60.9275 188.066 60.9239 188.036 60.9203C187.797 61.1265 187.559 61.3143 187.39 61.3824C187.251 61.4387 187.147 61.3319 187.058 61.2406C186.997 61.1778 186.943 61.1222 186.889 61.1319C186.86 61.1372 186.821 61.1502 186.773 61.1659C186.579 61.23 186.25 61.3389 185.945 61.1453C185.81 61.0594 185.652 60.8886 185.501 60.7256C185.285 60.4924 185.084 60.275 184.985 60.344C184.811 60.4654 184.608 60.3676 184.429 60.2811C184.258 60.1986 184.109 60.1265 184.026 60.2649C183.928 60.4302 183.841 60.3646 183.712 60.2675C183.622 60.2001 183.512 60.1179 183.363 60.0863C183.192 60.0498 183.07 59.9366 182.965 59.8404C182.819 59.705 182.709 59.6032 182.549 59.7956C182.372 60.0094 182.186 60.1465 182.037 60.0819C181.969 60.0524 181.892 60.0609 181.811 60.0698C181.705 60.0816 181.593 60.0938 181.49 60.0194C181.405 59.9582 181.333 59.7993 181.27 59.6588C181.25 59.6149 181.231 59.573 181.212 59.5363C181.145 59.5393 181.078 59.5432 181.011 59.5489C181.001 59.5748 180.99 59.6034 180.978 59.633C180.921 59.7814 180.85 59.9634 180.76 60.0548C180.618 60.1996 180.49 60.112 180.356 60.0191C180.251 59.9467 180.142 59.8712 180.018 59.9005C179.934 59.9206 179.839 59.9873 179.745 60.0534C179.605 60.1515 179.466 60.2481 179.368 60.1893C179.331 60.1673 179.299 60.0674 179.266 59.968C179.266 59.9674 179.266 59.9668 179.266 59.9662C179.264 59.9594 179.262 59.9528 179.259 59.9461C179.024 60.0259 178.789 60.1136 178.553 60.2058C178.533 60.2319 178.513 60.2576 178.493 60.2829C178.394 60.4068 178.298 60.5271 178.237 60.6968C178.171 60.8808 177.999 60.9896 177.819 61.1044C177.7 61.1795 177.578 61.2572 177.478 61.3601C177.42 61.4202 177.363 61.3176 177.304 61.2118C177.249 61.1131 177.192 61.0117 177.132 61.0378C177.102 61.0509 177.07 61.0942 177.036 61.1405C177.006 61.1813 176.974 61.2245 176.941 61.2511C176.91 61.2758 176.839 61.2205 176.748 61.1501C176.692 61.1066 176.628 61.0575 176.561 61.0172C176.387 61.0842 176.212 61.1485 176.038 61.2084C176.003 61.2996 175.973 61.4177 175.95 61.5692C175.933 61.6778 175.92 61.8076 175.906 61.9403C175.887 62.1209 175.867 62.3075 175.839 62.4565C175.817 62.5729 175.789 62.6195 175.77 62.5716C175.76 62.5493 175.753 62.507 175.746 62.4688C175.739 62.425 175.732 62.3861 175.724 62.3873C175.719 62.3883 175.713 62.4194 175.707 62.4571C175.696 62.5174 175.683 62.5951 175.66 62.5982C175.577 62.6096 175.482 62.5862 175.389 62.563C175.286 62.5372 175.185 62.5122 175.105 62.5365C175.015 62.5637 174.886 62.4502 174.756 62.3369C174.665 62.258 174.574 62.1794 174.497 62.1477C174.421 62.1167 174.343 62.1816 174.268 62.245C174.178 62.321 174.091 62.3945 174.015 62.2943C174 62.274 173.98 62.1492 173.954 61.9931C173.936 61.8824 173.915 61.7559 173.891 61.6393C173.796 61.6406 173.701 61.6368 173.606 61.6287C173.603 61.6457 173.6 61.663 173.597 61.6807C173.597 61.6811 173.597 61.6815 173.597 61.6819C173.524 62.081 173.425 62.6269 173.271 62.3043C173.232 62.2223 173.205 62.0701 173.182 61.9332C173.159 61.7987 173.138 61.6784 173.11 61.6534C173.078 61.6252 173.042 61.7084 173.003 61.799C172.947 61.9262 172.886 62.0683 172.82 61.9377C172.815 61.9288 172.811 61.919 172.806 61.9092C172.758 61.8164 172.687 61.679 172.615 61.4016C172.412 61.3302 172.208 61.246 172.005 61.1539C171.665 61.0003 171.325 60.8246 170.985 60.6489C170.82 60.5624 170.657 60.1856 170.533 59.5804C170.408 58.9743 170.332 58.1943 170.32 57.3865C170.309 56.5787 170.363 55.7973 170.47 55.188C170.578 54.5795 170.73 54.1982 170.892 54.1071C171.158 53.9601 171.424 53.813 171.689 53.677C171.703 53.6601 171.717 53.6436 171.731 53.6282C171.834 53.5135 171.927 53.2848 172.021 53.0558C172.042 53.0032 172.064 52.9505 172.085 52.8992Z" fill="black"/>
<path d="M212.583 25.2315C212.955 25.7838 212.77 26.808 212.668 27.3844C212.666 27.3949 212.664 27.4054 212.662 27.4159C212.638 27.5514 212.629 27.6798 212.62 27.8299C212.596 28.1912 212.565 28.6598 212.29 29.6739C212.292 29.9692 212.289 30.2633 212.281 30.5562C212.196 33.7282 211.791 36.8862 211.338 40.0348C211.339 40.0744 211.34 40.1162 211.341 40.1576C211.364 40.9656 211.395 41.9256 211.242 42.5523C211.048 43.3409 210.873 43.856 210.722 44.2962C210.374 46.7968 210.073 49.2998 209.971 51.7995C209.939 52.5902 209.926 53.3604 209.939 54.1462C209.95 54.8451 209.978 55.5947 210.021 56.287C210.118 56.7088 210.231 57.1029 210.337 57.4585C210.486 57.9521 210.624 58.4257 210.68 58.787C210.815 59.6814 210.739 60.7075 210.696 61.4518C210.689 61.571 210.683 61.6866 210.678 61.7976C210.785 62.391 210.904 62.9609 211.035 63.5187C211.008 63.56 210.979 63.6016 210.95 63.6439C210.592 64.189 210.681 64.8052 210.874 65.6685C210.962 66.0517 211.072 66.4787 211.185 66.9073C211.264 67.1968 211.148 67.3508 211.071 67.5184C211.047 67.5644 211.025 67.607 211.009 67.6463C210.957 67.7807 211.105 67.8158 211.265 67.8169C211.438 67.8151 211.617 67.744 211.512 67.7344L210.916 67.3364C210.946 67.3643 210.975 67.3997 211.004 67.4445C211.663 68.3948 212.372 68.1363 212.782 67.9279C212.91 67.8671 213.024 67.8106 213.134 67.7899C213.485 67.7226 213.915 67.9625 214.245 68.2267C214.505 68.4378 215.123 68.3778 215.6 68.2379C215.781 68.1856 216.012 68.2137 216.286 68.2441C216.57 68.2756 216.901 68.3095 217.265 68.2583C218.185 68.1274 218.677 68.0526 219.072 67.9952C219.185 67.9786 219.29 67.9633 219.396 67.9469C219.442 67.9397 219.49 67.9328 219.538 67.9261C219.843 67.885 220.195 67.8528 220.551 67.8176C221.044 67.7687 221.543 67.713 221.923 67.6259C222.897 67.7537 223.873 67.8833 224.876 67.9967C225.389 68.0558 225.896 68.4149 226.282 69.0157C226.667 69.6169 226.897 70.4065 226.915 71.2297C226.932 72.0529 226.74 72.8519 226.376 73.4691C226.012 74.0858 225.503 74.4662 224.958 74.5386C223.863 74.6836 222.743 74.8107 221.622 74.8838C220.79 74.9385 219.955 74.9645 219.126 74.9529C218.597 74.9456 218.063 74.9229 217.527 74.8798C216.566 74.8025 215.595 74.6838 214.611 74.5113C214.51 74.4935 214.409 74.475 214.307 74.456C213.446 74.5354 212.553 74.5553 211.92 74.4793C211.397 74.4173 211.04 74.2119 210.739 74.0313C210.532 73.9068 210.348 73.7928 210.141 73.7364C210.03 73.7059 209.876 73.6693 209.687 73.6193C209.298 73.5162 208.759 73.3605 208.151 73.0774C207.968 72.9538 207.409 72.657 207.268 72.4877C206.315 71.6335 205.878 70.7306 205.656 70.0305C205.449 69.3711 205.4 68.6787 205.4 68.0739C205.398 67.2002 205.483 66.4683 205.351 66.1378C205.114 65.5212 205.113 64.8336 205.124 64.2268C205.135 63.6496 205.157 63.138 204.993 62.8803C204.797 62.5689 204.834 62.2461 204.899 61.8363C204.943 61.5454 204.998 61.1714 204.999 60.6849C205.001 60.1373 205.093 59.7275 205.172 59.3841C205.285 58.9189 205.372 58.5655 205.16 58.0384C204.925 57.4758 204.77 56.8678 204.823 56.3816C204.848 56.1676 204.834 55.922 204.82 55.6634C204.802 55.3248 204.783 54.9436 204.853 54.6273C204.911 54.3596 205.067 54.1345 205.206 53.9347C205.249 53.8724 205.291 53.8125 205.327 53.7544C205.322 53.5397 205.316 53.3155 205.309 53.1052C205.283 53.0713 205.254 53.0357 205.225 52.9984C205.075 52.8114 204.892 52.5799 204.8 52.2886C204.654 51.8273 204.742 51.4124 204.836 50.9946C204.909 50.6651 204.986 50.3197 204.959 49.9187C204.941 49.6397 204.876 49.3471 204.813 49.0415C204.719 48.5919 204.627 48.1384 204.69 47.8262C204.713 47.712 204.815 47.6143 204.915 47.5174C204.916 47.517 204.916 47.5166 204.917 47.5162C204.924 47.5096 204.931 47.503 204.937 47.4964C204.867 46.752 204.792 45.9756 204.713 45.2345C204.688 45.1691 204.664 45.1029 204.639 45.0372C204.521 44.7164 204.407 44.4017 204.242 44.1942C204.062 43.9637 203.964 43.4261 203.862 42.8395C203.796 42.459 203.727 42.0511 203.632 41.7355C203.576 41.5485 203.683 41.3736 203.793 41.1932C203.896 41.0249 204.002 40.8516 203.98 40.6587C203.97 40.5621 203.929 40.457 203.886 40.3446C203.847 40.2456 203.807 40.1407 203.783 40.0311C203.761 39.9272 203.822 39.7095 203.9 39.4268C203.948 39.2522 204.002 39.0533 204.048 38.8435C203.996 38.2859 203.948 37.7174 203.903 37.1673C203.816 37.0496 203.7 36.9463 203.551 36.863C203.444 36.8033 203.316 36.7515 203.184 36.6982C203.006 36.6257 202.821 36.5507 202.675 36.4497C202.561 36.3707 202.517 36.2797 202.567 36.2205C202.59 36.1929 202.633 36.1723 202.671 36.1536C202.716 36.1322 202.755 36.1131 202.755 36.0885C202.754 36.0708 202.724 36.0517 202.687 36.0281C202.628 35.9905 202.551 35.9415 202.55 35.8698C202.547 35.6004 202.579 35.3052 202.611 35.0126C202.646 34.6877 202.681 34.3684 202.664 34.1121C202.646 33.8268 202.772 33.4126 202.897 33.0155C202.985 32.7355 203.072 32.4539 203.111 32.2107C203.15 31.9724 203.092 31.7209 203.037 31.4766C202.97 31.1821 202.905 30.9033 203.012 30.6714C203.034 30.6244 203.161 30.5687 203.319 30.4987C203.431 30.4491 203.56 30.392 203.678 30.3261C203.686 30.0261 203.7 29.7251 203.717 29.4232C203.701 29.4121 203.684 29.4007 203.666 29.3892C203.666 29.389 203.665 29.3888 203.665 29.3886C203.274 29.1302 202.739 28.7724 203.076 28.3112C203.162 28.1933 203.316 28.1217 203.455 28.0571C203.592 27.9937 203.714 27.937 203.742 27.8499C203.773 27.7509 203.694 27.6308 203.607 27.4997C203.486 27.3156 203.35 27.1096 203.487 26.9098C203.496 26.8961 203.506 26.8814 203.517 26.8662C203.614 26.7221 203.758 26.5036 204.042 26.2985C204.134 25.664 204.238 25.0257 204.35 24.3838C204.536 23.3229 204.744 22.2553 204.952 21.1949C205.054 20.68 205.445 20.1911 206.061 19.8373C206.678 19.4836 207.463 19.2945 208.271 19.3142C209.079 19.3339 209.854 19.5612 210.452 19.9457C211.05 20.3302 211.416 20.8396 211.492 21.3604C211.614 22.207 211.735 23.0724 211.845 23.9181C211.861 23.9628 211.876 24.0076 211.89 24.0523C211.994 24.3816 212.213 24.7017 212.433 25.0147C212.483 25.0869 212.534 25.1592 212.583 25.2315Z" fill="black"/>
<path d="M246.098 29.2209C246.442 29.7689 246.21 30.766 246.087 31.3104C246.085 31.3205 246.083 31.3306 246.081 31.3407C246.052 31.4712 246.038 31.5954 246.023 31.7408C245.987 32.0884 245.938 32.5508 245.638 33.5205C245.632 33.8067 245.623 34.0876 245.609 34.3759C245.463 37.4564 245.083 40.5208 244.748 43.61C244.75 43.6486 244.753 43.6879 244.756 43.7275C244.809 44.5036 244.885 45.454 244.766 46.0591C244.615 46.8262 244.473 47.3553 244.351 47.7868C244.168 50.2494 244.096 52.707 244.31 55.1311C244.377 55.883 244.474 56.644 244.604 57.3781C244.726 58.0663 244.87 58.7355 245.042 59.3941C245.212 59.764 245.396 60.1005 245.572 60.4079C245.818 60.8365 246.043 61.1987 246.182 61.5172C246.237 61.6429 246.287 61.7698 246.332 61.8958L245.575 60.6569C246.067 61.1356 246.526 61.705 246.907 62.1367C246.981 62.2213 247.052 62.3005 247.119 62.3731C247.574 62.6727 248.044 62.9509 248.522 63.2086C248.534 63.2556 248.545 63.3039 248.557 63.3532C248.702 63.968 249.201 64.2901 250.008 64.7303C250.361 64.9218 250.774 65.1352 251.258 65.4005C251.569 65.5709 251.666 65.7999 251.748 65.9885C251.772 66.0439 251.795 66.0957 251.822 66.1409C251.913 66.2961 252.101 66.2522 252.319 66.1967C252.603 66.125 252.935 66.0324 253.212 66.3395C254.114 67.3189 254.775 67.0743 255.231 66.8864C255.367 66.831 255.49 66.78 255.604 66.7643C255.975 66.714 256.41 66.9766 256.73 67.2574C256.984 67.4815 257.606 67.4531 258.084 67.3358C258.265 67.2919 258.491 67.3306 258.759 67.3726C259.035 67.416 259.357 67.463 259.712 67.424C260.609 67.3234 261.077 67.2551 261.454 67.2028C261.482 67.1988 261.509 67.1948 261.536 67.1909L261.33 67.1811C261.406 67.1654 261.479 67.1501 261.55 67.1341C261.859 67.0658 262.238 67.0053 262.62 66.9358C263.077 66.8531 263.539 66.7566 263.886 66.636C264.81 66.6766 265.759 66.6981 266.749 66.6904C267.256 66.6875 267.8 66.9804 268.257 67.5278C268.714 68.0755 269.042 68.8294 269.164 69.6437C269.287 70.458 269.198 71.2749 268.915 71.9334C268.631 72.5912 268.17 73.0335 267.631 73.1731C266.547 73.453 265.418 73.712 264.257 73.8906C263.253 74.0458 262.229 74.141 261.206 74.1557C261.164 74.1488 261.036 74.155 260.994 74.1456C260.581 74.1269 260.169 74.0957 259.757 74.0507C258.762 73.9419 257.771 73.7754 256.789 73.5532C256.688 73.5303 256.587 73.5066 256.487 73.4826C255.618 73.518 254.742 73.4966 254.14 73.4034C253.642 73.327 253.32 73.1197 253.048 72.941C252.861 72.8179 252.698 72.7075 252.512 72.6572C252.413 72.6302 252.275 72.5985 252.109 72.5586C251.432 72.3991 250.272 72.0826 249.358 71.4584C248.952 71.1835 248.52 70.789 248.123 70.4026C247.553 69.8507 247.058 69.3152 246.72 69.1944C246.124 68.9829 245.571 68.5123 245.104 68.082C244.658 67.6718 244.286 67.2996 243.966 67.2254C243.583 67.137 243.381 66.8914 243.098 66.5247C242.901 66.269 242.665 65.9556 242.305 65.577C241.953 65.206 241.743 64.8744 241.577 64.5839C241.436 64.3917 241.055 63.8972 241.014 63.6629C241.01 63.6039 241.008 63.5464 241.005 63.4903C240.982 62.9708 240.977 62.5931 240.646 62.1055C240.283 61.5758 240.001 60.981 239.957 60.477C239.935 60.2397 239.877 60.0018 239.814 59.7367C239.731 59.3833 239.651 59.0278 239.663 58.6772C239.673 58.3862 239.792 58.1352 239.897 57.913C239.93 57.8436 239.961 57.7769 239.988 57.713C239.95 57.4974 239.91 57.2719 239.873 57.0621C239.842 57.0314 239.808 56.9992 239.773 56.9654C239.597 56.7959 239.382 56.584 239.25 56.2957C239.042 55.8552 239.075 55.4203 239.115 54.9795C239.147 54.6379 239.181 54.2712 239.109 53.8757C239.06 53.6071 238.962 53.3027 238.866 52.9962C238.725 52.5486 238.589 52.1055 238.622 51.7801C238.634 51.6584 238.725 51.5517 238.817 51.4434C238.817 51.443 238.818 51.4425 238.818 51.442C238.824 51.4347 238.831 51.4273 238.837 51.42C238.697 50.6611 238.558 49.9047 238.423 49.1388C238.393 49.0746 238.364 49.0095 238.335 48.9449C238.193 48.6291 238.058 48.3178 237.878 48.118C237.684 47.9007 237.55 47.3513 237.414 46.7542C237.325 46.3695 237.236 45.972 237.124 45.6437C237.059 45.4516 237.157 45.2657 237.259 45.0773C237.353 44.9008 237.451 44.7196 237.421 44.524C237.407 44.426 237.361 44.3205 237.313 44.2076C237.271 44.1086 237.226 44.001 237.198 43.8932C237.172 43.7919 237.225 43.5642 237.292 43.2709C237.334 43.0896 237.382 42.8831 237.421 42.6659C237.352 42.101 237.289 41.5291 237.233 40.9603C237.143 40.8421 237.026 40.7388 236.875 40.6565C236.767 40.5975 236.637 40.5468 236.505 40.4946C236.325 40.4236 236.14 40.3498 235.992 40.2484C235.876 40.1691 235.831 40.076 235.88 40.0142C235.903 39.9854 235.945 39.9635 235.984 39.9437C236.028 39.921 236.067 39.9007 236.066 39.8755C236.065 39.8573 236.035 39.838 235.997 39.8143C235.937 39.7767 235.86 39.7263 235.859 39.6539C235.852 39.3832 235.881 39.0747 235.911 38.7713C235.944 38.4336 235.977 38.1034 235.96 37.8426C235.941 37.5492 236.067 37.1329 236.195 36.7153C236.285 36.4277 236.374 36.139 236.416 35.8895C236.457 35.6454 236.403 35.3849 236.351 35.1355C236.288 34.8371 236.228 34.5482 236.34 34.3097C236.363 34.2615 236.491 34.2061 236.651 34.1368C236.764 34.0877 236.894 34.0313 237.014 33.9658C237.029 33.6547 237.049 33.3522 237.075 33.0445C237.058 33.0328 237.042 33.0207 237.025 33.0086C237.024 33.0084 237.024 33.0082 237.024 33.008C236.64 32.7356 236.115 32.3521 236.469 31.8861C236.558 31.7676 236.715 31.6991 236.857 31.6376C236.995 31.5772 237.12 31.5233 237.151 31.435C237.186 31.3348 237.111 31.209 237.029 31.0713C236.915 30.8787 236.788 30.6596 236.934 30.4633C236.943 30.4498 236.954 30.4354 236.965 30.4203C237.069 30.2773 237.222 30.0654 237.516 29.8651C237.637 29.2149 237.775 28.5716 237.924 27.9263C238.173 26.8526 238.453 25.7852 238.744 24.7222C238.886 24.2021 239.317 23.7426 239.961 23.4388C240.606 23.1356 241.406 23.0177 242.209 23.1093C243.011 23.2009 243.763 23.4945 244.327 23.9215C244.891 24.3497 245.216 24.8707 245.252 25.3889C245.31 26.2295 245.374 27.0694 245.434 27.9041C245.447 27.9487 245.459 27.9934 245.47 28.0377C245.555 28.3685 245.757 28.6878 245.96 29.0032C246.006 29.0758 246.053 29.1484 246.098 29.2209Z" fill="black"/>
<path d="M242.125 43.6036C242.236 43.211 242.492 43.3577 242.633 43.4382C242.635 43.4395 242.638 43.4408 242.64 43.4421C242.674 43.4612 242.705 43.4651 242.741 43.4693C242.827 43.4793 242.944 43.4929 243.197 43.7284C243.267 43.7161 243.337 43.708 243.408 43.7048C244.168 43.6703 244.942 43.9573 245.72 44.3078C245.729 44.3054 245.739 44.3029 245.749 44.3004C245.938 44.2518 246.172 44.1917 246.327 44.3261C246.524 44.4969 246.66 44.6576 246.771 44.7965C247.389 45.0789 248.005 45.3284 248.614 45.4154C248.805 45.4427 248.995 45.4537 249.184 45.4451C249.359 45.4372 249.532 45.417 249.706 45.3859C249.803 45.2972 249.895 45.1928 249.98 45.0961C250.1 44.9602 250.207 44.8395 250.298 44.7975C250.516 44.6965 250.775 44.8285 250.968 44.9265C250.999 44.9426 251.029 44.9577 251.056 44.9708C251.203 44.9112 251.349 44.8479 251.496 44.7834C251.507 44.8151 251.519 44.8481 251.531 44.882C251.677 45.3049 251.833 45.2923 252.079 45.2732C252.186 45.2648 252.31 45.2554 252.458 45.2798C252.553 45.2955 252.609 45.4633 252.655 45.6002C252.668 45.6404 252.681 45.6781 252.693 45.7084C252.736 45.8123 252.771 45.6963 252.812 45.5594C252.865 45.3818 252.929 45.1685 253.034 45.3538C253.371 45.9442 253.488 45.528 253.577 45.2131C253.603 45.1207 253.626 45.0372 253.652 44.9903C253.737 44.8381 253.873 44.9789 253.98 45.1758C254.064 45.3319 254.212 45.1666 254.321 44.9599C254.362 44.8817 254.422 44.8771 254.493 44.872C254.566 44.8668 254.651 44.8612 254.738 44.7717C254.958 44.5454 255.075 44.4352 255.169 44.347C255.196 44.3219 255.221 44.2989 255.246 44.2751C255.325 44.1997 255.424 44.136 255.525 44.0718C255.645 43.9949 255.767 43.9168 255.858 43.8159C256.11 43.9069 256.363 44.0221 256.616 44.137C256.746 44.1968 256.885 44.5602 257.002 45.1643C257.12 45.7689 257.206 46.5603 257.243 47.3828C257.281 48.2054 257.266 49.0013 257.204 49.6141C257.142 50.2264 257.037 50.6015 256.913 50.6728C256.663 50.815 256.413 50.9572 256.162 51.0729C255.856 51.2138 255.548 51.3153 255.236 51.3294C255.018 51.3393 254.799 51.3296 254.58 51.3043C254.557 51.3017 254.535 51.2987 254.512 51.2958C254.338 51.5066 254.163 51.6991 254.038 51.7707C253.934 51.8297 253.851 51.7251 253.781 51.6357C253.732 51.5742 253.689 51.5197 253.649 51.5305C253.627 51.5363 253.597 51.5502 253.562 51.5668C253.417 51.6348 253.17 51.7503 252.932 51.5631C252.827 51.48 252.701 51.3125 252.581 51.1526C252.409 50.9239 252.249 50.7108 252.176 50.7818C252.048 50.9066 251.891 50.813 251.752 50.7302C251.619 50.6512 251.503 50.5822 251.445 50.7221C251.376 50.8894 251.308 50.8256 251.206 50.7311C251.136 50.6656 251.05 50.5857 250.936 50.5571C250.804 50.5241 250.707 50.4135 250.625 50.3195C250.509 50.1871 250.422 50.0877 250.308 50.2832C250.181 50.5004 250.044 50.6412 249.928 50.5797C249.876 50.5516 249.818 50.5617 249.757 50.5722C249.677 50.5861 249.592 50.6006 249.511 50.5283C249.445 50.4688 249.385 50.3116 249.331 50.1724C249.315 50.1289 249.299 50.0875 249.284 50.0511C249.233 50.0555 249.182 50.0608 249.132 50.0678C249.124 50.0939 249.117 50.1227 249.109 50.1525C249.071 50.302 249.023 50.4853 248.958 50.5785C248.855 50.7261 248.756 50.6411 248.65 50.551C248.568 50.4808 248.483 50.4075 248.39 50.4394C248.327 50.4611 248.257 50.5297 248.187 50.5977C248.084 50.6986 247.983 50.7979 247.906 50.7412C247.878 50.72 247.849 50.6208 247.821 50.5221C247.821 50.5215 247.821 50.5209 247.821 50.5202C247.819 50.5135 247.817 50.507 247.815 50.5003C247.639 50.5849 247.464 50.6773 247.288 50.7742C247.274 50.8007 247.259 50.8268 247.245 50.8525C247.174 50.9783 247.106 51.1004 247.065 51.2713C247.021 51.4565 246.895 51.5688 246.762 51.6871C246.674 51.7646 246.584 51.8447 246.512 51.9496C246.47 52.0109 246.423 51.9095 246.374 51.8049C246.329 51.7074 246.283 51.6072 246.238 51.6345C246.216 51.6482 246.193 51.6921 246.169 51.7391C246.147 51.7805 246.125 51.8243 246.1 51.8516C246.077 51.8769 246.022 51.8231 245.95 51.7546C245.906 51.7122 245.856 51.6644 245.804 51.6256C245.674 51.696 245.544 51.7638 245.413 51.8272C245.39 51.9191 245.371 52.0378 245.359 52.1896C245.35 52.2985 245.344 52.4285 245.338 52.5614C245.33 52.7422 245.322 52.9291 245.305 53.0786C245.293 53.1953 245.273 53.2425 245.257 53.195C245.249 53.1729 245.242 53.1308 245.236 53.0927C245.228 53.0491 245.222 53.0104 245.216 53.0117C245.212 53.0128 245.209 53.0441 245.205 53.0819C245.199 53.1423 245.192 53.2203 245.175 53.2238C245.112 53.2369 245.039 53.2154 244.968 53.1941C244.888 53.1704 244.811 53.1475 244.751 53.1734C244.684 53.2024 244.581 53.0916 244.479 52.9811C244.407 52.904 244.336 52.8273 244.276 52.7972C244.217 52.7678 244.161 52.8342 244.106 52.8991C244.04 52.9769 243.977 53.0521 243.915 52.9535C243.903 52.9335 243.883 52.8092 243.858 52.6537C243.841 52.5435 243.82 52.4175 243.798 52.3014C243.726 52.3047 243.654 52.3028 243.582 52.2966C243.58 52.3137 243.578 52.3311 243.576 52.3488C243.576 52.3492 243.576 52.3496 243.576 52.35C243.535 52.7503 243.479 53.2979 243.35 52.9786C243.318 52.8974 243.293 52.7459 243.27 52.6096C243.248 52.4756 243.228 52.3558 243.206 52.3314C243.18 52.3038 243.156 52.3878 243.129 52.4791C243.092 52.6073 243.05 52.7506 242.995 52.6214C242.992 52.6126 242.988 52.6029 242.984 52.5933C242.944 52.5014 242.886 52.3656 242.822 52.0898C242.665 52.0226 242.507 51.9426 242.349 51.8547C242.086 51.7081 241.822 51.5393 241.558 51.3707C241.429 51.2876 241.293 50.9143 241.177 50.312C241.062 49.7089 240.977 48.9309 240.94 48.1239C240.903 47.3169 240.917 46.5349 240.978 45.9238C241.038 45.3135 241.14 44.9294 241.261 44.835C241.457 44.6827 241.654 44.5302 241.851 44.389C241.861 44.3717 241.871 44.355 241.881 44.3394C241.955 44.2227 242.018 43.9922 242.081 43.7614C242.096 43.7084 242.11 43.6553 242.125 43.6036Z" fill="black"/>
<path d="M245.722 28.5541C245.806 28.1128 246.275 28.1137 246.533 28.1147C246.538 28.1145 246.543 28.1144 246.548 28.1142C246.609 28.1144 246.662 28.1013 246.725 28.0854C246.873 28.0479 247.074 27.9969 247.563 28.0877C247.678 28.0379 247.795 27.9919 247.914 27.9507C249.196 27.5063 250.599 27.3771 252.013 27.3325C252.029 27.3254 252.045 27.3182 252.061 27.3108C252.375 27.1691 252.764 26.9957 253.062 27.0517C253.437 27.1236 253.706 27.2162 253.928 27.2991C254.572 27.2898 255.212 27.2748 255.841 27.2303C256.307 27.1975 256.768 27.1484 257.221 27.0729C257.553 27.0177 257.881 26.9477 258.204 26.8595C258.501 26.7787 258.795 26.6866 259.087 26.5846C259.237 26.4571 259.376 26.3164 259.506 26.1862C259.686 26.0036 259.849 25.8408 259.996 25.7631C260.354 25.5751 260.822 25.6018 261.168 25.6228C261.225 25.6262 261.279 25.6294 261.328 25.6314C261.568 25.515 261.81 25.3948 262.049 25.2743C262.074 25.3011 262.099 25.3293 262.125 25.3582C262.448 25.7187 262.712 25.6459 263.129 25.5327C263.311 25.4834 263.521 25.4266 263.778 25.3945C263.943 25.3737 264.067 25.5184 264.167 25.6363C264.197 25.671 264.225 25.7035 264.251 25.7287C264.341 25.8152 264.381 25.6875 264.429 25.5367C264.491 25.3408 264.564 25.106 264.775 25.2494C265.446 25.7068 265.578 25.2515 265.679 24.9069C265.709 24.8058 265.735 24.7145 265.772 24.6583C265.892 24.4763 266.146 24.5651 266.361 24.7202C266.531 24.843 266.756 24.6249 266.909 24.3801C266.967 24.2876 267.069 24.2609 267.189 24.2298C267.313 24.1976 267.457 24.1607 267.591 24.0402C267.93 23.7355 268.112 23.5836 268.26 23.4617C268.301 23.427 268.341 23.3951 268.38 23.3623C268.502 23.2589 268.661 23.1596 268.823 23.0592C269.016 22.9392 269.212 22.8173 269.352 22.6842C269.795 22.6824 270.245 22.7043 270.694 22.7262C270.925 22.7381 271.218 23.0474 271.513 23.6027C271.807 24.1585 272.079 24.9103 272.272 25.7109C272.464 26.5114 272.564 27.3045 272.555 27.9335C272.545 28.5621 272.425 28.9714 272.225 29.087C271.822 29.3184 271.419 29.55 271.011 29.7555C270.513 30.0061 270.007 30.2185 269.481 30.346C269.112 30.4354 268.74 30.5058 268.364 30.5611C268.325 30.5668 268.286 30.5722 268.247 30.5776C267.987 30.8498 267.722 31.1045 267.522 31.2214C267.355 31.3181 267.199 31.2451 267.065 31.1827C266.974 31.1397 266.892 31.1018 266.825 31.1275C266.789 31.1413 266.742 31.1659 266.685 31.1955C266.451 31.3162 266.055 31.5218 265.622 31.4256C265.431 31.3827 265.19 31.2647 264.962 31.1517C264.634 30.9903 264.328 30.8403 264.217 30.9381C264.022 31.1098 263.742 31.0771 263.494 31.0485C263.258 31.0209 263.05 30.9977 262.977 31.1579C262.89 31.3495 262.764 31.3129 262.577 31.259C262.447 31.2216 262.289 31.176 262.092 31.1922C261.866 31.2108 261.684 31.1397 261.529 31.0794C261.311 30.9944 261.146 30.9308 260.99 31.1689C260.817 31.4331 260.612 31.6268 260.409 31.6121C260.315 31.6057 260.22 31.639 260.12 31.6738C259.989 31.7197 259.851 31.7682 259.702 31.73C259.58 31.6986 259.451 31.568 259.335 31.4529C259.299 31.417 259.265 31.3827 259.233 31.3532C259.148 31.3784 259.065 31.4044 258.982 31.4322C258.975 31.4608 258.968 31.4922 258.961 31.5246C258.925 31.6877 258.88 31.8878 258.79 32.0063C258.649 32.1937 258.465 32.1523 258.273 32.1077C258.124 32.0728 257.966 32.0374 257.819 32.1079C257.719 32.1558 257.616 32.2533 257.515 32.3496C257.463 32.3996 257.411 32.4492 257.36 32.4918C257.263 32.5714 257.169 32.6262 257.079 32.6115C257.028 32.603 256.961 32.5179 256.895 32.4333C256.894 32.4327 256.894 32.4322 256.894 32.4317C256.889 32.4259 256.885 32.4203 256.88 32.4146C256.605 32.5746 256.336 32.7424 256.068 32.9155C256.049 32.9479 256.031 32.98 256.013 33.0116C255.923 33.1664 255.838 33.3162 255.808 33.5019C255.775 33.7031 255.594 33.8693 255.401 34.046C255.276 34.1613 255.146 34.2811 255.053 34.4165C254.998 34.4956 254.9 34.4181 254.796 34.3387C254.701 34.2644 254.602 34.1883 254.536 34.2357C254.502 34.2594 254.476 34.3128 254.447 34.37C254.421 34.4204 254.394 34.4738 254.36 34.512C254.329 34.5474 254.226 34.521 254.094 34.4878C254.012 34.4675 253.919 34.4447 253.825 34.4316C253.63 34.5619 253.434 34.6903 253.237 34.8153C253.22 34.9161 253.218 35.0407 253.234 35.1943C253.246 35.3046 253.268 35.4338 253.29 35.566C253.32 35.7458 253.351 35.9317 253.361 36.0851C253.368 36.2049 253.348 36.2601 253.31 36.2219C253.292 36.2041 253.271 36.1666 253.251 36.1326C253.229 36.0938 253.209 36.0592 253.2 36.0634C253.194 36.0664 253.196 36.0983 253.2 36.1368C253.205 36.1984 253.211 36.2779 253.185 36.2895C253.088 36.3323 252.964 36.3473 252.844 36.3614C252.711 36.377 252.58 36.3933 252.49 36.4478C252.39 36.5089 252.196 36.4524 252.004 36.3961C251.869 36.3571 251.734 36.3188 251.63 36.3197C251.528 36.3205 251.452 36.4139 251.38 36.5045C251.294 36.6133 251.21 36.7185 251.086 36.6542C251.061 36.6411 250.997 36.5308 250.918 36.3928C250.861 36.295 250.796 36.1833 250.731 36.082C250.615 36.1223 250.497 36.1579 250.378 36.1893C250.38 36.2067 250.381 36.2245 250.383 36.2427C250.383 36.2431 250.383 36.2435 250.383 36.2439C250.418 36.6532 250.468 37.2123 250.178 36.9701C250.104 36.9085 250.024 36.775 249.952 36.6548C249.881 36.5368 249.818 36.4312 249.776 36.4192C249.727 36.4057 249.709 36.4998 249.689 36.6023C249.662 36.7461 249.631 36.9068 249.509 36.8105C249.5 36.8039 249.491 36.7967 249.482 36.7895C249.394 36.7214 249.264 36.6209 249.087 36.3883C248.813 36.4065 248.535 36.4135 248.253 36.4133C247.784 36.4132 247.305 36.3935 246.826 36.3747C246.592 36.3646 246.268 36.0786 245.917 35.56C245.567 35.0406 245.22 34.3353 244.945 33.5755C244.671 32.8158 244.487 32.0524 244.424 31.4287C244.363 30.8057 244.43 30.3783 244.605 30.2207C244.891 29.9654 245.177 29.7098 245.469 29.4647C245.481 29.4426 245.493 29.421 245.506 29.4003C245.599 29.2467 245.644 28.989 245.689 28.7309C245.7 28.6716 245.711 28.6122 245.722 28.5541Z" fill="black"/>
<path d="M307.16 9.75166C306.596 10.4642 305.131 11.0776 304.335 11.4478C304.321 11.4546 304.306 11.4615 304.291 11.4684C304.102 11.5555 303.93 11.6506 303.732 11.7629C303.255 12.0366 302.612 12.3935 301.195 13.0518C300.827 13.3123 300.465 13.5716 300.099 13.8345C296.245 16.6182 292.3 19.8966 290.089 23.301C290.07 23.3437 290.051 23.3879 290.031 23.4337C289.986 23.5388 289.945 23.6419 289.908 23.7405C290.053 23.4194 289.997 23.3909 290.022 23.6026C290.037 23.8062 290.096 24.1534 290.133 24.4675C290.243 25.3796 290.462 26.2006 290.616 26.8234C292.083 30.3146 294.342 33.905 296.7 37.3047C297.45 38.3782 298.218 39.4327 299.013 40.4809C299.744 41.4462 300.488 42.4011 301.242 43.3503C301.74 43.8628 302.225 44.3325 302.679 44.7743C303.313 45.3895 303.882 45.9434 304.303 46.4336C305.319 47.6171 306.275 49.1168 306.979 50.2347C307.094 50.4174 307.203 50.5901 307.304 50.7494C307.325 50.7742 307.345 50.799 307.366 50.8238C308.338 52.025 308.948 53.5197 309.204 54.9239C309.186 55.0261 309.166 55.128 309.144 55.2304C308.857 56.4943 308.844 57.8625 308.439 59.8099C308.292 60.5081 308.091 61.2721 307.809 62.1013C307.769 62.2795 307.509 62.716 307.413 62.8715C307.305 63.0106 307.194 63.1516 307.078 63.2944C306.646 63.8276 306.286 64.0042 305.999 64.1411C305.914 64.1815 305.835 64.219 305.76 64.2616C305.508 64.405 305.407 64.7081 305.29 65.0568C305.14 65.5053 304.939 66.0636 304.32 66.4651C302.343 67.732 301.897 68.6706 301.543 69.4264C301.437 69.6465 301.34 69.8446 301.214 70.0172C300.801 70.5838 299.956 71.0994 299.253 71.3909C298.703 71.6223 297.864 72.4425 297.236 73.1031C296.999 73.3543 296.617 73.6077 296.163 73.8918C295.689 74.1877 295.136 74.517 294.573 74.9234C293.138 75.9498 292.315 76.4158 291.66 76.7945C291.472 76.9015 291.298 76.9978 291.12 77.0956C290.566 77.4015 289.851 77.7393 289.123 78.0533C288.251 78.4313 287.355 78.7774 286.685 79.0644C286.272 79.156 285.86 79.24 285.453 79.3169C285.415 79.3303 285.294 79.3501 285.255 79.3614C283.786 79.5639 282.288 79.6677 280.832 79.6881C279.867 79.7022 278.953 79.3753 278.29 78.7944C277.627 78.2125 277.25 77.431 277.217 76.6085C277.185 75.7855 277.51 74.9788 278.1 74.3441C278.692 73.7093 279.482 73.301 280.294 73.1678C281.523 72.9687 282.703 72.7083 283.88 72.3872L283.712 72.425C284.107 72.2954 284.501 72.1614 284.89 72.024C286.783 71.3557 288.572 70.5937 290.309 69.7344C291.521 69.1355 292.699 68.4694 293.846 67.7306C293.963 67.6547 294.079 67.5793 294.197 67.5017C295.019 66.679 295.787 65.8228 296.349 65.2501C296.816 64.7765 297.244 64.5276 297.609 64.3106C297.862 64.1593 298.086 64.0206 298.263 63.8337C298.358 63.733 298.485 63.5887 298.635 63.4141C299.252 62.7041 300.244 61.464 301.317 60.4379C301.698 60.0756 302.152 59.6922 302.613 59.2916L302.105 60.2813C302.181 60.154 302.256 60.0266 302.329 59.9011C302.84 59.0335 303.22 58.2228 303.209 57.8003C303.198 57.058 303.314 56.3159 303.306 55.7302C303.304 55.1727 303.192 54.7463 302.961 54.6122C302.822 54.5318 302.739 54.4467 302.667 54.3338C302.519 54.1201 302.385 53.8735 302.226 53.5796C302.001 53.1659 301.724 52.6574 301.281 52.0161C300.77 51.2758 300.475 50.6987 300.225 50.2089C299.871 49.5171 299.607 49.0007 298.935 48.4336C298.192 47.8084 297.479 47.0982 297.055 46.4325C296.861 46.1288 296.609 45.8113 296.344 45.4762C295.991 45.0302 295.629 44.5721 295.358 44.0895C295.136 43.6942 295.042 43.3056 294.958 42.9597C294.931 42.8511 294.905 42.7471 294.877 42.6488C294.66 42.3646 294.444 42.0823 294.228 41.8026C294.172 41.7716 294.113 41.7396 294.051 41.7062C293.741 41.5386 293.36 41.3329 293.001 41.0009C292.423 40.4632 292.099 39.8747 291.751 39.2376C291.486 38.7501 291.203 38.2282 290.798 37.7095C290.52 37.3534 290.162 36.9625 289.82 36.5855C289.297 36.0067 288.796 35.4408 288.549 34.9658C288.458 34.7887 288.451 34.5975 288.439 34.3985C288.439 34.3975 288.439 34.3966 288.439 34.3956C288.438 34.3822 288.437 34.3688 288.436 34.3554C287.664 33.3279 286.893 32.2688 286.154 31.1621C286.075 31.0753 285.995 30.9875 285.918 30.9006C285.527 30.4582 285.17 30.0396 284.843 29.769C284.497 29.4902 283.939 28.6337 283.409 27.5627C283.056 26.8425 282.735 26.0673 282.478 25.2766C282.334 24.8438 282.367 24.317 282.454 23.8005C282.535 23.2813 282.652 22.7622 282.753 22.1008C282.802 21.7855 282.864 21.3803 282.978 20.9669C282.994 20.9078 283.012 20.8481 283.031 20.788C283.069 20.6122 283.115 20.4279 283.179 20.2408C283.253 20.0265 283.507 19.6341 283.851 19.1664C284.065 18.8754 284.31 18.5616 284.565 18.2346C285.09 17.2852 285.662 16.4003 286.268 15.5521C286.332 15.3274 286.361 15.1061 286.342 14.8925C286.33 14.7375 286.286 14.5883 286.246 14.4307C286.19 14.2171 286.134 13.9948 286.144 13.7565C286.151 13.5712 286.234 13.4062 286.343 13.3553C286.395 13.3308 286.453 13.3287 286.506 13.3268C286.567 13.3246 286.621 13.3226 286.651 13.2877C286.672 13.2625 286.672 13.2162 286.672 13.1594C286.673 13.0688 286.675 12.9509 286.765 12.8488C287.1 12.467 287.504 12.0764 287.909 11.7007C288.358 11.2843 288.804 10.8889 289.134 10.5469C289.503 10.1625 290.143 9.73442 290.776 9.33791C291.226 9.05385 291.671 8.78489 292.038 8.52708C292.402 8.27036 292.705 7.94706 293.018 7.62471C293.391 7.23942 293.745 6.88184 294.157 6.70412C294.241 6.66772 294.399 6.70667 294.6 6.7542C294.742 6.7881 294.904 6.82684 295.073 6.84932C295.514 6.53221 295.956 6.22983 296.409 5.93441C296.415 5.90967 296.422 5.88433 296.428 5.85867C296.428 5.85815 296.428 5.85764 296.428 5.85713C296.576 5.277 296.784 4.48357 297.689 4.29614C297.916 4.25038 298.113 4.30753 298.29 4.35938C298.464 4.41032 298.619 4.45651 298.767 4.39568C298.936 4.32612 299.072 4.14652 299.222 3.95212C299.433 3.67889 299.676 3.37273 300.059 3.30404C300.085 3.29946 300.113 3.29497 300.142 3.28985C300.414 3.24153 300.819 3.17117 301.292 3.22877C302.324 2.74488 303.371 2.30193 304.435 1.89347C306.203 1.21489 308.002 0.638142 309.809 0.142341C310.686 -0.0976092 311.645 -0.0348191 312.431 0.338792C313.225 0.710935 313.8 1.34804 314.048 2.11645C314.297 2.88534 314.209 3.73245 313.847 4.49712C313.49 5.25977 312.87 5.88173 312.14 6.25554C310.944 6.86447 309.768 7.51458 308.625 8.18704C308.569 8.23155 308.512 8.27573 308.455 8.31891C308.033 8.64073 307.709 9.04946 307.382 9.46628C307.308 9.56164 307.234 9.65723 307.16 9.75166Z" fill="black"/>
</svg>
